<?xml version="1.0" encoding="UTF-8" standalone="no"?>
<!-- Generator: Adobe Illustrator 18.1.1, SVG Export Plug-In . SVG Version: 6.00 Build 0)  -->

<svg
   xmlns:dc="http://purl.org/dc/elements/1.1/"
   xmlns:cc="http://creativecommons.org/ns#"
   xmlns:rdf="http://www.w3.org/1999/02/22-rdf-syntax-ns#"
   xmlns:svg="http://www.w3.org/2000/svg"
   xmlns="http://www.w3.org/2000/svg"
   xmlns:sodipodi="http://sodipodi.sourceforge.net/DTD/sodipodi-0.dtd"
   xmlns:inkscape="http://www.inkscape.org/namespaces/inkscape"
   version="1.1"
   id="Capa_1"
   x="0px"
   y="0px"
   viewBox="0 0 264.05 264.05"
   style="enable-background:new 0 0 264.05 264.05;"
   xml:space="preserve"
   sodipodi:docname="avatar_secondary.svg"
   inkscape:version="0.92.4 (5da689c313, 2019-01-14)"><metadata
   id="metadata43"><rdf:RDF><cc:Work
       rdf:about=""><dc:format>image/svg+xml</dc:format><dc:type
         rdf:resource="http://purl.org/dc/dcmitype/StillImage" /><dc:title></dc:title></cc:Work></rdf:RDF></metadata><defs
   id="defs41" /><sodipodi:namedview
   pagecolor="#ffffff"
   bordercolor="#666666"
   borderopacity="1"
   objecttolerance="10"
   gridtolerance="10"
   guidetolerance="10"
   inkscape:pageopacity="0"
   inkscape:pageshadow="2"
   inkscape:window-width="1366"
   inkscape:window-height="705"
   id="namedview39"
   showgrid="false"
   inkscape:zoom="1.2639819"
   inkscape:cx="91.559906"
   inkscape:cy="96.635377"
   inkscape:window-x="-8"
   inkscape:window-y="-8"
   inkscape:window-maximized="1"
   inkscape:current-layer="Capa_1" />
<g
   id="g6">
	<circle
   style="fill:#010002;"
   cx="126.77"
   cy="69.218"
   r="69.218"
   id="circle2" />
	<path
   style="fill:#010002;"
   d="M50.204,150.428l-22.86,49.702c-4.058,11.308,1.316,24.927,11.999,30.426l72.807,29.05   c10.682,5.499,28.229,5.956,39.188,1.023l74.542-31.095c10.954-4.933,15.327-17.563,9.763-28.212l-29.578-52.09   c-5.564-10.644-16.692-11.95-26.825-5.488c-11.732,7.484-29.436,15.218-52.471,15.218s-40.739-7.734-52.471-15.213   C64.166,137.287,54.261,139.12,50.204,150.428z"
   id="path4" />
</g>
<g
   id="g8">
</g>
<g
   id="g10">
</g>
<g
   id="g12">
</g>
<g
   id="g14">
</g>
<g
   id="g16">
</g>
<g
   id="g18">
</g>
<g
   id="g20">
</g>
<g
   id="g22">
</g>
<g
   id="g24">
</g>
<g
   id="g26">
</g>
<g
   id="g28">
</g>
<g
   id="g30">
</g>
<g
   id="g32">
</g>
<g
   id="g34">
</g>
<g
   id="g36">
</g>
<path
   style="stroke-width:1.11885583"
   d="M 115.46593,137.07008 C 103.4,135.05029 88.216144,127.20142 79.213195,118.33024 65.890264,105.2023 59.45356,90.806413 58.672343,72.389975 57.772944,51.18752 63.720321,36.151527 79.039688,20.897819 93.061176,6.9364297 107.48752,0.86769746 126.65449,0.86769746 c 15.90943,0 29.21383,4.52543564 42.18266,14.34825954 16.93872,12.829684 26.06754,31.913456 26.06754,54.494095 0,38.155588 -31.20681,68.770548 -69.29483,67.980628 -4.04074,-0.0838 -8.60551,-0.36307 -10.14393,-0.6206 z"
   id="path3748"
   inkscape:connector-curvature="0" /><path
   style="stroke-width:1.11885583"
   d="M 111.45781,136.18435 C 96.172162,132.85825 79.51298,121.44867 70.339936,108.02345 62.734904,96.893101 59.225671,86.188859 58.658008,72.389975 57.784838,51.164778 63.732004,36.139894 79.039688,20.897819 95.716583,4.2924029 116.23814,-2.3077486 138.64099,1.7288222 c 23.82166,4.2922131 45.01156,22.1339028 52.88289,44.5268888 3.13176,8.909446 4.32921,28.421201 2.31565,37.732071 -5.43561,25.134808 -27.20268,46.886348 -52.22494,52.187688 -9.37461,1.98615 -21.0541,1.98959 -30.15678,0.009 z"
   id="path3750"
   inkscape:connector-curvature="0" /><path
   style="stroke-width:1.11885583"
   d="M 110.60605,136.0737 C 94.16437,132.09309 76.209241,118.69044 67.438276,103.85098 59.160184,89.845416 56.215118,69.507738 60.087043,53.085719 65.54932,29.918528 86.02267,9.051323 109.87165,2.3433857 c 2.76917,-0.7788765 10.32144,-1.44060752 16.78284,-1.47051342 9.43575,-0.0436723 13.3568,0.46919372 19.9221,2.60577392 15.54259,5.0581137 28.31039,14.5277108 36.89692,27.3656538 7.78638,11.641597 10.42096,19.843828 11.1401,34.68236 0.71789,14.812807 -0.58495,21.518034 -6.64299,34.188964 -8.48765,17.752666 -26.10171,31.791306 -45.65215,36.385396 -8.93337,2.09922 -22.97884,2.08711 -31.71242,-0.0273 z"
   id="path3752"
   inkscape:connector-curvature="0" /><path
   style="stroke-width:1.11885583"
   d="M 110.60605,136.0737 C 92.613817,131.71769 74.090614,117.11715 65.963781,100.88532 60.439882,89.852365 58.404277,81.330868 58.404277,69.239553 c 0,-18.389274 6.045779,-33.385918 18.925453,-46.944865 14.20153,-14.9505181 29.13309,-21.44117763 49.32476,-21.44117763 8.9481,0 13.61457,0.58304073 19.57997,2.44637343 20.95224,6.5445683 38.1222,22.9387922 45.48743,43.4323152 2.99575,8.335598 4.1147,28.021036 2.11764,37.255583 -5.37066,24.834488 -26.5347,46.241788 -51.52106,52.113238 -8.93337,2.09922 -22.97884,2.08711 -31.71242,-0.0273 z"
   id="path3754"
   inkscape:connector-curvature="0" /><path
   style="fill:#b28e5c;fill-opacity:1;stroke-width:1.11885583"
   d="m 110.43108,136.07964 c -18.694364,-4.90968 -37.287147,-19.91253 -45.201621,-36.474 -4.22986,-8.851213 -7.38461,-21.974054 -7.38461,-30.717826 0,-19.4593 10.702235,-41.085004 26.448474,-53.443687 46.645097,-36.610133 114.204067,-1.21162 110.817977,58.064704 -1.11169,19.461157 -10.48769,37.291559 -26.15305,49.735389 -6.88577,5.46975 -19.815,11.61547 -28.09342,13.35382 -8.07693,1.69603 -22.96779,1.44237 -30.43375,-0.5184 z"
   id="path4579"
   inkscape:connector-curvature="0" /><path
   style="fill:#b28e5c;fill-opacity:1;stroke-width:0.79115057"
   d="m 122.72065,262.74124 c -1.9008,-0.37355 -21.60977,-7.89992 -43.797701,-16.72526 -35.255816,-14.02314 -40.805767,-16.4579 -44.022751,-19.31269 -6.325704,-5.61352 -9.699981,-14.92401 -8.104647,-22.3628 0.778834,-3.63157 23.926788,-55.06214 26.659791,-59.23323 0.690602,-1.05399 2.875584,-2.63293 4.855515,-3.50875 5.052756,-2.23507 8.470915,-1.48671 18.418887,4.03257 9.902088,5.49382 16.641729,8.24668 26.840856,10.96336 6.70529,1.78605 9.20787,2.02635 21.8149,2.0947 20.01623,0.10853 31.85139,-2.59809 47.06383,-10.76315 12.64985,-6.78963 13.31596,-7.09188 16.60003,-7.53237 4.71872,-0.63291 9.70763,1.06963 12.92092,4.40945 2.49252,2.59067 30.33063,50.45714 33.88725,58.26771 0.88349,1.9402 1.44775,5.04279 1.45841,8.01896 0.0221,6.16854 -2.95554,12.29808 -7.53911,15.51953 -4.41084,3.10005 -81.58234,35.12751 -87.09809,36.14714 -5.25427,0.97131 -14.97612,0.96392 -19.95809,-0.0152 z"
   id="path4593"
   inkscape:connector-curvature="0" /></svg>