<svg id="Capa_1" data-name="Capa 1" xmlns="http://www.w3.org/2000/svg" xmlns:xlink="http://www.w3.org/1999/xlink" width="1717.8" height="96.1" viewBox="0 0 1717.8 96.1">
  <defs>
    <style>
      .cls-1 {
        fill: url(#Degradado_sin_nombre_46);
      }

      .cls-2 {
        fill: #fff;
      }

      .cls-3 {
        fill: none;
      }

      .cls-4 {
        fill: url(#Degradado_sin_nombre_2);
      }

      .cls-5 {
        fill: url(#Degradado_sin_nombre_2-2);
      }

      .cls-6 {
        fill: url(#Degradado_sin_nombre_58);
      }

      .cls-7 {
        fill: url(#Degradado_sin_nombre_58-2);
      }

      .cls-8 {
        fill: url(#Degradado_sin_nombre_58-3);
      }

      .cls-9 {
        fill: url(#Degradado_sin_nombre_58-4);
      }

      .cls-10 {
        fill: url(#Degradado_sin_nombre_58-5);
      }

      .cls-11 {
        fill: url(#Degradado_sin_nombre_58-6);
      }

      .cls-12 {
        fill: url(#Degradado_sin_nombre_58-7);
      }

      .cls-13 {
        fill: url(#Degradado_sin_nombre_58-8);
      }

      .cls-14 {
        fill: url(#Degradado_sin_nombre_58-9);
      }

      .cls-15 {
        fill: url(#Degradado_sin_nombre_58-10);
      }

      .cls-16 {
        fill: url(#Degradado_sin_nombre_58-11);
      }

      .cls-17 {
        fill: url(#Degradado_sin_nombre_58-12);
      }

      .cls-18 {
        fill: url(#Degradado_sin_nombre_58-13);
      }

      .cls-19 {
        fill: url(#Degradado_sin_nombre_58-14);
      }

      .cls-20 {
        fill: url(#Degradado_sin_nombre_58-15);
      }

      .cls-21 {
        fill: url(#Degradado_sin_nombre_58-16);
      }

      .cls-22 {
        fill: url(#Degradado_sin_nombre_58-17);
      }

      .cls-23 {
        fill: url(#Degradado_sin_nombre_58-18);
      }

      .cls-24 {
        fill: #9f2241;
      }
    </style>
    <linearGradient id="Degradado_sin_nombre_46" data-name="Degradado sin nombre 46" x1="860.11" y1="95.69" x2="860.11" y2="0.14" gradientUnits="userSpaceOnUse">
      <stop offset="0" stop-color="#740320"/>
      <stop offset="0.56" stop-color="#9f2241"/>
      <stop offset="1" stop-color="#9f2241"/>
    </linearGradient>
    <linearGradient id="Degradado_sin_nombre_2" data-name="Degradado sin nombre 2" x1="971.81" y1="81.41" x2="971.81" y2="50.86" gradientUnits="userSpaceOnUse">
      <stop offset="0.52" stop-color="#ddc480"/>
      <stop offset="1" stop-color="#bc955c"/>
    </linearGradient>
    <linearGradient id="Degradado_sin_nombre_2-2" x1="970.69" y1="86.88" x2="970.69" y2="12.48" xlink:href="#Degradado_sin_nombre_2"/>
    <linearGradient id="Degradado_sin_nombre_58" data-name="Degradado sin nombre 58" x1="717.48" y1="55.34" x2="717.48" y2="14.06" gradientUnits="userSpaceOnUse">
      <stop offset="0" stop-color="#bc955c"/>
      <stop offset="0.52" stop-color="#ddc480"/>
      <stop offset="1" stop-color="#bc955c"/>
    </linearGradient>
    <linearGradient id="Degradado_sin_nombre_58-2" x1="754.57" y1="55.34" x2="754.57" y2="14.06" xlink:href="#Degradado_sin_nombre_58"/>
    <linearGradient id="Degradado_sin_nombre_58-3" x1="795.59" y1="56.44" x2="795.59" y2="13.07" xlink:href="#Degradado_sin_nombre_58"/>
    <linearGradient id="Degradado_sin_nombre_58-4" x1="841.46" y1="55.34" x2="841.46" y2="14.06" xlink:href="#Degradado_sin_nombre_58"/>
    <linearGradient id="Degradado_sin_nombre_58-5" x1="882.24" y1="56.44" x2="882.24" y2="13.07" xlink:href="#Degradado_sin_nombre_58"/>
    <linearGradient id="Degradado_sin_nombre_58-6" x1="707.59" y1="80.62" x2="707.59" y2="64.34" xlink:href="#Degradado_sin_nombre_58"/>
    <linearGradient id="Degradado_sin_nombre_58-7" x1="724.18" y1="80.62" x2="724.18" y2="64.34" xlink:href="#Degradado_sin_nombre_58"/>
    <linearGradient id="Degradado_sin_nombre_58-8" x1="741.88" y1="80.62" x2="741.88" y2="64.34" xlink:href="#Degradado_sin_nombre_58"/>
    <linearGradient id="Degradado_sin_nombre_58-9" x1="758.58" y1="80.62" x2="758.58" y2="64.34" xlink:href="#Degradado_sin_nombre_58"/>
    <linearGradient id="Degradado_sin_nombre_58-10" x1="775.23" y1="81.06" x2="775.23" y2="63.95" xlink:href="#Degradado_sin_nombre_58"/>
    <linearGradient id="Degradado_sin_nombre_58-11" x1="792.1" y1="81.06" x2="792.1" y2="63.95" xlink:href="#Degradado_sin_nombre_58"/>
    <linearGradient id="Degradado_sin_nombre_58-12" x1="812.44" y1="81.06" x2="812.44" y2="63.97" xlink:href="#Degradado_sin_nombre_58"/>
    <linearGradient id="Degradado_sin_nombre_58-13" x1="840.33" y1="80.62" x2="840.33" y2="64.17" xlink:href="#Degradado_sin_nombre_58"/>
    <linearGradient id="Degradado_sin_nombre_58-14" x1="857.03" y1="81.06" x2="857.03" y2="64.17" xlink:href="#Degradado_sin_nombre_58"/>
    <linearGradient id="Degradado_sin_nombre_58-15" x1="872.81" y1="80.62" x2="872.81" y2="64.17" xlink:href="#Degradado_sin_nombre_58"/>
    <linearGradient id="Degradado_sin_nombre_58-16" x1="889.51" y1="81.06" x2="889.51" y2="64.17" xlink:href="#Degradado_sin_nombre_58"/>
    <linearGradient id="Degradado_sin_nombre_58-17" x1="449.87" y1="73.07" x2="684.5" y2="73.07" xlink:href="#Degradado_sin_nombre_58"/>
    <linearGradient id="Degradado_sin_nombre_58-18" x1="1048.9" y1="73.07" x2="1283.53" y2="73.07" xlink:href="#Degradado_sin_nombre_58"/>
  </defs>
  <title>Becas Tabasco</title>
  <rect class="cls-1" x="-0.8" y="0.1" width="1721.8" height="95.55"/>
  <g>
    <g>
      <path class="cls-2" d="M101.2,54.5q-7.7-.2-15.3,0v-.3c2.2-.6,2.6-.9,2.6-2.7V38.2c0-1.8-.4-2.2-2.6-2.7v-.3h15c-.1,1.7-.2,3.3-.2,5h-.3c-1.1-2.7-2.6-3.6-7.1-3.6h-.4v7h.8c2.3,0,3.3-.8,4.5-2.9h.3a42.1,42.1,0,0,0,0,7.1h-.3c-1.1-2.1-2.3-2.9-4.5-2.9h-.8v8.2h.4c4.7,0,6.2-1,7.5-4.5h.3C101.1,50.6,101.1,52.5,101.2,54.5Z"/>
      <path class="cls-2" d="M123.7,44.5c0,6-4.4,10.3-11.2,10-3-.1-5.9-.1-8.9,0v-.3c2.2-.6,2.5-.9,2.5-2.7V38.2c0-1.8-.3-2.2-2.5-2.7v-.3h7.6C119.1,34.9,123.7,38.4,123.7,44.5Zm-5,.8c0-6.1-2.5-8.7-7.3-8.7h-.9V53h2.3C116.4,53.1,118.7,50,118.7,45.3Z"/>
      <path class="cls-2" d="M127.2,47.6V38.2c0-1.8-.4-2.2-2.6-2.7v-.3h9.5v.3c-2.2.5-2.5.9-2.5,2.7v8.3c0,4.8,1.5,6.9,5,6.9s4.9-2.2,4.9-6V38.2c0-1.8-.3-2.2-2.9-2.7v-.3h7.2v.3c-2.3.5-2.6.9-2.6,2.7v8.9c0,4.9-2.9,7.9-7.9,7.9S127.2,52.2,127.2,47.6Z"/>
      <path class="cls-2" d="M146.7,45c0-5.9,4.8-10.3,11.1-10.3a25.2,25.2,0,0,1,5.4.8c-.1,1.8-.2,3.6-.2,5.5h-.3c-.5-1.2-1.9-4.9-5.4-4.9s-5.6,3.4-5.6,8.1,2.3,9.4,5.8,9.4c1.8,0,3.7-1,5.1-4.9h.4a48.7,48.7,0,0,0,.2,5.4,19.3,19.3,0,0,1-6,.9C150.9,55,146.7,51,146.7,45Z"/>
      <path class="cls-2" d="M164.7,54.2c1.4-.4,2.3-1.1,3.8-4.5L174.8,35h.5l7.6,16.3c.8,1.8.9,2.3,2.8,2.9v.3c-3.1-.1-6.3-.1-9.4,0v-.3c1.2-.4,1.8-.6,1.8-1.4a4.5,4.5,0,0,0-.3-1.3l-1-2.3h-6.4l-.5,1.1a6.8,6.8,0,0,0-.4,1.7c0,1.1.8,1.7,2.6,2.2v.3c-2.5-.1-4.9-.1-7.4,0Zm11.6-6.4-2.6-6.1h-.2L171,47.8Z"/>
      <path class="cls-2" d="M185.4,45c0-5.9,4.7-10.3,11-10.3a26.1,26.1,0,0,1,5.5.8,49.6,49.6,0,0,0-.2,5.5h-.3c-.5-1.2-1.9-4.9-5.4-4.9s-5.6,3.4-5.6,8.1,2.3,9.4,5.7,9.4,3.8-1,5.2-4.9h.4a48.7,48.7,0,0,0,.2,5.4,19.5,19.5,0,0,1-6.1.9C189.6,55,185.4,51,185.4,45Z"/>
      <path class="cls-2" d="M213.4,54.2v.3c-3.1-.1-6.3-.1-9.4,0v-.3c2.2-.6,2.5-.9,2.5-2.7V38.2c0-1.8-.3-2.2-2.5-2.7v-.3h9.4v.3c-2.2.5-2.5.9-2.5,2.7V51.5C210.9,53.3,211.2,53.6,213.4,54.2Z"/>
      <path class="cls-2" d="M235.4,44.7c0,6.1-4.3,10.3-10.4,10.3s-9.8-4.1-9.8-10a9.9,9.9,0,0,1,10.2-10.3C231.4,34.7,235.4,38.7,235.4,44.7ZM230.5,46c0-6.2-2-9.9-5.4-9.9s-4.9,2.8-4.9,7.5c0,6.3,1.9,10,5.3,10S230.5,50.8,230.5,46Zm-8.1-12.5a5.5,5.5,0,0,1,6.1-5l.2.2a2.8,2.8,0,0,1,.1.9c0,2.7-3.8,2.6-6.1,4.1Z"/>
      <path class="cls-2" d="M241.9,40.4h-.3V51.5c0,1.8.4,2.1,3.4,2.7v.3c-2.6-.1-5.2-.1-7.9,0v-.3c2.5-.6,2.9-.9,2.9-2.7V38.2c0-1.8-.4-2.2-2.8-2.7v-.3h6.2l10.7,12.3h.3V38.2c0-1.8-.4-2.2-3.4-2.7v-.3h7.5v.3c-2.2.5-2.5.9-2.5,2.7V54.7h-1.6Z"/>
    </g>
    <g>
      <path class="cls-2" d="M85.7,67c0-.6.1-1.1.1-1.7h.1c.5,1.2,1,1.8,1.7,1.8a1.2,1.2,0,0,0,1.2-1.3c0-.8-.7-1.3-1.5-1.7s-1.7-1-1.7-2a1.9,1.9,0,0,1,2-1.9,4.7,4.7,0,0,1,1.7.4v1.5h-.1c-.3-.7-.7-1.5-1.7-1.5a1.1,1.1,0,0,0-1.2,1.1c0,.7.7,1.1,1.5,1.6s1.8,1,1.8,2.1a2.1,2.1,0,0,1-2.1,2.1A3.1,3.1,0,0,1,85.7,67Z"/>
      <path class="cls-2" d="M95.3,67.3H90.4c.7-.1.9-.3.9-.7V61.2c0-.4-.2-.6-.9-.7h4.9a10.9,10.9,0,0,0-.1,1.8h-.1c-.3-1.2-.8-1.5-2.3-1.5h-.6v2.8H93a1.3,1.3,0,0,0,1.4-1h0v2.3h0c-.3-.8-.6-1-1.4-1h-.8v3.1h.6c1.5,0,1.9-.3,2.3-1.6h.1A13.4,13.4,0,0,0,95.3,67.3Z"/>
      <path class="cls-2" d="M96.1,63.9a3.6,3.6,0,0,1,3.8-3.7,7.8,7.8,0,0,1,2.2.4c0,.6-.1,1.2-.1,1.8h0c-.5-.9-.9-1.8-2.2-1.8s-2.6,1.3-2.6,3.1,1.1,3.4,2.6,3.4,1.7-.7,2.2-2h.1a10.9,10.9,0,0,0,.1,1.8,6.1,6.1,0,0,1-2.5.6A3.5,3.5,0,0,1,96.1,63.9Z"/>
      <path class="cls-2" d="M109.3,67.2h0l-.9.2c-.3,0-.5-.2-.8-.6L106,64.3h-.2l-.7-.2v2.4c0,.4.1.6.9.7h-2.8c.8-.1,1-.3,1-.7V61.2c0-.4-.2-.6-1-.7h2.4c1.7-.1,2.7.7,2.7,1.8a2,2,0,0,1-1.5,1.9l1.1,1.8C108.4,66.6,108.9,67.2,109.3,67.2Zm-2-4.9c0-1-.6-1.6-1.8-1.6h-.4v3h.7A1.4,1.4,0,0,0,107.3,62.3Z"/>
      <path class="cls-2" d="M114.7,67.3h-4.9c.7-.1.9-.3.9-.7V61.2c0-.4-.2-.6-.9-.7h4.9a10.9,10.9,0,0,0-.1,1.8h-.1c-.3-1.2-.8-1.5-2.3-1.5h-.6v2.8h.8a1.3,1.3,0,0,0,1.4-1h.1a8.8,8.8,0,0,0,0,2.3h-.1c-.3-.8-.6-1-1.4-1h-.8v3.1h.6c1.5,0,1.9-.3,2.3-1.6h.1A13.4,13.4,0,0,0,114.7,67.3Z"/>
      <path class="cls-2" d="M116.9,67.2c1-.1,1.1-.3,1.1-.7V60.7h-.6c-1,0-1.5.6-1.8,1.8h-.1a14.8,14.8,0,0,0-.1-2.1h6.1v2.1h-.1c-.3-1.2-.8-1.8-1.8-1.8h-.7v5.8c0,.4.2.6,1.2.7h-3.2Z"/>
      <path class="cls-2" d="M120.9,67.2a1.4,1.4,0,0,0,1-1l2.5-5.9h.1l2.8,6.2a1,1,0,0,0,.9.7h-2.8c.5-.1.9-.2.9-.5a.3.3,0,0,0-.1-.2l-.6-1.4h-2.8l-.4,1.1a.6.6,0,0,0-.1.4c0,.4.3.5.9.6h-2.3Zm4.6-2.4-1.3-2.9h0l-1.3,2.9Z"/>
      <path class="cls-2" d="M134.7,67.2h0l-.8.2a1.2,1.2,0,0,1-.9-.6l-1.5-2.6h-.2l-.8-.2v2.4c0,.4.2.6,1,.7h-2.8c.8-.1.9-.3.9-.7V61.2c0-.4-.1-.6-.9-.7H131c1.8-.1,2.8.7,2.8,1.8a2,2,0,0,1-1.5,1.9l1.1,1.8C133.8,66.6,134.4,67.2,134.7,67.2Zm-1.9-4.9c0-1-.7-1.6-1.9-1.6h-.4v3h.8A1.5,1.5,0,0,0,132.8,62.3Z"/>
      <path class="cls-2" d="M138,67.2h-2.8c.8-.1.9-.3.9-.7V61.2c0-.4-.1-.6-.9-.7H138c-.8.1-1,.3-1,.7v5.3C137,66.9,137.2,67.1,138,67.2Zm-2.4-7.5c0-.5,1.4-1.5,2.2-1.3h.1c0,.6-1.3.8-2.3,1.2Z"/>
      <path class="cls-2" d="M138.4,67.2a1.4,1.4,0,0,0,1.1-1l2.5-5.9h0l2.9,6.2a1,1,0,0,0,.9.7H143c.5-.1.9-.2.9-.5v-.2l-.6-1.4h-2.8l-.4,1.1a.6.6,0,0,0-.1.4c0,.4.3.5.8.6h-2.3Zm4.7-2.4-1.3-2.9h-.1l-1.2,2.9Z"/>
      <path class="cls-2" d="M155.7,63.6a3.4,3.4,0,0,1-3.8,3.7h-3c.7-.1.9-.3.9-.7V61.2c0-.5-.2-.6-.9-.7h2.5C154.1,60.3,155.7,61.5,155.7,63.6Zm-1,.2c0-2-1.2-3.1-3.3-3.1h-.7v6.1H152C153.7,66.9,154.7,65.8,154.7,63.8Z"/>
      <path class="cls-2" d="M161.4,67.3h-4.9c.7-.1.9-.3.9-.7V61.2c0-.4-.2-.6-.9-.7h4.9c0,.6-.1,1.2-.1,1.8h0c-.4-1.2-.9-1.5-2.4-1.5h-.6v2.8h.8c.9,0,1.1-.3,1.4-1h.1a8.8,8.8,0,0,0,0,2.3h-.1c-.3-.8-.5-1-1.4-1h-.8v3.1h.6c1.5,0,1.9-.3,2.4-1.6h0C161.3,66,161.4,66.6,161.4,67.3Z"/>
      <path class="cls-2" d="M169.9,67.3H165c.7-.1.9-.3.9-.7V61.2c0-.4-.2-.6-.9-.7h4.9a10.9,10.9,0,0,0-.1,1.8h-.1c-.3-1.2-.8-1.5-2.3-1.5h-.6v2.8h.8a1.3,1.3,0,0,0,1.4-1h.1a8.8,8.8,0,0,0,0,2.3H169c-.3-.8-.6-1-1.4-1h-.8v3.1h.6c1.5,0,1.9-.3,2.3-1.6h.1A13.4,13.4,0,0,0,169.9,67.3Z"/>
      <path class="cls-2" d="M177.7,63.6a3.4,3.4,0,0,1-3.8,3.7h-3c.7-.1.9-.3.9-.7V61.2c0-.5-.2-.6-.9-.7h2.5C176.1,60.3,177.7,61.5,177.7,63.6Zm-1,.2c0-2-1.2-3.1-3.3-3.1h-.7v6.1H174C175.7,66.9,176.7,65.8,176.7,63.8Z"/>
      <path class="cls-2" d="M179.1,64.9V61.2c0-.4-.2-.6-1-.7h2.8c-.8.1-.9.3-.9.7v3.2c0,1.8.6,2.7,2,2.7a2,2,0,0,0,2.2-2.3V61.2c0-.4-.2-.6-1.1-.7h2.5c-.8.1-1,.3-1,.7v3.5c0,1.8-.9,2.8-2.7,2.8S179.1,66.6,179.1,64.9Z"/>
      <path class="cls-2" d="M186.1,63.9a3.6,3.6,0,0,1,3.8-3.7,8.5,8.5,0,0,1,2.2.4,10.9,10.9,0,0,0-.1,1.8h-.1c-.5-.9-.8-1.8-2.1-1.8a2.8,2.8,0,0,0-2.7,3.1c0,2,1.1,3.4,2.7,3.4s1.6-.7,2.2-2h0c0,.6.1,1.2.1,1.8a6.1,6.1,0,0,1-2.4.6A3.4,3.4,0,0,1,186.1,63.9Z"/>
      <path class="cls-2" d="M192.7,67.2a1.6,1.6,0,0,0,1.1-1l2.4-5.9h.1l2.8,6.2c.2.5.5.6,1,.7h-2.8c.5-.1.8-.2.8-.5v-.2l-.6-1.4h-2.8l-.5,1.1v.4c0,.4.3.5.9.6h-2.3Zm4.6-2.4-1.2-2.9H196l-1.2,2.9Z"/>
      <path class="cls-2" d="M200.1,63.9a3.6,3.6,0,0,1,3.8-3.7,8.5,8.5,0,0,1,2.2.4,10.9,10.9,0,0,0-.1,1.8h-.1c-.4-.9-.8-1.8-2.1-1.8s-2.6,1.3-2.6,3.1,1,3.4,2.6,3.4,1.7-.7,2.2-2h.1v1.8a6.1,6.1,0,0,1-2.4.6A3.5,3.5,0,0,1,200.1,63.9Z"/>
      <path class="cls-2" d="M210,67.2h-2.8c.8-.1.9-.3.9-.7V61.2c0-.4-.1-.6-.9-.7H210c-.8.1-.9.3-.9.7v5.3C209.1,66.9,209.2,67.1,210,67.2Z"/>
      <path class="cls-2" d="M217.8,63.7a3.6,3.6,0,0,1-3.6,3.8,3.4,3.4,0,0,1-3.5-3.5,3.7,3.7,0,0,1,3.6-3.8A3.4,3.4,0,0,1,217.8,63.7Zm-1,.3c0-2-1.1-3.4-2.7-3.4s-2.3,1.3-2.3,3,1,3.5,2.6,3.5S216.8,65.8,216.8,64Zm-3.5-4.3c0-.5,1.4-1.5,2.2-1.3h.1c0,.6-1.3.8-2.3,1.2Z"/>
      <path class="cls-2" d="M220.1,61.5H220v4.7c0,.6.2.9,1.1,1h-2.7c.9-.2,1.1-.4,1.1-1V61.5c0-.6-.3-.9-1.1-1h1.9l4.2,5.1h.1v-4c0-.6-.4-.9-1.2-1h2.7c-.8.1-1.1.4-1.1,1v6H225Z"/>
    </g>
    <path class="cls-2" d="M47,76.7c.7-.2.8-.2.8-.7V72.4h-.1c-.6,0-1,.3-1.3,1.2h-.1V72.1h4v1.5h-.1c-.3-.9-.7-1.2-1.3-1.2h-.1V76c0,.5.1.5.8.7H47Z"/>
    <path class="cls-2" d="M49.9,76.7c.4-.1.6-.3.9-1.1L52.3,72h.1l1.8,4a1.2,1.2,0,0,0,.7.7H52.7c.3-.1.4-.2.4-.4V76l-.2-.5H51.3v.2a.9.9,0,0,0-.1.5c0,.2.2.4.6.5H49.9Zm2.8-1.6-.6-1.4H52l-.6,1.4Z"/>
    <path class="cls-2" d="M59.3,75.4c0,.9-.7,1.4-2,1.3H55.2c.5-.2.6-.2.6-.7V72.8c0-.4-.1-.5-.6-.6h1.9c1.3-.1,1.9.3,1.9,1.1a1.2,1.2,0,0,1-.8,1.1h0c.4.1,1.1.4,1.1,1.1m-2.4-1.2h.2c.5,0,.8-.3.8-.9a.8.8,0,0,0-.9-.9h-.1Zm1.3,1.3a.9.9,0,0,0-.9-1h-.4v1.9h.5a.8.8,0,0,0,.8-.9"/>
    <path class="cls-2" d="M59.5,76.7c.3-.1.5-.3.9-1.1L61.9,72H62l1.8,4a1.2,1.2,0,0,0,.7.7H62.3c.3-.1.4-.2.4-.4V76l-.2-.5H60.9l-.2.2c0,.2-.1.3-.1.5s.2.4.7.5H59.5Zm2.8-1.6-.6-1.4h-.1L61,75.1Z"/>
    <path class="cls-2" d="M64.9,76.7V75.3H65c.4.9.6,1.2,1.1,1.2s.8-.2.8-.7-.5-.8-1.1-1.1a1.5,1.5,0,0,1-1.1-1.4c0-.8.7-1.3,1.7-1.3h1.1c0,.5-.1.9-.1,1.4h0c-.2-.5-.5-1.2-1.1-1.2s-.7.3-.7.6.3.7.8.9,1.3.7,1.3,1.6A1.5,1.5,0,0,1,66,76.9l-1.1-.2"/>
    <path class="cls-2" d="M68.1,74.5A2.4,2.4,0,0,1,70.7,72l1.3.2v1.3h-.1c-.1-.3-.5-1.2-1.3-1.2s-1.3.8-1.3,2,.5,2.2,1.3,2.2.9-.2,1.3-1.2H72v1.3a3.2,3.2,0,0,1-1.4.3,2.3,2.3,0,0,1-2.5-2.4"/>
    <path class="cls-2" d="M77.3,74.4a2.3,2.3,0,0,1-2.4,2.5,2.3,2.3,0,0,1-2.4-2.4A2.4,2.4,0,0,1,75,72a2.2,2.2,0,0,1,2.3,2.4m-1.1.3c0-1.5-.5-2.4-1.3-2.4s-1.2.7-1.2,1.8.5,2.4,1.3,2.4,1.2-.6,1.2-1.8"/>
    <polygon class="cls-2" points="76.5 57.2 76.5 57.2 76.5 57.2 76.5 57.2 76.5 57.2"/>
    <rect class="cls-2" x="61.4" y="31.8" width="0.6" height="12.4"/>
    <rect class="cls-2" x="68.3" y="49.6" width="6.8" height="0.56"/>
    <rect class="cls-2" x="47.7" y="49.5" width="7.6" height="0.56"/>
    <rect class="cls-2" x="61.3" y="54.9" width="0.6" height="13.35"/>
    <path class="cls-2" d="M62.1,49.4h0"/>
    <path class="cls-2" d="M66.7,25.9a17,17,0,0,0-4-.9c.1.1.1.2.1.4a1.5,1.5,0,0,1-.4.9h0s.3-.1.4.1,0,.3-.1.4-.2.1-.2.2h.3c0-.1.1-.2.3-.1s-.1.4-.1.4.4-.2.4.2a.4.4,0,0,1-.4.4v.2l-.3.2c-.2,0-.2-.2-.4-.3s-.2.2-.2.3a.6.6,0,0,0,.5.5c.4.1.7-.5.7-.5h.2a.7.7,0,0,0,1,.4l.2-.3c0-.1-.1-.1-.2,0s-.4.1-.5-.1.1-.3.1-.3-.3-.1-.3-.4.3-.3.3-.3.1-.4.3-.4.2.3.3.4.1,0,.1-.1-.1-.2-.2-.3-.1-.2,0-.3a.3.3,0,0,1,.4,0s.1-.3.5-.2a.3.3,0,0,1,.2.4c.1,0,.2,0,.3.2s-.2.2-.3.2-.2.2-.2.3h.3c0-.1.2-.2.4,0s-.1.3-.1.3.4,0,.3.3-.4.3-.4.3.2.1,0,.3-.3.1-.4,0h-.3c-.1.1,0,.3.3.5s.8-.4.8-.4h.2a.7.7,0,0,0,.3.6c.3.1.8-.4.8-.4s-.2,0-.3.1-.2.1-.4-.1.2-.4.2-.4-.4-.2-.2-.4.4-.1.4-.1a.3.3,0,0,1,.2-.4.5.5,0,0,1,.3.3c.1.2,0,.3.2.3s0-.2-.1-.4-.1-.3.2-.4h.1c-.1-1.2-.9-1.4-1.7-1.7m-4.9,2.5c0-.1-.1-.3-.2-.3l-.3.3c-.2,0-.3-.1-.3-.2V28a.4.4,0,0,1-.4-.4c0-.4.3-.2.3-.2s-.2-.3-.1-.4.3,0,.4.1h.2c0-.1,0-.2-.1-.2s-.3-.2-.2-.4a.5.5,0,0,1,.5-.1h0a1.1,1.1,0,0,1-.4-.9V25a16.1,16.1,0,0,0-3.9.9c-.9.3-1.6.5-1.7,1.7h.1a.2.2,0,0,1,.1.4c-.1.2-.2.4,0,.4s.1-.1.1-.3l.4-.3c.1,0,.2.3.1.4a.4.4,0,0,1,.5.1c.2.2.1.5-.2.4s.2.2.1.4-.3.1-.4.1-.1-.2-.2-.1.4.5.7.4.4-.5.3-.6h.3s.4.6.7.4.4-.4.4-.5-.3,0-.4.1-.3.2-.4,0a.2.2,0,0,1,.1-.3.4.4,0,0,1-.5-.3.3.3,0,0,1,.3-.3.2.2,0,0,1-.1-.3.3.3,0,0,1,.5,0h.2c0-.1,0-.3-.1-.3s-.5-.1-.4-.2a.4.4,0,0,1,.4-.2s-.2-.3.2-.4a.3.3,0,0,1,.4.2s.3-.2.4,0,.2.3.1.3l-.3.3c.1.1.1.2.2.1a.5.5,0,0,1,.3-.4c.1,0,.4.2.2.4a.3.3,0,0,1,.3.3c0,.3-.2.4-.3.4s.2.2.1.3a.2.2,0,0,1-.4.1c-.2-.1-.2-.1-.2,0s0,.2.2.3.6.2,1-.4h.2s.3.6.7.5.5-.4.4-.5"/>
    <path class="cls-2" d="M62,23.8h-.9a.9.9,0,0,0,.9.9,1,1,0,0,0,1-.9Z"/>
    <path class="cls-2" d="M63,23.5a.9.9,0,0,0-.8-.9c0,.2.1.5.1.7l.7.2"/>
    <path class="cls-2" d="M61.9,22.6a.9.9,0,0,0-.8.9,1,1,0,0,1,.7-.2c0-.2.1-.6.1-.7"/>
    <path class="cls-2" d="M62,23.3h.3c0-.2-.1-.5-.1-.7h-.3c0,.1-.1.5-.1.7H62"/>
    <path class="cls-2" d="M63,23.5l-.7-.2h-.5a1,1,0,0,0-.7.2H63"/>
    <polygon class="cls-2" points="62.4 22 62.2 22 62.2 21.7 61.9 21.7 61.9 22 61.6 22 61.6 22.2 61.9 22.2 61.9 22.6 62.2 22.6 62.2 22.2 62.4 22.2 62.4 22"/>
    <polygon class="cls-2" points="62.4 22 62.2 22 62.2 21.7 61.9 21.7 61.9 22 61.6 22 61.6 22.2 61.9 22.2 61.9 22.6 62.2 22.6 62.2 22.2 62.4 22.2 62.4 22"/>
    <path class="cls-2" d="M67.1,31.3H67c-.3-.1-1.2-.7-4.9-.7h0c-3.6,0-4.5.6-4.9.7h9.9"/>
    <path class="cls-2" d="M55.4,27.8c0-.1.1-.4.1-.6a2.6,2.6,0,0,1,0-2,1.5,1.5,0,0,1,1.2-.9l-.9.2c-.7.3-1,.7-1,1.7s.3,1.3.3,1.5h.3"/>
    <path class="cls-2" d="M55.4,27.8c0-.1.1-.4.1-.6a2.6,2.6,0,0,1,0-2,1.5,1.5,0,0,1,1.2-.9l-.9.2c-.7.3-1,.7-1,1.7s.3,1.3.3,1.5h.3"/>
    <path class="cls-2" d="M61.6,24.6a2.4,2.4,0,0,1-1,.3,26.1,26.1,0,0,1-3.2-.6c-.3-.1-1.6,0-1.9.9a2.6,2.6,0,0,0,0,2c0,.2-.1.5-.1.6h0a.7.7,0,0,1,.3-.3.8.8,0,0,0-.1-.4c-.1-.5-.3-1.6.2-2.1a2.2,2.2,0,0,1,1.8-.6,22.7,22.7,0,0,0,3,.6l.8-.3c.1-.1.1-.2.2-.2"/>
    <path class="cls-2" d="M61.6,24.6a2.4,2.4,0,0,1-1,.3,26.1,26.1,0,0,1-3.2-.6c-.3-.1-1.6,0-1.9.9a2.6,2.6,0,0,0,0,2c0,.2-.1.5-.1.6h0a.7.7,0,0,1,.3-.3.8.8,0,0,0-.1-.4c-.1-.5-.3-1.6.2-2.1a2.2,2.2,0,0,1,1.8-.6,22.7,22.7,0,0,0,3,.6l.8-.3c.1-.1.1-.2.2-.2"/>
    <path class="cls-2" d="M61.6,24.6c-.3.1-.8.4-1.3.1l-.9-.3h-.5a1.4,1.4,0,0,0-.2,1.8c.2.2.3.4.4.4l.2-.3a1.1,1.1,0,0,1-.4-1c0-.5.4-.9.8-.7s1.1.5,1.7.2l.2-.3"/>
    <path class="cls-2" d="M61.6,24.6c-.3.1-.8.4-1.3.1l-.9-.3h-.5a1.4,1.4,0,0,0-.2,1.8c.2.2.3.4.4.4l.2-.3a1.1,1.1,0,0,1-.4-1c0-.5.4-.9.8-.7s1.1.5,1.7.2l.2-.3"/>
    <path class="cls-2" d="M58.2,27h.1s-.2-.3.2-.4a.3.3,0,0,1,.4.2h.2c-.1-.1-.3-.2-.4-.4a1.4,1.4,0,0,1,.2-1.8h-.3c-.6.1-1,.9-.6,2a3.9,3.9,0,0,1,.2.6"/>
    <path class="cls-2" d="M58.2,27h.1s-.2-.3.2-.4a.3.3,0,0,1,.4.2h.2c-.1-.1-.3-.2-.4-.4a1.4,1.4,0,0,1,.2-1.8h-.3c-.6.1-1,.9-.6,2a3.9,3.9,0,0,1,.2.6"/>
    <path class="cls-2" d="M62.5,25.9a.5.5,0,0,0-.5-.5c-.2,0-.4.3-.4.5a.5.5,0,0,0,.4.5.5.5,0,0,0,.5-.5"/>
    <path class="cls-2" d="M62,26.4a.5.5,0,0,1,0-1,.5.5,0,1,1,0,1m0-.9a.4.4,0,1,0,.4.4.4.4,0,0,0-.4-.4"/>
    <path class="cls-2" d="M61.4,24.5a.2.2,0,1,0-.2.2.2.2,0,0,0,.2-.2"/>
    <path class="cls-2" d="M61.2,24.8a.3.3,0,1,1,.3-.3.3.3,0,0,1-.3.3m0-.5a.2.2,0,1,0,.2.2.2.2,0,0,0-.2-.2"/>
    <path class="cls-2" d="M60.9,24.5a.3.3,0,0,0-.3-.3c-.1,0-.2.2-.2.3s.1.3.2.3a.3.3,0,0,0,.3-.3"/>
    <path class="cls-2" d="M60.6,24.9c-.2,0-.3-.2-.3-.4a.3.3,0,0,1,.3-.3c.2,0,.4.1.4.3a.4.4,0,0,1-.4.4m0-.6a.2.2,0,0,0,0,.4c.2,0,.2-.1.2-.2s0-.2-.2-.2"/>
    <path class="cls-2" d="M60.4,24.3a.5.5,0,0,0-.3-.3.3.3,0,0,0-.3.3.3.3,0,0,0,.3.3.3.3,0,0,0,.3-.3"/>
    <path class="cls-2" d="M60.1,24.7a.4.4,0,0,1-.4-.4c0-.2.2-.3.4-.3a.3.3,0,0,1,.3.3c0,.2-.1.4-.3.4m0-.6a.2.2,0,1,0,.2.2.2.2,0,0,0-.2-.2"/>
    <path class="cls-2" d="M59.8,24a.3.3,0,0,0-.3-.3c-.2,0-.4.1-.4.3a.4.4,0,0,0,.4.4c.2,0,.3-.2.3-.4"/>
    <path class="cls-2" d="M59.5,24.5a.5.5,0,0,1-.4-.5.4.4,0,0,1,.8,0,.5.5,0,0,1-.4.5m0-.7c-.2,0-.3.1-.3.2a.3.3,0,0,0,.3.3.3.3,0,0,0,.3-.3c0-.1-.2-.2-.3-.2"/>
    <path class="cls-2" d="M59.1,24.2a.4.4,0,0,0-.4-.4c-.2,0-.3.2-.3.4s.1.4.3.4a.4.4,0,0,0,.4-.4"/>
    <path class="cls-2" d="M58.7,24.6a.4.4,0,0,1-.4-.4.5.5,0,0,1,.4-.5.5.5,0,0,1,.5.5.5.5,0,0,1-.5.4m0-.8a.4.4,0,1,0,.4.4.4.4,0,0,0-.4-.4"/>
    <path class="cls-2" d="M58.3,24c0-.2-.1-.4-.3-.4a.4.4,0,0,0,0,.8c.2,0,.3-.2.3-.4"/>
    <path class="cls-2" d="M58,24.4a.5.5,0,0,1-.5-.4.5.5,0,0,1,.5-.5.5.5,0,0,1,.4.5.4.4,0,0,1-.4.4m0-.7c-.2,0-.4.1-.4.3a.4.4,0,0,0,.7,0,.3.3,0,0,0-.3-.3"/>
    <path class="cls-2" d="M57.5,23.9a.4.4,0,1,0-.8,0,.4.4,0,1,0,.8,0"/>
    <path class="cls-2" d="M57.1,24.3c-.2,0-.5-.2-.5-.4a.5.5,0,0,1,.5-.5.5.5,0,0,1,.5.5.5.5,0,0,1-.5.4m0-.8c-.2,0-.3.2-.3.4a.3.3,0,0,0,.3.3.4.4,0,0,0,.4-.3.4.4,0,0,0-.4-.4"/>
    <path class="cls-2" d="M56.7,24a.5.5,0,0,0-.5-.4.4.4,0,0,0,0,.8.5.5,0,0,0,.5-.4"/>
    <path class="cls-2" d="M56.2,24.5a.5.5,0,0,1,0-1,.5.5,0,1,1,0,1m0-.9c-.2,0-.3.2-.3.4s.1.4.3.4a.4.4,0,0,0,0-.8"/>
    <path class="cls-2" d="M55.9,24.5a.5.5,0,0,0-1,0,.5.5,0,0,0,1,0"/>
    <path class="cls-2" d="M55.4,25a.5.5,0,0,1-.5-.5.5.5,0,1,1,1,0,.5.5,0,0,1-.5.5m0-.9a.4.4,0,0,0-.4.4.4.4,0,1,0,.8,0,.4.4,0,0,0-.4-.4"/>
    <path class="cls-2" d="M55.4,25.4a.5.5,0,0,0-.5-.5.5.5,0,0,0-.5.5.5.5,0,0,0,.5.5.6.6,0,0,0,.5-.5"/>
    <path class="cls-2" d="M54.9,25.9a.6.6,0,0,1-.6-.5.6.6,0,0,1,.6-.6c.3,0,.5.2.5.6a.5.5,0,0,1-.5.5m0-1a.5.5,0,0,0-.5.5.5.5,0,0,0,.5.4.4.4,0,0,0,.4-.4.5.5,0,0,0-.4-.5"/>
    <path class="cls-2" d="M55.5,27.3a.5.5,0,0,0-.4-.5.5.5,0,0,0-.5.5.5.5,0,0,0,.5.4.4.4,0,0,0,.4-.4"/>
    <path class="cls-2" d="M55.1,27.8a.5.5,0,1,1,.5-.5.5.5,0,0,1-.5.5m0-.9a.4.4,0,1,0,.4.4.4.4,0,0,0-.4-.4"/>
    <path class="cls-2" d="M58.7,24.6a.5.5,0,0,0-.5-.4.4.4,0,0,0-.4.4.5.5,0,0,0,.4.5.5.5,0,0,0,.5-.5"/>
    <path class="cls-2" d="M58.2,25.1a.5.5,0,0,1,0-1,.5.5,0,1,1,0,1m0-.9c-.2,0-.3.2-.3.4s.1.4.3.4a.4.4,0,1,0,0-.8"/>
    <path class="cls-2" d="M58.5,25.2a.5.5,0,1,0-.5.5.5.5,0,0,0,.5-.5"/>
    <path class="cls-2" d="M58,25.8a.6.6,0,0,1,0-1.2.6.6,0,1,1,0,1.2m0-1a.4.4,0,1,0,.4.4.4.4,0,0,0-.4-.4"/>
    <path class="cls-2" d="M58.5,25.8a.5.5,0,0,0-.5-.4.4.4,0,0,0-.4.4.5.5,0,0,0,.4.5.5.5,0,0,0,.5-.5"/>
    <path class="cls-2" d="M58,26.3a.5.5,0,1,1,.5-.5.5.5,0,0,1-.5.5m0-.9a.4.4,0,1,0,.4.4.4.4,0,0,0-.4-.4"/>
    <path class="cls-2" d="M58.7,26.3a.5.5,0,0,0-1,0,.5.5,0,0,0,1,0"/>
    <path class="cls-2" d="M58.2,26.9a.6.6,0,0,1-.5-.6.5.5,0,1,1,1,0,.6.6,0,0,1-.5.6m0-1a.4.4,0,1,0,.4.4.4.4,0,0,0-.4-.4"/>
    <path class="cls-2" d="M55.4,26.4a.5.5,0,1,0-.5.5.5.5,0,0,0,.5-.5"/>
    <path class="cls-2" d="M54.9,27a.6.6,0,1,1,.6-.6.6.6,0,0,1-.6.6m0-1a.4.4,0,0,0-.4.4.4.4,0,1,0,.8,0,.4.4,0,0,0-.4-.4"/>
    <path class="cls-2" d="M68.7,27.8c0-.1-.1-.4-.1-.6a4.3,4.3,0,0,0,0-2,1.7,1.7,0,0,0-1.3-.9l.9.2a1.4,1.4,0,0,1,1,1.7,3.4,3.4,0,0,1-.3,1.5h-.2"/>
    <path class="cls-2" d="M68.7,27.9h-.1c0-.2-.1-.4-.1-.7V27a3.8,3.8,0,0,0-.1-1.8,1.2,1.2,0,0,0-1.2-.8h.9a1.6,1.6,0,0,1,1.1,1.8,9.1,9.1,0,0,1-.3,1.6h-.3m-.6-3.4a1.8,1.8,0,0,1,.5.7,2.9,2.9,0,0,1,.1,1.8c0,.1,0,.2-.1.2a4.3,4.3,0,0,0,.1.5h.2a8.8,8.8,0,0,0,.2-1.5c.1-1-.2-1.3-.9-1.6h-.1"/>
    <path class="cls-2" d="M62.5,24.6a2.4,2.4,0,0,0,1,.3,21.4,21.4,0,0,0,3.1-.6,1.9,1.9,0,0,1,2,.9,4.3,4.3,0,0,1,0,2c0,.2.1.5.1.6h-.1a.4.4,0,0,0-.2-.3v-.4c.2-.5.4-1.6-.1-2.1a2.3,2.3,0,0,0-1.8-.6,21.4,21.4,0,0,1-3.1.6l-.7-.3-.2-.2"/>
    <path class="cls-2" d="M62.5,24.6a2.4,2.4,0,0,0,1,.3,21.4,21.4,0,0,0,3.1-.6,1.9,1.9,0,0,1,2,.9,4.3,4.3,0,0,1,0,2c0,.2.1.5.1.6h-.1a.4.4,0,0,0-.2-.3v-.4c.2-.5.4-1.6-.1-2.1a2.3,2.3,0,0,0-1.8-.6,21.4,21.4,0,0,1-3.1.6l-.7-.3-.2-.2"/>
    <path class="cls-2" d="M62.5,24.6a1.4,1.4,0,0,0,1.3.1l.8-.3h.5a1.4,1.4,0,0,1,.3,1.8c-.2.2-.3.4-.5.4l-.2-.3a1.4,1.4,0,0,0,.5-1c-.1-.5-.4-.9-.9-.7s-1,.5-1.6.2l-.2-.3"/>
    <path class="cls-2" d="M62.5,24.6a1.4,1.4,0,0,0,1.3.1l.8-.3h.5a1.4,1.4,0,0,1,.3,1.8c-.2.2-.3.4-.5.4l-.2-.3a1.4,1.4,0,0,0,.5-1c-.1-.5-.4-.9-.9-.7s-1,.5-1.6.2l-.2-.3"/>
    <path class="cls-2" d="M65.8,27h0a.3.3,0,0,0-.2-.4c-.4-.1-.5.2-.5.2H65l.4-.4a1.4,1.4,0,0,0-.3-1.8h.3c.7.1,1.1.9.7,2a1.6,1.6,0,0,1-.3.6"/>
    <path class="cls-2" d="M65.8,27h0a.3.3,0,0,0-.2-.4c-.4-.1-.5.2-.5.2H65l.4-.4a1.4,1.4,0,0,0-.3-1.8h.3c.7.1,1.1.9.7,2a1.6,1.6,0,0,1-.3.6"/>
    <path class="cls-2" d="M62.6,24.5c0-.1.1-.2.3-.2a.2.2,0,0,1,0,.4c-.2,0-.3-.1-.3-.2"/>
    <path class="cls-2" d="M62.9,24.8a.3.3,0,0,1,0-.6.3.3,0,0,1,0,.6m0-.5a.2.2,0,1,0,0,.4.2.2,0,0,0,0-.4"/>
    <path class="cls-2" d="M63.1,24.5a.5.5,0,0,1,.3-.3.3.3,0,0,1,.3.3.3.3,0,0,1-.3.3.3.3,0,0,1-.3-.3"/>
    <path class="cls-2" d="M63.4,24.9c-.2,0-.3-.2-.3-.4a.3.3,0,0,1,.3-.3c.2,0,.4.1.4.3a.4.4,0,0,1-.4.4m0-.6a.2.2,0,1,0,.2.2.2.2,0,0,0-.2-.2"/>
    <path class="cls-2" d="M63.7,24.3A.3.3,0,0,1,64,24c.1,0,.2.2.2.3s-.1.3-.2.3a.3.3,0,0,1-.3-.3"/>
    <path class="cls-2" d="M64,24.7a.4.4,0,0,1-.4-.4c0-.2.2-.3.4-.3a.3.3,0,0,1,.3.3c0,.2-.1.4-.3.4m0-.6a.2.2,0,0,0,0,.4l.2-.2a.2.2,0,0,0-.2-.2"/>
    <path class="cls-2" d="M64.2,24c0-.2.2-.3.4-.3a.3.3,0,0,1,.3.3c0,.2-.1.4-.3.4a.4.4,0,0,1-.4-.4"/>
    <path class="cls-2" d="M64.6,24.5a.5.5,0,0,1-.4-.5.4.4,0,0,1,.8,0,.5.5,0,0,1-.4.5m0-.7c-.2,0-.3.1-.3.2a.3.3,0,0,0,.3.3.3.3,0,0,0,.3-.3c0-.1-.2-.2-.3-.2"/>
    <path class="cls-2" d="M64.9,24.2a.4.4,0,1,1,.4.4.4.4,0,0,1-.4-.4"/>
    <path class="cls-2" d="M65.3,24.6a.4.4,0,0,1-.4-.4.5.5,0,0,1,.4-.5.5.5,0,0,1,.5.5.5.5,0,0,1-.5.4m0-.8c-.2,0-.3.2-.3.4a.3.3,0,1,0,.6,0c0-.2-.1-.4-.3-.4"/>
    <path class="cls-2" d="M65.7,24a.4.4,0,1,1,.4.4.4.4,0,0,1-.4-.4"/>
    <path class="cls-2" d="M66.1,24.4a.5.5,0,0,1-.5-.4.5.5,0,0,1,.5-.5.5.5,0,0,1,.4.5.4.4,0,0,1-.4.4m0-.7a.3.3,0,0,0-.3.3.3.3,0,1,0,.6,0,.3.3,0,0,0-.3-.3"/>
    <path class="cls-2" d="M66.5,23.9a.5.5,0,0,1,.4-.5c.3,0,.4.2.4.5a.4.4,0,0,1-.4.4.4.4,0,0,1-.4-.4"/>
    <path class="cls-2" d="M66.9,24.3a.4.4,0,0,1-.4-.4.5.5,0,0,1,.4-.5.5.5,0,0,1,.5.5.5.5,0,0,1-.5.4m0-.8a.4.4,0,1,0,.4.4.4.4,0,0,0-.4-.4"/>
    <path class="cls-2" d="M67.4,24a.4.4,0,0,1,.4-.4.4.4,0,1,1,0,.8.4.4,0,0,1-.4-.4"/>
    <path class="cls-2" d="M67.8,24.5a.5.5,0,1,1,.5-.5.5.5,0,0,1-.5.5m0-.9a.4.4,0,1,0,.4.4.4.4,0,0,0-.4-.4"/>
    <path class="cls-2" d="M68.2,24.5a.5.5,0,0,1,.5-.5.5.5,0,0,1,.4.5.4.4,0,0,1-.4.4.5.5,0,0,1-.5-.4"/>
    <path class="cls-2" d="M68.7,25a.6.6,0,0,1-.6-.5.6.6,0,0,1,.6-.6.6.6,0,0,1,.5.6.5.5,0,0,1-.5.5m0-.9c-.3,0-.4.1-.4.4a.4.4,0,0,0,.4.4c.2,0,.3-.2.3-.4s-.1-.4-.3-.4"/>
    <path class="cls-2" d="M68.7,25.4a.5.5,0,1,1,1,0,.5.5,0,0,1-1,0"/>
    <path class="cls-2" d="M68.7,25.4a.5.5,0,1,1,1,0,.5.5,0,0,1-1,0"/>
    <path class="cls-2" d="M69.2,25.9a.6.6,0,0,1-.6-.5.6.6,0,1,1,1.2,0,.6.6,0,0,1-.6.5m0-1c-.3,0-.4.2-.4.5a.4.4,0,0,0,.4.4.4.4,0,0,0,.4-.4.5.5,0,0,0-.4-.5"/>
    <path class="cls-2" d="M68.5,27.3a.5.5,0,0,1,.5-.5.5.5,0,0,1,.4.5.4.4,0,0,1-.4.4.5.5,0,0,1-.5-.4"/>
    <path class="cls-2" d="M69,27.8a.5.5,0,1,1,.5-.5.5.5,0,0,1-.5.5m0-.9a.4.4,0,1,0,.4.4.4.4,0,0,0-.4-.4"/>
    <path class="cls-2" d="M65.4,24.6a.4.4,0,0,1,.4-.4.5.5,0,0,1,.5.4.5.5,0,0,1-.5.5.5.5,0,0,1-.4-.5"/>
    <path class="cls-2" d="M65.8,25.1a.5.5,0,1,1,.5-.5.5.5,0,0,1-.5.5m0-.9a.4.4,0,1,0,.4.4.4.4,0,0,0-.4-.4"/>
    <path class="cls-2" d="M65.6,25.2a.5.5,0,0,1,.5-.5.5.5,0,0,1,0,1,.5.5,0,0,1-.5-.5"/>
    <path class="cls-2" d="M66.1,25.8a.6.6,0,0,1,0-1.2.6.6,0,0,1,0,1.2m0-1a.4.4,0,1,0,0,.8.4.4,0,1,0,0-.8"/>
    <path class="cls-2" d="M65.6,25.8a.4.4,0,0,1,.4-.4.5.5,0,0,1,.5.4.5.5,0,0,1-.5.5.5.5,0,0,1-.4-.5"/>
    <path class="cls-2" d="M66,26.3a.5.5,0,1,1,.5-.5.5.5,0,0,1-.5.5m0-.9a.4.4,0,1,0,.4.4.4.4,0,0,0-.4-.4"/>
    <path class="cls-2" d="M65.4,26.3a.5.5,0,0,1,.5-.4.4.4,0,0,1,.4.4.5.5,0,0,1-.4.5.5.5,0,0,1-.5-.5"/>
    <path class="cls-2" d="M65.9,26.9a.6.6,0,0,1-.6-.6.6.6,0,0,1,.6-.5.5.5,0,0,1,.5.5.6.6,0,0,1-.5.6m0-1a.4.4,0,0,0,0,.8.4.4,0,0,0,0-.8"/>
    <path class="cls-2" d="M68.6,26.4a.5.5,0,0,1,.5-.5.5.5,0,0,1,0,1,.5.5,0,0,1-.5-.5"/>
    <path class="cls-2" d="M69.1,27a.6.6,0,0,1,0-1.2.6.6,0,1,1,0,1.2m0-1a.4.4,0,0,0-.4.4.4.4,0,0,0,.4.4.5.5,0,0,0,.5-.4c0-.3-.2-.4-.5-.4"/>
    <path class="cls-2" d="M62.4,23.9a.4.4,0,1,0-.4.4.4.4,0,0,0,.4-.4"/>
    <path class="cls-2" d="M62.4,24.3a.4.4,0,0,0-.4-.4.4.4,0,1,0,.4.4"/>
    <path class="cls-2" d="M62,24.7a.4.4,0,0,1-.4-.4.4.4,0,0,1,.4-.4c.3,0,.4.1.4.4a.4.4,0,0,1-.4.4m0-.7c-.1,0-.2.1-.2.3a.2.2,0,0,0,.2.2c.2,0,.3-.1.3-.2A.3.3,0,0,0,62,24"/>
    <path class="cls-2" d="M62.5,24.7a.5.5,0,0,0-.5-.5.5.5,0,0,0,0,1,.5.5,0,0,0,.5-.5"/>
    <path class="cls-2" d="M62,25.3a.6.6,0,0,1,0-1.2.6.6,0,1,1,0,1.2m0-1a.4.4,0,0,0,0,.8.4.4,0,1,0,0-.8"/>
    <path class="cls-2" d="M67.3,29.7h-.1a22.4,22.4,0,0,0-5.1-.7H62a24,24,0,0,0-5.2.7h0a.2.2,0,0,0,.3,0,.7.7,0,0,0,.5-.6.8.8,0,0,0,.8.4,1,1,0,0,0,.6-.7c0-.1.4.5.9.4a.8.8,0,0,0,.7-.6s.3.6.8.5a.6.6,0,0,0,.6-.5c.1.1.3.5.7.5s.7-.5.8-.5a.8.8,0,0,0,.6.6c.6.1,1-.5,1-.4a1,1,0,0,0,.6.7.8.8,0,0,0,.8-.4s-.1.4.5.6a.2.2,0,0,0,.3,0"/>
    <path class="cls-2" d="M67.3,29.7h-.1a22.4,22.4,0,0,0-5.1-.7H62a24,24,0,0,0-5.2.7h0a.2.2,0,0,0,.3,0,.7.7,0,0,0,.5-.6.8.8,0,0,0,.8.4,1,1,0,0,0,.6-.7c0-.1.4.5.9.4a.8.8,0,0,0,.7-.6s.3.6.8.5a.6.6,0,0,0,.6-.5c.1.1.3.5.7.5s.7-.5.8-.5a.8.8,0,0,0,.6.6c.6.1,1-.5,1-.4a1,1,0,0,0,.6.7.8.8,0,0,0,.8-.4s-.1.4.5.6a.2.2,0,0,0,.3,0"/>
    <path class="cls-2" d="M57.7,28.8a.3.3,0,0,0-.3-.3.3.3,0,0,0,0,.6.3.3,0,0,0,.3-.3"/>
    <path class="cls-2" d="M60.8,28.2c0-.1-.1-.3-.2-.3a.3.3,0,0,0-.3.3.3.3,0,0,0,.3.3c.1,0,.2-.1.2-.3"/>
    <path class="cls-2" d="M66.3,28.8a.3.3,0,0,1,.3-.3.3.3,0,1,1,0,.6.3.3,0,0,1-.3-.3"/>
    <path class="cls-2" d="M63.2,28.2a.3.3,0,0,1,.6,0,.3.3,0,1,1-.6,0"/>
    <path class="cls-2" d="M67.2,30.1a15.9,15.9,0,0,0-5.2-.7h0a17.2,17.2,0,0,0-5.2.7h.1l.4.2L57,31h0v.3h.1a16.7,16.7,0,0,1,4.9-.8h0a16.9,16.9,0,0,1,5,.8h.1v-.3h0l-.3-.4h0l.5-.3h0Zm-9.4.5c-.1,0-.2,0-.2-.1a.2.2,0,0,1,.2-.2c.1,0,.1.1.1.2s0,.1-.1.1m.1-.3c-.1,0-.1-.1-.1-.2s0-.2.1-.2a.2.2,0,0,1,.2.2l-.2.2m.4.2-.2-.2h.2a.1.1,0,0,1,.1.1c0,.1,0,.2-.1.2m1.3,0h-.5a.3.3,0,0,1-.4-.2c-.1-.2.1-.4.3-.5h.6c.1,0,.4.1.4.3s-.2.3-.4.4m.8-.3a.2.2,0,0,1-.2-.2h.4a.2.2,0,0,1-.2.2m.1-.5a.2.2,0,0,1,.2-.2l.2.2c0,.1-.1.1-.2.1s-.2,0-.2-.1m.3.8c-.1,0-.2,0-.2-.1l.2-.2v.2a.1.1,0,0,1-.1.1m.3-.3a.2.2,0,0,1,0-.4c.1,0,.1.1.1.2s0,.2-.1.2m1.4-.2-.4.4H62l-.5-.4h0l.5-.4h.1l.4.4h.1a.1.1,0,0,1-.1.1m.5.2a.2.2,0,1,1,.2-.2.2.2,0,0,1-.2.2m.3.3c-.1,0-.2,0-.2-.1l.2-.2.2.2c0,.1-.1.1-.2.1m.1-.7c-.1,0-.2,0-.2-.1a.2.2,0,0,1,.2-.2v.2a.1.1,0,0,1-.1.1m.3.4a.2.2,0,0,1-.2-.2h.3a.3.3,0,0,1-.1.2m1.7.1c-.1.2-.3.3-.4.2h-.6c-.2-.1-.3-.2-.3-.4s.2-.3.4-.3h.6a.5.5,0,0,1,.3.5m.4.2-.2-.2H66a.2.2,0,0,1-.2.2m.2-.4c0-.1,0-.2.1-.2a.2.2,0,1,1,0,.4c-.1,0-.1-.1-.1-.2m.3.5c-.1,0-.2,0-.2-.1a.2.2,0,0,1,.2-.2c.1,0,.1.1.1.2s0,.1-.1.1"/>
    <path class="cls-2" d="M62.4,27.5a.4.4,0,1,0-.8,0c0,.4.2.6.4.6s.4-.2.4-.6"/>
    <path class="cls-2" d="M59.2,27.9a.5.5,0,0,0-.5-.5.6.6,0,0,0-.2.7.5.5,0,0,0,.5.5.6.6,0,0,0,.2-.7"/>
    <path class="cls-2" d="M56,28.8c-.2-.3-.5-.4-.6-.3s0,.3.2.6l.5.3a.5.5,0,0,0-.1-.6"/>
    <path class="cls-2" d="M64.8,27.9c.1-.3.3-.5.5-.5a.8.8,0,0,1,.3.7c-.1.3-.3.5-.5.5a.8.8,0,0,1-.3-.7"/>
    <path class="cls-2" d="M68.1,28.8c.2-.3.4-.4.5-.3s.1.3-.1.6l-.6.3c-.1-.1,0-.4.2-.6"/>
    <path class="cls-2" d="M67.3,29.8a23.2,23.2,0,0,0-5.2-.7H62a24.1,24.1,0,0,0-5.3.7c-.3.1-.2.4.1.3a20.3,20.3,0,0,1,5.2-.7,18.7,18.7,0,0,1,5.2.7c.3.1.5-.2.1-.3"/>
    <path class="cls-2" d="M62.6,25.3a.6.6,0,0,0-.6-.6.6.6,0,0,0-.5.6.5.5,0,0,0,.5.5c.4,0,.6-.2.6-.5"/>
    <path class="cls-2" d="M62,25.9a.6.6,0,0,1-.6-.6.7.7,0,0,1,.6-.7.7.7,0,0,1,.7.7.7.7,0,0,1-.7.6m0-1.1a.5.5,0,0,0-.5.5.6.6,0,0,0,.5.5.5.5,0,0,0,.5-.5.5.5,0,0,0-.5-.5"/>
    <polyline class="cls-2" points="69.1 40.7 69.1 40.7 69.1 40.7 69.1 40.7"/>
    <path class="cls-2" d="M69.1,40.6h0"/>
    <path class="cls-2" d="M68.9,40.2h0v.2h0"/>
    <path class="cls-2" d="M68.8,40h-.4a7.5,7.5,0,0,0,.9,1.5c.1.2.2.1.3.1s.2-.1.2-.1h0c0-.1.1-.3,0-.3v-.2h-.2c-.1.1-.1.2-.2.2h0l-.2-.3h0a.1.1,0,0,1-.1-.1v-.3a.1.1,0,0,1-.1.1h-.1v-.2h0c-.1,0-.1-.1-.1-.2L69,40h0c0-.1.1-.1,0-.2s0,.3-.2.3"/>
    <path class="cls-2" d="M68.3,39.6h.6l-.2-.3-.4.3"/>
    <path class="cls-2" d="M68.1,42.8h.2a.1.1,0,0,0-.1-.1h-.1"/>
    <path class="cls-2" d="M67.7,40h-.3l.2-.5h0a1.6,1.6,0,0,0,1.1-.9h.6a2.3,2.3,0,0,1-.1.4h0a1.7,1.7,0,0,0-.9.6h-.1c-.1-.1-.2,0-.3.1a.1.1,0,0,1-.1.1c0,.1,0,.1-.1.1Z"/>
    <polyline class="cls-2" points="68.3 40.1 68.3 40.1 68.3 40.1"/>
    <path class="cls-2" d="M68,43.7h0l-.3-.2a.5.5,0,0,1-.5-.3H67c-.1,0-.2-.2-.2-.3a.4.4,0,0,1-.4-.4h.1l.2-.2h.2l.2.3.3.2.4.2H68a.1.1,0,0,0,.1-.1h.1c0,.1,0,.4-.1.5H68"/>
    <path class="cls-2" d="M68,43h-.2l-.4-.2-.4-.2a1.7,1.7,0,0,1-.2-.5H67l.3.4h.5l.3.2h.2c-.1.1-.1.1-.1.2H68"/>
    <path class="cls-2" d="M65.3,47.9h0a.1.1,0,0,0,.1-.1.1.1,0,0,1-.1.1m.4-1h.1c0-.1,0-.2-.1-.2s.1-2.2.2-2.4,1.2-.5,1.7-.6a4.2,4.2,0,0,0-2,.7c-.5.4-.2,2.3.1,2.4M69.8,41h0a.4.4,0,0,0,.1-.3h0a.3.3,0,0,0-.1-.2v-.2h-.1v-.3a.3.3,0,0,0-.1-.2h0c0-.1,0-.1-.1-.2a.1.1,0,0,0-.1-.1h-.2a1.1,1.1,0,0,0,.1-.5h-.6a.5.5,0,0,1-.2.4l-.6.4-.3.2h-.1v.5h.2a.6.6,0,0,0-.1.4h0c-.1.1-.1.2-.1.4a1.1,1.1,0,0,1-.1.5c0,.2,0,.3-.1.4a.2.2,0,0,0-.2.2h0l-.2.2a.1.1,0,0,0-.1.1h-.3l-.3.4-1.5,1.8-.2.2V45h-.1l.4.6-.3-.6v-.2a.2.2,0,0,1,.2-.2L66,42.9h.1c.1,0,.2-.2.3-.3h.1l.3.2h.1a.4.4,0,0,0,.1.3h.3a.4.4,0,0,0,.4.2H68c0,.1.1,0,.1,0h0a.7.7,0,0,0,.1-.5.4.4,0,0,1,.1-.3h0a.1.1,0,0,0-.1-.1h0c.1-.2.2-.4.3-.4h-.1l-.4.7-.2-.2h-.5l-.3-.3.2-.2a.6.6,0,0,0,.2-.5,1.1,1.1,0,0,1,.1-.5v-.3h0c.1-.2.1-.3.2-.4s0-.1.1-.2a.1.1,0,0,0,.1-.1c.1-.1.2-.2.3-.1H69s0,.1-.2.2h-.5s0,.2-.1.2h0a.4.4,0,0,1,.2.3v.6a.1.1,0,0,0-.1.1h0c.1-.1.1-.1.1-.2s.1-.4.1-.6-.2-.3-.2-.4h0c.2.2.7,1.1.9,1.4l-.3.2-.2.2.3-.2a.2.2,0,0,1,.2-.2h.4c.1,0,.3,0,.3-.2h0v-.3c0-.1-.1-.1-.1-.2m-.9-.8c0-.1.1-.1.1-.2h0l-.2-.3h.6a.1.1,0,0,0,.1.1c0,.1.1.1,0,.2V40l-.2.2h-.4a.1.1,0,0,1,0-.2m.1.6h0a.1.1,0,0,1,0-.2h.2c0-.1,0-.1.1-.1h0a.2.2,0,0,0,.2-.2.3.3,0,0,0,.1-.2.1.1,0,0,0,.1.1v.3l-.2.2h-.3c0-.1,0-.1-.1-.1H69m.2.3a.1.1,0,0,1-.1-.1.3.3,0,0,1,.1-.2h.1a.1.1,0,0,1,.1-.1h.2c0-.1.1-.1.1-.2h0c.1.1.1.2,0,.2s-.1.2-.2.3a.1.1,0,0,0-.1.1h-.2m.5,0h-.3c-.1,0-.2-.1-.1-.3h0l.2-.2c.2-.1.2-.2.3-.3h0c.1,0,.1.1,0,.2h-.1m-4.2,6.7a7.4,7.4,0,0,1-.6-1.4v-.2a1.7,1.7,0,0,0-.2-.5,19.4,19.4,0,0,0,.8,2.1h.1m0,0h-.1a.1.1,0,0,0,.1.1s.9-.6.3-.9-.1.6-.3.8m2.3-4H68l-.2.2"/>
    <path class="cls-2" d="M65.4,42.9l-.4-.5-.3-.2h-.1l-.3.2-.2.3h0l.3.4h.2l1.1,1.3.8-.6Zm-.4.3h-.1a.1.1,0,0,1-.1-.1h.1a.1.1,0,0,1,.1.1c.1,0,.1.1,0,.2"/>
    <path class="cls-2" d="M68.2,39.1l-.2-.3-.4-.8a5.6,5.6,0,0,1-.5-.8l-.2-.3-.4-.6-.3-.6-.7-1.3-.3-.4c0-.1,0-.1-.1-.3l-.3-.5-.2-.3c0-.1-.1-.1-.1-.2h.1v.4l.3.6c.1.2.2.2.2.3l.2.4a2.1,2.1,0,0,1,.4.6l.4.6c.2.5.5.9.7,1.3l.4.7.2.4.5.8a.3.3,0,0,1,.1.2Z"/>
    <path class="cls-2" d="M66.8,57.2s.2,0,.2-.1a.1.1,0,0,1,.1.1h-.8c-.2,0-.2,0-.2-.1h.7"/>
    <path class="cls-2" d="M68.6,54.3h.1a.5.5,0,0,1,.1.3s.2.1.1.2-.3.2-.3.2v.3c-.1.2.1.2.3.2h0c.2,0,.4-.3.4-.4h.2a.2.2,0,0,1,.2-.2h.1c.1,0,0,0-.1.2a4.9,4.9,0,0,0-.4.9l.2.3c.2.1.2.1.2.3s.1.1.2.3,0,.3,0,.4.2.2.2.3-.1.2-.1.3.1.1.1.3-.1.2-.2.3-.1.1-.1.2.1.1,0,.4a1.1,1.1,0,0,1-.2.4h0c0,.2-.1.3-.1.4s0,.2,0,.5.1.2.5.6.9.4,1.4.7a1.1,1.1,0,0,1,.6,1,1.3,1.3,0,0,0,.3.7,2,2,0,0,1,.3.8,4.9,4.9,0,0,1-.1,1.1c0,.3-.1.4-.3.4l-.4.2h-.1a.1.1,0,0,1-.1-.1h-.1c-.1-.1,0-.3,0-.3s-.1,0,0-.1.3-.2.5-.2V65c.1-.2,0-.3-.1-.5a1.8,1.8,0,0,0-1.2-.8c-.6-.2-.7-.3-.8-.5s-.4-.5-1.1-.5a4.2,4.2,0,0,1-1.5-.6,1.4,1.4,0,0,1-.4-.4h-.2c.1-.2-.1-.2-.3-.3s-.1-.2-.3-.2H64.8l-.4.2H64c-.1,0,0-.2-.1-.2s.1-.3.1-.3.1-.1.2-.1H67c.1,0,.2,0,.1-.1h-.2l-1,.3c-.1,0-.3-.1-.4,0s-.6-.1-.8,0h-1c-.2,0-.1-.1-.1-.1a.3.3,0,0,1-.1-.2s-.1-.1.1-.2.1-.1.2-.1h1.4a.1.1,0,0,0,.1.1c.2,0,.2-.1.2-.1a1,1,0,0,1-.1-.4c-.1-.2.1-.3,0-.4s0-.4.2-.5.1-.3.2-.5.3,0,.4-.2.2-.2.3-.2h.3a.1.1,0,0,0,.1-.1s.1-.1,0-.1a.5.5,0,0,1-.4-.2c-.1,0,0-.1,0-.1H67c0-.1.2-.1.2-.2L67,57h-.8v-.4l.2-.3.3-.2a.2.2,0,0,1,.2-.2l.3-.3h.3a6.4,6.4,0,0,1-.2-.7v-.2h0c.2,0,.2.2.3.2h.1c.2,0,.1.2,0,.3h0s.1.3.2.3h.3c.1,0,.2-.3.2-.4s-.1-.1-.1-.3.1-.1.2-.1h0s.1-.2.2-.2m0,0h0c-.1,0-.2,0-.2.1h0c-.2,0-.3.1-.3.2a.4.4,0,0,0,.1.3h0a1,1,0,0,1-.1.3c-.2,0-.3,0-.3-.1a.3.3,0,0,1-.1-.2h0c.1,0,.1-.1.1-.2a.2.2,0,0,0-.2-.2h-.5c.1,0,.1,0,.1.1a6.4,6.4,0,0,1,.2.7h-.5l-.3.2s-.1.2-.2.2a.5.5,0,0,0-.3.4V57a.1.1,0,0,0,.1.1h.5c.1,0,.3-.1.3-.2a.1.1,0,0,0,.1.1h-.6c-.1.1-.1.1-.1.2s0,.1.1.1h0l-.4.2a.1.1,0,0,1-.1.1c-.1,0-.2,0-.3.2v.2l-.2.3-.2.2a.6.6,0,0,0,.1.4h-.1c0,.1-.1.2,0,.3a.4.4,0,0,0,.1.3.1.1,0,0,1-.1.1H63.5a.8.8,0,0,0-.1.3c0,.1,0,.2.1.2h.4a.4.4,0,0,0-.1.3h0c0,.1,0,.3.2.3h.4l.5-.2h1.2c.1.1.1.2.3.2h0c.2.1.3.1.2.2h.3l.4.3a3.1,3.1,0,0,0,1.5.6c.6,0,.9.2,1,.4s.3.4.9.6.9.3,1.1.7.1.1.1.2a.4.4,0,0,1,.1.3h-.2l-.4.2v.5h.4l.4-.2h.1c.2-.1.2-.1.3-.5a4.9,4.9,0,0,0,.1-1.1,1.6,1.6,0,0,0-.3-.8h-.1c-.1-.3-.3-.4-.3-.6a1.3,1.3,0,0,0-.5-1.1l-.7-.3c-.3-.1-.6-.2-.7-.4l-.4-.3c-.1-.1-.1-.1-.1-.2s0-.2-.1-.2v-.3c.1-.1.2-.2.2-.3v-.2l.2-.4c.1-.3.1-.3,0-.4h0c.1-.1.2-.2.2-.3s0-.2,0-.3h0a.3.3,0,0,0,.1-.2.3.3,0,0,1-.1-.2H70c.1-.1.1-.2,0-.4h-.2a.5.5,0,0,0-.2-.4l-.2-.2a3,3,0,0,1,.4-.8h0a.3.3,0,0,0,.1-.2h-.2l-.3.2h-.2v.2c0,.1,0,.2-.1.2s-.1.2-.2.2h0c-.2,0-.3,0-.2-.1v-.2c.1-.1.3-.1.3-.2s0-.3-.1-.3-.1-.3-.2-.3h-.1"/>
    <path class="cls-2" d="M71.8,66h-.4a.6.6,0,0,1-.1-.4v-.2c0-.1.2-.2.4-.2h.1a.4.4,0,0,0-.1-.3h0a1.9,1.9,0,0,0-1.1-.8c-.7-.2-.8-.3-1-.6s-.3-.3-.9-.4a4.1,4.1,0,0,1-1.5-.5c-.2-.1-.3-.3-.4-.4a.1.1,0,0,1-.2,0h-.4a.2.2,0,0,1-.2-.2h-.8a.5.5,0,0,0-.4.2c-.2.1-.5.2-.6.1H64c-.2-.1-.2-.2-.2-.4s0-.3,0-.3h-.3c0-.1-.1-.1-.1-.2h-.1a.8.8,0,0,1,.1-.4.5.5,0,0,1,.4-.2h1.5c0-.1,0-.2-.1-.2s.1-.3.1-.4h0v-.4c0-.2.1-.3.2-.3v-.2c0-.1,0-.2.1-.2s.2-.2.3-.2,0-.1.1-.1.2-.2.4-.2h0a.2.2,0,0,1-.2-.2.3.3,0,0,1,.1-.2h-.2c-.1,0-.1-.1-.2-.2a.3.3,0,0,1,.1-.2v-.2a.8.8,0,0,1,.2-.4l.3-.2a.7.7,0,0,1,.3-.3.1.1,0,0,0,.1-.1.1.1,0,0,0,.1-.1h.2a.1.1,0,0,1,.1-.1,4.1,4.1,0,0,1-.2-.7h.4c.2,0,.2.1.3.2s-.1.2-.2.3h0c.1.1.1.2.2.2h.2a.3.3,0,0,0,.1-.2h-.1c0-.1-.1-.1-.1-.3l.3-.2.3-.2h.1c.1,0,.2.2.2.4s.2.2.2.3a.5.5,0,0,1-.4.2v.2s0,.1.2.1h.3a.2.2,0,0,1,0-.3c0-.1.1-.1.2-.1h.5c.1.1,0,.1,0,.2h0a.1.1,0,0,1-.1.1,2.6,2.6,0,0,0-.3.8.3.3,0,0,1,.1.2c.2.1.3.2.2.4h.1c0,.1.1.1.1.2a.6.6,0,0,1,.1.4h0a.3.3,0,0,1,.1.2v.3h0v.3c0,.2-.1.3-.2.3h0a.5.5,0,0,1,0,.5c-.1.2-.2.4-.3.4v.2a.8.8,0,0,1-.1.4h0v.3c0,.1.1.1.2.2s.2.1.3.3l.7.4a1.1,1.1,0,0,1,.7.3,1.1,1.1,0,0,1,.6,1.1c0,.2.1.3.3.5v.2a1.2,1.2,0,0,1,.4.8c0,.2-.1.7-.1,1.1s-.2.5-.4.6h-.5m-.2-.2h.2c.1.1.2,0,.4-.1h0c.2-.1.2-.1.3-.5a3.8,3.8,0,0,0,.1-1,1.7,1.7,0,0,0-.3-.7h-.1a1.3,1.3,0,0,1-.3-.7,1.1,1.1,0,0,0-.5-1l-.6-.3A2,2,0,0,1,70,61l-.3-.2-.3-.4v-.6c.1,0,.1-.1.1-.3s0-.1,0-.1h.1l.2-.3c.1-.3.1-.3,0-.3h0a.2.2,0,0,1,0-.3h.1c0-.1.1-.1.1-.2v-.2h0v-.2h0v-.2h0v-.3h-.2c0-.1-.1-.1,0-.2s-.1-.2-.2-.3l-.2-.3h-.1c.1,0,.3-.6.4-.9a.1.1,0,0,0,.1-.1h-.3c0-.1,0-.1-.1-.1h0c.1.1,0,.2,0,.3a.5.5,0,0,1-.4.2h0c-.2-.1-.4-.1-.4-.3a.4.4,0,0,1,.1-.3h0c.1,0,.3,0,.3-.1h-.2s.1-.2-.1-.2h0a.1.1,0,0,0-.1.1h-.1c-.2,0-.2.1-.2.1s.1.1.1.2a.1.1,0,0,1,.1.1c0,.1-.1.4-.3.4h-.4V55a.2.2,0,0,1,0-.3.1.1,0,0,0,.1-.1h-.1c-.1,0-.1,0-.1-.1h-.2c.1.1.2.8.3.8h-.1a.3.3,0,0,1-.1.2H67l-.3.2a.4.4,0,0,1-.3.2.5.5,0,0,0-.1.3v.2h0c-.1.1-.1.1-.1.2h.7A.1.1,0,0,1,67,57a.2.2,0,0,1,.2.2l-.2.2h-.3c-.1-.1-.1,0-.2,0h.2c0,.1.1.1.2.1a.1.1,0,0,1,.1.1h-.8c0,.1-.1.1-.2.1h-.2v.2c-.1.2-.1.3-.2.4a.1.1,0,0,0-.1.1v.3a.1.1,0,0,1,0,.2c-.1.1-.1.1-.1.2a.8.8,0,0,1,.1.3h0s0,.1-.3.1H63.8c-.1,0-.2,0-.2.1a.3.3,0,0,0-.1.2h0c0,.1,0,.1.1.1h2.1c.1,0,.2.1.2,0a1.8,1.8,0,0,0,1-.3h.3c0,.1-.1.1-.2.2h-.2a.1.1,0,0,0-.1.1H64s-.1.1,0,.1h0v.2h.8a.6.6,0,0,1,.6-.1h.9c0,.1,0,.1.1.2h.1c.1,0,.3.1.3.2H67a1.2,1.2,0,0,0,.4.4,3.4,3.4,0,0,0,1.4.5c.7.1,1,.3,1.1.5s.2.4.8.6a1.4,1.4,0,0,1,1.2.8H72a.6.6,0,0,1,.1.4c0,.1,0,.2-.1.2h-.5v.2Zm-6-4.5h0m-1.5-.6h0m.6-.1h0m.7,0h0m1.6-.3h0m.7-5.4h0"/>
    <path class="cls-2" d="M69.1,55.6h0"/>
    <path class="cls-2" d="M70.2,63.6l.6.3.5.2s.1.1-.1.2l-.5.6-.2.2c0,.1-.1.1-.1.2h-1s-.2,0-.1-.1H70c.2-.1.2-.2.3-.4s0-.4,0-.6a1,1,0,0,0-.1-.4m-.2-.2v.2a1,1,0,0,1,.1.4v.6h0l-.2.3h-.7c-.1,0-.1.1-.1.2h0c-.1.1,0,.2.1.2h.8c.3,0,.3-.1.4-.2h.1l.2-.3.4-.5c.2-.2.2-.3.2-.3h-.6l-.6-.3Z"/>
    <path class="cls-2" d="M69.5,65.7h-.2c-.2-.1-.2-.2-.2-.3h0a.4.4,0,0,1,.1-.3h.4a.1.1,0,0,0,.1.1h.2c.2,0,.2,0,.2-.2a.6.6,0,0,0,.1-.4h-.1v-.5l-.2-.5.4.3.6.2h.2l.3.2h.1a.4.4,0,0,1-.2.4l-.5.5a.4.4,0,0,1-.1.3h-.2c0,.1-.1.3-.4.3h-.4c0,.1-.1.1-.2.1m-.2-.4h.8c.2,0,.2-.1.2-.1s.1-.1.1-.2h.1l.2-.3.4-.5c.1-.1.2-.1.2-.2h-.5l-.5-.2V64h.1a1.3,1.3,0,0,1-.1.6.3.3,0,0,1-.3.3h-.7m0,0"/>
    <path class="cls-2" d="M66.2,57.9h0"/>
    <path class="cls-2" d="M67.1,58.6h.7c.1-.1.1-.1,0-.1h0c.1,0,.1,0,.1.1h-.1a.1.1,0,0,0-.1.1h-.6"/>
    <path class="cls-2" d="M66.6,59.7h0"/>
    <path class="cls-2" d="M65.8,59.1h-.2a.1.1,0,0,1-.1.1h.3"/>
    <path class="cls-2" d="M65.7,58.9h0"/>
    <path class="cls-2" d="M69.5,59.9H67.7a.1.1,0,0,0-.1-.1h-.2c0-.1,0-.1-.1,0a.1.1,0,0,1-.1-.1h-.1c0-.1-.1-.1-.1-.2h.1a.1.1,0,0,1,.1-.1h.1a.1.1,0,0,0-.1.1h-.1a.1.1,0,0,1,.1.1h.4c0,.1,0,.1.1.1h0a.1.1,0,0,1,.1.1h-.1a.1.1,0,0,0,.1-.1h.4c.1,0,.1,0,.1.1h.6a.1.1,0,0,1,.1-.1h0a.1.1,0,0,0,.1-.1h.2a.1.1,0,0,0,.1.1h.1Z"/>
    <path class="cls-2" d="M66.3,60.4h-.1a.1.1,0,0,0,.1-.1h0V60h0"/>
    <path class="cls-2" d="M66.4,59.8H66c-.1,0-.1,0-.1-.1h.5"/>
    <path class="cls-2" d="M65.8,59.6h0"/>
    <path class="cls-2" d="M69,58.2h0c-.1,0-.1,0-.1.1H69V59h0a.1.1,0,0,1-.1-.1h0v-.2H69"/>
    <path class="cls-2" d="M69.2,60h0"/>
    <path class="cls-2" d="M68.4,59.6h-.1a.1.1,0,0,0,.1-.1"/>
    <path class="cls-2" d="M68,59.2h.2a.1.1,0,0,0,.1.1h-.1c.1,0,.1,0,.1-.1h.1a.1.1,0,0,1-.1.1h-.1a.1.1,0,0,0-.1-.1H68"/>
    <path class="cls-2" d="M67.9,59.3h0c.1,0,.1,0,.1.1h0c0,.1,0,.1.1.1h0a.1.1,0,0,1-.1.1h0c0-.1,0-.1-.1-.1h0"/>
    <path class="cls-2" d="M69.9,62.2h0v.2h-.1a.1.1,0,0,1,.1-.1v-.2h0"/>
    <path class="cls-2" d="M68.4,55.7h.1a.1.1,0,0,0-.1.1h0a.1.1,0,0,1-.1-.1h-.1a.1.1,0,0,1,.1-.1h.1"/>
    <path class="cls-2" d="M69.2,56.5h.1a.1.1,0,0,1,.1.1h.1a.1.1,0,0,1,.1-.1c.1,0,.1,0,.1-.1h0a.1.1,0,0,0,.1.1h-.6"/>
    <path class="cls-2" d="M69,56.3h0c-.1,0-.1,0-.1.1h0a.1.1,0,0,0,.1.1h0c.1.1.1.1.1.2s-.1.1-.1.2h-.1c-.1,0-.1,0-.1.1h-.1a.1.1,0,0,1,.1-.1h0c-.1-.1-.1-.1-.1-.2h0c0-.1.1-.1.1-.2h.1c0-.1,0-.1.1-.1h0v-.2h-.2c.1,0,.1,0,.1-.1H69"/>
    <path class="cls-2" d="M68.4,57.1h-.1c0,.1,0,.1-.1.1h0a.1.1,0,0,0-.1.1h.1a.1.1,0,0,1,.1-.1h.1"/>
    <path class="cls-2" d="M68.1,56.4h0"/>
    <path class="cls-2" d="M68,56.6h0"/>
    <path class="cls-2" d="M69.5,56.9h0"/>
    <path class="cls-2" d="M69.3,58h.1a.1.1,0,0,0,.1.1h-.1a.1.1,0,0,1-.1.1"/>
    <path class="cls-2" d="M69,57.9a.1.1,0,0,1,.1-.1h.1a.1.1,0,0,1,.1-.1H69"/>
    <path class="cls-2" d="M69.7,57.5h0"/>
    <path class="cls-2" d="M67.8,57.4h0a.1.1,0,0,1-.1.1h-.9c.1,0,.1,0,.1-.1H67c0-.1,0-.1.1-.1h.2a.1.1,0,0,1,.1.1h.4"/>
    <path class="cls-2" d="M68.4,58h0a.1.1,0,0,0,.1.1v.2h-.1v-.2h0"/>
    <path class="cls-2" d="M68.3,57.4h.1a.1.1,0,0,0-.1.1h.1c0,.1-.1.1-.1.2h-.2a.1.1,0,0,0,.1-.1h.1v-.2h0c.1,0,.1,0,.1-.1h-.1"/>
    <path class="cls-2" d="M69.5,58.8h-.1a.1.1,0,0,0-.1-.1h0a.1.1,0,0,1,.1-.1H70c0,.1-.1.1-.2.2h-.3"/>
    <path class="cls-2" d="M68.5,59.2h0a.1.1,0,0,0,.1-.1h-.1"/>
    <path class="cls-2" d="M68.2,59.1h0c0-.1,0-.1.1-.1h0c0-.1,0-.1.1-.1h.1c-.1,0-.1,0-.1.1h0a.1.1,0,0,1-.1.1h-.1"/>
    <path class="cls-2" d="M69.5,59h.1c.1,0,.1,0,.1.1h-.2"/>
    <path class="cls-2" d="M66.5,56.6h0"/>
    <path class="cls-2" d="M67.4,56.3h-.6c0,.1,0,.1.1.1h.5"/>
    <path class="cls-2" d="M67.1,56.5h-.2v-.2h.4v.2h-.2m0-.3h0"/>
    <path class="cls-2" d="M66.6,57.2s0,.2-.1.2v-.2"/>
    <path class="cls-2" d="M66.8,57.4a.3.3,0,0,0-.1-.2h0"/>
    <path class="cls-2" d="M69.3,55.9l-.9-.2H67.3v-.3l1,.2,1.1.2Z"/>
    <path class="cls-2" d="M71.8,57.1a.8.8,0,0,1,.7.4h0s.3,0,.4.2v.8s-.5-.3-.6-.6.1-.4.1-.4a.7.7,0,0,0-.5-.3h-.2a1.3,1.3,0,0,0-.3,1.9c.6,1.1,1.5,2.5.6,3.2a.8.8,0,0,0-.2-.5l-.2-.2s.3-.1.1-.9-1-2.1-.7-2.9.5-.8.8-.8m0-.1h0a1.2,1.2,0,0,0-.9.8,3.7,3.7,0,0,0,.4,2.2l.3.8c.1.6,0,.7-.1.8h0l.2.3a.8.8,0,0,1,.2.5h.2a1.2,1.2,0,0,0,.3-1.4,5.1,5.1,0,0,0-.7-1.5.8.8,0,0,1-.2-.4,1.4,1.4,0,0,1-.2-1.2c.1-.3.2-.5.5-.6s0-.1.1-.1l.3.2c0,.1-.1.3,0,.5a3.4,3.4,0,0,0,.6.6h.1c.1,0,.1-.5,0-.8s-.2-.3-.4-.3a.7.7,0,0,0-.7-.4"/>
    <path class="cls-2" d="M71.9,62.7v-.2l-.2-.5-.2-.2-.3-.2h.3s.2-.1,0-.7a1.6,1.6,0,0,0-.3-.8c-.2-.8-.6-1.6-.3-2.2s.6-.9.9-.9a1.2,1.2,0,0,1,.8.4c.2,0,.3.2.4.4a2,2,0,0,1,0,.8v.2h-.2c-.1-.1-.6-.3-.7-.6a.7.7,0,0,1,.1-.5c-.1-.1-.3-.2-.4-.1a1,1,0,0,0-.5.6,1.9,1.9,0,0,0,.2,1.2.5.5,0,0,1,.2.4,10.9,10.9,0,0,1,.8,1.5,1.4,1.4,0,0,1-.4,1.4Zm-.3-1,.3.2c.1.1.1.3.2.4s0-1.7-.5-2.6l-.3-.4a2.4,2.4,0,0,1-.2-1.4,1.3,1.3,0,0,1,.6-.7h.2a.7.7,0,0,1,.5.3h0a.4.4,0,0,0-.1.3,1.2,1.2,0,0,0,.5.5c0-.2.1-.5,0-.7a.4.4,0,0,0-.3-.2h-.1a.7.7,0,0,0-.6-.4c-.3,0-.6.3-.7.8a3.8,3.8,0,0,0,.3,2,3.2,3.2,0,0,1,.3.9c.2.6,0,.8-.1.9m-.2-.1Z"/>
    <path class="cls-2" d="M65.9,47.6h0"/>
    <path class="cls-2" d="M66.3,47.5h0"/>
    <path class="cls-2" d="M66.3,47.7h0"/>
    <polyline class="cls-2" points="67 47.8 67 47.8 67.1 47.8 67.1 47.8 67 47.8"/>
    <path class="cls-2" d="M67.8,47.5Z"/>
    <path class="cls-2" d="M54.4,41.3H48.8V39.8h.3l.8-4a.1.1,0,0,0-.1-.1c0-.1-.2-.9-.2-.9v-.2h1v.3h.2v-.3h1.6v.3h.4a.1.1,0,0,1,.1-.1v-.2a1.5,1.5,0,0,1,.8,0H54l-.4,1.1.4,4h.4v1.5ZM53,41h1.1v-.9h-.3l-.5-4.3.3-.8h-.5c-.1.3-.2.3-.3.3h-.6v-.4h-1v.4h-.6l-.2-.4h-.5a4.1,4.1,0,0,1,.2.7h0L49.4,40h-.3v1H53"/>
    <path class="cls-2" d="M52.4,41.3H52v-.2h.4v.3"/>
    <path class="cls-2" d="M50.7,40.4h0"/>
    <path class="cls-2" d="M50.7,40.3h0"/>
    <path class="cls-2" d="M52,40.9h0"/>
    <polyline class="cls-2" points="52 40.4 52 40.4 52 40.4 52 40.4"/>
    <path class="cls-2" d="M52,40.2h0v-.2"/>
    <path class="cls-2" d="M52,40.7v-.2h.3a.3.3,0,0,1,.1.2H52Z"/>
    <path class="cls-2" d="M52.3,40.1H52v-.2h.2c.1,0,.1,0,.1.1v.2"/>
    <polygon class="cls-2" points="51.5 39.8 51.5 39.8 51.5 39.8 51.5 39.8 51.5 39.8"/>
    <polyline class="cls-2" points="51.7 39.7 51.7 39.7 51.7 39.7 51.7 39.7"/>
    <path class="cls-2" d="M51.9,39.9c0-.1,0-.1-.1-.2h.1s0-.1.1,0h.1Z"/>
    <path class="cls-2" d="M51.8,39.6h0c0,.1,0,.1-.1.1h-.2v-.3h.4Z"/>
    <path class="cls-2" d="M51.4,39.7h-.1v-.2h.2Z"/>
    <path class="cls-2" d="M51.2,39.8c0,.1,0,.1-.1.2h0v.2"/>
    <path class="cls-2" d="M50.9,40h.2c0,.1,0,.1-.1.1h-.1"/>
    <path class="cls-2" d="M50.7,40.7H51v.2h-.3v-.2"/>
    <path class="cls-2" d="M50.7,41h-.1a.1.1,0,0,1,.1-.1h0"/>
    <path class="cls-2" d="M51.1,41s-.2-1.2.4-1.2S52,41,52,41Z"/>
    <path class="cls-2" d="M61,41.3H55.3s.1-.6.1-.8v-.5h.3l.7-4h0c0-.1-.2-.9-.2-.9v-.2h1.1v.3h.2v-.3H59v.3h.4c.1-.2.2-.2.2-.2s.1-.1.8,0h.2l-.5,1.1.5,4H61v1.5ZM59.6,41h1.1v-.9h-.4l-.5-4.3.4-.8h-.5c-.2.3-.2.3-.3.3h-.7v-.4h-.9v.4h-.7v-.4h-.5a4.1,4.1,0,0,1,.2.7h0L55.9,40h-.3v1h4"/>
    <path class="cls-2" d="M58.9,41.3h-.3v-.2h.3v.3"/>
    <path class="cls-2" d="M57.3,40.4h0"/>
    <path class="cls-2" d="M57.3,40.3h0"/>
    <path class="cls-2" d="M58.6,40.9h.2c0,.1,0,.1.1.1h-.3"/>
    <polyline class="cls-2" points="58.6 40.4 58.6 40.4 58.6 40.4 58.6 40.4"/>
    <path class="cls-2" d="M58.6,40.2h.2c0,.1-.1.1-.2.1v-.2"/>
    <path class="cls-2" d="M58.6,40.7v-.2h.3v.2h-.3Z"/>
    <path class="cls-2" d="M58.8,40.1h-.2a.3.3,0,0,0-.1-.2h.3a.1.1,0,0,1,.1.1.3.3,0,0,1-.1.2"/>
    <polygon class="cls-2" points="58 39.8 58 39.8 58.1 39.8 58 39.8 58 39.8"/>
    <polyline class="cls-2" points="58.3 39.7 58.3 39.7 58.3 39.7 58.3 39.7"/>
    <path class="cls-2" d="M58.5,39.9c0-.1-.1-.1-.1-.2h.1s0-.1.1,0a.1.1,0,0,0,.1.1Z"/>
    <path class="cls-2" d="M58.4,39.6H58v-.3h.4Z"/>
    <path class="cls-2" d="M58,39.7h-.1l-.2-.2h.2Z"/>
    <path class="cls-2" d="M57.8,39.8c0,.1-.1.1-.1.2h-.2a.1.1,0,0,1-.1-.1h0a.1.1,0,0,0,.1-.1h.2a.3.3,0,0,0,.1.2"/>
    <path class="cls-2" d="M57.4,40h0"/>
    <path class="cls-2" d="M57.3,40.7h.3v.2h-.3v-.2"/>
    <path class="cls-2" d="M57.3,41h-.1a.1.1,0,0,1,.1-.1h0"/>
    <path class="cls-2" d="M57.6,41s-.1-1.2.5-1.2.5,1.2.5,1.2Z"/>
    <path class="cls-2" d="M54.4,48.4H52.7a15.9,15.9,0,0,1-2.2,0H48.8V46.9h.3l.8-4h-.1c0-.1-.2-.9-.2-.9h1V42h.2v-.3h1.5V42h.4v-.2h1l-.4,1.1.4,4h.1a.1.1,0,0,1,.2,0h.1v1.4ZM53,48.2h1.1v-1h-.3l-.5-4.2.3-.8h-.4c-.1,0-.1,0-.1.1s-.2.3-.3.2h-.6V42h-1v.3h-.6l-.2-.3h-.5l.2.7v.2h.1l-.8,4.3h-.3v1H53"/>
    <path class="cls-2" d="M52.4,48.4H52v-.2h.4v.2"/>
    <path class="cls-2" d="M50.7,47.5h0"/>
    <path class="cls-2" d="M50.7,47.4h0"/>
    <path class="cls-2" d="M52,48h0"/>
    <polyline class="cls-2" points="52 47.5 52 47.5 52 47.5 52 47.5"/>
    <path class="cls-2" d="M52,47.3h.3v.2H52v-.2"/>
    <path class="cls-2" d="M52,47.9v-.3h.3a.3.3,0,0,1,.1.2c0,.1-.1.1-.1.2Z"/>
    <path class="cls-2" d="M52.3,47.2H52v-.2a.2.2,0,0,1,.2-.2h0a.1.1,0,0,1,.1.1v.2"/>
    <polygon class="cls-2" points="51.5 46.9 51.5 46.9 51.5 46.9 51.5 46.9 51.5 46.9"/>
    <polyline class="cls-2" points="51.7 46.8 51.7 46.8 51.7 46.8 51.7 46.8"/>
    <path class="cls-2" d="M52,47h-.2v-.2H52c.1.1.1.1.1.2Z"/>
    <path class="cls-2" d="M51.8,46.7h-.3v-.3h0c0-.1,0-.1.1-.1h.3Z"/>
    <path class="cls-2" d="M51.4,46.9h0Z"/>
    <path class="cls-2" d="M51.2,47h-.1c.1,0,.1.1.1.2"/>
    <path class="cls-2" d="M50.9,47.1h0"/>
    <path class="cls-2" d="M50.7,47.9H51V48h-.3"/>
    <path class="cls-2" d="M50.7,48.1h-.1a.1.1,0,0,0,.1-.1h0"/>
    <path class="cls-2" d="M51.1,48.2s-.2-1.3.4-1.3.5,1.3.5,1.3Z"/>
    <path class="cls-2" d="M56.4,43.8h.1v-.2h-.3v.3h.2"/>
    <path class="cls-2" d="M55.6,47.4v-.3h.3c-.2.1-.3.1-.4,0h-.1v.3h.2"/>
    <path class="cls-2" d="M55.6,47.4h-.2v.2h.3Z"/>
    <polygon class="cls-2" points="55.2 49.8 55.2 49.7 47.9 49.7 47.9 49.8 55.2 49.8"/>
    <path class="cls-2" d="M57.3,49.7h0Z"/>
    <rect class="cls-2" x="55.2" y="49.7" width="0.3" height="0.13"/>
    <path class="cls-2" d="M57.6,49.8v0Z"/>
    <path class="cls-2" d="M56.3,53.5c-1,0-1.2-.2-1.2-.2h0V53h0l.2-.2h0a4.4,4.4,0,0,0,1.2.2,2.4,2.4,0,0,0,1-.2h0s.2.1.2.2v.2h0s-.1.2-1.2.3h-.2"/>
    <polygon class="cls-2" points="58 53.4 58 53.2 57.9 53.1 55.1 53.1 54.7 53.5 54.7 53.8 54.7 53.8 57.4 53.8 57.5 53.8 58 53.4"/>
    <polygon class="cls-2" points="57.5 53.8 57.5 53.5 58 53.2 58 53.1 57.5 53.5 57.5 53.8 57.5 53.8"/>
    <path class="cls-2" d="M55.4,46.9a1.7,1.7,0,0,1-.7-1.3,1.6,1.6,0,0,1,.4-1.2,2.4,2.4,0,0,1,1.1-.6v-.2a1.9,1.9,0,0,0-1.9,2,2.1,2.1,0,0,0,1,1.7v-.4h0"/>
    <path class="cls-2" d="M58.1,45.5a1.6,1.6,0,0,1-.7,1.5H55.6v.2h.8c.4.1.9.2,1.1,0a2,2,0,0,0,.9-1.7,1.8,1.8,0,0,0-1.8-1.9v.2a1.6,1.6,0,0,1,1.6,1.7"/>
    <path class="cls-2" d="M55.6,47.7h1.7v.5h.3v-.7h-.1a3.1,3.1,0,0,0-1-.2l-.9.2h0v.2"/>
    <path class="cls-2" d="M55.4,48.4h-.1v-.2a2.6,2.6,0,0,1,.1-.7h-.2v2.1h.2Z"/>
    <path class="cls-2" d="M57.3,48.4v1.2h.3v.2h0V48.4h-.3"/>
    <path class="cls-2" d="M57.3,49.8v3a5,5,0,0,1-1.8,0v-3h-.2V53h.1l1.1.2a4.4,4.4,0,0,0,1.2-.2h0V49.8Z"/>
    <path class="cls-2" d="M55.3,48.4h.1v-.6h.2v-.2h-.2a2.6,2.6,0,0,0-.1.7Z"/>
    <path class="cls-2" d="M57.3,48.2v.2h.3v-.2h-.3"/>
    <path class="cls-2" d="M55.4,47.6h-.2v-.3h0a4.1,4.1,0,0,1,1.4-.3,2.7,2.7,0,0,1,1.3.2h.1l-.2.4H56.4l-1,.2Z"/>
    <path class="cls-2" d="M57.5,49.9a2.4,2.4,0,0,0-1-.6,2,2,0,0,1-1.1-.6h-.1v1.2h0c.1.2.3.4,1.1.7a1.4,1.4,0,0,1,1,.7h.1V49.9Zm-1.6-.2h0V50h-.1v-.8h.1c.1,0,.2.1.2.3s-.1.3-.2.2m.6.7h-.3v-.8h.1v.8h.1v-.2h0v.3h0m.4-.8h0v.7a.1.1,0,0,1-.1.1.2.2,0,0,1-.2-.2v-.7h.1v.7c0,.1,0,.1.1.2h0v-.7h.1m.3,1.2h-.1v-.4h0c0,.1,0,.3.1.3h0a.8.8,0,0,0-.1-.4v-.4h.2v.3h0c-.1-.1-.1-.3-.2-.4h0a1.6,1.6,0,0,0,.1.4.8.8,0,0,1,.1.4h-.1m-1.3-1.5h0v.4h0c.1.1.1,0,.1-.1s0-.2-.1-.2"/>
    <polygon class="cls-2" points="56.6 43.3 56.6 43.1 56.5 43.1 56.5 43 56.3 43 56.3 43.1 56.2 43.1 56.2 43.3 56.3 43.3 56.3 43.6 56.5 43.6 56.5 43.3 56.6 43.3"/>
    <polygon class="cls-2" points="57.5 53.5 57.5 53.5 54.7 53.5 54.7 53.5 57.5 53.5"/>
    <path class="cls-2" d="M59.1,66.5h0c0-.1,0-.1-.1-.1h.1"/>
    <path class="cls-2" d="M55.6,53.1h0s.1,0,.1.2H56c.1,0,.2.2.2.5s-.1.5-.2.7-.1.4-.2.6a.4.4,0,0,0,.1.3h.4a.8.8,0,0,1,.2.4v.4c0,.1.1.1.2.2s.1.1,0,.3h0a.1.1,0,0,1,.1.1h0a.1.1,0,0,0,.1.1H57c0,.1.1.2.1.3v.3a.7.7,0,0,1,.5.4c.1.4.3.8.3.9h0a.1.1,0,0,0,.1.1c0,.2.1.3.1.5h0v.3a2.2,2.2,0,0,0,.3.8,2.8,2.8,0,0,1,.5,1.1,3.8,3.8,0,0,0,.1.8h0a.7.7,0,0,1,.3.5h.1c0,.1,0,.2.1.2h.1c0,.1,0,.1.1.1h.1c.1,0,.1,0,.1.1h.3a.1.1,0,0,1,.1-.1v.2h-.1v.2h.2v.2h0c0,.1-.1.1-.1.2s0,.1,0,.1a.1.1,0,0,1,.1.1c-.1.1,0,.1,0,.1h.2l-.2.3h-.1a.1.1,0,0,1,0,.2l-.2.2h-.4s.1,0,0,.1h-.9c0,.2-.1.2-.1.3h-.2c-.1,0-.2-.1-.1-.2h-.1a.3.3,0,0,0-.1.2c0-.1-.1-.1-.1-.2h-.3v-.2h0c-.1,0,0-.1,0-.1h-.1a.1.1,0,0,0-.1.1h-.2v-.2c0-.1.1-.1,0-.2h0v-.2h-.1v.2a.1.1,0,0,1-.1-.1v.3h0s-.3-.1-.2-.2V65a1.5,1.5,0,0,0-.1.6l-.2.2h-.1v-.2h0v.2h0l-.2.2a.3.3,0,0,0-.1-.2v.2a.3.3,0,0,0-.1-.2v0h-.1a.3.3,0,0,1-.1-.2v-.2h-.1v-.4a.3.3,0,0,1,0-.4h-.1v0h0a.1.1,0,0,1-.1-.1v.6a1,1,0,0,0-.1.3.4.4,0,0,1-.1-.3v-.2a.4.4,0,0,1-.1.3h0l-.2-.2a1.1,1.1,0,0,1-.1-.5h0V65c0,.2-.1.2-.1.3a.3.3,0,0,1-.1.2h0v-.2h0a.8.8,0,0,1-.1-.4v-.2h0v-.3h0v.2h0v.4h0a.3.3,0,0,1-.1-.2h0a.1.1,0,0,1-.1-.1v-.3l-.2.3v-.2h-.1v-.4c0-.1.1-.3.1-.4a2.3,2.3,0,0,1,.1-.4c0-.1.1-.4.1-.5s.1,0,.1-.1h0c0-.1,0-.2-.1-.2s-.1-.3,0-.4,0-.3,0-.5,0-.3.1-.4h0v-.2c-.1,0-.1-.1-.1-.2a.3.3,0,0,1-.1.2,2,2,0,0,0-.5.5l-1.3.7-.7.4c-.1.2-.1.2-.2.2h-.2a.3.3,0,0,0,.1.2h0a.3.3,0,0,1,.1.2h-.1a.1.1,0,0,1-.1-.1h-.3v-.2h-.2a.1.1,0,0,1-.1-.1H50c-.1,0-.1,0-.1-.1h-.1v-.2h.1l-.3-.2h-.3a.1.1,0,0,1-.1-.1h0c0,.1,0,.1-.1.2v.2h0v-.2c-.1,0-.1-.1-.2-.2h-.4a.1.1,0,0,1,.1-.1v-.4h-.2c0,.1,0,.1-.1.1h0a.1.1,0,0,1,0-.2c0-.1.1-.1.1-.2h-.1a.1.1,0,0,1,.1-.1h0v-.2h-.1c-.1-.1-.1-.1,0-.1h.5a.4.4,0,0,0-.1-.3h.1c0-.1,0-.1.1-.1h0a.1.1,0,0,0,.1-.1h.3c0-.1,0-.1.1-.1h0a.1.1,0,0,0,.1.1h.2c.1,0,.2,0,.2.1h.1c.1,0,.1,0,.1.1h.5v.2a.1.1,0,0,1-.1.1h.2v.5h.2a.5.5,0,0,1-.4.3h.4c0,.1-.1.1-.2.1h-.4s.1.1,0,.3a.3.3,0,0,0,.1.2h.6a2.7,2.7,0,0,0,1-.9,1.7,1.7,0,0,1,.9-.6,1.5,1.5,0,0,1,.3-.5l.2-.4h0c.1-.2.2-.4.3-.4s.1-.2.2-.4h0v-.2a.6.6,0,0,1,.1-.4c0-.2.2-.3.3-.4a.2.2,0,0,0,0-.3c0-.1.1-.2.1-.3v-.3a.6.6,0,0,1,.1-.4h0a.3.3,0,0,1-.1-.2,1,1,0,0,1,.1-.4h0a.3.3,0,0,1,.1-.2h0c0-.1-.1-.2-.1-.3h0l-.3-.2c-.2-.1-.4,0-.4-.2a.1.1,0,0,1,.1-.1h0c-.1,0,.1,0,0-.1h-.5c-.1-.1.3-.1.4-.1h.1a.6.6,0,0,0,.2.4,1.4,1.4,0,0,1,.4.4h.1c0-.1-.1-.2-.2-.3s-.1-.1-.2-.2-.3-.2-.3-.4-.1-.1,0-.1h0c0-.1-.2-.2-.4-.4a.2.2,0,0,1,.1-.4h.1l.2.3H54s.1-.1,0-.3a.8.8,0,0,1-.1-.3h.4c.1,0,.2,0,.2.1s.1.5.1.6.1.2.1.3h0a1.8,1.8,0,0,1-.1-.5.1.1,0,0,1,0-.2s-.1-.2,0-.3h.1l.2.2c0,.1.1.2.1.3s.2.1.1.3v.2h0l.2-.6c0-.3.1-.2.1-.2h.1v-.2m.3,2.3h0m2.2,8.3h.2a.1.1,0,0,1,.1-.1h.1l-.5-1a.5.5,0,0,1-.2-.4v.4a.1.1,0,0,0-.1.1h0a2,2,0,0,1,.3.8c0,.1.1.2.1.3M55.6,53.1h-.3c-.1,0-.1.1-.1.2a.4.4,0,0,1-.1.3h0c0-.1-.1-.1-.2-.2h-.1a.1.1,0,0,0-.1-.1h-.1c-.1,0-.1,0-.1.1h-.7a.4.4,0,0,0,.1.3v.2a.1.1,0,0,0-.1.1l-.2-.2h-.1a.1.1,0,0,0-.1-.1h-.1l-.2.2a.6.6,0,0,0,.1.4l.4.3h-.5v.2h.5a.1.1,0,0,0-.1.1h0c0,.1.1.1.2.1H54l.3.2h0a.4.4,0,0,0,.1.3.3.3,0,0,0-.1.2h0c0,.1-.1.1-.1.2h0a.3.3,0,0,0,.1.2h0a.6.6,0,0,0-.1.4h0v.3h0c0,.1-.1.2-.1.3a.1.1,0,0,1,0,.2.1.1,0,0,1-.1.1l-.2.3a1.1,1.1,0,0,0-.1.5h0l-.2.2h0l-.2.3c0,.1-.1.1-.1.2h0c-.1.1-.2.2-.2.3l-.2.3a.3.3,0,0,1-.1.2,1.7,1.7,0,0,0-.9.6c-.3.4-.6.8-.9.9h-.6v-.2h.3a.5.5,0,0,0,.2-.4h-.1v-.6h0s.1-.1,0-.1a.1.1,0,0,0-.1-.1.1.1,0,0,1-.1.1H50a.1.1,0,0,0-.1-.1h-.1c0-.1-.1-.1-.2-.1h-.7a.1.1,0,0,0-.1.1h-.1a.3.3,0,0,0-.1.2h-.2l.2.2v.2h-.5a.1.1,0,0,1-.1.1.1.1,0,0,0,.1.1h.1c-.1,0-.1.1-.1.2h0v.3h.3a.3.3,0,0,0-.1.2h.5c0,.1,0,.1.1.2h.8v.2a.1.1,0,0,1,.1.1h.1a.1.1,0,0,0,.1.1h.4v.2h.5a.1.1,0,0,0,.1-.1h0a.3.3,0,0,0-.1-.2h.2a.1.1,0,0,1,.1-.1l.6-.4H52l1.2-.7.3-.2.2-.2h0c-.1.1-.2.3-.1.4V62a.3.3,0,0,1,.1.2.5.5,0,0,0-.1.5h.1a.1.1,0,0,0-.1.1.8.8,0,0,0-.1.4h-.1v.5h0c0,.1,0,.2-.1.2h0v.2h0v.2h.2V65h.2c0,.1.1.1.1.2H54c.1,0,.2-.3.2-.3h0l.2.3h.1a.1.1,0,0,0,.1-.1h.3v-.5h.1a.3.3,0,0,0,.1.2h0a.3.3,0,0,1,.1.2l.2.2h.9l.2-.2.2-.3h.3c0,.1,0,.2.1.2s0,.1.1.1H58a.1.1,0,0,1,.1.1h.5v0h0v-.2h.2c0,.1.1.1.2.1h.4V66h0c.1-.1.1-.2,0-.2h.4a.4.4,0,0,0,.2-.3h.2c0-.1.1-.2.1-.3h-.2c0-.1-.1-.1-.1-.2h0a.3.3,0,0,0,.1-.2h-.1l.2-.2h-.3l-.2.2h0a.1.1,0,0,0-.1-.1h-.5c0-.1,0-.1-.1-.2h-.1A.3.3,0,0,0,59,63v-.7a2.7,2.7,0,0,0-.5-1.1h0a1.5,1.5,0,0,1-.3-.8V60a4.3,4.3,0,0,0-.1-.5H58v-.2a3.4,3.4,0,0,1-.3-.8.8.8,0,0,0-.5-.5v-.2c0-.1,0-.2-.1-.2h0a.2.2,0,0,0-.2-.2h0a.1.1,0,0,0-.1-.1c.1-.2,0-.3-.1-.4h-.1v-.3h0a.8.8,0,0,0-.2-.4h-.2a.1.1,0,0,0-.1-.1H56a.3.3,0,0,1-.1-.2v-.2a.4.4,0,0,1,.1-.3h0c.2-.3.4-.5.3-.8s-.1-.6-.3-.6h-.2a.1.1,0,0,1-.1-.1h-.1Zm2.2,9.4h.1a4.1,4.1,0,0,1,.5.9h-.1a.1.1,0,0,1-.1.1h-.1a1.9,1.9,0,0,0-.3-.8h0m-.6,2.9Z"/>
    <path class="cls-2" d="M58.7,66.6v-.2h-.5c-.1,0-.1,0-.1-.1h-.8v-.2h-.3a.4.4,0,0,1-.2.3l-.3.3V66h-.7l-.3-.3v-.2a.1.1,0,0,1-.1-.1h0a.5.5,0,0,0-.1.3l-.2.5v-.3h-.4v-.2a.3.3,0,0,0-.1-.2.2.2,0,0,1-.2.2h-.3v0h-.2l-.4.3v-.5c0-.1.1-.1.1-.2h0v-.2a.1.1,0,0,1,.1-.1v-.2c0-.1.1-.2.1-.3h0c0-.1.1-.2.2-.4h0a.4.4,0,0,1,0-.5h0a.4.4,0,0,1-.1-.3,1,1,0,0,1,.1-.4h0a.1.1,0,0,1-.1.1c-.1.1-.2.1-.3.3l-1.2.7h-.1l-.7.4c0,.1,0,.1-.1.1s0,.1-.1.1a.3.3,0,0,0,.1.2H51v.2h-.7v-.2H50l-.2-.2h0a.1.1,0,0,1-.1-.1h0v-.2h-.4v.2h-.3c-.1,0-.1-.1-.2-.2h-.2a.1.1,0,0,1-.1.1h-.1a.1.1,0,0,1-.1-.1h.1v-.2H48a.4.4,0,0,1,.1-.3h0c-.1-.1,0-.2.1-.3h-.1c-.1-.1-.1-.1-.1-.2a.1.1,0,0,1,.1-.1h.3a.1.1,0,0,1,.1.1h0l-.2-.2h.3a.3.3,0,0,1,.1-.2h.4l.2-.2h.6a.1.1,0,0,1,.1.1h.3a.1.1,0,0,0,.1-.1h.3v.2a.2.2,0,0,1,0,.3h.2v.2c0,.2-.2.3-.2.4h0a.1.1,0,0,0,.1.1H51V62h0c.3,0,.6-.4.9-.8a2.4,2.4,0,0,1,.9-.7h.1c0-.1.1-.2.1-.3s.2-.2.2-.3h.1l.2-.3h.1c0-.1.1-.1.1-.2h.1v-.5q.1-.3.3-.3c0-.1,0-.1.1-.1v-.5c.1,0,.1,0,.1-.1h0c-.1-.1,0-.3,0-.4h-.1v-.4h0a.3.3,0,0,0,.1-.2c0-.1-.1-.2-.1-.3h0c0-.1-.1-.1-.2-.2h-.2l-.3-.2h0a.1.1,0,0,1,.1-.1h-.1a.4.4,0,0,1-.3-.2c-.1-.1-.1-.1,0-.2s.1-.1.3-.2l-.2-.2c-.1-.1-.2-.3-.1-.4a.2.2,0,0,1,.2-.2h.1a.1.1,0,0,1,.1.1h.1c0,.1,0,.1.1.1h.1c-.2-.2-.2-.3-.2-.4H54a.1.1,0,0,1,.1.1h.3c.1-.1.1-.2.2-.2h.2l.2.2h0a.3.3,0,0,0,.1.2h0c0-.1.1-.2.2-.3h.3c.1,0,.1,0,.1.1H56c.2,0,.3.3.4.5a1.9,1.9,0,0,1-.3.9.4.4,0,0,0-.1.3V55a.1.1,0,0,0,0,.2h.1c.1,0,.1.1.2.2h.1a1.1,1.1,0,0,1,.2.5h0a.4.4,0,0,1,.1.3h0a.1.1,0,0,0,.1.1c0,.1.1.2.1.3a.3.3,0,0,1,.1.2h0a.3.3,0,0,1,.1.2h0l.2.3c-.1.1-.1.1-.1.2a.7.7,0,0,1,.5.4,1.9,1.9,0,0,1,.3.9.1.1,0,0,1,.1.1h0a.7.7,0,0,1,.1.5v.2h0a1.6,1.6,0,0,0,.3.8h.1a2.1,2.1,0,0,1,.4,1.1,1.5,1.5,0,0,1,.1.6l.3.4h.2a.1.1,0,0,1,.1.1h.1c.1,0,.2,0,.2.1h.7l-.2.2h0v.2h0v.2h.1v.2a.3.3,0,0,1-.1.2v.2h.3l-.2.3h-.1c-.1.2-.2.2-.3.2h-.4v.2h-.5l-.3-.2h-.2Zm.6-.3Zm-.3-.4h.1a.1.1,0,0,1,.1.1h0a.1.1,0,0,1,.1-.1h0a.1.1,0,0,1,.1.1h.7l.2-.2a.1.1,0,0,0-.1-.1v-.2h.3s.1,0,.1-.2h-.4c0-.1.1-.1.2-.1h0c-.1.1-.3.2-.3.1h-.5c-.1,0-.1,0-.1-.1h-.2a.5.5,0,0,0-.2-.4h-.1v-.2h0a1.5,1.5,0,0,0-.1-.6,2.1,2.1,0,0,0-.4-1h0a1.9,1.9,0,0,1-.4-.9v-.3h0c0-.2,0-.3-.1-.4h-.1a2.9,2.9,0,0,0-.3-.9c0-.2-.2-.3-.4-.4h0a.2.2,0,0,1,0-.3H57c0-.1-.1-.1-.1-.2h-.2a.3.3,0,0,0-.1-.2h0c-.1-.1-.2-.1-.2-.2s0-.2,0-.3h0a1,1,0,0,0-.1-.3v-.2h-.1c0-.1,0-.1-.1-.1h-.4l.2-.2h.1a.2.2,0,0,1-.1-.3v-.2a.8.8,0,0,1,.1-.4.9.9,0,0,0,.3-.7c-.1-.2-.1-.3-.2-.4s-.1,0-.1,0h-.2c0-.1-.1-.1-.1-.2h-.2s-.1,0-.1.2,0,.3-.1.4v.2a.1.1,0,0,1-.1.1H55c0-.1.1-.1.1-.2s0-.2-.1-.2h0c-.1-.1-.1-.2-.2-.2h0a.1.1,0,0,0-.1-.1h-.1s0,.2.1.2h-.1v.2c.1,0,.1.2.1.4h-.1v-.2a.6.6,0,0,1-.1-.4c0-.1,0-.2-.1-.2a.1.1,0,0,0-.1-.1h-.4c0,.1.1.2.1.3s.1.3.1.3,0,.1,0,.1h-.2a.1.1,0,0,0-.1-.1h-.4a.4.4,0,0,0,.1.3l.2.2h.2l.3.3-.4-.2h0c.1.1.2.3.3.3l.3.3h0l.2.2h-.2v.3h.1V56c0,.1-.1.2-.1.4v.2h0c0,.1-.1.3,0,.4h0v.3h-.1v.2c0,.1,0,.3-.1.3s0,.1-.1.1l-.2.3v.4h0a.1.1,0,0,1-.1.1h0c0,.1-.1.1-.1.2a.1.1,0,0,0-.1.1l-.2.3V60c0,.1-.1.2-.2.3l-.2.3v.2a2.1,2.1,0,0,0-.9.6c-.3.4-.6.9-1,.9h-.7v-.5h.2q.1,0,.3-.3h-.3V61h0c0-.1.1-.2,0-.3H50c-.1,0-.1,0-.1-.1h-.2c0-.1,0-.1-.1-.1a.1.1,0,0,1-.1.1h-.8c.1.1,0,.2,0,.3h-.4c0-.1,0-.1-.1-.1h0c0,.1,0,.1.1.1h0c.1,0,.1.1.1.2h-.1a.1.1,0,0,1-.1.1h.1a.1.1,0,0,1,.1-.1.1.1,0,0,1,.1-.1h.1c0,.1-.1.3-.1.4h.4c0,.1.1.2.1.3h.6l.3.2h.6L50,63h0c0-.1,0,0,.1,0h0c.1,0,.1,0,.1.1h.2v.2h.2c.1,0,.1,0,.1.1h.1c0-.1-.1-.1-.1-.2a.1.1,0,0,1-.1-.1h.2a.1.1,0,0,1,.1-.1h.1a1.4,1.4,0,0,1,.7-.4h.1a4.7,4.7,0,0,0,1.2-.7l.3-.3h.2l.2-.3h0v.2c0,.1.1.1.1.2h0v.2a.4.4,0,0,0-.1.3c0,.1,0,.1.1.2s.1.3,0,.4-.1.1,0,.2v.2h0v.2h-.1c0,.1-.1.2-.1.3h0c0,.1-.1.2-.1.3v.6h.2v.2h.1v.2h0c0-.1,0-.2.1-.2h0s-.1-.1,0-.1h.1v.3h0v.2h0v.2h0v0h.1c0-.1.1-.1.1-.2a.3.3,0,0,1-.1-.2h.1a.1.1,0,0,0,.1.1h0a.4.4,0,0,0,.1.3c0,.1,0,.2.1.2h0v-.2h.1v-.4h.1v-.4h.2v.2h0a.1.1,0,0,0-.1.1h.1v.2h.1c0,.1-.1.3,0,.4h0v.2a.1.1,0,0,1,.1.1h.1v0h.1v-.1h.2v0h.2a.1.1,0,0,0,.1-.1h.1v0h0a1.1,1.1,0,0,0,.1-.6c.1-.2.1-.2.1-.7v-.5H57v.8a3.5,3.5,0,0,1-.1.6H57a.4.4,0,0,0,.1-.3h.1v0h.1v.2h.1a.1.1,0,0,1,.1-.1h.1a.1.1,0,0,1,.1.1h.9c0-.1,0-.1.1-.2H59Zm-.7.1h0m.6.1Zm-2.4-.2Zm-1.6-.3h0Zm-1.1-.5h0m1.4-.1h0v-.2h0Zm-2-.1Zm6.9-.8Zm.3-.2h0m-.2,0h0m-9.6-.5Zm.3-.1h0m0-.3h0m-1.1-.4Zm-.6-.2h0m4.4-.2h0m-5.4-.5h0m0-.1h0m0-.1Zm0,0Zm1.4-1.1ZM56,55.3ZM53.7,55h.6a.5.5,0,0,0-.3-.4c-.2-.1-.2-.3-.3-.4h-.3a.1.1,0,0,0,.1.1h.4c0,.1,0,.1-.1.1h-.1m0-.2h0m0-.5h0m.2-.3Zm4.6,9.8h-.2c-.1-.1-.2-.1-.2,0H58v-.4a3.6,3.6,0,0,0-.3-.7c0-.1,0-.1-.1-.1h.1v-.2c.1,0,.1-.1,0-.2h.1a.1.1,0,0,0,.1.1c0,.1.1.2.1.3a4.7,4.7,0,0,1,.5,1h-.1Zm-.3-.4h.1l-.4-.9h0a4.1,4.1,0,0,0,.3.8h0"/>
    <path class="cls-2" d="M58.7,63.8c-.3,0-.3-.1-.3-.3s-.1-.1-.1-.2l-.4-.9-.2-.2a6.9,6.9,0,0,1-.3-.8.6.6,0,0,0-.2-.5c0-.1-.1-.1-.1-.2h0c-.1.1-.1.1,0,.1a.9.9,0,0,1-.1.5,1,1,0,0,1-.6.5l-1,.2a1.3,1.3,0,0,1-.9-.2l-.2-.2h-.1a.4.4,0,0,0,.1-.3c.1-.1,0-.2,0-.3a1.1,1.1,0,0,1-.1-.5.1.1,0,0,0-.1.1v.2c-.2.1-.3.3-.4.4s-.1.1-.2.2l-.3.3a4.5,4.5,0,0,1-1.2.6h-.1l-.7.4H49.9a.1.1,0,0,1,0-.2c.1-.1.1-.1.1-.2s.2-.2.2-.2h.7l.9-.8a1.7,1.7,0,0,1,.9-.7h0a.8.8,0,0,0,.2-.4l.3-.4c.1-.2.2-.3.2-.4h.1c.1-.1.1-.2.2-.4a2.1,2.1,0,0,1,.4-.6l.5-.3h.3v-.2a.3.3,0,0,1-.1-.2H55c0,.1.1.2,0,.2s-.1.1-.2.1h-.2c-.1,0-.2.2-.3.3l-.4.6-.3.5h0l-.2.4-.3.5c-.1,0-.1.2-.2.3l-.2.2a2.1,2.1,0,0,0-.8.6,2.7,2.7,0,0,1-1,.9h-.6a.1.1,0,0,0-.1.1h.4c0,.1,0,.1.1.1h.2c0-.1,0-.1.1-.1s.4-.3.7-.5h.2a6.7,6.7,0,0,0,1.1-.7l.3-.3h.2c0-.1.2-.3.3-.5h.1l.2-.3h0l.3.3h0c0,.1,0,.4.1.5a.5.5,0,0,1,0,.5v.2a.1.1,0,0,1,.1.1l.8.2.9-.2a1.5,1.5,0,0,0,.6-.4v-.7c0-.1.1-.4,0-.6H57a2.6,2.6,0,0,0,.3.8.3.3,0,0,0,.1.2.8.8,0,0,1,.2.6,3.3,3.3,0,0,0,.3.6c0,.1.1.2.1.3a4.7,4.7,0,0,1,.5,1,.1.1,0,0,0,.1.1c0,.2,0,.2.1.2h.1v-.4a4.4,4.4,0,0,0-.1-.9,2.6,2.6,0,0,0-.4-1c-.2-.2-.3-.3-.4-.9l-.2-.9a4.2,4.2,0,0,0-.3-.9.8.8,0,0,0-.5-.5c-.1,0-.2,0-.2-.1l-.5-.3h-.1c-.1,0-.1-.2-.2-.3h0v-.4a1,1,0,0,1,.1.3h.1v.2h.1s.3.3.5.3h.1c.3.1.6.2.7.6a3.3,3.3,0,0,1,.3,1,6.6,6.6,0,0,1,.2.9,1.2,1.2,0,0,0,.4.8,2.5,2.5,0,0,1,.4,1.1,3.7,3.7,0,0,1,.1.8c0,.1.1.5-.1.7h-.2"/>
    <path class="cls-2" d="M55,55.7h-.1c0,.1-.1.1-.1.2a.1.1,0,0,0-.1.1h0c.1,0,.1,0,.1.1H55c.1,0,.1,0,.1.1h.3a.1.1,0,0,0,.1-.1h.4c0-.1.1-.1.1-.2h.2a.1.1,0,0,0-.1.1h0a.1.1,0,0,1,.1-.1h0a.1.1,0,0,1,.1.1H56v.2h-.9c-.1,0-.1,0-.1-.1h0c-.1-.1-.1-.1-.1-.2h-.2a.1.1,0,0,1-.1-.1h.2c0-.1,0-.1.1-.2H55"/>
    <path class="cls-2" d="M55.2,55.7h.2a.1.1,0,0,0-.1-.1h-.1"/>
    <path class="cls-2" d="M55.9,56h0c0,.1,0,.1.1.1h-.1"/>
    <path class="cls-2" d="M56.7,59.1h.2c0,.1,0,.1.1.1h0a.1.1,0,0,1-.1.1h-.1a.1.1,0,0,0,.1-.1h0a.1.1,0,0,0-.1-.1h-.1"/>
    <path class="cls-2" d="M55.5,59.6h0a.1.1,0,0,0,.1.1v.2h0c.1,0,.1,0,.1.1h-.1a.1.1,0,0,1-.1-.1h0"/>
    <path class="cls-2" d="M55.2,60h-.3c0,.1,0,.1-.1.1h-.5c0,.1-.1.1-.1.2h.4c.1,0,.1,0,.1-.1H55c.1,0,.1,0,.1-.1s.1,0,.1-.1"/>
    <path class="cls-2" d="M54.1,59.8c0-.1-.2,0-.4-.4h.1l.4.3Z"/>
    <path class="cls-2" d="M53.9,60.6a1.4,1.4,0,0,1-.6-.5v-.2a1,1,0,0,0,.6.5Z"/>
    <path class="cls-2" d="M57.9,59.4a2,2,0,0,1-1,.5,2.6,2.6,0,0,1,.2.5h.5l.5-.3h0c0-.2-.1-.3-.1-.5h-.1"/>
    <path class="cls-2" d="M57.4,60.4h-.3s-.1-.5-.1-.6h-.1a1.5,1.5,0,0,0,1.1-.4,3.1,3.1,0,0,1,.2.7v.2l-.5.2h-.3m-.2-.1h.5c.2-.1.3-.1.3-.2a4.3,4.3,0,0,0-.1-.5,1,1,0,0,1-.8.4c0,.1.1.3.1.4m.7-.8h0"/>
    <path class="cls-2" d="M55.4,61.8h0"/>
    <path class="cls-2" d="M55.4,61.7h0"/>
    <path class="cls-2" d="M56.3,57.7s-.1-.1,0-.1a.2.2,0,0,1,.2.2h-.2s-.1-.1,0-.1"/>
    <path class="cls-2" d="M56.2,57.8h.1a.3.3,0,0,1,.1.2h-.2"/>
    <path class="cls-2" d="M56.1,57.9h.1c.1,0,.2.1.1.1s0,.1-.1,0a.1.1,0,0,1-.1-.1"/>
    <path class="cls-2" d="M56,58.1h.1a.1.1,0,0,1,.1.1c0,.1,0,.1-.1.1a.1.1,0,0,1-.1-.1"/>
    <path class="cls-2" d="M56,58.2s0-.1.1,0H56c0-.1-.1-.1,0-.1"/>
    <path class="cls-2" d="M55.3,58.3h.1a.3.3,0,0,1,.1.2c-.1,0-.1.1-.2,0h0"/>
    <path class="cls-2" d="M55.7,58.3h.1c.1.1.1.1.1.2s-.2.1-.2,0-.1,0-.1-.1a.1.1,0,0,1,.1-.1"/>
    <path class="cls-2" d="M55.4,58.4h.1a.1.1,0,0,1,0,.2h-.1"/>
    <path class="cls-2" d="M55.9,58.3H56a.1.1,0,0,1-.1-.1"/>
    <path class="cls-2" d="M55.2,58.3h0c.1,0,.1,0,.1-.1h-.1"/>
    <path class="cls-2" d="M55,58.3h.1c.1,0,.2,0,.1-.1h0c-.1,0-.1,0-.1.1H55"/>
    <path class="cls-2" d="M55,58.1h0c.1,0,.1,0,.1-.1H55"/>
    <path class="cls-2" d="M54.9,58s.1-.1.1,0h0c0,.1,0,.1-.1.1h0"/>
    <path class="cls-2" d="M56.1,56h0a.1.1,0,0,0-.1-.1h.1"/>
    <path class="cls-2" d="M54.4,56.6h.1a.1.1,0,0,1,.1.1h-.2"/>
    <path class="cls-2" d="M54.6,57.2h.1c.1,0,.1,0,.1.1h0a.1.1,0,0,0,.1.1h-.1a.1.1,0,0,0-.1.1h.1a.1.1,0,0,1-.1.1h-.1"/>
    <path class="cls-2" d="M54.5,57.1h0s-.1.1,0,.1h0c0-.1,0-.1-.1-.1h.1"/>
    <path class="cls-2" d="M54.4,57.4h0"/>
    <path class="cls-2" d="M54.3,57.5h0"/>
    <path class="cls-2" d="M54.3,56.9h0"/>
    <path class="cls-2" d="M56.3,56.7h.1a.1.1,0,0,1-.1.1h0"/>
    <path class="cls-2" d="M56.2,56.8h0c.1,0,.1,0,.1.1h0a.1.1,0,0,1-.1-.1h0"/>
    <path class="cls-2" d="M56.5,57.2h0"/>
    <path class="cls-2" d="M56.7,57.6h0"/>
    <path class="cls-2" d="M56.9,57.6h0"/>
    <path class="cls-2" d="M54.3,60.5h-.1a.3.3,0,0,1,.1.2h-.1v-.2h.1"/>
    <path class="cls-2" d="M54,61.5h-.1v-.2H54"/>
    <path class="cls-2" d="M53.9,60.9h0a.1.1,0,0,0-.1.1h.1"/>
    <path class="cls-2" d="M55.2,57h0"/>
    <path class="cls-2" d="M55.3,56.9h0"/>
    <path class="cls-2" d="M55.1,57.2h0"/>
    <path class="cls-2" d="M55.1,57.2h0"/>
    <path class="cls-2" d="M55.2,56.4h0"/>
    <path class="cls-2" d="M54.9,56.4h0"/>
    <path class="cls-2" d="M54.9,56.5H55v.2h.1A.1.1,0,0,1,55,57h0v-.2h-.1"/>
    <path class="cls-2" d="M54.7,56.6h.1a.1.1,0,0,1,.1.1h-.2"/>
    <path class="cls-2" d="M54.7,56.6h0"/>
    <path class="cls-2" d="M58,64.1v-.3c0-.1.1-.1.1-.2h.2l.2.2a.1.1,0,0,1-.1.1H58"/>
    <path class="cls-2" d="M57.7,64.6h0v-.3h0v.3h-.1Z"/>
    <path class="cls-2" d="M58,64.5h-.2l-.2.2c-.1,0-.3,0-.3.2s0,.2,0,.3v.2h.2c.1-.1.2-.1.3-.3s0-.4.2-.5"/>
    <path class="cls-2" d="M58.4,64.5s.1.1-.1.1H58c-.1,0-.1-.1-.1-.2h0a1,1,0,0,1,.1-.4h.4v.2"/>
    <path class="cls-2" d="M55.4,56.5s-.1.1,0,.1a.1.1,0,0,0,.1-.1"/>
    <path class="cls-2" d="M55.4,56.5h0"/>
    <path class="cls-2" d="M55.3,56.5h0a.1.1,0,0,0,.1-.1h-.1"/>
    <path class="cls-2" d="M56.9,61.5a.3.3,0,0,1,.1-.2c0-.1.1-.1,0-.2s.1,0,.2,0a.1.1,0,0,1,0,.2c0,.1-.2.3-.3.4a1,1,0,0,1-.7.4H54.6l-.4-.4h.2l.3.2h1.1l.9-.3.2-.2"/>
    <path class="cls-2" d="M55.3,62.3l-.7-.2c-.2-.1-.4-.3-.4-.4s0-.1.1-.1.1,0,.1,0l.3.2h.4a1.6,1.6,0,0,0,.7,0,1.5,1.5,0,0,0,.8-.3c.1,0,.2-.2.2-.2H57v-.2c0-.1,0-.1.1-.1a.1.1,0,0,1,.1.1v.2l-.4.5-.7.4h-.9m-1-.7h0l.3.4h1.6l.7-.4c.1-.1.3-.3.3-.4v-.2h0c0,.1,0,.1-.1.2a.3.3,0,0,1-.1.2l-.2.2-.9.3a1.5,1.5,0,0,1-.7,0h0l-.4-.2h-.4"/>
    <path class="cls-2" d="M54.3,59.8h.2a.1.1,0,0,1,.1-.1.1.1,0,0,0-.1.1h-.2"/>
    <path class="cls-2" d="M56.2,59.7h.2s0,.1-.1,0h-.1"/>
    <path class="cls-2" d="M57.1,61.2h0"/>
    <path class="cls-2" d="M57,61.3h0"/>
    <path class="cls-2" d="M57,61.3h0"/>
    <path class="cls-2" d="M56.9,61.5h0"/>
    <path class="cls-2" d="M56.8,61.6h0"/>
    <path class="cls-2" d="M56.6,61.7h0"/>
    <path class="cls-2" d="M56.5,61.8h0"/>
    <path class="cls-2" d="M56.4,61.8h0"/>
    <path class="cls-2" d="M56.2,61.9h0c0,.1,0,.1-.1.1h.1"/>
    <path class="cls-2" d="M56,61.9h-.1A.1.1,0,0,1,56,62h0"/>
    <path class="cls-2" d="M55.8,62h0a.1.1,0,0,0-.1.1h.1"/>
    <path class="cls-2" d="M55.6,62h0c0,.1,0,.1-.1.1h.1"/>
    <path class="cls-2" d="M55.4,62h-.1c0,.1,0,.1-.1.1h.2"/>
    <path class="cls-2" d="M55.2,62H55a.1.1,0,0,1,.1-.1h.1"/>
    <path class="cls-2" d="M55,61.9h-.3a.1.1,0,0,0,.1-.1H55"/>
    <path class="cls-2" d="M54.8,61.9h-.2c0-.1,0-.1.1-.1h.1"/>
    <path class="cls-2" d="M54.6,61.8h0"/>
    <path class="cls-2" d="M54.5,61.7h0"/>
    <path class="cls-2" d="M64.9,32.7l-.5-.4h-.2v.5l3.6,6.4h.3c.1-.1.2-.1.2-.2h.1Zm3.3,6.4h-.3l-3.5-6.3v-.5h.1l.4.3,3.6,6.1c0,.1-.1.2-.2.3"/>
    <path class="cls-2" d="M68.2,48.2h-.1a3.3,3.3,0,0,1-1.1.6c-.6.2-1,.4-1,.6h0v1.4h0a2,2,0,0,1,1-.7c.9-.3,1.1-.5,1.2-.7h0Zm-1.7,1.1h0v.7c0,.1,0,.2-.1.2s-.1.1-.1,0v-.8h.1v.7h0c.1-.1.1-.1.1-.2v-.7h.1Zm.3.7h-.2v-.8h.1v.8h0v-.3h0Zm.4-.7h0v-.2h0v.8h-.1v-.8h-.1v.3h0v-.3h.4Zm.4.5h-.2v-.2c.1-.1,0-.1,0-.1h0v.4h-.1V49h.1c.1-.1.2,0,.2.1a.4.4,0,0,1-.1.3h0v.3h.1m.4-.3h-.4l.2-.9h0v.8H68m-.2-.5v.4h.1V49Zm-.4-.1h0v.4h0a.3.3,0,0,0,.1-.2c0-.2-.1-.2-.1-.2"/>
    <polygon class="cls-2" points="68.7 53.5 68.7 53.3 68.6 53.2 65.9 53.2 65.4 53.6 65.4 53.9 65.4 53.9 68.2 53.9 68.3 53.9 68.7 53.5"/>
    <polygon class="cls-2" points="68.3 54 68.3 53.6 68.7 53.3 68.7 53.2 68.2 53.6 68.2 54 68.3 54"/>
    <path class="cls-2" d="M73,36.8c-.1-.3-1.3-.3-2.5-.1a8.9,8.9,0,0,0-2.9.9l.2.4a7.3,7.3,0,0,1,2.2-.9c1.3-.2,2.6-.3,2.6,0,.7,2.6-.6,6-2.8,8a1.8,1.8,0,0,1-.7.5v.6c3-2.2,5.1-6.8,3.9-9.4"/>
    <path class="cls-2" d="M66.1,47.1h0a1.9,1.9,0,0,1-.3-2.6A1.7,1.7,0,0,1,67,44h.2a1.7,1.7,0,0,1,1.7,1.6v.2l.2-.2h0a1.9,1.9,0,0,0-1.8-1.9H67a2,2,0,0,0-1.4.6,2.4,2.4,0,0,0-.5,1.4,2.1,2.1,0,0,0,.8,1.6h.2Z"/>
    <path class="cls-2" d="M68.1,47.1q-.1.1-.6,0l-.9.3h.5c.4.1.9.2,1.1,0a1.7,1.7,0,0,0,.9-1.1l-.4.3-.6.6"/>
    <path class="cls-2" d="M68.9,45.8a6.4,6.4,0,0,1-.2.7l.4-.3v-.6l-.2.2"/>
    <path class="cls-2" d="M66.1,47.2h0Z"/>
    <path class="cls-2" d="M67.2,47h-.8v.2h.1c.1,0,.2,0,.2-.1l.9-.3h-.3"/>
    <path class="cls-2" d="M66,47.9h2v.4h.4v-.7H66.1a.4.4,0,0,0-.1.3"/>
    <path class="cls-2" d="M68,47.7v4.9a2,2,0,0,1-1.9,0V47.7h-.3V53H66a2.7,2.7,0,0,0,1.2.3,2.4,2.4,0,0,0,1.1-.3h.1V48.1a.8.8,0,0,1-.1-.4Z"/>
    <path class="cls-2" d="M66.1,47.4v-.2l.6-.2a1.5,1.5,0,0,0-.8.2h.2"/>
    <path class="cls-2" d="M67.2,47h-.8v.2h.1c.1,0,.2,0,.2-.1l-.7.2h.2l1-.2,1.1.2h.2l.2-.3v-.2H67.2"/>
    <path class="cls-2" d="M67.2,46.9h-.5l-.6.2v.2h-.3v.3l.7-.2c0,.1-.1.1-.2.1h-.1v-.2h.8"/>
    <polygon class="cls-2" points="67.3 43.4 67.3 43.3 67.2 43.3 67.2 43.2 67 43.2 67 43.3 66.9 43.3 66.9 43.4 67 43.4 67 43.8 67.2 43.8 67.2 43.4 67.3 43.4"/>
    <polygon class="cls-2" points="68.2 53.7 68.2 53.6 65.4 53.6 65.4 53.7 68.2 53.7"/>
    <path class="cls-2" d="M66,53.1a.1.1,0,0,0-.1.1.1.1,0,0,0,0,.2s.1.2,1.2.2,1.3-.2,1.3-.2v-.3h-.2a4.4,4.4,0,0,1-1.2.2H66"/>
    <path class="cls-2" d="M77.3,36.3,72,31.4h-.3a8.3,8.3,0,0,1-3.2.8,3.4,3.4,0,0,1-2.3-.8h0v-.2h-9v.3a3.5,3.5,0,0,1-1.8.5h-.5a7.1,7.1,0,0,1-2.7-.9h-.2v.2l-5.9,4.7-.2.2.2.2A5.6,5.6,0,0,1,47,37.6a15.3,15.3,0,0,1,.2,4.3c0,1.3-.2,17.2-.1,18.1v.4c0,.6,0,1.8.1,2.9a5.3,5.3,0,0,0,1.2,3.1,5.5,5.5,0,0,0,1.7,1.3,5.4,5.4,0,0,0,2.9.7h1.6l1.2-.2a18.1,18.1,0,0,1,2.9-.4,3.3,3.3,0,0,1,1.5.3,3.4,3.4,0,0,1,1.2,1.2l.2.4.2-.4c.1,0,.9-1.4,2.2-1.6h.2A7.4,7.4,0,0,1,66,68a15.3,15.3,0,0,0,3.3.5h.3a10.6,10.6,0,0,0,4-.8,3.5,3.5,0,0,0,1.6-1.6,5.2,5.2,0,0,0,.7-2.9c.1-3.8-.1-15.8-.1-20.3V41.1c0-2.1.5-3.7,1.5-4.4l.3-.2Zm-1.9,2a20.4,20.4,0,0,0-.4,4.2v7.7h0V62.9c0,2.2-.3,3.4-2.2,4.3a10.7,10.7,0,0,1-5.5.3c-1.1-.1-2.4-.9-3.6-.6a4.5,4.5,0,0,0-2.2,1.3V55.4h-.2V68.1a4.7,4.7,0,0,0-2.2-1.2c-1.2-.3-4.5.4-5.6.6a6.4,6.4,0,0,1-3.8-.8c-1.8-1-2.2-3.2-2.2-5.4V50.1h.1V40.4a16.9,16.9,0,0,0-.2-2.8,4.5,4.5,0,0,0-1-1.5L52,32s3.2,1.7,5.7.1h4V44.5h0V32.2h4c2.5,1.6,6,.2,6,.2l4.7,4.1a6.7,6.7,0,0,0-1,1.9"/>
    <polygon class="cls-2" points="61.6 44.1 61.6 44.1 61.6 44.1 61.6 44 61.6 44.1"/>
    <path class="cls-2" d="M60.3,44.3l-.2-1.5.5-1.1h-1l-.2.2c0,.1,0,.1-.1.2H59v-.4H57.5v.4h-.2v-.4H56.1v.2s.2.7.2.8v.9h.3v-.7h0a1.4,1.4,0,0,1-.2-.7H57v.3h.7V42h.9v.3h.7c.1.1.1,0,.2-.2h.5l-.3.8.2,1.6h.3"/>
    <polygon class="cls-2" points="61.6 44.1 61.6 44.1 61.6 44.1 61.6 44 61.6 44.1"/>
    <path class="cls-2" d="M64,41.5a11.9,11.9,0,0,1,3.2-3.2s-.1-.4-.2-.3a8.4,8.4,0,0,0-3.7,4.1,7,7,0,0,0-.8,2h.4A10.2,10.2,0,0,1,64,41.5"/>
    <path class="cls-2" d="M65.8,47.3h-.3c0,.1.1.2.1.3h.3Z"/>
    <path class="cls-2" d="M61.8,44h-.2a3.3,3.3,0,0,0-1.3.3v.3l1.3-.4h0l.8.2a.4.4,0,0,1,.1-.3h-.7m-.2.1Z"/>
    <path class="cls-2" d="M65.6,49.4a6,6,0,0,1-1.4,4,3.4,3.4,0,0,1-2.5,1.3,3.4,3.4,0,0,1-2.6-1.2,5.8,5.8,0,0,1-1.2-5h-.3v-.3h.3a6.6,6.6,0,0,1,.4-1.5,4.4,4.4,0,0,1,1.7-2v-.3a4.6,4.6,0,0,0-1.9,2.2,7.7,7.7,0,0,0-.5,4,5.2,5.2,0,0,0,1.3,3.1,3.9,3.9,0,0,0,2.8,1.2,3.5,3.5,0,0,0,2.7-1.3,6.7,6.7,0,0,0,1.3-2.7,12.4,12.4,0,0,0,.1-1.5,6.4,6.4,0,0,0-.2-1.4v-.3h-.3c.2.9.3,1.6.3,1.6"/>
    <path class="cls-2" d="M64.4,45.7a3.8,3.8,0,0,1,.8,1.7h.3a8.2,8.2,0,0,0-.9-1.9,3.9,3.9,0,0,0-1.7-1.3.4.4,0,0,0-.1.3,3.4,3.4,0,0,1,1.6,1.2"/>
    <path class="cls-2" d="M65.2,47.4a.8.8,0,0,1,.1.4h.3c0-.1-.1-.2-.1-.3h-.3"/>
    <path class="cls-2" d="M62.9,44.2h-.4a.4.4,0,0,0-.1.3h.4a.4.4,0,0,1,.1-.3"/>
    <path class="cls-2" d="M57.6,48.2v.3h.3v-.3h-.3"/>
    <path class="cls-2" d="M60.3,44.6v-.3H60v.3h.3"/>
    <path class="cls-2" d="M59,51.1a.1.1,0,0,0-.1.1h0a.1.1,0,0,0-.1.1A.8.8,0,0,1,59,51h0"/>
    <path class="cls-2" d="M60.3,49.2h0m.5-.3h0m-1.2,2.2h0m1.3-2.2h0M60.4,51h0c.1,0,.1,0,.1-.1s0,.1-.1.1h0m-.3.2h0m-.4-.1h.1a.1.1,0,0,0,.1.1h-.2m-.6.3h0M61.6,48h0m-1.4,3h0m.4-1.7c0,.1,0,.2.1.2s.1.1.1.2h0a.1.1,0,0,0-.1.1v.3c.1.2,0,.3,0,.5a.1.1,0,0,1-.1.1c.1,0,.1-.1.2-.2v-.5c0-.1.1-.2.1-.3a.2.2,0,0,0,0-.3.3.3,0,0,0-.1-.2c-.1,0-.1-.2,0-.4h0c0,.1,0,.1-.1.1v.3m1-1.3h0m-.3.1h0m-1.4,3.1h0M60,51h0c0-.1.1-.1.1-.2h.1a.1.1,0,0,0,0-.2v-.2h0c0-.1,0-.1.1-.2a.1.1,0,0,1,.1-.1v-.2h0a.1.1,0,0,0-.1-.1h0v-.2h0v.2c-.1.1-.1.3-.2.5s-.1.3-.2.3l-.3.2a.2.2,0,0,0-.2.2L59,51c-.1,0-.1.2-.1.3a.3.3,0,0,0-.1.2h.5l.3-.3h-.4l.3-.3h.4c-.1,0-.1,0-.1.1h0c-.1,0-.1,0-.1.1h.1a.1.1,0,0,1,.1-.1H60a.1.1,0,0,0,0-.2h0c.1,0,.1-.1.1-.2a.1.1,0,0,0,.1-.1v-.2c.1-.1.1-.1.1-.2h0c.1,0,.1,0,.1.1h-.1c0,.1,0,.1-.1.2v.2c-.1,0,0,.1,0,.2h0v.2h-.1c-.1.1-.1.1-.1.2h0a.1.1,0,0,1-.1.1h0a.1.1,0,0,1,.1-.1h0m-.8-.1h-.1a.1.1,0,0,1,.1-.1h0m.6-.3h-.4a.1.1,0,0,1,.1-.1h.1a.1.1,0,0,0,.1-.1h.1M62.7,48h-2c-.2.1-.2.4-.2.6s-.1.2-.1.3-.1.2-.1.4h0c0-.2,0-.2.1-.3h0c.1-.1.1-.1.1-.3h0c0-.2,0-.3.1-.4h.1a.1.1,0,0,0-.1.1h-.2a.3.3,0,0,1-.1.2v.2c0,.1,0,.1.1.1v.4h-.1c0,.1-.1.2-.1.3h0v.2h0a.1.1,0,0,0-.1.1h0a.3.3,0,0,1-.1.2c.1-.1.1-.1.1-.2h.2v-.2h-.1l.2-.3h0v-.2l-.2-.3v-.2h.1a.1.1,0,0,0,.1-.1h.2a.1.1,0,0,1,.1-.1h.4c-.1,0-.1,0-.1.1H61a.1.1,0,0,0-.1.1.1.1,0,0,0-.1.1h.1v.2h-.3a.1.1,0,0,1-.1.1.3.3,0,0,0-.1.2h.2a.1.1,0,0,0,.1.1v.2h-.2v.2h0a.3.3,0,0,1-.1.2h0c.1,0,.1-.1.1-.2h.1c0-.1-.1-.1-.1-.2h0c.1-.1.1-.1.1-.2h.1v-.2h-.1c0-.1,0-.1-.1-.2h0V49h.2a.1.1,0,0,0,.1-.1.4.4,0,0,0,.1-.3h0c0-.1,0-.1.1-.1a.1.1,0,0,1,.1-.1h0c0,.1,0,.1-.1.1h0v.2h-.1a.1.1,0,0,1-.1.1h.1a.1.1,0,0,1,.1-.1h0v-.2h.7a.1.1,0,0,0-.1-.1h.3a.1.1,0,0,1-.1.1h0a.1.1,0,0,1-.1.1H61c0,.1,0,.1.1.1h0a.4.4,0,0,1-.2.4h0a.4.4,0,0,0,.2-.4c0-.1,0-.1.1-.2h.7A.3.3,0,0,1,62,48c0,.1.1.2.2.1l.3.2c0,.1.1.1.2,0s.1-.2,0-.3m-1.8,0c-.1,0-.1,0-.1.1s-.1,0-.1.1h0v.2h-.1a.1.1,0,0,0,.1-.1h.1a.1.1,0,0,1,.1-.1h0m1-.1h0a.2.2,0,0,1-.2.2H62a.1.1,0,0,1-.1.1m.4,0h0m-.2-.1h.4c.1.1.1.1.1,0h.1a.1.1,0,0,1-.1.1h-.1a.1.1,0,0,1-.1-.1h-.2a.1.1,0,0,1-.1-.1h0m.6.5h-.3a.1.1,0,0,0-.1-.1h-.2c-.1,0-.1-.1-.1-.2h.2a.1.1,0,0,0,.1.1h.4a.1.1,0,0,1,.1.1h-.1"/>
    <path class="cls-2" d="M62.4,49.9h0m0,.1h.2a.1.1,0,0,0-.1-.1h-.1m-.1.1h.4c0,.1,0,.1-.1.1h0c0,.1-.1.1-.1,0h-.2m1.5,1c-.1-.1-.1-.1-.1-.2h-.2c-.1-.1-.1-.2-.2-.2a.1.1,0,0,0-.1-.1H63c-.1,0-.1,0-.1-.1l-.2-.2h0a.1.1,0,0,1,.1.1h.1c-.1,0-.1,0-.1.1h-.3a.1.1,0,0,1-.1-.1h-.2l.2.2c0,.1.2.1.3.1h.2c.1,0,.1,0,.1.1s0,.1.1.1h.6a.1.1,0,0,0,.1-.1m-.9-.3Zm.1.1h0c0-.1,0-.1-.1-.1H63v-.2h0a.1.1,0,0,0-.1-.1h0m.2.1h-.1a.1.1,0,0,1-.1-.1h.1a.1.1,0,0,0,.1-.1h.1a.1.1,0,0,0-.1.1h0m.1,0h-.1a.1.1,0,0,0,.1-.1h0m.5.2h-.3c.1.1.2.1.2.2h0c.1,0,.1,0,.1.1M62.5,50h0a.1.1,0,0,1-.1-.1.1.1,0,0,0,.1.1m-.3.2h0Zm.1-.1Zm.4,0h0m-.3-.2c0,.1-.1.1-.1.2h0c0-.1.1-.1.1-.2h0"/>
    <path class="cls-2" d="M61.7,45.4h.1v.2h.1a.1.1,0,0,1,.1.1c0,.1,0,.2-.1.2s-.2.2-.4,0h0a.1.1,0,0,1,.1-.1h.1Z"/>
    <path class="cls-2" d="M62.3,46.3h-.2a.1.1,0,0,1-.1-.1h0c0-.1-.1-.2-.1-.3h.2l.2.2"/>
    <path class="cls-2" d="M62.8,46.7h-.4l-.2-.2h.5c0,.1.1.1.1.2a.1.1,0,0,1,.1.1h0v.2h0a.6.6,0,0,1-.1.4h0c0-.1.1-.1.1-.2a.5.5,0,0,0-.2-.4"/>
    <path class="cls-2" d="M62.5,47.4h0"/>
    <polyline class="cls-2" points="62.5 47.3 62.5 47.3 62.5 47.3 62.5 47.3"/>
    <path class="cls-2" d="M62.5,47.3h0"/>
    <path class="cls-2" d="M62.5,47.2h0"/>
    <path class="cls-2" d="M62.5,47.3h0"/>
    <path class="cls-2" d="M62.6,47.3h0"/>
    <path class="cls-2" d="M62.7,47.2h0"/>
    <path class="cls-2" d="M62.8,47.2h-.2c0-.1,0-.1-.1-.1h.3a.1.1,0,0,0,.1.1h-.1"/>
    <path class="cls-2" d="M62.9,47.1h-.5a.1.1,0,0,0,.1-.1h.4"/>
    <path class="cls-2" d="M62.4,47h-.1a.3.3,0,0,0-.1-.2c0-.1,0-.2-.1-.2h.2c.1,0,.1,0,.1.1h0c0,.1.1.1.1.2a.3.3,0,0,1-.1.2"/>
    <polyline class="cls-2" points="62.4 47.1 62.4 47.1 62.4 47.1 62.4 47.1"/>
    <polygon class="cls-2" points="62.4 47.1 62.4 47.1 62.4 47.1 62.4 47.1"/>
    <path class="cls-2" d="M61.9,47.3h0"/>
    <path class="cls-2" d="M62,47.3h0"/>
    <path class="cls-2" d="M61.9,47.2h0"/>
    <path class="cls-2" d="M62,47.2h0"/>
    <path class="cls-2" d="M62.1,47.1h0"/>
    <path class="cls-2" d="M62.2,47h0"/>
    <path class="cls-2" d="M62.2,47h0"/>
    <path class="cls-2" d="M61.2,47.3h0"/>
    <path class="cls-2" d="M61.2,47.1h0"/>
    <path class="cls-2" d="M61.3,47.3h0"/>
    <path class="cls-2" d="M61.3,47.2h0"/>
    <path class="cls-2" d="M61.5,47.3h0"/>
    <path class="cls-2" d="M61.4,47.2h0a.1.1,0,0,1,.1-.1h0c0-.1,0-.1-.1,0"/>
    <path class="cls-2" d="M61.5,47h-.3c0-.1,0-.1-.1-.1h.4"/>
    <path class="cls-2" d="M61.4,47h0"/>
    <path class="cls-2" d="M61.5,46.5h0"/>
    <path class="cls-2" d="M61.5,46.5h0"/>
    <path class="cls-2" d="M61.4,46.6h0"/>
    <path class="cls-2" d="M61.3,46.7h0"/>
    <path class="cls-2" d="M61.3,46.8h0"/>
    <path class="cls-2" d="M62,46.6h0"/>
    <path class="cls-2" d="M62,46.6h0"/>
    <path class="cls-2" d="M62.1,46.8h0"/>
    <path class="cls-2" d="M62.2,46.8h0"/>
    <path class="cls-2" d="M62.1,46.7h0"/>
    <path class="cls-2" d="M61.9,46.5h-.2a.1.1,0,0,0-.1-.1h-.1a.1.1,0,0,0,.1-.1h0v-.2h0c.1,0,.1,0,.1-.1l.2.3h0a.1.1,0,0,1-.1.1"/>
    <path class="cls-2" d="M61.5,46.9h0"/>
    <path class="cls-2" d="M61.1,46.8a.3.3,0,0,0-.1.2h-.1v-.2h.2"/>
    <path class="cls-2" d="M61.6,46.6h0c0,.1,0,.1.1.1h.2v.2h-.2v-.2"/>
    <path class="cls-2" d="M62.9,47c-.1,0-.1,0-.1-.1h.1"/>
    <path class="cls-2" d="M62.9,47h0"/>
    <path class="cls-2" d="M62.9,46.9h0"/>
    <path class="cls-2" d="M62.8,46.8h0"/>
    <path class="cls-2" d="M62.5,46.7h0"/>
    <path class="cls-2" d="M62.5,46.5h0c0,.1,0,.1.1.1h-.1"/>
    <path class="cls-2" d="M61.5,46h0a.1.1,0,0,1,.1.1v.2h-.3a.1.1,0,0,0-.1.1h-.2a.1.1,0,0,1,.1-.1h.2l.3-.3"/>
    <path class="cls-2" d="M61.1,46.3h0c-.1.1-.1.1-.1.2h-.5a1.3,1.3,0,0,1,.4-.6H61c.2-.1.4-.1.4-.2s-.2.2-.3.3"/>
    <path class="cls-2" d="M60.6,47.3h0"/>
    <path class="cls-2" d="M60.9,47.3h-.2a.1.1,0,0,0,.1-.1h.1"/>
    <polyline class="cls-2" points="60.9 47.3 60.9 47.3 60.9 47.3 60.9 47.3"/>
    <path class="cls-2" d="M60.7,47.4h0"/>
    <path class="cls-2" d="M60.6,47.3h.1c0,.1,0,.1-.1,0"/>
    <path class="cls-2" d="M60.8,47.1h0"/>
    <path class="cls-2" d="M60.8,47h0"/>
    <path class="cls-2" d="M60.7,46.8h-.1c.1,0,.1,0,.1-.1Z"/>
    <path class="cls-2" d="M60.7,46.8h0"/>
    <path class="cls-2" d="M60.7,46.9h0"/>
    <polyline class="cls-2" points="60.8 46.7 60.8 46.7 60.8 46.7 60.8 46.7"/>
    <path class="cls-2" d="M60.6,46.9h-.2V47h.2"/>
    <path class="cls-2" d="M60.5,47.3h.1c0,.1.1.1.2,0s.1,0,.1-.1v-.2h.4v.2h0s0,.1.2.1.2-.1.2-.2h-.1c0-.1,0-.1.1-.1h.1s.1.1.1,0h.1c-.1,0-.1.1,0,.2H62c.1.1.1,0,.2,0v-.2h.3c0-.1.1-.1.1,0h-.1c0,.1,0,.1.1.2h.1c.1.1.2,0,.2-.1h.1c-.2.1-.2.1-.2.2a.1.1,0,0,0-.1.1h-.8l-1.1.2h0c0-.1-.2-.2-.2-.3h0"/>
    <path class="cls-2" d="M62.6,47.9H60.7v-.2h1.9Z"/>
    <path class="cls-2" d="M62.3,47.5h.1c0-.1,0-.2-.1-.2h0m0-.2h0"/>
    <path class="cls-2" d="M61.7,47.4h.1v-.2h-.1m0,0h0c.1,0,.1,0,.1.1h-.1"/>
    <path class="cls-2" d="M61,47.5h.2v-.2H61m0,0h.1c.1,0,.1,0,.1.1H61"/>
    <path class="cls-2" d="M61.6,54.7h0m3.2-2.3h-.3l-.4-.5h0a.8.8,0,0,0-.2-.4h-.3a.1.1,0,0,1-.1-.1h-.4a.1.1,0,0,1-.1-.1h0c.1,0,.1,0,.1.1h.1a.1.1,0,0,0,.1.1h-.1c0-.1,0-.1-.1-.1A.1.1,0,0,0,63,51h-.1c0-.1-.1-.1-.2-.2h-.3a.1.1,0,0,0,.1.1h.2a.1.1,0,0,1,.1.1H63c0-.1,0-.1-.1-.1a.1.1,0,0,0-.1-.1h-.2a.1.1,0,0,0-.1-.1h.3c0,.1,0,.1.1.1a.1.1,0,0,0,.1.1h.1c.1,0,.1,0,.1.1a.1.1,0,0,1,.1.1h0a9951643238336.5,9951643238336.5,0,0,0-.3-.3h-.3c0-.1-.1-.1-.2-.2h0a.1.1,0,0,0-.1-.1h.1a.1.1,0,0,0,.1.1h.1c0,.1,0,.1.1.1s0,.1.1.1H63c0,.1,0,.1.1.1s0,.1.1.1h.1a.1.1,0,0,1-.1-.1h-.5c0-.1,0-.1-.1-.1a.1.1,0,0,0-.1-.1h.2c0,.1,0,.1.1.1h.1c0,.1,0,.1.1.2h.2a.1.1,0,0,1,.1.1.1.1,0,0,0,.1.1h0a.1.1,0,0,1-.1-.1h-.1a.1.1,0,0,1-.1-.1h-.3c0-.1,0-.1-.1-.1h.1c0,.1,0,.1.1.2h0a.1.1,0,0,1,.1.1h.2c0,.1,0,.1.1.2h.1a.1.1,0,0,1-.1-.1.1.1,0,0,0-.1-.1v-.2h-.1a.1.1,0,0,1-.1-.1c-.1,0-.1,0-.1-.1h-.2c0-.1,0-.1-.1-.1h-.1a.1.1,0,0,0-.1-.1h0a.3.3,0,0,1-.1.2h.3a.1.1,0,0,1,.1.1c0,.1.1.1.1.2h.1c0-.1,0-.1-.1-.1h0c0-.1-.1-.1-.1-.2a.1.1,0,0,1-.1-.1.1.1,0,0,0-.1-.1h-.2c-.1,0-.1,0-.1.1h.1a.1.1,0,0,1,.1.1h.1c.1.1.1.3.2.4h0a.8.8,0,0,1-.2-.4h-.1c-.1,0-.1,0-.1-.1h-.1c-.1,0-.1,0-.1-.1h0c0,.1,0,.1-.1.1h0a.1.1,0,0,1,.1.1h0a.1.1,0,0,1-.1-.1.1.1,0,0,0-.1-.1h0l-.2.2h0l.2-.2H62c.1-.1.1-.1.1-.2h.1a.4.4,0,0,0,.1-.3h.1v-.2c0-.1,0-.2-.1-.2h0l-.2-.2H62a.6.6,0,0,1,.2.5c0,.2-.2.3-.3.5h0c-.1.1-.2.1-.2.2a.1.1,0,0,0-.1.1h0l-.2-.2a1.7,1.7,0,0,1-.6-.6c0-.1-.1-.2-.1-.3s0,.1-.1.2h0c0,.1.2.3.3.4h.3c0,.1.1.1.1.2l.2.2h0a.1.1,0,0,1-.1-.1v-.2H61a.1.1,0,0,0-.1.1h0a.1.1,0,0,1-.1.1.4.4,0,0,1-.1.3v.2h-.1c.1,0,.1,0,.1-.1v-.2a.4.4,0,0,0,.1-.3.1.1,0,0,1,.1-.1H61c0-.1,0-.1.1-.1h0c0-.1-.1-.1-.1-.2h-.1a.3.3,0,0,1-.1.2h-.1a.1.1,0,0,1,.1-.1.3.3,0,0,1,.1-.2h-.4v0h.1c.1-.1.1-.1.1-.2h0a.1.1,0,0,1-.1.1.3.3,0,0,1-.1.2h0a.1.1,0,0,0-.1.1h0c0-.1,0-.1.1-.1h0a.3.3,0,0,1,.1-.2c0-.1,0-.1.1-.1h-.1a.1.1,0,0,1-.1.1h0v.2h-.2v.2h0a.1.1,0,0,0,.1-.1c0-.1,0-.1.1-.1v-.2c.1,0,.1,0,.1-.1a.1.1,0,0,1,.1-.1h.2c0,.1,0,.1-.1.1h-.1a.1.1,0,0,1-.1.1h0c-.1,0-.1,0-.1.1a.1.1,0,0,1-.1.1v.2h0c-.1.1-.1.1-.1.2H60v.2a.1.1,0,0,0-.1.1h0a.1.1,0,0,1,.1-.1v-.2h.1c0-.1,0-.1.1-.2h0v-.2h.2c0-.1,0-.1.1-.1h0c.1,0,.1,0,.1-.1h-.2c0-.1,0-.1.1-.1h.1a.1.1,0,0,1-.1-.1c0,.1-.1.1-.2.1h-.2c0,.1,0,.1-.1.1a.2.2,0,0,1-.3,0h-.4l-.3.2h-.3l-.2.2a1.7,1.7,0,0,1-.3.6,5.9,5.9,0,0,0,.4.8h.1v-.2a.1.1,0,0,0,.1-.1h0a.1.1,0,0,1,.1-.1v-.2h.1a.1.1,0,0,0-.1.1v.2a.1.1,0,0,1-.1.1h0c0,.1,0,.1-.1.2h0l.3.4a3.3,3.3,0,0,0,1.7,1,1,1,0,0,0,.1-.3,6.4,6.4,0,0,0,.2-.7V53a1.4,1.4,0,0,1,.2-.6c.1-.2.1-.4.2-.5v-.3l.2.2a3.9,3.9,0,0,0,.2.6c.1.3.1.5.2.9s.1.7,0,.9v.5a2.7,2.7,0,0,0,1.8-1h-.2a.3.3,0,0,1-.1-.2h0a.1.1,0,0,0-.1-.1h0a.1.1,0,0,1,.1.1h0a.3.3,0,0,1,.1.2h.2c0,.1.1.1.1.2s.1-.1.1-.2a6.1,6.1,0,0,0,.7-1h0m-6.5-.1h0m0,0Z"/>
    <path class="cls-2" d="M62.1,49.8h0"/>
    <path class="cls-2" d="M61.9,49.8h0"/>
    <path class="cls-2" d="M60.9,49.4h0"/>
    <path class="cls-2" d="M60.7,49.1h0"/>
    <path class="cls-2" d="M62.6,48.8h-.4c-.1.1-.2,0-.2.2l.2-.3h.4"/>
    <path class="cls-2" d="M62.1,48.8a.3.3,0,0,0-.1.2,1,1,0,0,0,.1.3v.2h-.2a.1.1,0,0,1-.1-.1h0c-.1,0-.1.1,0,.1h.3c0-.1.1-.1,0-.2s-.1-.3,0-.4a.1.1,0,0,1,.1-.1Z"/>
    <path class="cls-2" d="M62.5,49h0"/>
    <path class="cls-2" d="M62.2,48.9h0a.1.1,0,0,0,.2,0,.1.1,0,0,0-.1-.1h0c0-.1,0-.1-.1-.1"/>
    <path class="cls-2" d="M61.2,48.8h.1c.1,0,.2-.1.3,0h-.4"/>
    <path class="cls-2" d="M61.4,48.9a.1.1,0,1,0,.2,0h-.1s.1.1,0,.1-.1-.1,0-.1h-.1"/>
    <path class="cls-2" d="M61.6,49.1h0a.1.1,0,0,0,.1-.1h-.1"/>
    <path class="cls-2" d="M61.3,48.9h0a.1.1,0,0,1,.1.1h-.1Z"/>
    <path class="cls-2" d="M62.5,49h-.1a.1.1,0,0,1-.1.1h.2Z"/>
    <path class="cls-2" d="M62,49.5h0c0,.1,0,.1-.1.1h0c.1,0,.1,0,.1-.1h0"/>
    <path class="cls-2" d="M61.3,49c0-.1,0-.1.1-.1h.1a.1.1,0,0,1,.1.1h-.3"/>
    <rect class="cls-3" x="38.9" y="13.5" width="224.2" height="69.35"/>
  </g>
  <g>
    <g>
      <g>
        <polygon class="cls-4" points="930 50.9 930 81.4 1013.4 81.4 1013.6 50.9 972.8 69.8 930 50.9"/>
        <polygon class="cls-5" points="1027.3 37.9 1031.6 35.6 974 12.5 909.8 35.6 972.8 63.4 1022.8 40.2 1022.8 77.6 1019.8 86.9 1030.3 86.9 1027.3 77.6 1027.3 37.9"/>
      </g>
      <g>
        <path class="cls-6" d="M703.6,55.3V14.1h7.7a62.6,62.6,0,0,1,8.8.4,12.9,12.9,0,0,1,4.8,1.6,9.8,9.8,0,0,1,3.7,3.6,9.7,9.7,0,0,1,1.3,5.1,8.4,8.4,0,0,1-2.1,5.9,11.6,11.6,0,0,1-6.5,2.9,13.1,13.1,0,0,1,7.5,3.3,8.9,8.9,0,0,1,2.6,6.7,10.6,10.6,0,0,1-1.5,5.5,10,10,0,0,1-4,3.9,14.3,14.3,0,0,1-5.4,1.8,62.2,62.2,0,0,1-10.2.5h-6.7Zm8.8-24.7h2q4.1,0,5.7-1.2a4.1,4.1,0,0,0,1.6-3.7c0-1.8-.5-3-1.6-3.7s-2.9-1.1-5.5-1.1h-2.2Zm0,17.9h3.5a7.3,7.3,0,0,0,5-1.5,5.2,5.2,0,0,0,1.8-4.2,4.9,4.9,0,0,0-1.7-4,7.5,7.5,0,0,0-5-1.4h-3.6Z"/>
        <path class="cls-7" d="M742.4,55.3V14.1h24.3v7.4H751.2V30h15.5v7.5H751.2V47.8h15.5v7.5Z"/>
        <path class="cls-8" d="M813,24.8a18.7,18.7,0,0,0-5.5-3.5,17.4,17.4,0,0,0-6.1-1.1q-6.6,0-10.5,3.9A14.6,14.6,0,0,0,787,34.7c0,4.4,1.2,7.8,3.6,10.4s5.8,3.8,10,3.8a18,18,0,0,0,6.6-1.2,17.2,17.2,0,0,0,5.7-3.6v9a18.1,18.1,0,0,1-5.9,2.5,22.7,22.7,0,0,1-6.5.8c-6.5,0-11.9-2-16.2-6.1a20.9,20.9,0,0,1-6.3-15.6,20.5,20.5,0,0,1,6.4-15.5c4.2-4.1,9.6-6.1,16.3-6.1a28.1,28.1,0,0,1,6.5.7,30.2,30.2,0,0,1,6.2,2.1Z"/>
        <path class="cls-9" d="M820.6,55.3l15.7-41.2h10.1l15.9,41.2h-10l-3.4-8.7h-16l-2.8,8.7Zm26.3-15.7-4.7-13.3c-.1-.4-.3-1.1-.5-2s-.4-2.2-.6-3.6c-.3,1.4-.5,2.6-.7,3.6s-.4,1.8-.5,2.2l-4.5,13.1Z"/>
        <path class="cls-10" d="M868.3,50.1l5-5.6a7,7,0,0,0,2.9,3.6,8.6,8.6,0,0,0,4.7,1.4,7.5,7.5,0,0,0,4.9-1.5,4.9,4.9,0,0,0,1.8-4c0-1.9-2-3.9-6-5.8l-3.1-1.5c-3.6-1.9-6.1-3.7-7.5-5.5a10.3,10.3,0,0,1-2.1-6.5,10.1,10.1,0,0,1,4.1-8.3q4.1-3.3,10.5-3.3a14.1,14.1,0,0,1,6.4,1.3,12.4,12.4,0,0,1,4.8,4.1l-5.2,5a6.4,6.4,0,0,0-2.4-2.7,7.5,7.5,0,0,0-3.7-.9,6.5,6.5,0,0,0-4.3,1.3,4.1,4.1,0,0,0-1.6,3.4c0,2.2,2.1,4.2,6.4,6l1.9.8a22.2,22.2,0,0,1,7.8,5.4,10.7,10.7,0,0,1,2.5,6.9,11.8,11.8,0,0,1-3.9,9.3c-2.7,2.3-6.2,3.4-10.7,3.4a18.6,18.6,0,0,1-8.1-1.6A11.7,11.7,0,0,1,868.3,50.1Z"/>
      </g>
      <g>
        <path class="cls-11" d="M709.3,67.3V80.6h-3.5V67.3h-3.9v-3h11.4v3Z"/>
        <path class="cls-12" d="M715.9,80.6l6.2-16.3h4l6.3,16.3h-4l-1.3-3.4h-6.3l-1.1,3.4Zm10.4-6.2-1.8-5.2c-.1-.2-.1-.5-.2-.8L724,67a7.8,7.8,0,0,0-.2,1.4c-.1.4-.2.7-.2.8l-1.8,5.2Z"/>
        <path class="cls-13" d="M736.4,80.6V64.3h3l3.5.2a4.3,4.3,0,0,1,3.4,2.1,4.2,4.2,0,0,1,.5,2,3.2,3.2,0,0,1-.9,2.3,4.2,4.2,0,0,1-2.5,1.2,5.2,5.2,0,0,1,2.9,1.2,3.7,3.7,0,0,1,1.1,2.7,4.3,4.3,0,0,1-.6,2.2,4.6,4.6,0,0,1-1.6,1.5,6.5,6.5,0,0,1-2.1.7,20.7,20.7,0,0,1-4,.2h-2.7Zm3.5-9.8h.8a4.1,4.1,0,0,0,2.2-.4,1.8,1.8,0,0,0,.7-1.5,1.5,1.5,0,0,0-.7-1.4,3.7,3.7,0,0,0-2.2-.5h-.8Zm0,7.1h1.3a2.8,2.8,0,0,0,2-.6,2.2,2.2,0,0,0,0-3.2,2.7,2.7,0,0,0-1.9-.6h-1.4Z"/>
        <path class="cls-14" d="M750.3,80.6l6.2-16.3h4l6.3,16.3h-4l-1.3-3.4h-6.3l-1.1,3.4Zm10.4-6.2-1.8-5.2c-.1-.2-.1-.5-.2-.8l-.3-1.4a7.8,7.8,0,0,0-.2,1.4c-.1.4-.2.7-.2.8l-1.8,5.2Z"/>
        <path class="cls-15" d="M769.8,78.6l1.9-2.2a2.7,2.7,0,0,0,1.2,1.4,3.5,3.5,0,0,0,1.8.5,2.7,2.7,0,0,0,1.9-.6,1.8,1.8,0,0,0,.7-1.5c0-.8-.8-1.6-2.3-2.3l-1.2-.6a8.9,8.9,0,0,1-3-2.2,3.8,3.8,0,0,1-.8-2.5,4.1,4.1,0,0,1,1.6-3.4,6.5,6.5,0,0,1,4.1-1.2,5.3,5.3,0,0,1,2.6.5,5.6,5.6,0,0,1,1.9,1.6l-2.1,2a2.2,2.2,0,0,0-1-1.1,3.3,3.3,0,0,0-1.4-.4,2.4,2.4,0,0,0-1.7.6,1.6,1.6,0,0,0-.6,1.3c0,.9.8,1.6,2.5,2.4l.7.3a8.4,8.4,0,0,1,3.1,2.1,3.9,3.9,0,0,1,1,2.7,4.4,4.4,0,0,1-1.6,3.7,6.1,6.1,0,0,1-4.2,1.4,7.9,7.9,0,0,1-3.2-.7A4.1,4.1,0,0,1,769.8,78.6Z"/>
        <path class="cls-16" d="M798.9,68.6a6.4,6.4,0,0,0-2.1-1.4,6.7,6.7,0,0,0-2.4-.4,5.6,5.6,0,0,0-4.1,1.5,5.4,5.4,0,0,0-1.6,4.2,6,6,0,0,0,1.4,4.1,5.4,5.4,0,0,0,4,1.5,7,7,0,0,0,4.8-1.9v3.6a9.2,9.2,0,0,1-2.3.9,7.5,7.5,0,0,1-2.6.4,8.6,8.6,0,0,1-6.4-2.5,8.7,8.7,0,0,1,0-12.2,9,9,0,0,1,6.5-2.4,10.1,10.1,0,0,1,2.5.2,10.6,10.6,0,0,1,2.5.9Z"/>
        <path class="cls-17" d="M821.1,72.5a8.8,8.8,0,0,1-.6,3.3,7.7,7.7,0,0,1-1.9,2.8,8.4,8.4,0,0,1-2.8,1.8,9.8,9.8,0,0,1-3.3.7,10.5,10.5,0,0,1-3-.5,13.5,13.5,0,0,1-2.6-1.5,8.3,8.3,0,0,1-3.1-6.6,8.8,8.8,0,0,1,.6-3.3,8.3,8.3,0,0,1,1.9-2.7,10.7,10.7,0,0,1,2.8-1.9,9.7,9.7,0,0,1,3.4-.6,9.6,9.6,0,0,1,3.3.6,10.7,10.7,0,0,1,2.8,1.9,8.3,8.3,0,0,1,1.9,2.7A9.6,9.6,0,0,1,821.1,72.5ZM812.5,78a4.8,4.8,0,0,0,3.6-1.6,5.3,5.3,0,0,0,1.5-3.9,5.6,5.6,0,0,0-1.5-3.9,5,5,0,0,0-3.6-1.6,5.1,5.1,0,0,0-3.7,1.6,5.6,5.6,0,0,0-1.5,3.9,5.3,5.3,0,0,0,1.5,3.9A4.9,4.9,0,0,0,812.5,78Z"/>
        <path class="cls-18" d="M846,77.9v2.7H834.7l5.8-7.6a14,14,0,0,0,1.6-2.4,2.9,2.9,0,0,0,.5-1.6,1.8,1.8,0,0,0-.6-1.5,1.9,1.9,0,0,0-1.5-.6,2.1,2.1,0,0,0-1.5.7,2.9,2.9,0,0,0-.6,1.9h-3.3v-.2a5.1,5.1,0,0,1,1.4-3.8,5.7,5.7,0,0,1,4-1.3,6,6,0,0,1,4,1.2,4,4,0,0,1,1.5,3.3c0,1.6-1.3,4-3.8,7.1l-.2.3-1.5,1.8Z"/>
        <path class="cls-19" d="M863,72.6a10.9,10.9,0,0,1-1.5,6.2,5.3,5.3,0,0,1-4.5,2.3,5.2,5.2,0,0,1-4.4-2.3c-1.1-1.4-1.6-3.5-1.6-6.2a11.1,11.1,0,0,1,1.6-6.2,5.2,5.2,0,0,1,4.4-2.2,5.2,5.2,0,0,1,4.5,2.2A10.9,10.9,0,0,1,863,72.6Zm-8.6,0a9.2,9.2,0,0,0,.7,4.1,2.1,2.1,0,0,0,1.9,1.4,2.2,2.2,0,0,0,2-1.4,12.4,12.4,0,0,0,0-8.2,2.1,2.1,0,0,0-2-1.3,2,2,0,0,0-1.9,1.4A8.7,8.7,0,0,0,854.4,72.6Z"/>
        <path class="cls-20" d="M878.4,77.9v2.7H867.2L873,73a14,14,0,0,0,1.6-2.4,4.1,4.1,0,0,0,.5-1.6,1.8,1.8,0,0,0-.6-1.5,2,2,0,0,0-1.5-.6,1.8,1.8,0,0,0-1.5.7,2.9,2.9,0,0,0-.6,1.9h-3.3v-.2a5.1,5.1,0,0,1,1.4-3.8,5.5,5.5,0,0,1,4-1.3,6.2,6.2,0,0,1,4,1.2,3.9,3.9,0,0,1,1.4,3.3c0,1.6-1.2,4-3.7,7.1l-.2.3L873,77.9Z"/>
        <path class="cls-21" d="M895.5,72.6a10.2,10.2,0,0,1-1.6,6.2,5.4,5.4,0,0,1-8.8,0c-1.1-1.4-1.6-3.5-1.6-6.2a10.4,10.4,0,0,1,1.6-6.2,5.1,5.1,0,0,1,4.4-2.2,5,5,0,0,1,4.4,2.2A10.2,10.2,0,0,1,895.5,72.6Zm-8.6,0a11.1,11.1,0,0,0,.6,4.1,2.1,2.1,0,0,0,4,0,11.1,11.1,0,0,0,.6-4.1,11.1,11.1,0,0,0-.6-4.1,2.1,2.1,0,0,0-2-1.3,2.2,2.2,0,0,0-2,1.4A10.5,10.5,0,0,0,886.9,72.6Z"/>
      </g>
    </g>
    <g>
      <rect class="cls-22" x="449.9" y="71.2" width="234.6" height="3.77"/>
      <rect class="cls-23" x="1048.9" y="71.2" width="234.6" height="3.77"/>
    </g>
  </g>
  <path class="cls-24" d="M962.5,24.1h1.2c2.4.2,5.2-.2,6.7-2.8.2-.4.5-.5,1-.6l3.3-.6a11.3,11.3,0,0,1,.8,2.2,3.1,3.1,0,0,0,1.7,1.7h.6c.9,1.1.9,1.1,1.2.4s1,1,.8,2V27a6.7,6.7,0,0,0,.6,1.2,13,13,0,0,0,1.5,2.3,5.2,5.2,0,0,0,1.9,1.4,3.1,3.1,0,0,1,1.1,1.2,3.6,3.6,0,0,0,1.7.7,3,3,0,0,1,2,.6c.1.1.5,0,.7,0l1.2-.3c.7-.1.9-.2.8-1a2.9,2.9,0,0,0-.2-.9c-.1-.8.2-1,1-1.1s2.5.5,3.8.6.7.6,1.1.9l1.2.7.4.2c.2.3.3.6.7.2h.3l2.4,1a.7.7,0,0,1,.4.5c-.1,3.7-.1,7.5-.1,11.3H995c.3-.2-.1-.5.1-.5s.4-.4.2-.7-.6-1.1-1.4-1.1h-.2c-.3-1-1.1-.9-1.8-1h-.4c-1.3-.1-1.3-.1-.8-1.3s.2-.9-.1-1.3-.3-1-.5-1.5a1,1,0,0,0-1.1-1c-.7,0-.8-.3-.9-1a7,7,0,0,0-.3-1.4,1.1,1.1,0,0,0-1.4-.5c-.2.1-.5,0-.8,0h-.4c-.6.5-.6,0-.6-.4l-1-.3-.2.2c-.1.4-.3,1-.5,1.1a5.5,5.5,0,0,1-1.8-.2c-.4,0-.7-.4-1,.2a1.1,1.1,0,0,0-.2.5c0,.3.2.6.2.8a.7.7,0,0,1-.6.9,4.9,4.9,0,0,0-1.7.6,16.6,16.6,0,0,0-1.4,1.3c-1.2.8-2.4,1.6-3.5,2.5a10.7,10.7,0,0,0-1.6,1.4l-1.2.8a1.2,1.2,0,0,1-1.7-.8,4.6,4.6,0,0,0-.7-1.6c-.2-.3-.4-.5-.9-.2s-.7.1-1.1.1v-.5a1.6,1.6,0,0,0-.8-2,1.3,1.3,0,0,1-.4-2.1,11.1,11.1,0,0,0,.9-1.9q.3-.7-.6-.6h-.4a1.8,1.8,0,0,1-2.1-.8c-.2-.4-.7-.5-1-.8l-.5-.2c-.4-.2-.7-.5-1.1,0s-.6.2-.9.3-.5.3-.5.7-.1,2.5-.2,3.8a3.4,3.4,0,0,1-1.3,2.1c-.6.5-1.5,1.1-1.3,2.2s-.1.5-.2.7L954,44.7a.6.6,0,0,1-.7.2l-.7-.2a.5.5,0,0,1-.3-.3c.1-.7-.5-1.4-.1-2.1s0-.5,0-.7a10,10,0,0,0-1-2.6c-.3-.5-1-.7-1.6-1l-.7-.4-.6-.2c-.5.1-.7-.2-.9-.6s-.4-.8-.8-.9-1.6-.6-1.5-2.3a7,7,0,0,0-.3-1.4l-.3-2a7,7,0,0,0-.3-1.2h1.4l-1.7-.4,4.8-1.6c-.2.8-.1,1,.7.9l1.4-.4c.1,0,.3-.3.4-.5s0-.5.1-.6a1.2,1.2,0,0,1,1,0,2.5,2.5,0,0,0,1.9-.2c.1,0,.2-.3.2-.4s.2-.9.8-1l1.6-.4V25l.5-.7h4.8c-.3.4-.8.7-.3,1.3h.8v.5l.8-.6.3-.4-.4-.3Z"/>
</svg>
