<svg id="Capa_1" data-name="Capa 1" xmlns="http://www.w3.org/2000/svg" xmlns:xlink="http://www.w3.org/1999/xlink" width="590.1" height="498.6" viewBox="0 0 590.1 498.6">
  <defs>
    <style>
      .cls-1 {
        fill: #bc955c;
        opacity: 0.1;
      }

      .cls-2 {
        fill: none;
        stroke-miterlimit: 10;
        stroke-width: 3px;
        stroke: url(#Degradado_sin_nombre_17);
      }

      .cls-2, .cls-3 {
        opacity: 0.8;
      }

      .cls-3 {
        fill: url(#Degradado_sin_nombre_17-2);
      }

      .cls-4 {
        fill: url(#Degradado_sin_nombre_55);
      }

      .cls-5 {
        fill: #fff;
      }

      .cls-6 {
        fill: #932c42;
      }

      .cls-7 {
        fill: #b99763;
      }
    </style>
    <linearGradient id="Degradado_sin_nombre_17" data-name="Degradado sin nombre 17" x1="20.85" y1="250.9" x2="565.46" y2="250.9" gradientUnits="userSpaceOnUse">
      <stop offset="0" stop-color="#d6ba95"/>
      <stop offset="0.51" stop-color="#be9860"/>
      <stop offset="0.92" stop-color="#bc955c"/>
    </linearGradient>
    <linearGradient id="Degradado_sin_nombre_17-2" x1="215.47" y1="248.97" x2="374.33" y2="248.97" xlink:href="#Degradado_sin_nombre_17"/>
    <linearGradient id="Degradado_sin_nombre_55" data-name="Degradado sin nombre 55" x1="222.9" y1="248.97" x2="366.89" y2="248.97" gradientUnits="userSpaceOnUse">
      <stop offset="0" stop-color="#b31241"/>
      <stop offset="0.58" stop-color="#9f2241"/>
      <stop offset="0.88" stop-color="#892241"/>
    </linearGradient>
  </defs>
  <title>Video Play</title>
  <polygon class="cls-1" points="-0.8 73.7 71.1 1.8 588.2 1.8 588.2 499.3 -1.7 499.3 -0.8 73.7"/>
  <polygon class="cls-2" points="23.2 88.5 89.2 22.5 564 22.5 564 479.3 22.4 479.3 23.2 88.5"/>
  <g>
    <circle class="cls-3" cx="294.9" cy="249" r="79.4"/>
    <g>
      <circle class="cls-4" cx="294.9" cy="249" r="72"/>
      <path class="cls-5" d="M276.1,284.9l56.7-33.1a3.3,3.3,0,0,0,0-5.7L276.1,213a3.2,3.2,0,0,0-4.9,2.8v66.3A3.2,3.2,0,0,0,276.1,284.9Z"/>
    </g>
  </g>
  <g>
    <g>
      <g>
        <path class="cls-6" d="M61.6,113H48.8v-.3c1.8-.4,2.1-.7,2.1-2.2V99.3c0-1.5-.3-1.8-2.1-2.2v-.3c4.2.1,8.3.1,12.5,0-.1,1.4-.1,2.8-.1,4.2h-.3c-.9-2.2-2.1-3-5.9-3h-.4v5.9h.7c1.9,0,2.8-.7,3.8-2.4h.3a29.1,29.1,0,0,0,0,5.9h-.3a3.7,3.7,0,0,0-3.8-2.4h-.7v6.9H55c3.9,0,5.2-.9,6.2-3.8h.3C61.5,109.7,61.5,111.4,61.6,113Z"/>
        <path class="cls-6" d="M80.5,104.7c0,5-3.8,8.5-9.4,8.3H63.6v-.3c1.9-.4,2.1-.7,2.1-2.2V99.3c0-1.5-.2-1.8-2.1-2.2v-.3c2,.1,3.9.1,6.4,0C76.6,96.6,80.5,99.5,80.5,104.7Zm-4.2.6c0-5.1-2.2-7.3-6.2-7.3h-.7v13.8h1.9C74.4,111.9,76.3,109.2,76.3,105.3Z"/>
        <path class="cls-6" d="M83.4,107.3v-8c0-1.5-.3-1.8-2.2-2.2v-.3c2.7.1,5.3.1,8,0v.3c-1.9.4-2.2.7-2.2,2.2v7c0,4,1.3,5.8,4.2,5.8s4.2-1.9,4.2-5.1V99.3c0-1.5-.3-1.8-2.5-2.2v-.3c2,.1,4.1.1,6.1,0v.3c-1.9.4-2.2.7-2.2,2.2v7.5c0,4.1-2.5,6.6-6.6,6.6S83.4,111.1,83.4,107.3Z"/>
        <path class="cls-6" d="M99.7,105c0-4.9,4-8.6,9.2-8.6a23.2,23.2,0,0,1,4.6.7c-.1,1.5-.2,3-.2,4.6h-.2c-.4-1-1.6-4.1-4.5-4.1s-4.7,2.8-4.7,6.8,1.9,7.9,4.8,7.9,3.1-.9,4.3-4.2h.3c0,1.5.1,3,.2,4.6a16.1,16.1,0,0,1-5.1.7C103.2,113.4,99.7,110.1,99.7,105Z"/>
        <path class="cls-6" d="M114.8,112.7c1.2-.3,1.9-.8,3.1-3.7l5.3-12.4h.4l6.4,13.7c.7,1.6.8,2,2.4,2.4v.3h-7.9v-.3c1-.2,1.5-.4,1.5-1.1a6.5,6.5,0,0,0-.2-1.1l-.9-1.9h-5.3l-.4.9a3,3,0,0,0-.4,1.4c0,1,.7,1.5,2.1,1.8v.3h-6.1Zm9.7-5.3-2.2-5.1h-.2l-2.1,5.1Z"/>
        <path class="cls-6" d="M132.1,105c0-4.9,4-8.6,9.2-8.6a23.2,23.2,0,0,1,4.6.7c-.1,1.5-.2,3-.2,4.6h-.2c-.4-1-1.6-4.1-4.5-4.1s-4.7,2.8-4.7,6.8,1.9,7.9,4.8,7.9,3.1-.9,4.3-4.2h.3c0,1.5.1,3,.2,4.6a16.6,16.6,0,0,1-5.1.7C135.6,113.4,132.1,110.1,132.1,105Z"/>
        <path class="cls-6" d="M155.6,112.7v.3h-7.9v-.3c1.8-.4,2.1-.7,2.1-2.2V99.3c0-1.5-.3-1.8-2.1-2.2v-.3c2.6.1,5.2.1,7.9,0v.3c-1.9.4-2.1.7-2.1,2.2v11.2C153.5,112,153.7,112.3,155.6,112.7Z"/>
        <path class="cls-6" d="M174,104.8c0,5.1-3.6,8.6-8.7,8.6s-8.2-3.4-8.2-8.4a8.3,8.3,0,0,1,8.5-8.6C170.7,96.4,174,99.8,174,104.8Zm-4.1,1.1c0-5.2-1.7-8.3-4.5-8.3s-4.2,2.3-4.2,6.3,1.7,8.4,4.5,8.4S169.9,109.9,169.9,105.9Zm-6.8-10.5a4.7,4.7,0,0,1,5.1-4.2l.2.2a1.7,1.7,0,0,1,.1.7c0,2.3-3.2,2.3-5.1,3.5Z"/>
        <path class="cls-6" d="M179.4,101.2h-.2v9.3c0,1.5.3,1.8,2.8,2.2v.3h-6.6v-.3c2.1-.4,2.4-.7,2.4-2.2V99.3c0-1.5-.3-1.8-2.3-2.2v-.3a45.1,45.1,0,0,0,5.2,0l9,10.3h.2V99.3c0-1.5-.3-1.8-2.8-2.2v-.3c2,.1,4.2.1,6.2,0v.3c-1.8.4-2.1.7-2.1,2.2v13.9h-1.4Z"/>
      </g>
      <g>
        <path class="cls-7" d="M67.2,123c0-.4.1-.8.1-1.3h0c.5.9.8,1.4,1.4,1.4a.9.9,0,0,0,.9-1c0-.6-.6-1-1.2-1.4s-1.3-.7-1.3-1.5a1.5,1.5,0,0,1,1.6-1.4l1.3.2c0,.4-.1.9-.1,1.3h0c-.2-.6-.5-1.2-1.3-1.2a.8.8,0,0,0-.9.8c0,.6.5.9,1.1,1.2s1.4.8,1.4,1.7a1.5,1.5,0,0,1-1.6,1.5A2.4,2.4,0,0,1,67.2,123Z"/>
        <path class="cls-7" d="M74.6,123.2H70.8c.6-.2.7-.3.7-.6v-4.1c0-.3-.1-.4-.7-.5h3.8a6.6,6.6,0,0,0-.1,1.4h0c-.3-.9-.7-1.1-1.9-1.1h-.4v2.1h.6c.7,0,.8-.2,1.1-.8h0v1.8h0c-.3-.6-.4-.8-1.1-.8h-.6v2.4h.5c1.1,0,1.4-.2,1.8-1.2h0A7.6,7.6,0,0,0,74.6,123.2Z"/>
        <path class="cls-7" d="M75.2,120.6a2.8,2.8,0,0,1,2.9-2.8,8.6,8.6,0,0,1,1.7.3v1.4h-.1c-.4-.8-.6-1.4-1.7-1.4a2.2,2.2,0,0,0-2,2.4c0,1.5.9,2.6,2.1,2.6s1.2-.5,1.6-1.6h.1a6.6,6.6,0,0,0,.1,1.4,4.1,4.1,0,0,1-1.9.4A2.6,2.6,0,0,1,75.2,120.6Z"/>
        <path class="cls-7" d="M85.3,123.2h-.6a.6.6,0,0,1-.7-.4l-1.2-2h-.7v1.8c0,.3.1.4.7.6H80.7c.6-.2.7-.3.7-.6v-4.1c0-.3-.1-.4-.7-.5h1.8c1.3,0,2.1.6,2.1,1.4a1.7,1.7,0,0,1-1.1,1.5l.8,1.3A2.2,2.2,0,0,0,85.3,123.2Zm-1.5-3.8c0-.8-.5-1.2-1.4-1.2h-.3v2.3h.5A1.2,1.2,0,0,0,83.8,119.4Z"/>
        <path class="cls-7" d="M89.5,123.2H85.7c.6-.2.7-.3.7-.6v-4.1c0-.3-.1-.4-.7-.5h3.8a6.6,6.6,0,0,0-.1,1.4h0c-.3-.9-.7-1.1-1.9-1.1h-.4v2.1h.6c.7,0,.8-.2,1.1-.8h0v1.8h0c-.3-.6-.4-.8-1.1-.8h-.6v2.4h.5c1.1,0,1.4-.2,1.8-1.2h0A7.6,7.6,0,0,0,89.5,123.2Z"/>
        <path class="cls-7" d="M91.2,123.2c.7-.2.8-.3.8-.6v-4.4h-.4c-.8,0-1.2.4-1.4,1.3h-.1a8.6,8.6,0,0,0-.1-1.6h4.7v1.6h-.1c-.2-.9-.6-1.3-1.4-1.3h-.5v4.4c0,.3.1.4.9.6H91.2Z"/>
        <path class="cls-7" d="M94.2,123.2a1.6,1.6,0,0,0,.8-.8l1.9-4.6H97l2.1,4.8a1,1,0,0,0,.7.6H97.7c.4-.1.7-.2.7-.4s-.1-.1-.1-.2l-.4-1H95.7l-.3.8a.4.4,0,0,0-.1.3c0,.3.2.4.7.5H94.2Zm3.6-1.9-1-2.3h-.1l-.9,2.3Z"/>
        <path class="cls-7" d="M104.8,123.2h-.6c-.2,0-.4,0-.7-.4l-1.1-2h-.8v1.8c0,.3.1.4.7.6h-2.1c.6-.2.7-.3.7-.6v-4.1c0-.3-.1-.4-.7-.5H102c1.4,0,2.1.6,2.1,1.4a1.7,1.7,0,0,1-1.1,1.5l.8,1.3A3.7,3.7,0,0,0,104.8,123.2Zm-1.5-3.8c0-.8-.4-1.2-1.4-1.2h-.3v2.3h.6A1.1,1.1,0,0,0,103.3,119.4Z"/>
        <path class="cls-7" d="M107.3,123.2h-2.1c.6-.2.7-.3.7-.6v-4.1c0-.3-.1-.4-.7-.5h2.1c-.6.1-.7.2-.7.5v4.1C106.6,122.9,106.7,123,107.3,123.2Zm-1.8-5.8c.1-.4,1.1-1.2,1.7-1h.1c0,.4-1,.6-1.8.9Z"/>
        <path class="cls-7" d="M107.7,123.2a1.6,1.6,0,0,0,.8-.8l1.9-4.6h.1l2.1,4.8a1,1,0,0,0,.7.6h-2.1c.4-.1.7-.2.7-.4s-.1-.1-.1-.2l-.4-1h-2.2l-.3.8a.4.4,0,0,0-.1.3c0,.3.2.4.7.5h-1.8Zm3.6-1.9-1-2.3h-.1l-.9,2.3Z"/>
        <path class="cls-7" d="M121,120.4a2.6,2.6,0,0,1-3,2.8h-2.3c.6-.2.7-.3.7-.6v-4.1c0-.3-.1-.4-.7-.5h2C119.8,117.9,121,118.8,121,120.4Zm-.8.2a2.2,2.2,0,0,0-2.5-2.4h-.6v4.7h1A2,2,0,0,0,120.2,120.6Z"/>
        <path class="cls-7" d="M125.3,123.2h-3.8c.6-.2.7-.3.7-.6v-4.1c0-.3-.1-.4-.7-.5h3.8v1.4h-.1c-.3-.9-.6-1.1-1.8-1.1H123v2.1h.5a.9.9,0,0,0,1.1-.8h.1v1.8h-.1a.9.9,0,0,0-1.1-.8H123v2.4h.4c1.2,0,1.5-.2,1.8-1.2h.1Z"/>
        <path class="cls-7" d="M131.9,123.2h-3.8c.6-.2.7-.3.7-.6v-4.1c0-.3-.1-.4-.7-.5h3.8a6.6,6.6,0,0,0-.1,1.4h-.1c-.2-.9-.6-1.1-1.8-1.1h-.4v2.1h.6c.6,0,.8-.2,1-.8h.1v1.8h-.1c-.2-.6-.4-.8-1-.8h-.6v2.4h.5c1.1,0,1.4-.2,1.7-1.2h.1A7.6,7.6,0,0,0,131.9,123.2Z"/>
        <path class="cls-7" d="M137.9,120.4a2.6,2.6,0,0,1-3,2.8h-2.3c.6-.2.7-.3.7-.6v-4.1c0-.3-.1-.4-.7-.5h2C136.6,117.9,137.9,118.8,137.9,120.4Zm-.8.2a2.2,2.2,0,0,0-2.5-2.4H134v4.7h1A2,2,0,0,0,137.1,120.6Z"/>
        <path class="cls-7" d="M138.9,121.4v-2.9c0-.3-.1-.4-.7-.5h2.1c-.6.1-.7.2-.7.5V121c0,1.4.5,2.1,1.6,2.1a1.6,1.6,0,0,0,1.6-1.8v-2.8c0-.3-.1-.4-.8-.5h1.9c-.6.1-.7.2-.7.5v2.7a2,2,0,0,1-2.1,2.2C139.6,123.4,138.9,122.7,138.9,121.4Z"/>
        <path class="cls-7" d="M144.3,120.6a2.8,2.8,0,0,1,2.9-2.8,10.1,10.1,0,0,1,1.7.3,6.1,6.1,0,0,0-.1,1.4h-.1c-.3-.8-.6-1.4-1.6-1.4s-2,1-2,2.4.8,2.6,2,2.6,1.3-.5,1.7-1.6h0c0,.5.1.9.1,1.4a3.8,3.8,0,0,1-1.9.4A2.6,2.6,0,0,1,144.3,120.6Z"/>
        <path class="cls-7" d="M149.4,123.2a1.6,1.6,0,0,0,.8-.8l1.9-4.6h0l2.2,4.8c.2.4.3.5.7.6h-2.1c.3-.1.6-.2.6-.4v-.2l-.5-1h-2.1l-.4.8v.3c0,.3.2.4.6.5h-1.7Zm3.5-1.9L152,119h-.1l-.9,2.3Z"/>
        <path class="cls-7" d="M155,120.6a2.8,2.8,0,0,1,3-2.8l1.6.3v1.4h-.1c-.3-.8-.6-1.4-1.6-1.4a2.2,2.2,0,0,0-2.1,2.4c0,1.5.9,2.6,2.1,2.6s1.3-.5,1.7-1.6h0a6.6,6.6,0,0,0,.1,1.4,4.1,4.1,0,0,1-1.9.4A2.7,2.7,0,0,1,155,120.6Z"/>
        <path class="cls-7" d="M162.6,123.2h-2.1c.6-.2.7-.3.7-.6v-4.1c0-.3-.1-.4-.7-.5h2.1c-.6.1-.7.2-.7.5v4.1C161.9,122.9,162,123,162.6,123.2Z"/>
        <path class="cls-7" d="M168.6,120.5a2.7,2.7,0,0,1-2.7,2.8,2.5,2.5,0,0,1-2.7-2.6,2.8,2.8,0,0,1,2.7-2.9A2.6,2.6,0,0,1,168.6,120.5Zm-.8.2c0-1.5-.8-2.6-2-2.6s-1.8.9-1.8,2.3.8,2.7,2,2.7S167.8,122.1,167.8,120.7Zm-2.7-3.3c.1-.4,1.1-1.2,1.7-1h.1c0,.4-1,.6-1.7.9Z"/>
        <path class="cls-7" d="M170.4,118.8h-.1v3.5c0,.5.2.7.9.9h-2.1c.6-.2.8-.4.8-.8v-3.6c0-.5-.2-.7-.8-.8h1.4l3.3,4h0v-3.1c0-.5-.2-.7-.9-.8h2c-.5.1-.7.3-.7.8v4.5h-.2Z"/>
      </g>
    </g>
    <g>
      <g>
        <path class="cls-6" d="M110.2,170.8c.5-.1.6-.2.6-.5v-2.7h-.1c-.4,0-.7.3-1,.9h0a3.7,3.7,0,0,0-.1-1.1h3v1.1h0c-.3-.6-.6-.9-1-.9h-.1v2.7c0,.3.1.4.6.5h-1.9Z"/>
        <path class="cls-6" d="M112.3,170.8c.3-.1.4-.2.7-.8l1.1-2.7h.1l1.3,2.9c.2.4.2.5.5.6h-1.6c.2-.1.3-.1.3-.3v-.6h-1.2v.2a.4.4,0,0,0-.1.3c0,.2.1.3.4.4h-1.3Zm2.1-1.2-.5-1.1h0l-.5,1.1Z"/>
        <path class="cls-6" d="M119.3,169.8c0,.7-.5,1.1-1.5,1h-1.5c.3-.1.4-.2.4-.5v-2.4c0-.3-.1-.4-.4-.5h1.3c1-.1,1.5.2,1.5.8a.8.8,0,0,1-.7.8h0C118.8,169.1,119.3,169.3,119.3,169.8Zm-1.8-.9h.2a.6.6,0,0,0,.6-.6.6.6,0,0,0-.7-.7h-.1Zm.9,1c0-.5-.2-.7-.6-.7h-.3v1.4h.4C118.2,170.6,118.4,170.3,118.4,169.9Z"/>
        <path class="cls-6" d="M119.4,170.8c.3-.1.4-.2.7-.8l1.1-2.7h.1l1.3,2.9c.2.4.2.5.5.6h-1.6c.2-.1.3-.1.3-.3v-.6h-1.2v.5c0,.2.1.3.4.4h-1.3Zm2.1-1.2-.5-1.1h0l-.5,1.1Z"/>
        <path class="cls-6" d="M123.4,170.8v-1.1h.1c.3.7.5,1,.8,1a.5.5,0,0,0,.6-.6c0-.4-.4-.6-.8-.8s-.8-.4-.8-1,.5-1,1.3-1h.7v1h-.1c-.1-.3-.3-.9-.8-.9a.5.5,0,0,0-.5.5c0,.3.3.5.6.6s1,.6,1,1.2-.5,1.1-1.3,1.1Z"/>
        <path class="cls-6" d="M125.8,169.1a1.8,1.8,0,0,1,1.9-1.8h1a3.4,3.4,0,0,0,0,1h-.1c-.1-.2-.3-.9-1-.9s-.9.6-.9,1.5.4,1.7,1,1.7.6-.2.9-.9h0c0,.3.1.6.1.9a2,2,0,0,1-1.1.2A1.7,1.7,0,0,1,125.8,169.1Z"/>
        <path class="cls-6" d="M132.6,169.1a1.7,1.7,0,0,1-1.8,1.8,1.7,1.7,0,0,1-1.7-1.8,1.7,1.7,0,0,1,1.8-1.8A1.7,1.7,0,0,1,132.6,169.1Zm-.8.2c0-1.1-.4-1.8-1-1.8s-.9.5-.9,1.4.4,1.8,1,1.8S131.8,170.2,131.8,169.3Z"/>
      </g>
      <g>
        <polygon class="cls-7" points="132 156.4 132 156.4 132 156.4 132 156.3 132 156.4"/>
        <rect class="cls-7" x="120.8" y="137.5" width="0.4" height="9.18"/>
        <rect class="cls-7" x="125.9" y="150.7" width="5.1" height="0.41"/>
        <rect class="cls-7" x="110.7" y="150.7" width="5.6" height="0.42"/>
        <rect class="cls-7" x="120.8" y="154.7" width="0.4" height="9.88"/>
        <path class="cls-7" d="M121.3,150.6h0"/>
        <path class="cls-7" d="M124.8,133.2a12,12,0,0,0-3-.7c0,.1.1.2.1.3a1.1,1.1,0,0,1-.3.7h.3c.1.2,0,.3-.1.3s-.1.1-.1.2h.4c.1.1-.1.3-.1.3s.3-.1.3.2-.3.2-.3.2v.2h-.2l-.3-.2-.2.2c0,.1.1.3.4.4s.5-.4.5-.4h.2c.2.5.5.4.7.3s.2-.2.1-.3h-.1c-.1.1-.3.1-.3-.1a.1.1,0,0,1,0-.2.4.4,0,0,1-.2-.3.2.2,0,0,1,.2-.2c-.1-.2.1-.3.2-.3s.2.2.2.2h.1c.1-.1-.1-.1-.1-.2s-.1-.2,0-.3.3.1.3.1.1-.3.3-.2.2.3.2.3h.2c.1.2-.1.2-.2.2s-.1.1-.1.2h.5a.2.2,0,0,1-.1.3s.3,0,.2.2-.3.2-.3.2a.1.1,0,0,1,0,.2c0,.2-.2.1-.3,0h-.2c-.1.1,0,.3.2.4s.6-.3.6-.3h.2c-.1.1,0,.3.2.4s.6-.2.6-.2h-.2c-.1.1-.2.1-.3-.1s.1-.2.1-.2-.3-.2-.2-.4h.4a.2.2,0,0,1,.1-.3.2.2,0,0,1,.2.2c.1.1,0,.2.1.2s.1-.1,0-.2-.1-.3.1-.3h.1c-.1-.9-.6-1.1-1.2-1.3m-3.6,1.8-.2-.2-.3.2h-.2v-.2s-.3,0-.3-.2.3-.2.3-.2-.2-.2-.1-.3h.4c0-.1,0-.2-.1-.2s-.2-.1-.1-.3h.3a1.1,1.1,0,0,1-.3-.7c0-.1.1-.2.1-.3a11.1,11.1,0,0,0-3,.7c-.6.2-1.1.4-1.2,1.3h.1c.1,0,.2.1.1.3s-.2.2-.1.2.1-.1.2-.2a.2.2,0,0,1,.2-.2.2.2,0,0,1,.1.3h.4c.1.2,0,.4-.2.4s.2.1.1.2-.2.2-.3.1H117s.4.4.6.2a.4.4,0,0,0,.2-.4h.2s.3.5.6.3a.4.4,0,0,0,.2-.4h-.2c-.1.1-.3.2-.4,0a.3.3,0,0,1,.1-.2s-.3.1-.3-.2.2-.2.2-.2a.2.2,0,0,1-.1-.3h.5c0-.1,0-.2-.1-.2s-.3,0-.2-.2h.2s-.1-.2.2-.3.3.2.3.2.2-.2.3-.1.1.3,0,.3-.2.1-.1.2h.1l.2-.2c.1,0,.3.1.2.3a.2.2,0,0,1,.2.2.4.4,0,0,1-.2.3.1.1,0,0,1,0,.2c0,.2-.2.2-.3.1h-.2l.2.3c.2.1.5.2.7-.3h.2s.2.5.5.4.4-.3.4-.4"/>
        <path class="cls-7" d="M121.3,131.6h-.7a.7.7,0,0,0,1.4,0Z"/>
        <path class="cls-7" d="M122,131.4a.9.9,0,0,0-.6-.7c0,.2.1.4.1.6h.5"/>
        <path class="cls-7" d="M121.2,130.7a.7.7,0,0,0-.6.7h.5c0-.2.1-.4.1-.6"/>
        <path class="cls-7" d="M121.3,131.2h.2c0-.2-.1-.4-.1-.6h-.2c0,.2-.1.4-.1.6h.2"/>
        <path class="cls-7" d="M122,131.4h0"/>
        <polygon class="cls-7" points="121.6 130.3 121.4 130.3 121.4 130.1 121.2 130.1 121.2 130.3 121 130.3 121 130.4 121.2 130.4 121.2 130.7 121.4 130.7 121.4 130.4 121.6 130.4 121.6 130.3"/>
        <polygon class="cls-7" points="121.6 130.3 121.4 130.3 121.4 130.1 121.2 130.1 121.2 130.3 121 130.3 121 130.4 121.2 130.4 121.2 130.7 121.4 130.7 121.4 130.4 121.6 130.4 121.6 130.3"/>
        <path class="cls-7" d="M125,137.2h0c-.3-.1-.9-.6-3.6-.6h0a7.7,7.7,0,0,0-3.7.6H125"/>
        <path class="cls-7" d="M116.4,134.6c0-.1.1-.3.1-.4a1.9,1.9,0,0,1,0-1.5c.1-.5.5-.6.9-.7h-.7c-.5.3-.8.5-.7,1.3a2,2,0,0,0,.2,1.1h.2"/>
        <path class="cls-7" d="M116.4,134.6c0-.1.1-.3.1-.4a1.9,1.9,0,0,1,0-1.5c.1-.5.5-.6.9-.7h-.7c-.5.3-.8.5-.7,1.3a2,2,0,0,0,.2,1.1Z"/>
        <path class="cls-7" d="M121,132.2l-.8.2-2.3-.4a1.2,1.2,0,0,0-1.4.7,1.9,1.9,0,0,0,0,1.5c0,.1-.1.3-.1.4h0l.2-.2v-.3c-.1-.4-.3-1.2.1-1.6a1.4,1.4,0,0,1,1.3-.4l2.3.4.5-.2.2-.2"/>
        <path class="cls-7" d="M121,132.2l-.8.2-2.3-.4a1.2,1.2,0,0,0-1.4.7,1.9,1.9,0,0,0,0,1.5c0,.1-.1.3-.1.4h0l.2-.2v-.3c-.1-.4-.3-1.2.1-1.6a1.4,1.4,0,0,1,1.3-.4l2.3.4.5-.2Z"/>
        <path class="cls-7" d="M120.9,132.2a.9.9,0,0,1-.9.1l-.6-.3-.4.2c-.4.2-.4.9-.2,1.3s.3.2.3.3l.2-.3a.6.6,0,0,1-.3-.7c0-.4.2-.6.6-.5s.8.4,1.2.1a.3.3,0,0,0,.1-.2"/>
        <path class="cls-7" d="M120.9,132.2a.9.9,0,0,1-.9.1l-.6-.3-.4.2c-.4.2-.4.9-.2,1.3s.3.2.3.3l.2-.3a.6.6,0,0,1-.3-.7c0-.4.2-.6.6-.5s.8.4,1.2.1A.3.3,0,0,0,120.9,132.2Z"/>
        <path class="cls-7" d="M118.5,134h0s-.1-.2.2-.3.3.2.3.2h.1l-.3-.3c-.2-.4-.2-1.1.2-1.3l.4-.2h-.6c-.5.1-.8.6-.5,1.5l.2.4"/>
        <path class="cls-7" d="M118.5,134h0s-.1-.2.2-.3.3.2.3.2h.1l-.3-.3c-.2-.4-.2-1.1.2-1.3l.4-.2h-.6c-.5.1-.8.6-.5,1.5Z"/>
        <g>
          <path class="cls-7" d="M121.6,133.2c0-.2-.1-.4-.3-.4s-.3.2-.3.4a.3.3,0,1,0,.6,0"/>
          <path class="cls-7" d="M121.3,133.6a.4.4,0,1,1,.4-.4A.4.4,0,0,1,121.3,133.6Zm0-.7a.3.3,0,1,0,.3.3A.3.3,0,0,0,121.3,132.9Z"/>
        </g>
        <g>
          <path class="cls-7" d="M120.9,132.1h-.4a.2.2,0,0,0,.2.2l.2-.2"/>
          <path class="cls-7" d="M120.7,132.4c-.1,0-.2-.1-.2-.3l.2-.2.2.2C120.9,132.3,120.8,132.4,120.7,132.4Zm0-.4h-.1c0,.1,0,.2.1.2s.1-.1.1-.2Z"/>
        </g>
        <g>
          <path class="cls-7" d="M120.5,132.2c0-.2-.1-.2-.2-.2s-.2,0-.2.2a.2.2,0,0,0,.4,0"/>
          <path class="cls-7" d="M120.3,132.4c-.2,0-.3-.1-.3-.2a.3.3,0,0,1,.3-.3c.1,0,.2.1.2.3A.2.2,0,0,1,120.3,132.4Zm0-.4-.2.2c0,.1.1.1.2.1s.1,0,.1-.1S120.4,132,120.3,132Z"/>
        </g>
        <g>
          <path class="cls-7" d="M120.1,132l-.2-.2c-.2,0-.2.1-.2.2s0,.2.2.2l.2-.2"/>
          <path class="cls-7" d="M119.9,132.3a.3.3,0,0,1-.3-.3c0-.1.1-.2.3-.2l.2.2C120.1,132.1,120,132.3,119.9,132.3Zm0-.4h-.2l.2.2V132Z"/>
        </g>
        <g>
          <path class="cls-7" d="M119.7,131.8a.3.3,0,0,0-.3-.3c-.1,0-.2.2-.2.3s.1.3.2.3a.3.3,0,0,0,.3-.3"/>
          <path class="cls-7" d="M119.4,132.1a.3.3,0,1,1,.3-.3A.3.3,0,0,1,119.4,132.1Zm0-.5a.2.2,0,0,0-.2.2l.2.2.2-.2A.2.2,0,0,0,119.4,131.6Z"/>
        </g>
        <g>
          <path class="cls-7" d="M119.2,131.9a.3.3,0,0,0-.3-.3.3.3,0,0,0,0,.6.3.3,0,0,0,.3-.3"/>
          <path class="cls-7" d="M118.9,132.2c-.2,0-.4-.1-.4-.3s.2-.3.4-.3a.3.3,0,1,1,0,.6Zm0-.5c-.2,0-.3.1-.3.2s.1.2.3.2l.2-.2A.2.2,0,0,0,118.9,131.7Z"/>
        </g>
        <g>
          <path class="cls-7" d="M118.6,131.8a.3.3,0,0,0-.3-.3.3.3,0,0,0-.3.3c0,.1.1.2.3.2l.3-.2"/>
          <path class="cls-7" d="M118.3,132.1a.3.3,0,0,1-.3-.3c0-.2.1-.4.3-.4s.3.2.3.4A.3.3,0,0,1,118.3,132.1Zm0-.6c-.1,0-.2.1-.2.3l.2.2.2-.2C118.5,131.6,118.4,131.5,118.3,131.5Z"/>
        </g>
        <g>
          <path class="cls-7" d="M118,131.7a.3.3,0,0,0-.3-.3.3.3,0,0,0-.3.3.3.3,0,0,0,.3.3.5.5,0,0,0,.3-.3"/>
          <path class="cls-7" d="M117.7,132c-.2,0-.4-.1-.4-.3a.4.4,0,0,1,.4-.4c.2,0,.3.2.3.4A.3.3,0,0,1,117.7,132Zm0-.6a.3.3,0,0,0-.3.3c0,.1.1.2.3.2a.2.2,0,0,0,.2-.2C117.9,131.5,117.8,131.4,117.7,131.4Z"/>
        </g>
        <g>
          <path class="cls-7" d="M117.3,131.8c0-.2-.1-.4-.3-.4s-.3.2-.3.4a.3.3,0,0,0,.6,0"/>
          <path class="cls-7" d="M117,132.2a.4.4,0,1,1,.4-.4A.4.4,0,0,1,117,132.2Zm0-.7a.3.3,0,0,0-.3.3l.3.3a.3.3,0,0,0,.3-.3A.3.3,0,0,0,117,131.5Z"/>
        </g>
        <g>
          <path class="cls-7" d="M116.7,132.1a.3.3,0,1,0-.6,0c0,.2.1.4.3.4s.3-.2.3-.4"/>
          <path class="cls-7" d="M116.4,132.5a.4.4,0,1,1,.4-.4A.4.4,0,0,1,116.4,132.5Zm0-.7a.3.3,0,0,0-.3.3.3.3,0,0,0,.3.3.3.3,0,0,0,.3-.3Z"/>
        </g>
        <path class="cls-7" d="M116.4,132.8a.4.4,0,1,0-.4.4.4.4,0,0,0,.4-.4"/>
        <path class="cls-7" d="M116,133.2a.4.4,0,1,1,.4-.4A.4.4,0,0,1,116,133.2Zm0-.7a.3.3,0,1,0,.3.3A.3.3,0,0,0,116,132.5Z"/>
        <g>
          <path class="cls-7" d="M116.5,134.2a.3.3,0,0,0-.3-.3c-.2,0-.4.1-.4.3s.2.3.4.3a.3.3,0,0,0,.3-.3"/>
          <path class="cls-7" d="M116.2,134.6a.4.4,0,1,1,0-.8c.2,0,.3.2.3.4S116.4,134.6,116.2,134.6Zm0-.7a.3.3,0,0,0-.3.3.3.3,0,0,0,.3.3c.1,0,.2-.1.2-.3S116.3,133.9,116.2,133.9Z"/>
        </g>
        <g>
          <path class="cls-7" d="M118.8,132.2a.3.3,0,1,0-.6,0c0,.2.1.4.3.4s.3-.2.3-.4"/>
          <path class="cls-7" d="M118.5,132.6a.4.4,0,0,1-.4-.4c0-.2.2-.3.4-.3s.4.1.4.3A.4.4,0,0,1,118.5,132.6Zm0-.6c-.2,0-.3.1-.3.2a.3.3,0,1,0,.6,0C118.8,132.1,118.7,132,118.5,132Z"/>
        </g>
        <g>
          <path class="cls-7" d="M118.7,132.7a.4.4,0,0,0-.4-.4c-.2,0-.3.2-.3.4a.3.3,0,0,0,.3.3c.2,0,.4-.1.4-.3"/>
          <path class="cls-7" d="M118.3,133.1a.4.4,0,0,1-.4-.4.4.4,0,0,1,.8,0A.4.4,0,0,1,118.3,133.1Zm0-.7a.3.3,0,0,0-.3.3.3.3,0,1,0,.6,0A.3.3,0,0,0,118.3,132.4Z"/>
        </g>
        <g>
          <path class="cls-7" d="M118.7,133.1c0-.2-.2-.3-.4-.3a.3.3,0,0,0-.3.3.4.4,0,0,0,.3.4.4.4,0,0,0,.4-.4"/>
          <path class="cls-7" d="M118.3,133.5c-.2,0-.3-.2-.3-.4s.1-.4.3-.4a.4.4,0,0,1,0,.8Zm0-.7c-.1,0-.2.2-.2.3s.1.3.2.3a.3.3,0,0,0,.3-.3A.3.3,0,0,0,118.3,132.8Z"/>
        </g>
        <g>
          <path class="cls-7" d="M118.8,133.5a.3.3,0,0,0-.3-.3c-.2,0-.4.1-.4.3s.2.3.4.3a.3.3,0,0,0,.3-.3"/>
          <path class="cls-7" d="M118.5,133.9a.4.4,0,0,1,0-.8.4.4,0,0,1,0,.8Zm0-.7a.3.3,0,0,0,0,.6.3.3,0,1,0,0-.6Z"/>
        </g>
        <g>
          <path class="cls-7" d="M116.4,133.5c0-.2-.2-.3-.4-.3a.3.3,0,0,0-.3.3c0,.3.1.4.3.4a.4.4,0,0,0,.4-.4"/>
          <path class="cls-7" d="M116,134a.5.5,0,0,1-.4-.5.4.4,0,0,1,.4-.4.4.4,0,0,1,.4.4C116.4,133.8,116.3,134,116,134Zm0-.8-.3.3a.4.4,0,0,0,.3.4c.2,0,.3-.2.3-.4A.3.3,0,0,0,116,133.2Z"/>
        </g>
        <path class="cls-7" d="M126.2,134.6c0-.1-.1-.3-.1-.4a1.9,1.9,0,0,0,0-1.5c-.1-.5-.5-.6-.9-.7h.7c.5.3.8.5.7,1.3a2,2,0,0,1-.2,1.1h-.2"/>
        <path class="cls-7" d="M126.2,134.7h0a4.3,4.3,0,0,1-.1-.5h0a1.9,1.9,0,0,0,0-1.3.9.9,0,0,0-.9-.6h.7a1.1,1.1,0,0,1,.8,1.3,5,5,0,0,1-.3,1.2h-.2Zm-.4-2.5.4.4a2.2,2.2,0,0,1,0,1.4v.2a.4.4,0,0,0,.1.3h.1c0-.2.1-.5.2-1.1s-.2-1-.7-1.2Z"/>
        <path class="cls-7" d="M121.6,132.2l.8.2,2.3-.4a1.2,1.2,0,0,1,1.4.7,1.9,1.9,0,0,1,0,1.5c0,.1.1.3.1.4h0l-.2-.2v-.3c.1-.4.3-1.2-.1-1.6a1.4,1.4,0,0,0-1.3-.4l-2.3.4-.5-.2-.2-.2"/>
        <path class="cls-7" d="M121.6,132.2l.8.2,2.3-.4a1.2,1.2,0,0,1,1.4.7,1.9,1.9,0,0,1,0,1.5c0,.1.1.3.1.4h0l-.2-.2v-.3c.1-.4.3-1.2-.1-1.6a1.4,1.4,0,0,0-1.3-.4l-2.3.4-.5-.2Z"/>
        <path class="cls-7" d="M121.7,132.2a.9.9,0,0,0,.9.1l.6-.3.4.2c.4.2.4.9.2,1.3l-.4.3a1,1,0,0,0-.1-.3.6.6,0,0,0,.3-.7.5.5,0,0,0-.6-.5c-.3.1-.8.4-1.2.1a.3.3,0,0,1-.1-.2"/>
        <path class="cls-7" d="M121.7,132.2a.9.9,0,0,0,.9.1l.6-.3.4.2c.4.2.4.9.2,1.3l-.4.3a1,1,0,0,0-.1-.3.6.6,0,0,0,.3-.7.5.5,0,0,0-.6-.5c-.3.1-.8.4-1.2.1A.3.3,0,0,1,121.7,132.2Z"/>
        <path class="cls-7" d="M124.1,134h0s.1-.2-.2-.3-.3.2-.3.2h-.1c0-.1.2-.2.3-.3s.2-1.1-.2-1.3l-.4-.2h.6c.5.1.8.6.5,1.5s-.1.3-.2.4"/>
        <path class="cls-7" d="M124.1,134h0s.1-.2-.2-.3-.3.2-.3.2h-.1c0-.1.2-.2.3-.3s.2-1.1-.2-1.3l-.4-.2h.6c.5.1.8.6.5,1.5S124.2,133.9,124.1,134Z"/>
        <path class="cls-7" d="M121.7,132.1h.4a.2.2,0,0,1-.4,0"/>
        <path class="cls-7" d="M121.9,132.4c-.1,0-.2-.1-.2-.3l.2-.2.2.2C122.1,132.3,122,132.4,121.9,132.4Zm0-.4h-.1c0,.1,0,.2.1.2s.1-.1.1-.2Z"/>
        <path class="cls-7" d="M122.1,132.2c0-.2.1-.2.2-.2s.2,0,.2.2a.2.2,0,0,1-.4,0"/>
        <path class="cls-7" d="M122.3,132.4a.2.2,0,0,1-.2-.2c0-.2.1-.3.2-.3a.3.3,0,0,1,.3.3C122.6,132.3,122.5,132.4,122.3,132.4Zm0-.4c-.1,0-.1.1-.1.2s0,.1.1.1.2,0,.2-.1Z"/>
        <path class="cls-7" d="M122.5,132l.2-.2.2.2-.2.2-.2-.2"/>
        <path class="cls-7" d="M122.7,132.3c-.1,0-.2-.2-.2-.3l.2-.2c.2,0,.3.1.3.2A.3.3,0,0,1,122.7,132.3Zm0-.4h-.1v.2l.2-.2Z"/>
        <path class="cls-7" d="M122.9,131.8a.3.3,0,0,1,.3-.3c.1,0,.2.2.2.3s-.1.3-.2.3a.3.3,0,0,1-.3-.3"/>
        <path class="cls-7" d="M123.2,132.1a.3.3,0,1,1,.3-.3A.3.3,0,0,1,123.2,132.1Zm0-.5a.2.2,0,0,0-.2.2l.2.2.2-.2A.2.2,0,0,0,123.2,131.6Z"/>
        <path class="cls-7" d="M123.4,131.9a.3.3,0,0,1,.3-.3.3.3,0,1,1,0,.6.3.3,0,0,1-.3-.3"/>
        <path class="cls-7" d="M123.7,132.2a.3.3,0,1,1,0-.6c.2,0,.4.1.4.3S123.9,132.2,123.7,132.2Zm0-.5a.2.2,0,0,0-.2.2l.2.2c.2,0,.3-.1.3-.2S123.9,131.7,123.7,131.7Z"/>
        <path class="cls-7" d="M124,131.8a.3.3,0,0,1,.6,0c0,.1-.1.2-.3.2s-.3-.1-.3-.2"/>
        <path class="cls-7" d="M124.3,132.1a.3.3,0,0,1-.3-.3c0-.2.1-.4.3-.4s.3.2.3.4A.3.3,0,0,1,124.3,132.1Zm0-.6c-.1,0-.2.1-.2.3l.2.2.2-.2C124.5,131.6,124.4,131.5,124.3,131.5Z"/>
        <path class="cls-7" d="M124.6,131.7a.3.3,0,0,1,.3-.3.3.3,0,0,1,.3.3.3.3,0,0,1-.3.3.5.5,0,0,1-.3-.3"/>
        <path class="cls-7" d="M124.9,132a.3.3,0,0,1-.3-.3c0-.2.1-.4.3-.4a.4.4,0,0,1,.4.4C125.3,131.9,125.1,132,124.9,132Zm0-.6c-.1,0-.2.1-.2.3a.2.2,0,0,0,.2.2c.2,0,.3-.1.3-.2A.3.3,0,0,0,124.9,131.4Z"/>
        <path class="cls-7" d="M125.3,131.8c0-.2.1-.4.3-.4s.3.2.3.4a.3.3,0,0,1-.6,0"/>
        <path class="cls-7" d="M125.6,132.2a.4.4,0,1,1,.4-.4A.4.4,0,0,1,125.6,132.2Zm0-.7a.3.3,0,0,0-.3.3.3.3,0,0,0,.3.3l.3-.3A.3.3,0,0,0,125.6,131.5Z"/>
        <path class="cls-7" d="M125.9,132.1a.3.3,0,1,1,.6,0c0,.2-.1.4-.3.4s-.3-.2-.3-.4"/>
        <path class="cls-7" d="M126.2,132.5a.4.4,0,1,1,.4-.4A.4.4,0,0,1,126.2,132.5Zm0-.7a.3.3,0,0,0-.3.3.3.3,0,1,0,.6,0A.3.3,0,0,0,126.2,131.8Z"/>
        <path class="cls-7" d="M126.2,132.8a.4.4,0,1,1,.4.4.4.4,0,0,1-.4-.4"/>
        <g>
          <path class="cls-7" d="M126.2,132.8a.4.4,0,1,1,.4.4A.4.4,0,0,1,126.2,132.8Z"/>
          <path class="cls-7" d="M126.6,133.2a.4.4,0,1,1,.4-.4A.4.4,0,0,1,126.6,133.2Zm0-.7a.3.3,0,1,0,.3.3A.3.3,0,0,0,126.6,132.5Z"/>
        </g>
        <path class="cls-7" d="M126.1,134.2a.3.3,0,0,1,.3-.3c.2,0,.4.1.4.3s-.2.3-.4.3a.3.3,0,0,1-.3-.3"/>
        <path class="cls-7" d="M126.4,134.6c-.2,0-.3-.2-.3-.4s.1-.4.3-.4a.4.4,0,0,1,0,.8Zm0-.7c-.1,0-.2.2-.2.3s.1.3.2.3a.3.3,0,0,0,.3-.3A.3.3,0,0,0,126.4,133.9Z"/>
        <path class="cls-7" d="M123.8,132.2a.3.3,0,0,1,.6,0c0,.2-.1.4-.3.4s-.3-.2-.3-.4"/>
        <path class="cls-7" d="M124.1,132.6a.4.4,0,0,1-.4-.4c0-.2.2-.3.4-.3s.4.1.4.3A.4.4,0,0,1,124.1,132.6Zm0-.6c-.2,0-.3.1-.3.2a.3.3,0,1,0,.6,0C124.4,132.1,124.3,132,124.1,132Z"/>
        <path class="cls-7" d="M123.9,132.7a.4.4,0,0,1,.4-.4c.2,0,.3.2.3.4a.3.3,0,0,1-.3.3c-.2,0-.4-.1-.4-.3"/>
        <path class="cls-7" d="M124.3,133.1a.4.4,0,0,1-.4-.4.4.4,0,0,1,.8,0A.4.4,0,0,1,124.3,133.1Zm0-.7a.3.3,0,0,0-.3.3.3.3,0,0,0,.3.3.5.5,0,0,0,.3-.3A.3.3,0,0,0,124.3,132.4Z"/>
        <path class="cls-7" d="M123.9,133.1c0-.2.2-.3.4-.3a.3.3,0,0,1,.3.3.4.4,0,0,1-.3.4.4.4,0,0,1-.4-.4"/>
        <path class="cls-7" d="M124.3,133.5a.4.4,0,0,1,0-.8c.2,0,.3.2.3.4S124.5,133.5,124.3,133.5Zm0-.7a.3.3,0,0,0-.3.3.3.3,0,0,0,.3.3c.1,0,.2-.1.2-.3S124.4,132.8,124.3,132.8Z"/>
        <path class="cls-7" d="M123.8,133.5a.3.3,0,0,1,.3-.3c.2,0,.4.1.4.3s-.2.3-.4.3a.3.3,0,0,1-.3-.3"/>
        <path class="cls-7" d="M124.1,133.9a.4.4,0,0,1,0-.8.4.4,0,1,1,0,.8Zm0-.7a.3.3,0,0,0,0,.6.3.3,0,1,0,0-.6Z"/>
        <path class="cls-7" d="M126.2,133.5c0-.2.2-.3.4-.3a.3.3,0,0,1,.3.3c0,.3-.1.4-.3.4a.4.4,0,0,1-.4-.4"/>
        <path class="cls-7" d="M126.6,134a.5.5,0,0,1-.5-.5.5.5,0,0,1,.5-.4.4.4,0,0,1,.4.4A.5.5,0,0,1,126.6,134Zm0-.8a.4.4,0,0,0-.4.3.4.4,0,0,0,.4.4.4.4,0,0,0,0-.7Z"/>
        <path class="cls-7" d="M121.5,131.7l-.2-.2-.2.2c0,.2.1.3.2.3s.2-.1.2-.3"/>
        <g>
          <path class="cls-7" d="M121.6,132a.3.3,0,0,0-.3-.3c-.1,0-.2.1-.2.3l.2.2.3-.2"/>
          <path class="cls-7" d="M121.3,132.3a.3.3,0,0,1-.3-.3.3.3,0,0,1,.6,0A.3.3,0,0,1,121.3,132.3Zm0-.5-.2.2.2.2.2-.2Z"/>
        </g>
        <g>
          <path class="cls-7" d="M121.7,132.3a.4.4,0,1,0-.4.4.4.4,0,0,0,.4-.4"/>
          <path class="cls-7" d="M121.3,132.7a.4.4,0,1,1,.4-.4A.4.4,0,0,1,121.3,132.7Zm0-.7a.3.3,0,1,0,.3.3A.3.3,0,0,0,121.3,132Z"/>
        </g>
        <path class="cls-7" d="M125.2,136h0a17.4,17.4,0,0,0-3.9-.5h0a17.4,17.4,0,0,0-3.9.5h.2a.5.5,0,0,0,.4-.5.6.6,0,0,0,.6.3.7.7,0,0,0,.5-.5s.3.4.6.3a.5.5,0,0,0,.5-.4c.1,0,.3.4.6.4s.5-.3.5-.4.2.3.5.4.5-.4.6-.4a.5.5,0,0,0,.5.4c.3.1.6-.3.6-.3a.7.7,0,0,0,.5.5.6.6,0,0,0,.6-.3.5.5,0,0,0,.4.5h.2"/>
        <path class="cls-7" d="M125.2,136h0a17.4,17.4,0,0,0-3.9-.5h0a17.4,17.4,0,0,0-3.9.5h.2a.5.5,0,0,0,.4-.5.6.6,0,0,0,.6.3.7.7,0,0,0,.5-.5s.3.4.6.3a.5.5,0,0,0,.5-.4c.1,0,.3.4.6.4s.5-.3.5-.4.2.3.5.4.5-.4.6-.4a.5.5,0,0,0,.5.4c.3.1.6-.3.6-.3a.7.7,0,0,0,.5.5.6.6,0,0,0,.6-.3.5.5,0,0,0,.4.5Z"/>
        <path class="cls-7" d="M118.1,135.3a.2.2,0,1,0-.4,0l.2.2.2-.2"/>
        <path class="cls-7" d="M120.4,134.9l-.2-.2a.2.2,0,0,0-.2.2l.2.2.2-.2"/>
        <path class="cls-7" d="M124.5,135.3a.2.2,0,1,1,.4,0l-.2.2-.2-.2"/>
        <path class="cls-7" d="M122.2,134.9a.2.2,0,0,1,.4,0l-.2.2-.2-.2"/>
        <path class="cls-7" d="M125.1,136.3a12.7,12.7,0,0,0-3.8-.6h0a12.7,12.7,0,0,0-3.8.6h0l.3.2-.2.3h0v.2h0a15,15,0,0,1,3.7-.5h0a15,15,0,0,1,3.7.5h0V137h0l-.2-.4h0l.3-.2h0Zm-6.9.4H118l.2-.2v.2Zm.1-.3h-.2c0-.1.1-.1.2-.1a.1.1,0,0,1,.1.1Zm.2.2h0Zm1,0h-.4c-.1,0-.2,0-.3-.2a.3.3,0,0,1,.3-.3h.4a.3.3,0,0,1,.3.3Zm.6-.2H120c0-.1,0-.2.1-.2s.1.1.1.2Zm.1-.4v-.2c.1,0,.1.1.1.2h-.2Zm.2.6h0Zm.2-.3c-.1,0-.1,0-.1-.1h.2A.1.1,0,0,1,120.6,136.3Zm1.1-.1-.4.3h0l-.4-.3h0l.4-.2h0l.4.2Zm.3.1c-.1,0-.1,0-.1-.1h.2C122.1,136.3,122.1,136.3,122,136.3Zm.2.3h0Zm.1-.5h-.1c0-.1,0-.2.1-.2v.2Zm.2.3h-.1c0-.1,0-.2.1-.2s.1.1.1.2Zm1.3,0c-.1.2-.2.2-.3.2h-.4l-.3-.3a.3.3,0,0,1,.3-.3h.4A.3.3,0,0,1,123.8,136.4Zm.3.2h0Zm.1-.3a.1.1,0,0,1,.1-.1c.1,0,.2,0,.2.1h-.3Zm.2.4h-.1v-.2l.2.2Z"/>
        <g>
          <path class="cls-7" d="M121.6,134.4a.4.4,0,0,0-.3-.4c-.2,0-.3.2-.3.4s.1.4.3.4a.4.4,0,0,0,.3-.4"/>
          <path class="cls-7" d="M119.2,134.7a.4.4,0,0,0-.3-.4.4.4,0,0,0-.2.5.4.4,0,0,0,.3.4.4.4,0,0,0,.2-.5"/>
          <path class="cls-7" d="M116.8,135.3c-.1-.2-.3-.3-.4-.2s0,.2.1.4.4.3.4.2.1-.2-.1-.4"/>
          <path class="cls-7" d="M123.4,134.7a.4.4,0,0,1,.3-.4.4.4,0,0,1,.2.5.4.4,0,0,1-.3.4.4.4,0,0,1-.2-.5"/>
          <path class="cls-7" d="M125.8,135.3c.1-.2.3-.3.4-.2s0,.2-.1.4-.4.3-.4.2-.1-.2.1-.4"/>
        </g>
        <path class="cls-7" d="M125.2,136.1a17.4,17.4,0,0,0-3.9-.5h0a17.4,17.4,0,0,0-3.9.5c-.3.1-.2.3,0,.2a15.5,15.5,0,0,1,7.8,0c.2.1.3-.1,0-.2"/>
        <g>
          <path class="cls-7" d="M121.7,132.7a.4.4,0,0,0-.8,0,.4.4,0,0,0,.8,0"/>
          <path class="cls-7" d="M121.3,133.2a.5.5,0,0,1-.5-.5.6.6,0,0,1,.5-.5.5.5,0,0,1,.5.5A.5.5,0,0,1,121.3,133.2Zm0-.9a.4.4,0,1,0,.4.4A.4.4,0,0,0,121.3,132.3Z"/>
        </g>
        <polygon class="cls-7" points="126.5 144.1 126.5 144.1 126.5 144.1 126.5 144.1"/>
        <path class="cls-7" d="M126.5,144.1Z"/>
        <path class="cls-7" d="M126.4,143.8Z"/>
        <path class="cls-7" d="M126.3,143.6H126a6.7,6.7,0,0,0,.7,1.1h.4v-.2h-.4v-.2h-.1v-.2h-.1V144h-.1v-.2h.1c0,.1,0,.2-.2.2"/>
        <path class="cls-7" d="M126,143.3h.4v-.2l-.3.2"/>
        <path class="cls-7" d="M125.8,145.7h0"/>
        <path class="cls-7" d="M125.5,143.7h-.2v-.4h0a1.5,1.5,0,0,0,.9-.7h.4v.3h0a1.8,1.8,0,0,0-.6.5h-.5Z"/>
        <path class="cls-7" d="M126,143.7Z"/>
        <path class="cls-7" d="M125.7,146.4h0l-.2-.2s-.3,0-.3-.2H125a.2.2,0,0,1-.2-.2l-.3-.3h.4a.4.4,0,0,0,.1.3h.3l.3.2h.3a.6.6,0,0,1-.1.4h-.1Z"/>
        <path class="cls-7" d="M125.7,145.9h-.4l-.3-.2-.2-.3h.2l.2.3h.5Z"/>
        <path class="cls-7" d="M126.7,144.4h.1l.2-.2v-.2h0v.2h-.3a.1.1,0,0,0,0,.2h.1Zm-.1-.3h.3v-.2h0v.2h-.2Zm.5.1H127a.3.3,0,0,0-.1.2h-.2c-.1.2,0,.2,0,.2h.3A.3.3,0,0,0,127.1,144.2Zm-1.5,2h-.1a.4.4,0,0,1-.3-.2H125c-.1,0-.1-.1-.1-.2h-.4l-.2.2h0a9.6,9.6,0,0,0-1.1,1.3h-.1v.2l.8,2.1s.8-.5.2-.7-.4-1.5-.1-1.8a2.9,2.9,0,0,1,1.7-.5h.1A.1.1,0,0,1,125.6,146.2Z"/>
        <path class="cls-7" d="M123.8,145.8c0-.1-.1-.1-.3-.4l-.2-.2h-.1l-.2.2-.2.2h0l.2.3h.2l.8.9.6-.4Zm-.3.2h0Z"/>
        <path class="cls-7" d="M125.9,143v-.3l-.4-.5-.4-.7h-.1l-.3-.5-.2-.5-.6-.9c-.1-.2-.1-.2-.1-.3V139l-.3-.4v-.2c0-.1-.1-.1-.1-.2h.1c0,.1,0,.1.1.2h0l.3.4h0v.3c.1,0,.1.1.2.3l.3.5.2.4.6.9.3.6v.2l.4.6a.3.3,0,0,0,.1.2h0Z"/>
        <path class="cls-7" d="M124.9,156.3h.1c.1,0,.1.1,0,.1h-.1"/>
        <g>
          <path class="cls-7" d="M126.2,154.2h0a.5.5,0,0,1,.1.3h-.1a.3.3,0,0,1-.1.2c0,.2.2.2.3.2h0l.3-.3h.3c.1,0,.1,0,0,.2a1.5,1.5,0,0,0-.3.6l.2.2c0,.1.1.1.1.2v.2a.4.4,0,0,1,.1.3.4.4,0,0,0,.1.3c0,.1-.1.1-.1.2s.1.1,0,.2v.2c-.1.1-.1.1,0,.2s.1.1,0,.3l-.2.2v.2c0,.1,0,.2-.1.2v.4l.4.4c.3.3.7.3,1,.6a.7.7,0,0,1,.4.7c0,.2.2.3.3.6a.7.7,0,0,1,.2.6c.1.1,0,.4,0,.7s-.1.3-.3.4h-.3a.1.1,0,0,1-.1-.1h-.1v-.2h0l.3-.2h.1a.4.4,0,0,0-.1-.3c-.1-.4-.4-.5-.9-.6l-.6-.4c-.1-.2-.3-.3-.8-.4l-1.1-.4a.7.7,0,0,1-.3-.3h-.1c0-.2-.1-.2-.3-.3h-1.7c-.2-.1-.1-.2-.1-.2a.1.1,0,0,1,0-.2H125a.1.1,0,0,1,.1-.1h-.2l-.7.3h-1.7c-.1,0-.1-.2-.1-.2h0s-.1,0,0-.2h1.4v-.3c-.1-.1.1-.2,0-.3s0-.3.1-.3.1-.3.2-.4.2,0,.3-.2h.5s.1-.1,0-.1h.1v-.2h-.7v-.2s0-.2.1-.2l.2-.2h.2l.2-.2h.2v-.6c0-.1-.1-.1-.1-.2h.3c.2,0,.1.1.1.2h-.1v.2h.3c.1,0,.1-.2.1-.2s-.1-.1,0-.3h.3m0,0h0c-.1,0-.2,0-.2.1h-.2c0,.1,0,.2.1.2h0v.2h-.3c.1,0,.1-.1.1-.2h-.3a.1.1,0,0,0-.1-.1h-.1c.1.1.1.4.2.5H125c0,.1,0,.1-.1.1l-.2.2h-.2l-.2.3v.2h0a.1.1,0,0,0,.1.1h-.2l-.2.2h0a.3.3,0,0,1-.1.2v.2a.2.2,0,0,0,0,.3h0a.4.4,0,0,0-.1.3v.2h-1.4a.4.4,0,0,0-.1.3h.4c-.1,0-.1.1-.1.2h0c0,.1,0,.2.1.2h2.2l.3.3,1.1.4c.4,0,.7.1.7.3s.2.3.7.4.7.3.8.6h.1v.2h-.2l-.3.2h0c0,.1,0,.2.1.2h.2l.4-.2h0c.1,0,.2-.1.2-.4a2.2,2.2,0,0,0,.1-.8l-.2-.6h-.1l-.2-.4a.8.8,0,0,0-.4-.8l-.5-.2-.6-.3-.2-.2c-.1-.1-.1-.1-.1-.2v-.2c-.1-.1-.1-.1,0-.1a.4.4,0,0,1,.1-.3h0c0-.1.1-.1.1-.3s.1-.2,0-.3h.1v-.4h0v-.4h0c0-.1.1-.2,0-.3H127c.1-.1,0-.2-.1-.3h-.2l.3-.6h-.4v.2h-.3v-.2l.3-.2v-.2l-.2-.2h0"/>
          <path class="cls-7" d="M128.5,162.9h-.3v-.5h.4v-.2h0c-.1-.3-.4-.4-.8-.5s-.6-.3-.7-.5-.3-.3-.7-.3l-1.1-.4-.3-.3h-1.5a.4.4,0,0,1-.5.1h-.2c-.1-.1-.1-.1-.1-.3a.1.1,0,0,1,0-.2h-.3c0-.1-.1-.2,0-.3h1.4v-.2c-.1-.1,0-.2,0-.3h0v-.3l.2-.2v-.2h.1c0-.2.1-.2.2-.2h.1l.3-.2h-.1c0-.1,0-.2.1-.2h-.2c-.1-.1-.1-.1-.1-.2V156h0l.2-.3h.1l.3-.2a.1.1,0,0,1,.1-.1h.2a4.3,4.3,0,0,0-.1-.5h.3c0,.1,0,.1.1.1h.1c0,.1,0,.2-.1.2h0a.3.3,0,0,1,.1.2h.2v-.2c.1-.1.1-.2.3-.2h.2l.2.3v.2a.2.2,0,0,1-.2.2v.2h.3v-.2h.6c0,.1,0,.2-.1.2h0l-.3.6h.1c.1.1.2.2.2.3h.1a.4.4,0,0,1,.1.3h0v.2c0,.1-.1.1-.1.2h0c0,.1.1.1,0,.2a.4.4,0,0,1-.1.3h0v.4c-.1.2-.1.3-.2.3h0v.3h0v.2c0,.1,0,.1.1.2l.3.2.5.3.5.2a.8.8,0,0,1,.4.8l.2.4h.1a1,1,0,0,1,.2.6c.1.2,0,.6,0,.8s-.1.4-.3.5h-.4Zm-.1-.2h.1c.1.1.2,0,.3-.1h0c.2,0,.2,0,.2-.3a2.3,2.3,0,0,0,.1-.7.7.7,0,0,0-.2-.6h-.1c-.1-.2-.2-.3-.2-.5a.8.8,0,0,0-.4-.7l-.4-.2-.6-.3-.3-.2c0-.1-.1-.1-.1-.3h0c-.1-.2-.1-.2,0-.3s0-.1.1-.2h0s.1,0,.1-.2v-.3H127v-.2h0v-.4h0v-.2h0s.1-.1,0-.1H127v-.2c0-.1,0-.1-.1-.2l-.2-.2h0l.3-.7h-.2v.2l-.3.2h0c-.2-.1-.3-.1-.3-.3v-.2h-.3v.2c0,.1-.1.3-.2.3h-.3v-.4h-.2a1.7,1.7,0,0,1,.2.5h-.6l-.2.2-.2.2v.2h.4a.1.1,0,0,0,.1-.1h.2c0,.1,0,.2-.1.2h0a.1.1,0,0,1-.1.1h-.8v.2l-.2.2h0c-.1.1-.1.2,0,.2v.2h0a.5.5,0,0,1,.1.3h.3a1.4,1.4,0,0,0,.7-.2h-2.1a.3.3,0,0,0-.1.2h1.9l.2.2h.1l.4.3a2.5,2.5,0,0,0,1,.4c.5,0,.8.1.8.3s.2.3.6.4.8.3.9.6h.1v.3c-.1.1-.1.1-.1.2h-.4v.2Zm-3.6-3Zm-.8-.3Zm-1.1-.5h0Zm.4,0h0Zm.5,0h0Zm1.1-.2h0Zm.6-4.1Z"/>
        </g>
        <path class="cls-7" d="M126.6,155.2h0"/>
        <g>
          <path class="cls-7" d="M127.3,161.1l.5.2.4.2h-.1l-.4.4v.2a.1.1,0,0,1-.1.1h-.8s-.1-.1,0-.1h.5c.1,0,.2-.1.2-.3s0-.2,0-.4a.4.4,0,0,0-.1-.3m-.1-.2v.5h0a.2.2,0,0,1,0,.3h0c0,.2,0,.2-.1.2h-.5c-.1,0-.1.1-.1.2h1.1c0-.1,0-.1.1-.2s.1-.3.3-.4.2-.2.1-.3h-.4l-.4-.2Z"/>
          <path class="cls-7" d="M126.8,162.6h-.2a.1.1,0,0,1,0-.2h.6s.1,0,.1-.2v-.3h0a.4.4,0,0,0-.1-.3v-.3l.3.2.4.2c.1,0,.2,0,.2.1h.3c0,.1,0,.2-.2.3l-.3.4c0,.1-.1.1-.1.2h-.1a.4.4,0,0,1-.3.2h-.5Zm-.1-.2h.7c.1,0,.1,0,.1-.1h.1V162l.3-.4h-.6v.2h.1a.8.8,0,0,1-.1.4c0,.1,0,.2-.2.2h-.5Zm0,0Z"/>
        </g>
        <path class="cls-7" d="M124.4,156.9h0"/>
        <path class="cls-7" d="M125.1,157.4h.5c0,.1,0,.1.1.1h-.6"/>
        <path class="cls-7" d="M124.7,158.2h0"/>
        <path class="cls-7" d="M124.1,157.8h0"/>
        <path class="cls-7" d="M124,157.6h0"/>
        <path class="cls-7" d="M126.8,158.4h-.7c0-.1,0-.1-.1-.1h.2c.1,0,.1,0,.1-.1h.5Z"/>
        <path class="cls-7" d="M124.5,158.7h0"/>
        <path class="cls-7" d="M124.5,158.3h0"/>
        <path class="cls-7" d="M124.1,158.2h0"/>
        <path class="cls-7" d="M126.5,157.1h0"/>
        <path class="cls-7" d="M126.6,158.4h0"/>
        <path class="cls-7" d="M126,158.2h0"/>
        <path class="cls-7" d="M125.7,157.8h0"/>
        <path class="cls-7" d="M125.6,157.9h0"/>
        <path class="cls-7" d="M127.1,160v.2h0V160"/>
        <path class="cls-7" d="M126,155.3h0"/>
        <path class="cls-7" d="M126.6,155.8h0"/>
        <path class="cls-7" d="M126.5,155.7h0"/>
        <path class="cls-7" d="M126,156.2h-.1c.1,0,.1,0,.1-.1h0"/>
        <path class="cls-7" d="M125.8,155.7h0"/>
        <path class="cls-7" d="M125.7,155.9h0"/>
        <path class="cls-7" d="M126.9,156.1h0"/>
        <path class="cls-7" d="M126.7,156.9h0"/>
        <path class="cls-7" d="M126.5,156.8h0c.1,0,.1,0,.1-.1h-.1"/>
        <path class="cls-7" d="M126.9,156.6h0c.1,0,0,0,0,.1h0"/>
        <path class="cls-7" d="M125.6,156.5h0"/>
        <path class="cls-7" d="M126,156.9h.1c0-.1,0-.1-.1-.1h0"/>
        <path class="cls-7" d="M126,156.5h-.1V157h.1"/>
        <path class="cls-7" d="M126.8,157.5h0"/>
        <path class="cls-7" d="M126.1,157.9h0"/>
        <path class="cls-7" d="M125.8,157.8h.1a.1.1,0,0,1-.1.1"/>
        <path class="cls-7" d="M126.8,157.7h0"/>
        <path class="cls-7" d="M124.6,155.9h0"/>
        <path class="cls-7" d="M125.3,155.7h0"/>
        <path class="cls-7" d="M125,155.8h-.1v-.2h.3C125.2,155.8,125.1,155.8,125,155.8Zm0-.2Z"/>
        <path class="cls-7" d="M124.7,156.4h-.1"/>
        <path class="cls-7" d="M124.8,156.5h-.1"/>
        <path class="cls-7" d="M126.7,155.4l-.7-.2h-.8V155h.8c.4,0,.8.1.8.2Z"/>
        <g>
          <path class="cls-7" d="M128.6,156.3a.4.4,0,0,1,.4.3h.3a1.1,1.1,0,0,1,0,.6s-.4-.2-.4-.4a.2.2,0,0,1,.1-.3l-.4-.2h-.1a1.1,1.1,0,0,0-.3,1.5c.5.8,1.2,1.8.5,2.3l-.2-.3c-.1-.2-.2-.2-.2-.2s.3-.1.1-.7-.7-1.6-.5-2.2.4-.5.7-.5m0-.1h0a.7.7,0,0,0-.7.6,2.3,2.3,0,0,0,.2,1.6l.3.6c.1.4,0,.6-.1.6h0l.2.2a.5.5,0,0,1,.1.3v.2h0a1,1,0,0,0,.3-1,6.1,6.1,0,0,0-.5-1.2l-.2-.3a1.5,1.5,0,0,1-.2-.9.8.8,0,0,1,.4-.4h.1l.3.2a.4.4,0,0,0-.1.3l.5.5h.1v-.6l-.3-.2a.5.5,0,0,0-.5-.3"/>
          <path class="cls-7" d="M128.6,160.4v-.2l-.2-.3v-.2h0a1.1,1.1,0,0,0,0-.6,1.4,1.4,0,0,0-.2-.6,3,3,0,0,1-.3-1.6c.2-.4.5-.7.8-.7h0l.5.3.3.3a1.1,1.1,0,0,1,0,.6v.2h-.1c-.1-.1-.5-.3-.5-.5s0-.2,0-.3-.2-.2-.3-.1-.3.2-.3.4a1.4,1.4,0,0,0,.1.9l.2.3a6.1,6.1,0,0,1,.5,1.2.8.8,0,0,1-.2,1Zm-.2-.7h.2v.3c.5-.4.1-1.2-.3-1.9l-.2-.3a1.3,1.3,0,0,1-.2-1l.4-.5h.2c.2,0,.4.3.4.3h0a.4.4,0,0,0-.1.3l.4.3v-.5H129a.5.5,0,0,0-.4-.3q-.4,0-.6.6c-.2.4.1.9.3,1.4a1.4,1.4,0,0,0,.2.7C128.6,159.4,128.5,159.6,128.4,159.7Zm-.1,0Zm0-.1Z"/>
        </g>
        <path class="cls-7" d="M124.2,149.2h0"/>
        <path class="cls-7" d="M124.5,149.2h0"/>
        <path class="cls-7" d="M124.4,149.3h0"/>
        <polyline class="cls-7" points="125 149.4 125 149.4 125 149.4 125 149.4 125 149.4"/>
        <polygon class="cls-7" points="125.6 149.2 125.6 149.2 125.6 149.2 125.6 149.2 125.6 149.2"/>
        <path class="cls-7" d="M115.7,144.6h-4.2v-.9h.3l.5-3h0l-.2-.6h.7v.3h.2v-.3h1.1v.3h.3v-.2h.8l-.4.8.4,3h.3v1.1Zm-1.1-.2h.9v-.7h-.3l-.4-3.1.3-.6h-.4l-.2.2H114v-.3h-.7v.3h-.5v-.3h-.4a1.7,1.7,0,0,1,.2.5h0l-.6,3.2h-.2v.8h2.9Z"/>
        <g>
          <path class="cls-7" d="M114.1,144.5h0"/>
          <path class="cls-7" d="M112.9,143.9h0"/>
          <polyline class="cls-7" points="112.9 143.8 112.9 143.8 112.9 143.8 112.9 143.8"/>
          <polygon class="cls-7" points="112.9 143.8 112.9 143.8 112.9 143.8 112.9 143.8"/>
          <path class="cls-7" d="M113.9,144.3h0"/>
          <polyline class="cls-7" points="113.9 143.9 113.9 143.9 113.9 143.9 113.9 143.9"/>
          <path class="cls-7" d="M113.9,143.8h.2v.2h-.2"/>
          <path class="cls-7" d="M113.9,144.2V144h.2v.2Z"/>
          <path class="cls-7" d="M114.1,143.7h0v.2"/>
          <polygon class="cls-7" points="113.5 143.5 113.5 143.5 113.5 143.5 113.5 143.5 113.5 143.5"/>
          <polyline class="cls-7" points="113.7 143.4 113.7 143.4 113.7 143.4 113.7 143.4"/>
          <polygon class="cls-7" points="113.7 143.4 113.7 143.4 113.7 143.4 113.7 143.4"/>
          <path class="cls-7" d="M113.8,143.5h0Z"/>
          <path class="cls-7" d="M113.7,143.3h-.2v-.2h.3c.1,0,.1,0,.1.1Z"/>
          <path class="cls-7" d="M113.4,143.4h0v-.2h.1Z"/>
          <path class="cls-7" d="M113.3,143.5h-.2v-.2h.2v.2"/>
          <path class="cls-7" d="M113,143.6h0"/>
          <path class="cls-7" d="M112.9,144.2h.2v.2h-.2"/>
          <path class="cls-7" d="M112.9,144.3h0"/>
        </g>
        <path class="cls-7" d="M113.2,144.4s-.1-.9.3-.9.4.9.4.9Z"/>
        <path class="cls-7" d="M120.5,144.6h-4.1v-.9h.2l.6-3h-.1v-.6h.7v.3h.2v-.3h1.1v.3h.3v-.2h.7l-.3.8.3,3h.3v1.1Zm-1-.2h.8v-.7H120l-.3-3.1.2-.6h-.3l-.3.2h-.4v-.3h-.7v.3h-.5v-.3h-.4a4.3,4.3,0,0,0,.1.5h.1l-.6,3.2h-.2v.8h2.9Z"/>
        <g>
          <path class="cls-7" d="M119,144.5h0"/>
          <path class="cls-7" d="M117.8,143.9h0"/>
          <polyline class="cls-7" points="117.8 143.8 117.8 143.8 117.8 143.8 117.8 143.8"/>
          <polygon class="cls-7" points="117.8 143.8 117.8 143.8 117.8 143.8 117.8 143.8"/>
          <path class="cls-7" d="M118.8,144.3a.1.1,0,0,0-.1-.1h.1"/>
          <polyline class="cls-7" points="118.7 143.9 118.7 143.9 118.7 143.9 118.7 143.9"/>
          <path class="cls-7" d="M118.8,143.8h.1v.2h-.1"/>
          <path class="cls-7" d="M118.8,144.2V144h.2v.2Z"/>
          <path class="cls-7" d="M118.9,143.7h.1v.2"/>
          <polygon class="cls-7" points="118.3 143.5 118.4 143.5 118.4 143.5 118.4 143.5 118.3 143.5"/>
          <polyline class="cls-7" points="118.5 143.4 118.5 143.4 118.5 143.4 118.5 143.4"/>
          <polygon class="cls-7" points="118.5 143.4 118.5 143.4 118.5 143.4 118.5 143.4"/>
          <path class="cls-7" d="M118.7,143.5h0Z"/>
          <path class="cls-7" d="M118.6,143.3h-.3v-.2h.3Z"/>
          <path class="cls-7" d="M118.3,143.4h-.1v-.2h.2Z"/>
          <path class="cls-7" d="M118.2,143.5h-.3v-.2h.2v.2"/>
          <path class="cls-7" d="M117.9,143.6h0"/>
          <path class="cls-7" d="M117.8,144.2h.2v.2h-.2"/>
          <path class="cls-7" d="M117.8,144.3h0"/>
        </g>
        <path class="cls-7" d="M118,144.4s-.1-.9.4-.9.3.9.3.9Z"/>
        <path class="cls-7" d="M115.7,149.9h-4.2v-.9h.3l.5-3h0l-.2-.6h.7v.2h.2v-.2h1.1v.2h1.2l-.4.8.4,3h.3v1.1Zm-1.1-.2h.9V149h-.3l-.4-3.1.3-.6h-.4c-.1.2-.1.3-.2.2H114v-.2h-.7v.2h-.5v-.2h-.4a1.1,1.1,0,0,1,.2.5h0l-.6,3.2h-.2v.7h2.9Z"/>
        <g>
          <path class="cls-7" d="M114.1,149.8h0"/>
          <path class="cls-7" d="M112.9,149.2h0"/>
          <polyline class="cls-7" points="112.9 149.1 112.9 149.1 112.9 149.1 112.9 149.1"/>
          <polygon class="cls-7" points="112.9 149.1 112.9 149.1 112.9 149.1 112.9 149.1"/>
          <path class="cls-7" d="M113.9,149.6h0"/>
          <polyline class="cls-7" points="113.9 149.2 113.9 149.2 113.9 149.2 113.9 149.2"/>
          <path class="cls-7" d="M113.9,149h.2v.2h-.2V149"/>
          <path class="cls-7" d="M113.9,149.4v-.2h0Z"/>
          <path class="cls-7" d="M114.1,149h-.2v-.2h.1v.2"/>
          <polygon class="cls-7" points="113.5 148.7 113.5 148.7 113.5 148.7 113.5 148.7 113.5 148.7"/>
          <polyline class="cls-7" points="113.7 148.7 113.7 148.7 113.7 148.7 113.7 148.7"/>
          <polygon class="cls-7" points="113.7 148.7 113.7 148.7 113.7 148.7 113.7 148.7"/>
          <path class="cls-7" d="M113.8,148.8a.1.1,0,0,0-.1-.1h.1Z"/>
          <path class="cls-7" d="M113.7,148.6h-.2v-.2h.3Z"/>
          <path class="cls-7" d="M113.4,148.7Z"/>
          <path class="cls-7" d="M113.3,148.8h-.2a.1.1,0,0,1-.1-.1h.2a.3.3,0,0,1,.1.2"/>
          <path class="cls-7" d="M113,148.9h0"/>
          <path class="cls-7" d="M112.9,149.4h0v-.2"/>
          <path class="cls-7" d="M112.9,149.6h0"/>
        </g>
        <path class="cls-7" d="M113.2,149.7s-.1-1,.3-1,.4,1,.4,1Z"/>
        <path class="cls-7" d="M117.1,146.5h.1v-.2H117v.2Z"/>
        <path class="cls-7" d="M116.6,149.1v-.2h-.2v.2h.2Z"/>
        <path class="cls-7" d="M116.6,149.1h-.2v.2h.3Z"/>
        <polygon class="cls-7" points="116.2 150.9 116.2 150.8 110.8 150.8 110.8 150.9 116.2 150.9"/>
        <path class="cls-7" d="M117.8,150.8h0Z"/>
        <polygon class="cls-7" points="116.2 150.8 116.2 150.9 116.4 150.9 116.4 150.8 116.2 150.8"/>
        <path class="cls-7" d="M118,150.9h0Z"/>
        <path class="cls-7" d="M117,153.6c-.7,0-.8-.1-.8-.2h1.9v.2h0s-.1.2-.9.2H117"/>
        <g>
          <polygon class="cls-7" points="118.3 153.5 118.3 153.4 118.3 153.3 116.2 153.3 115.9 153.6 115.9 153.8 115.9 153.8 117.9 153.8 118 153.8 118.3 153.5"/>
          <polygon class="cls-7" points="118 153.8 118 153.6 118.3 153.4 118.3 153.3 117.9 153.6 117.9 153.8 118 153.8"/>
          <path class="cls-7" d="M116.4,148.8a1.4,1.4,0,0,1-.5-1,1.2,1.2,0,0,1,.3-1,1.1,1.1,0,0,1,.8-.3v-.3a2.2,2.2,0,0,0-1.1.5,2.1,2.1,0,0,0-.4,1.1,1.6,1.6,0,0,0,.8,1.2v-.2Z"/>
          <path class="cls-7" d="M118.4,147.7a1.6,1.6,0,0,1-.5,1.1h-.8a1.5,1.5,0,0,0,.9.1,1.6,1.6,0,0,0,.6-1.3,1.5,1.5,0,0,0-1.3-1.5v.3A1.2,1.2,0,0,1,118.4,147.7Z"/>
          <path class="cls-7" d="M116.6,149.3h1.2v.4h.2v-.5h-1.4Z"/>
          <path class="cls-7" d="M116.4,149.8h-.1a2,2,0,0,0,.1-.5h-.2v1.6h.2Z"/>
          <path class="cls-7" d="M117.8,149.9v.9h.2v-1Z"/>
          <path class="cls-7" d="M117.8,150.9v2.2a3,3,0,0,1-1.4,0v-2.2h-.2v2.3h1a1.5,1.5,0,0,0,.8-.2h.1V151h-.2Z"/>
          <path class="cls-7" d="M116.3,149.8h.1v-.4h.2v-.2h-.2a2,2,0,0,1-.1.5Z"/>
          <path class="cls-7" d="M117.8,149.7v.2h.2v-.2Z"/>
          <path class="cls-7" d="M116.4,149.2h-.1l-.2-.2h1.1a1.5,1.5,0,0,1,.9.1h.1v.2h-1.7Z"/>
          <path class="cls-7" d="M118,151a1.2,1.2,0,0,0-.8-.5,2.2,2.2,0,0,1-.8-.4h-.1v.9h0a1.5,1.5,0,0,0,.9.5,1.5,1.5,0,0,1,.7.5h.1v-1Zm-1.2-.2h-.1v.3h-.1v-.6h.1c0,.1.1.1.1.3S116.9,150.8,116.8,150.8Zm.4.5H117v-.6h.1v.6h.1v.2Zm.3-.5h0v.5h-.1c-.1,0-.1-.1-.1-.2v-.5h.1v.6h0v-.5h.1Zm.2.8h-.1v-.2h0v.2h0v-.3a.4.4,0,0,1-.1-.3h.2v.3h0v-.3h0v.6Zm-1-1.1v.2h.1v-.2h-.1Z"/>
          <polygon class="cls-7" points="117.3 146 117.3 145.9 117.2 145.9 117.2 145.8 117.1 145.9 117.1 145.9 117 145.9 117 146.1 117.1 146.1 117.1 146.3 117.2 146.3 117.2 146.1 117.3 146"/>
          <rect class="cls-7" x="116.9" y="152.6" height="2.09" transform="translate(-36.9 270.3) rotate(-89.9)"/>
        </g>
        <path class="cls-7" d="M119.2,163.3h0"/>
        <g>
          <path class="cls-7" d="M116.5,153.4h.4a.4.4,0,0,1,.1.3,1.1,1.1,0,0,1-.2.6.8.8,0,0,0-.1.4.3.3,0,0,0,.1.2h.2a.1.1,0,0,0,.1.1v.6h.1v.2h.2c0,.1.1.1.1.2s-.1.2,0,.2.2.1.3.3l.2.7h.1v.3h0v.2c.1.4.1.5.2.6a2,2,0,0,1,.4.8v.6h0s.3.1.3.3h.9c0,.2-.1.2-.1.2H120s.1.1,0,.1v.2h-.4c0,.1.1.1,0,.1h-.6v.2h-.1c-.1,0-.1-.1-.1-.2h-.4v-.2h-.3a.3.3,0,0,0-.1.2h0c0,.1,0,.2-.1.2h0v-.3c0,.1-.1.2-.1.3s-.1.2-.1.2h-.1v.2h-.1c0,.2-.1.2-.1.2v0h-.1a.1.1,0,0,0-.1-.1h0v-.2h-.1v-.2h0v-.6h-.1v-.2c0-.1,0-.1.1-.2h-.1v.3h-.1v.2a2.3,2.3,0,0,1-.1.4v-.2s0,.2-.1.2v-.2h0v.2h-.1v-.2a.4.4,0,0,1-.1-.3v.3h-.1s.1-.1,0-.1h0v-.4h0v-.2h0v.2h0v.2h0v-.2H115v-.2l-.2.2v-.2h0V161c.1-.1.1-.3.2-.3h0v-.2a.2.2,0,0,1,0-.3v-.3c0-.2,0-.3.1-.3h0v-.2h-.1l-.4.4-1,.5-.5.3-.2.2h-.3v-.2h-.4c-.1-.1,0-.1,0-.2h-.5v.2h-.1v-.2h-.2v-.3h-.2c-.1,0-.1-.1,0-.2h.3c0-.1.1-.2,0-.3h.5a.1.1,0,0,1,.1.1h.8v.2h0c.1.3,0,.4,0,.4h.2l-.3.3h.2c-.2,0-.3,0-.3-.1h0v.4h.5c.2,0,.4-.3.7-.6a1.4,1.4,0,0,1,.6-.5c.1,0,.2-.2.3-.4v-.2h0l.2-.4.2-.2h0v-.2a.4.4,0,0,1,.1-.3l.2-.3V156h0v-.4h-.1v-.2h0v-.2h-.5a.1.1,0,0,1,.1-.1h0c-.1-.1.1-.1,0-.1h0a.4.4,0,0,0,.2.3l.3.3h.1l-.2-.2-.2-.2c-.1,0-.2-.1-.2-.3h0c0-.1-.1-.1-.3-.3s0-.3,0-.3h.5s-.1-.1,0-.1v-.4h.4a.6.6,0,0,1,.1.4v.2h0a.8.8,0,0,1-.1-.4h0a.1.1,0,0,1,0-.2h.1v.2h.1c0,.1.1.2.1.3h0c0-.3.1-.3.1-.5s.1-.1.1-.2h.1m.3,1.6h0m1.6,6.1h.3l-.4-.7-.2-.3a.2.2,0,0,1,0,.3h0l.2.5v.2m-1.9-7.8h-.2v.4h0l-.2-.2h-.8v.2h-.1c-.1,0-.1,0-.1-.1h-.2a.3.3,0,0,0-.1.2s0,.2.1.2l.2.2h.3l.2.2h0v.4h0v.2h0c0,.1,0,.2.1.2h0c-.1,0-.1.2-.1.3h0v.2h0c0,.1-.1.1,0,.2s0,.2-.1.2h0l-.2.3c0,.1-.1.2-.1.3H115l-.2.2h0l-.2.3v.2h-.1l-.7.5c-.2.3-.4.6-.6.6h-.5v-.2h.2c.1-.1.2-.1.2-.3h-.1v-.3h-.1c.1,0,.1,0,.1-.1h-1.3a.1.1,0,0,0-.1.1h-.2c.1,0,.1,0,0,.1H111c-.1.1,0,.1,0,.1h.1c-.1,0-.1.1-.1.2h0v.2h.2v.2h.1a.1.1,0,0,1,.1-.1h.1a.1.1,0,0,0,.1.1h.6v.2h.1a.1.1,0,0,0,.1.1h.7a.1.1,0,0,0-.1-.1h.3l.5-.3h.1l.8-.5.3-.2h.1a.4.4,0,0,0-.1.3h.1v.2c-.1.1,0,.3,0,.3h0v.3h-.1v.2h0v.2h0v.2h0l.2-.2h.4l.2-.2h0v.2h.1v0h.1v-.5h0v.2h0a.3.3,0,0,1,.1.2h.9l.2-.2h.4a.1.1,0,0,0,.1-.1h2.2c0-.1.1-.1.1-.3h-.2c.1-.1,0-.1,0-.1h0c0-.1.1-.1.1-.2h-.1V161h-.9l-.2-.3a1.1,1.1,0,0,0-.1-.5,1.3,1.3,0,0,0-.3-.8h0c-.1-.2-.2-.2-.2-.6v-.2c.1,0,.1,0,0-.1v-.3h-.1a2.1,2.1,0,0,0-.2-.6c-.1-.2-.3-.3-.4-.4h0v-.2h-.1v-.2h0a.4.4,0,0,0-.1-.3h-.1v-.2h0l-.2-.3h-.3a.1.1,0,0,1,0-.2h0a.4.4,0,0,1,.1-.3h0a.8.8,0,0,0,.2-.6c-.1-.1-.1-.4-.2-.4h-.4Zm1.7,7h.1l.3.7h-.2l-.2-.5h0m-.5,2.2h0Z"/>
          <path class="cls-7" d="M118.9,163.3l-.2-.2H118v-.2h-.3v-.2h-.2v.2l-.3.2h-.5l-.2-.2v-.2h-.1v.4h-.4v-.2h-.5v-.2h-.2l-.3.2V162h0a.1.1,0,0,1,.1-.1h0v-.2h.1v-.2h0c0-.1.1-.2.1-.3h0a.4.4,0,0,1,.1-.3v-.2h0c0-.2,0-.3.1-.4H115l-.2.2-.9.5h-.1l-.5.3h-.2a.1.1,0,0,1,.1.1h-.1c.1.1,0,.1,0,.2h-1.5c-.1-.1-.1-.1-.1-.2h-.6v-.2h0c-.1-.1,0-.2.1-.2H111c-.1-.1-.1-.1-.1-.2h.4v-.2h.2a.1.1,0,0,1,.1-.1h1c0-.1.1-.1.2-.1h.2a.2.2,0,0,1,0,.3h.2l-.2.3h.2c.2,0,.4-.3.6-.6a1.3,1.3,0,0,1,.7-.5h0l.2-.2v-.3h.1V158h.1v-.2h0a.4.4,0,0,1,.1-.3c0-.2.1-.2.1-.3h.1v-.4h0v-.2h0v-.4h-.1v-.4h0v-.4h-.8l.3-.2h-.2c0-.1-.1-.3,0-.4h.3a.1.1,0,0,1,.1.1h.1l-.2-.2h.8l.2.2h.1a.4.4,0,0,1,.1-.3h.2a.1.1,0,0,1,.1.1h.3c.1,0,.2.3.2.4s-.1.5-.2.7-.1.1-.1.2h0v.2h.4v.3h0v.2h.1c.1,0,.1.1.1.2s.1.1.1.2h0v.2h0a.3.3,0,0,1,.1.2h0l.3.4a2.1,2.1,0,0,1,.2.6h.1v.6h0a2,2,0,0,0,.2.6h0a3,3,0,0,1,.4.8v.5c.1,0,.2.1.2.3h1l-.2.2h.1v.2h0v.2h.3c-.1,0-.1.1-.1.2h-.1l-.3.2h-1Zm.4-.2Zm-.2-.3h.9c0-.1-.1-.1-.1-.2h.1c0,.1-.2.1-.2,0h-.6c0-.1-.1-.2-.1-.3H119v-.2h0a3.1,3.1,0,0,0-.4-1.2h0a2.4,2.4,0,0,1-.3-.7v-.2h0v-.3h-.1l-.2-.7-.3-.3h-.1v-.2h-.3c.1,0,0-.1,0-.1h0c-.1,0-.2,0-.1-.1v-.2h-.1v-.2h-.4c0-.1-.1-.2,0-.3h0a.4.4,0,0,1,.1-.3,1.1,1.1,0,0,0,.2-.6v-.2h-.6v.5h-.1c.1-.1,0-.1,0-.2h-.3v.2h0v.3h-.1v-.6h-.4v.2a.1.1,0,0,1,0,.2H115a.1.1,0,0,0-.1.1v.2h.3l.2.2-.3-.2h0l.2.3c.1.1.2.1.2.2h.1v.2h-.1v.2h.1v.4c0,.1,0,.1.1.2h0a.4.4,0,0,0-.1.3h0v.2h0a.4.4,0,0,1-.1.3h-.1v.2c0,.1-.1.2,0,.3h0a.1.1,0,0,0-.1.1h0v.2h0l-.2.3h0l-.2.2a.4.4,0,0,0-.1.3h-.2l-.6.5c-.2.3-.5.6-.7.6h-.6v-.2h.2l.2-.2h-.1V159H112a.1.1,0,0,1-.1-.1h-.4c0,.1,0,.2-.1.2h0a.5.5,0,0,0-.1.3h1.1s-.1.1,0,.1h.3l-.3.2h.3v.2h.4l.5-.3h.1l.9-.5.2-.2c.1,0,.1,0,.1-.1l.2-.2h0v.2h0c0,.1-.1.2-.1.3h.1c0,.1.1.2,0,.3s0,.1,0,.2h0v.2h0a.3.3,0,0,0-.1.2v.2h.1v.2h.2v.2h.1v.2c-.1,0-.1,0,0,.1h0v-.2h.1v-.2h.2v.3h.4V162h0a.5.5,0,0,0,.1-.3h.2c0,.1-.1.3,0,.3h0v.2h.2v-.2h.1v0h.1v0h.3v0h0v-.3a1.1,1.1,0,0,0,.1-.6v-.4h0a1.8,1.8,0,0,1,.1.6,4.3,4.3,0,0,1-.1.5h.1v-.2h.1v.1h.3a.1.1,0,0,1,.1.1h.9Zm-.6.1h0Zm.5,0Zm-1.8-.1Zm-1.2-.2Zm-.8-.4Zm1,0h0Zm-1.4-.2Zm5.1-.6Zm.2-.1h0Zm-.1,0Zm-7.1-.3Zm.1-.1Zm0-.3h0Zm-.8-.3Zm-.4-.1Zm3.3-.1Zm-4-.4Zm0-.1Zm0-.1Zm0,0Zm0-.2Zm1-.6h0Zm4.8-3.7Zm-1.7-.3h.2l.2.2h0l-.2-.3a.2.2,0,0,1-.2-.2h0Zm0-.1Zm0-.4Zm.1-.2Zm3.4,7.3h-.4v-.2l-.2-.5h0v-.2h.1v.2a2.5,2.5,0,0,1,.4.7h-.1Zm-.2-.3h0c0-.2-.2-.4-.3-.6h0a1.4,1.4,0,0,1,.2.6Z"/>
        </g>
        <path class="cls-7" d="M118.8,161.2c-.2,0-.2-.1-.2-.2h-.1a2.1,2.1,0,0,0-.3-.7V160a.6.6,0,0,1-.2-.5.5.5,0,0,0-.2-.4v-.2h0c.1.2.1.2,0,.4l-.5.4h-.7l-.7-.2h-.2v-.4a.6.6,0,0,1-.1-.4h-.2l-.2.3-.2.2-.2.2-.9.5h-.1l-.5.3h-.9v-.2h.6l.7-.6a1.3,1.3,0,0,1,.7-.5h0l.2-.3.2-.3v-.3h.1c0-.1.1-.2.1-.4l.3-.4.4-.3h.2v-.2h.1v.2h-.3l-.2.3c-.2.1-.3.2-.3.4s-.1.3-.2.3h0l-.2.2-.2.4a.3.3,0,0,0-.1.2l-.2.2-.6.4c-.2.4-.5.7-.7.7h0l.5-.3h.2l.8-.4.2-.2.2-.2.2-.3h.1v-.2h.2c.1,0,.1.2.1.3s.1.2.1.4h0l.6.2.7-.2c.2,0,.3-.2.4-.3v-.4h0c0-.1.1-.3,0-.5h.2a1.1,1.1,0,0,0,.2.5v.2l.2.5c0,.2,0,.3.1.4v.2l.4.7v.2h.2v-.9l-.4-.8c-.1-.2-.2-.2-.2-.6l-.2-.7-.2-.7-.4-.4h-.2l-.3-.2h-.1v-.2h.1v.2h0v.2h.1l.3.3h.1c.2.1.4.1.5.4a2.6,2.6,0,0,1,.3.7,3.5,3.5,0,0,1,.1.7c.1.4.1.5.3.6a1.6,1.6,0,0,1,.3.8,3.2,3.2,0,0,1,.1.7s0,.3-.1.4Z"/>
        <path class="cls-7" d="M116.1,155.3h-.3v.2h-.1v-.2h.4"/>
        <path class="cls-7" d="M116.2,155.2h0"/>
        <path class="cls-7" d="M116.7,155.5h0"/>
        <path class="cls-7" d="M117.4,157.7h0"/>
        <path class="cls-7" d="M116.5,158.1h0"/>
        <path class="cls-7" d="M116.3,158.4h0"/>
        <path class="cls-7" d="M115.5,158.2c-.1,0-.2.1-.4-.2h.1a.4.4,0,0,0,.3.2Z"/>
        <path class="cls-7" d="M115.3,158.8a.6.6,0,0,1-.5-.3h.1c.1.3.5.3.5.3Z"/>
        <path class="cls-7" d="M118.2,158a.8.8,0,0,1-.7.3l.2.4h.3l.4-.2h0v-.3h-.1"/>
        <path class="cls-7" d="M117.9,158.8h-.2s-.1-.4-.2-.4h0a1.1,1.1,0,0,0,.8-.3,1.7,1.7,0,0,0,.2.5h-.1a.4.4,0,0,1-.3.2Zm-.2-.2h.4l.2-.2v-.3l-.6.2Zm.6-.5Z"/>
        <path class="cls-7" d="M116.4,159.8h0"/>
        <path class="cls-7" d="M116.4,159.7h0"/>
        <g>
          <path class="cls-7" d="M117,156.7h.1c.1.1.1.1.1.2H117"/>
          <path class="cls-7" d="M117,156.8h0"/>
          <path class="cls-7" d="M116.9,156.9h0"/>
          <path class="cls-7" d="M116.9,157h0"/>
          <path class="cls-7" d="M116.8,157.1h0"/>
          <path class="cls-7" d="M116.3,157.1h.1s.1.1,0,.1,0,.1-.1,0h0"/>
          <path class="cls-7" d="M116.6,157.2h.1c.1,0,.1.1,0,.1h-.1a.1.1,0,0,1-.1-.1h.1"/>
          <path class="cls-7" d="M116.4,157.2h.1c-.1,0-.1,0-.1-.1"/>
          <path class="cls-7" d="M116.7,157.2h.2a.1.1,0,0,1-.1.1h-.1"/>
          <path class="cls-7" d="M116.2,157.2h0"/>
          <path class="cls-7" d="M116.1,157.1h0"/>
          <path class="cls-7" d="M116.1,157h0"/>
          <path class="cls-7" d="M116,157h0"/>
        </g>
        <path class="cls-7" d="M116.9,155.5h0"/>
        <path class="cls-7" d="M115.6,155.9h0"/>
        <path class="cls-7" d="M115.8,156.3h.2a.1.1,0,0,1-.1.1h-.1"/>
        <path class="cls-7" d="M115.7,156.3h0"/>
        <path class="cls-7" d="M115.6,156.5h0"/>
        <path class="cls-7" d="M115.6,156.6h0"/>
        <path class="cls-7" d="M115.6,156.1h0"/>
        <path class="cls-7" d="M117.1,156h0"/>
        <path class="cls-7" d="M117,156.1h0c.1,0,.1,0,0,.1h0"/>
        <path class="cls-7" d="M117.2,156.4h0"/>
        <path class="cls-7" d="M117.3,156.7h0"/>
        <path class="cls-7" d="M117.5,156.7h0"/>
        <path class="cls-7" d="M115.5,158.8h0V159h0"/>
        <path class="cls-7" d="M115.3,159.5h0"/>
        <path class="cls-7" d="M115.3,159.1h0"/>
        <path class="cls-7" d="M116.2,156.2h0"/>
        <path class="cls-7" d="M116.3,156.1h0"/>
        <path class="cls-7" d="M116.1,156.4h0"/>
        <path class="cls-7" d="M116.2,156.4h0"/>
        <path class="cls-7" d="M116.3,155.8h0"/>
        <path class="cls-7" d="M116,155.8h0"/>
        <path class="cls-7" d="M116.1,155.8h0"/>
        <path class="cls-7" d="M115.9,155.9h0"/>
        <path class="cls-7" d="M115.9,155.9h0"/>
        <path class="cls-7" d="M118.3,161.5v-.3h.3v.2h-.4"/>
        <path class="cls-7" d="M118.1,161.8h0v-.2h0v.2h0Z"/>
        <path class="cls-7" d="M118.3,161.7a.1.1,0,0,0-.1.1H118c-.1,0-.2,0-.2.2s0,.1,0,.2h.1c.1,0,.2,0,.3-.2s0-.3.1-.4"/>
        <path class="cls-7" d="M118.6,161.7s.1.2-.1.2h-.3l.2-.2h.2"/>
        <path class="cls-7" d="M116.4,155.8s-.1.1,0,.1.1-.1,0-.1"/>
        <path class="cls-7" d="M116.4,155.8h0"/>
        <path class="cls-7" d="M116.3,155.8h0"/>
        <g>
          <path class="cls-7" d="M117.5,159.5h.1v-.2h.1c0,.1.1.1,0,.2l-.2.3a.9.9,0,0,1-.5.3h-1.2c-.1-.1-.3-.2-.3-.3h.1l.3.2h.8l.6-.2.2-.2"/>
          <path class="cls-7" d="M116.3,160.1h-.5q-.3-.1-.3-.3h.4c0,.1.2.1.3.1h.5l.6-.2h.2c.1-.1.1-.1.1-.2h.1c0,.1.1.1.1.2l-.3.3a.9.9,0,0,1-.5.3h-.7Zm-.7-.5h0c-.1,0,0,.1.2.2l.6.2h.6l.5-.3.2-.3h-.1v.2h-.1l-.2.2-.6.2h-.8l-.3-.2Z"/>
        </g>
        <path class="cls-7" d="M115.6,158.3h0"/>
        <path class="cls-7" d="M117,158.2h0"/>
        <g>
          <path class="cls-7" d="M117.6,159.3h0"/>
          <path class="cls-7" d="M117.6,159.4h0"/>
          <path class="cls-7" d="M117.6,159.4h0"/>
          <path class="cls-7" d="M117.5,159.5h0"/>
          <path class="cls-7" d="M117.4,159.6h0"/>
          <path class="cls-7" d="M117.3,159.7h0"/>
          <path class="cls-7" d="M117.2,159.7h0"/>
          <path class="cls-7" d="M117.1,159.8h0"/>
          <path class="cls-7" d="M117,159.8h0"/>
          <path class="cls-7" d="M116.8,159.9h0"/>
          <path class="cls-7" d="M116.7,159.9h0"/>
          <path class="cls-7" d="M116.5,159.9h0"/>
          <path class="cls-7" d="M116.4,159.9h0"/>
          <path class="cls-7" d="M116.2,159.9h0"/>
          <path class="cls-7" d="M116.1,159.9h0"/>
          <path class="cls-7" d="M116,159.8h0"/>
          <path class="cls-7" d="M115.8,159.7h0"/>
          <path class="cls-7" d="M115.7,159.7h0"/>
        </g>
        <path class="cls-7" d="M123.4,138.2l-.3-.3h-.2v.4l2.6,4.7h.3v-.2h.1Zm2.5,4.7h-.3l-2.6-4.6V138h0l.4.2,2.6,4.5A.3.3,0,0,1,125.9,142.9Z"/>
        <path class="cls-7" d="M125.5,150.3v.3h.1v-.2Zm.4-.6h-.1l-.8.4a1,1,0,0,0-.8.5h0v1h.1c.1-.3.5-.4.7-.5a2,2,0,0,0,.9-.5h0Zm-1.3.8h0v.6c0,.1-.1.1-.1.2s-.1,0-.1-.1v-.5h.1v.6h.1v-.5h.1Zm.2.5h-.1v-.6h0v.6h.1v-.2h0Zm.3-.5h0v-.2H125v.6h-.1v-.6h-.1v.2h-.1v-.3h.2Zm.3.3h-.1v-.2h-.1v.2h0v-.6h.1c0-.1.1,0,.1.1s0,.2-.1.2h.1v.2Zm.3-.1h-.3c.1,0,.1,0,.1-.1v-.6h.1v.6Zm-.4-.5h0v.3h.1v-.2Z"/>
        <polygon class="cls-7" points="126.2 153.6 126.2 153.5 126.2 153.4 124.1 153.4 123.8 153.7 123.8 153.9 123.8 153.9 125.8 153.9 125.9 153.9 126.2 153.6"/>
        <polygon class="cls-7" points="125.9 153.9 125.9 153.7 126.2 153.5 126.2 153.4 125.9 153.7 125.9 153.9 125.9 153.9"/>
        <path class="cls-7" d="M129.4,141.2a4.3,4.3,0,0,0-1.9-.1,4.4,4.4,0,0,0-2,.8c-.1,0,.1.2.1.2a5.9,5.9,0,0,1,1.6-.6c.9-.2,1.9-.2,2,0a6.8,6.8,0,0,1-2.1,5.9l-.5.4v.4C128.8,146.6,130.3,143.2,129.4,141.2Z"/>
        <path class="cls-7" d="M124.3,148.9h0a1.4,1.4,0,0,1-.5-1,1.7,1.7,0,0,1,.3-1,1.2,1.2,0,0,1,.9-.3h.2a1.3,1.3,0,0,1,1.2,1.2h.2a1.4,1.4,0,0,0-1.4-1.4H125a1.2,1.2,0,0,0-1,.4,1.5,1.5,0,0,0-.4,1.1,1.4,1.4,0,0,0,.6,1.1h.1Z"/>
        <path class="cls-7" d="M125.8,148.9h-.5l-.6.2h.4a1.1,1.1,0,0,0,.8.1,1.5,1.5,0,0,0,.6-.9l-.3.2A1,1,0,0,1,125.8,148.9Z"/>
        <path class="cls-7" d="M126.4,147.9c-.1.2-.1.4-.2.5l.3-.2v-.4Z"/>
        <path class="cls-7" d="M124.3,149h0Z"/>
        <path class="cls-7" d="M125.1,148.8h-.4l.6-.2Z"/>
        <path class="cls-7" d="M124.3,149.5h1.4v.4h.3v-.5h-.1c0-.1-.4-.1-.9-.1h-.7Z"/>
        <path class="cls-7" d="M125.8,149.3V153a1.6,1.6,0,0,1-1.4,0v-3.7h-.2v3.9h0l.9.2a1.2,1.2,0,0,0,.8-.3h.1v-3.9Z"/>
        <path class="cls-7" d="M124.3,149.1h0l.5-.2h-.5Z"/>
        <path class="cls-7" d="M125.1,148.8h-.4l-.5.2H126V149h-1Z"/>
        <path class="cls-7" d="M125.1,148.8h-.3l-.5.2h-.2v.2l.5-.2h.4Z"/>
        <polygon class="cls-7" points="125.2 146.2 125.2 146 125.1 146 125.1 146 125 146 125 146 124.9 146 124.9 146.2 125 146.2 125 146.4 125.1 146.4 125.1 146.2 125.2 146.2"/>
        <rect class="cls-7" x="124.8" y="152.7" height="2.09" transform="translate(-29.1 278.3) rotate(-89.9)"/>
        <path class="cls-7" d="M124.2,153.3h-.1s.1.2,1,.2.9-.2.9-.2v-.2a.1.1,0,0,0-.1-.1l-.9.2h-.8"/>
        <path class="cls-7" d="M132.8,141h-.2l-3.9-3.6h-.2a4.7,4.7,0,0,1-2.4.6,2.4,2.4,0,0,1-1.7-.6h-6.6v.2a3.9,3.9,0,0,1-1.4.4h-.4a5.7,5.7,0,0,1-2-.6h-.2l-4.3,3.5-.2.2h.2a3.2,3.2,0,0,1,.8,1,12,12,0,0,1,.1,3.1c0,1-.1,12.8-.1,13.4v.3a19.4,19.4,0,0,0,.1,2.2,5,5,0,0,0,.9,2.3,6,6,0,0,0,1.3.9,3.6,3.6,0,0,0,2.1.5h2.1l2.1-.3a2.1,2.1,0,0,1,1.2.3,1.5,1.5,0,0,1,.8.8l.2.3.2-.3a2.4,2.4,0,0,1,1.5-1.1h.2l1.4.2a8,8,0,0,0,2.4.4h.2a6.2,6.2,0,0,0,3-.6,3.4,3.4,0,0,0,1.2-1.2,4.3,4.3,0,0,0,.5-2.1c0-2.8-.1-11.7-.1-15v-1.4a4,4,0,0,1,1.1-3.2Zm-1.6,1.4a14.5,14.5,0,0,0-.3,3.1v5.6h0s.1,7.8.1,9.4-.3,2.6-1.7,3.2a7.5,7.5,0,0,1-4.1.3c-.7-.1-1.7-.7-2.6-.5a3.5,3.5,0,0,0-1.6,1V155h-.1v9.4a3.7,3.7,0,0,0-1.6-.9,14.7,14.7,0,0,0-4.2.5,4.5,4.5,0,0,1-2.8-.6c-1.4-.8-1.7-2.4-1.7-4s.1-8.3.1-8.3h0v-7.2a19.7,19.7,0,0,0-.1-2.1,3.7,3.7,0,0,0-.7-1l3.8-3.1s2.3,1.3,4.2.1H121v9.1h0v-9.1h3c1.9,1.2,4.5.1,4.5.1L132,141A3.4,3.4,0,0,0,131.2,142.4Z"/>
        <polygon class="cls-7" points="121 146.7 121 146.7 121 146.7 121 146.6 121 146.7"/>
        <path class="cls-7" d="M120,146.8v-1.1l.3-.8h-.7s-.1,0-.1.2h-.3v-.3h-1.2v.2h-.1v-.2h-.8l.2.6h0v.6h.3v-.6h-.1a4.3,4.3,0,0,1-.1-.5h.4v.3h.4v-.2h.8v.3h.5c.1,0,.1-.1.2-.2h.4l-.2.6v1.2Z"/>
        <polygon class="cls-7" points="121 146.7 121 146.7 121 146.7 121 146.6 121 146.7"/>
        <path class="cls-7" d="M122.8,144.7a8.7,8.7,0,0,1,2.3-2.3v-.3a6.9,6.9,0,0,0-2.8,3l-.6,1.6h.3A9.5,9.5,0,0,1,122.8,144.7Z"/>
        <path class="cls-7" d="M124.1,149.1h-.2v.2h.3Z"/>
        <path class="cls-7" d="M121.1,146.6H121l-1,.2v.2l1-.2h.6v-.2Zm-.1.1Z"/>
        <path class="cls-7" d="M123.9,150.6a4.7,4.7,0,0,1-1,3,2.5,2.5,0,0,1-1.9.9,2.6,2.6,0,0,1-1.9-.9,4.7,4.7,0,0,1-.9-3.7H118v-.2h.2a3.6,3.6,0,0,1,.4-1.1,3.2,3.2,0,0,1,1.2-1.5v-.2a3.2,3.2,0,0,0-1.4,1.6,5.7,5.7,0,0,0-.4,2.9,4.4,4.4,0,0,0,1,2.4,2.8,2.8,0,0,0,2,.9,2.6,2.6,0,0,0,2-1,3.7,3.7,0,0,0,1-2,7.5,7.5,0,0,0,.1-1.1,5.8,5.8,0,0,0-.1-1v-.3h-.2A4.3,4.3,0,0,1,123.9,150.6Z"/>
        <path class="cls-7" d="M123.1,147.8l.6,1.3h.2a6.1,6.1,0,0,0-.7-1.4,2.6,2.6,0,0,0-1.3-.9v.2A3.5,3.5,0,0,1,123.1,147.8Z"/>
        <path class="cls-7" d="M123.7,149.1v.3h.2v-.2Z"/>
        <path class="cls-7" d="M121.9,146.8h-.3v.2h.3Z"/>
        <path class="cls-7" d="M118,149.7v.2h.2v-.2Z"/>
        <path class="cls-7" d="M120,147v-.2h-.2v.2Z"/>
        <g>
          <path class="cls-7" d="M119,151.8h-.1v-.3h0"/>
          <path class="cls-7" d="M119.8,151.9Zm-.7.2Zm.5-.2Zm.1,0Zm.2,0Zm.5-1.7Zm.1,0h0Zm-.2,1v-.3c.1,0,0-.1,0-.2h-.1c0-.1-.1-.2,0-.3h0c-.1,0-.1.1-.1.2h.1c.1.1.1.1.1.2h-.1s-.1.1,0,.3a.4.4,0,0,1-.1.3h0v-.5Zm-.2.6h.1a.1.1,0,0,0-.1.1Zm.9-2.2Zm-1,.8Zm0,1.4Zm.8-2.2h0Zm1,0h-1.5a.9.9,0,0,0-.1.5v.2h0c.1,0,.1-.1.1-.2h0v-.3H120v.2h0v.2h0c0,.1.1.1,0,.1h-.1c0-.1,0-.1.1-.1h0c.1,0,.1-.1.1-.2h.1a.3.3,0,0,0-.1-.2v-.2h.2c0-.1,0-.1.1-.1h-.2c-.1.1-.1.1-.1.2h0c0-.1.1-.1.1-.2h0v-.2h0a.1.1,0,0,0,.1-.1h.1a.4.4,0,0,0,.1-.3h.1v0h.3c.2.1.3,0,.3,0v-.2h.5C121.9,149.7,121.9,149.6,121.8,149.6Zm-1.3-.1h0Zm.7,0h0S121.3,149.5,121.2,149.5Zm.3-.1h0Zm.2.3Zm-.7-.1Zm-1.2,2.2h.2v-.2h0c0-.1-.1-.1,0-.2h0v.5l-.2.2c0,.1-.1.1-.2.2l-.2.2h-.2a.4.4,0,0,0-.1.3h.3l.2-.2h.2a.1.1,0,0,0,.1-.1h-.1c-.1,0-.1,0-.1.1h0a.1.1,0,0,0,.1-.1h.1V151h0v-.2h-.1v.2h-.1Zm-.6-.1Zm.4-.2Zm-.1.4h0Z"/>
          <path class="cls-7" d="M122.6,151.8a.1.1,0,0,0-.1-.1h-.1c0,.1.1.1.1.2h-.1c0,.1,0,.1.1.1h.1Zm-.3-.1Zm-.7-.6Zm-.1,0Zm.1-.1Zm.4.7h0c-.1,0-.1,0-.1-.1h0v.2h-.4a.1.1,0,0,1-.1-.1h.1c.1.1.2.2.3.1h.2Zm0-.1h0Zm-.5-.5Zm.1-.1h0Zm.2.1Zm.2.6Zm.3.2Zm-.3-.2h0Zm-.4-.7h0Zm.5.3h0Z"/>
          <g>
            <path class="cls-7" d="M121,147.6h-.1c0-.1.1-.1.1-.2h0Z"/>
            <path class="cls-7" d="M121.5,148.3h-.2a.3.3,0,0,0-.1-.2h.1a.2.2,0,0,1,.2.2"/>
            <path class="cls-7" d="M121.9,148.6h-.3l-.2-.2h.5c.1.1.2.1.1.2h0v.3h0c0-.2,0-.3-.1-.3"/>
            <path class="cls-7" d="M121.7,149.1h0"/>
            <polyline class="cls-7" points="121.6 149 121.6 149 121.6 149 121.6 149"/>
            <path class="cls-7" d="M121.7,149h0"/>
            <path class="cls-7" d="M121.7,149h0"/>
            <path class="cls-7" d="M121.7,149h0"/>
            <path class="cls-7" d="M121.7,149h0"/>
            <path class="cls-7" d="M121.8,149h0"/>
            <path class="cls-7" d="M121.8,149h0"/>
            <path class="cls-7" d="M121.9,148.9h0"/>
            <path class="cls-7" d="M121.6,148.8h-.1v-.2h.1v.2"/>
            <polyline class="cls-7" points="121.6 148.9 121.6 148.9 121.6 148.9 121.6 148.9"/>
            <polygon class="cls-7" points="121.6 148.9 121.6 148.9 121.6 148.9 121.6 148.9"/>
            <path class="cls-7" d="M121.2,149h0"/>
            <path class="cls-7" d="M121.3,149h0"/>
            <path class="cls-7" d="M121.2,148.9h0"/>
            <path class="cls-7" d="M121.3,148.9h0"/>
            <path class="cls-7" d="M121.3,148.9h0"/>
            <path class="cls-7" d="M121.4,148.8h0"/>
            <path class="cls-7" d="M121.4,148.8h0"/>
            <path class="cls-7" d="M120.7,149h0"/>
            <path class="cls-7" d="M120.7,148.9h0"/>
            <path class="cls-7" d="M120.7,149h0"/>
            <path class="cls-7" d="M120.7,149h0"/>
            <path class="cls-7" d="M120.9,149h0"/>
            <path class="cls-7" d="M120.8,148.9h0"/>
            <path class="cls-7" d="M120.9,148.8h0"/>
            <path class="cls-7" d="M120.9,148.8h0"/>
            <path class="cls-7" d="M120.9,148.4h0"/>
            <path class="cls-7" d="M120.9,148.4h0"/>
            <path class="cls-7" d="M120.8,148.5h0"/>
            <path class="cls-7" d="M120.7,148.6h0"/>
            <path class="cls-7" d="M120.7,148.6h0"/>
            <path class="cls-7" d="M121.3,148.5h0"/>
            <path class="cls-7" d="M121.3,148.5h0"/>
            <path class="cls-7" d="M121.4,148.7h0"/>
            <path class="cls-7" d="M121.4,148.7h0"/>
            <path class="cls-7" d="M121.4,148.6h0"/>
            <path class="cls-7" d="M121.2,148.5H121v-.2h.2v.2h0v.2"/>
            <path class="cls-7" d="M120.9,148.7h0"/>
            <path class="cls-7" d="M120.6,148.6v.2h-.1a.1.1,0,0,0-.1-.1h.2"/>
            <path class="cls-7" d="M120.9,148.5h.1v-.2"/>
            <path class="cls-7" d="M121.9,148.8h0"/>
            <path class="cls-7" d="M121.9,148.8h0"/>
            <path class="cls-7" d="M121.9,148.7h0"/>
            <path class="cls-7" d="M121.8,148.6h0"/>
            <path class="cls-7" d="M121.7,148.6h0"/>
            <path class="cls-7" d="M121.6,148.5h0"/>
            <path class="cls-7" d="M120.9,148.1h.1a.3.3,0,0,0-.1.2h0l-.2.2h0l.2-.2"/>
            <path class="cls-7" d="M120.6,148.3h-.4c0-.2.1-.3.3-.4h.4l-.3.2"/>
            <path class="cls-7" d="M120.2,149h0"/>
            <path class="cls-7" d="M120.4,149h0"/>
            <polyline class="cls-7" points="120.4 149 120.4 149 120.4 149 120.4 149"/>
            <path class="cls-7" d="M120.3,149.1h0"/>
            <path class="cls-7" d="M120.3,149.1h0"/>
            <path class="cls-7" d="M120.4,148.9h0"/>
            <path class="cls-7" d="M120.4,148.8h0"/>
            <path class="cls-7" d="M120.3,148.7Z"/>
            <path class="cls-7" d="M120.3,148.6h0"/>
            <path class="cls-7" d="M120.3,148.7h0"/>
            <polyline class="cls-7" points="120.4 148.6 120.4 148.6 120.4 148.6 120.4 148.6"/>
            <path class="cls-7" d="M120.2,148.7h-.1v-.2h.1"/>
            <path class="cls-7" d="M120.2,149.1h.3v-.2h.6c.1,0,.1.1.1,0s.1,0,.1.1h0s-.1.1,0,.1h.7v.2a.1.1,0,0,0-.1.1c0-.1-.3-.1-.5-.1h-.9l-.2-.2h.1"/>
            <path class="cls-7" d="M121.7,149.5h-1.4v-.2h1.4Z"/>
            <path class="cls-7" d="M121.5,149.2h0m0-.2h0"/>
            <path class="cls-7" d="M121,149.1h0m0,0h0"/>
            <path class="cls-7" d="M120.6,149.2h0m0-.1h0"/>
          </g>
          <path class="cls-7" d="M121,154.5h0Zm2.3-1.7h-.2l-.2-.3h0l-.2-.3h-.9c.1,0,.1,0,.1.1h-.2a.1.1,0,0,1,.1.1h-.1a.1.1,0,0,1-.1-.1h.5a.1.1,0,0,1-.1-.1h-.3c.1,0,.1,0,.1.1h-.2l.2.3h0l-.2-.3h-.2v-.2h0v-.2h-.1a.1.1,0,0,1-.1-.1.1.1,0,0,0-.1.1.4.4,0,0,1,.1.3.5.5,0,0,1-.2.4h-.4l-.4-.5v0h0l.2.3h.3c0,.1.1.1.1.2h0c-.1-.1-.1-.1-.1-.2h-.4v.4h0v-.4h-.1c-.1.1-.1.1-.1.2h0v-.2h-.1a.1.1,0,0,1-.1.1h0a.1.1,0,0,1,.1-.1h.2a.1.1,0,0,0-.1-.1.1.1,0,0,1-.1.1h-.8l-.2.2h-.2c0,.1-.1.1-.1.2s-.2.3-.3.4l.4.6h0v-.2h.4a.1.1,0,0,1,.1-.1h0a.1.1,0,0,0-.1.1h-.2a.1.1,0,0,0-.1.1h0v.2h0l.2.3a2.8,2.8,0,0,0,1.3.7.3.3,0,0,0,.1-.2,1.1,1.1,0,0,1,.1-.5v-.9c.1-.1.1-.3.2-.4v0l.2.4a1.1,1.1,0,0,1,.1.6,2.8,2.8,0,0,1,.1.8c-.1.1,0,.3,0,.3a2.8,2.8,0,0,0,1.3-.7c0-.1,0-.1-.1-.1h-.2c.1,0,.1,0,.1.1h.3a2.4,2.4,0,0,0,.6-.8Zm-4.8-.1Z"/>
          <g>
            <path class="cls-7" d="M121.3,150.9s.1,0,0-.1h0"/>
            <path class="cls-7" d="M121.2,150.9h0"/>
            <path class="cls-7" d="M120.5,150.6h0"/>
            <path class="cls-7" d="M120.3,150.3h0"/>
            <path class="cls-7" d="M121.7,150.1h-.3c0,.1-.1.1-.1.2s0-.2.1-.2h.3"/>
            <path class="cls-7" d="M121.4,150.1a.3.3,0,0,0-.1.2v.2s.1.1,0,.1h.1a.4.4,0,0,1-.1-.3Z"/>
            <path class="cls-7" d="M121.7,150.3h-.3s-.1.1,0,.1h.3"/>
            <path class="cls-7" d="M121.5,150.2s-.1.1,0,.1h.1a.1.1,0,0,0-.1-.1h0"/>
            <path class="cls-7" d="M120.7,150.1h0"/>
            <path class="cls-7" d="M120.9,150.2s-.1.1,0,.1a.1.1,0,0,0,.1-.1h-.1"/>
            <path class="cls-7" d="M121,150.3h0a.1.1,0,0,0,.1-.1c0,.1-.1.1,0,.1H121"/>
            <path class="cls-7" d="M120.8,150.2h0Z"/>
            <path class="cls-7" d="M121.6,150.3Z"/>
            <path class="cls-7" d="M121.3,150.7h0"/>
            <path class="cls-7" d="M120.7,150.2h.1s-.1.1-.1,0"/>
          </g>
        </g>
      </g>
    </g>
  </g>
</svg>
