<svg id="Capa_1" data-name="Capa 1" xmlns="http://www.w3.org/2000/svg" xmlns:xlink="http://www.w3.org/1999/xlink" width="559" height="315.5" viewBox="0 0 559 315.5">
  <defs>
    <style>
      .cls-1 {
        fill: #bc955c;
        opacity: 0.1;
      }

      .cls-2 {
        fill: none;
        stroke-miterlimit: 10;
        stroke-width: 3px;
        stroke: url(#Degradado_sin_nombre_17);
      }

      .cls-2, .cls-3 {
        opacity: 0.8;
      }

      .cls-3 {
        fill: url(#Degradado_sin_nombre_17-2);
      }

      .cls-4 {
        fill: url(#Degradado_sin_nombre_55);
      }

      .cls-5 {
        fill: #fff;
      }

      .cls-6 {
        fill: #932c42;
      }

      .cls-7 {
        fill: #b99763;
      }
    </style>
    <linearGradient id="Degradado_sin_nombre_17" data-name="Degradado sin nombre 17" x1="19.1" y1="157.07" x2="536.56" y2="157.07" gradientUnits="userSpaceOnUse">
      <stop offset="0" stop-color="#d6ba95"/>
      <stop offset="0.51" stop-color="#be9860"/>
      <stop offset="0.92" stop-color="#bc955c"/>
    </linearGradient>
    <linearGradient id="Degradado_sin_nombre_17-2" x1="204.47" y1="157.49" x2="354.82" y2="157.49" xlink:href="#Degradado_sin_nombre_17"/>
    <linearGradient id="Degradado_sin_nombre_55" data-name="Degradado sin nombre 55" x1="211.5" y1="157.49" x2="347.79" y2="157.49" gradientUnits="userSpaceOnUse">
      <stop offset="0" stop-color="#b31241"/>
      <stop offset="0.58" stop-color="#9f2241"/>
      <stop offset="0.88" stop-color="#892241"/>
    </linearGradient>
  </defs>
  <title>Video Play</title>
  <polygon class="cls-1" points="-0.2 68.2 68 0.1 558.7 0.1 558.7 315.4 -1.1 315.4 -0.2 68.2"/>
  <polygon class="cls-2" points="21.4 81.3 84.1 18.6 535.1 18.6 535.1 295.6 20.6 295.6 21.4 81.3"/>
  <g>
    <circle class="cls-3" cx="279.6" cy="157.5" r="75.2"/>
    <g>
      <circle class="cls-4" cx="279.6" cy="157.5" r="68.1"/>
      <path class="cls-5" d="M261.8,191.5l53.8-31.3a3.2,3.2,0,0,0,0-5.4l-53.8-31.3a3,3,0,0,0-4.6,2.6v62.7A3.1,3.1,0,0,0,261.8,191.5Z"/>
    </g>
  </g>
  <g>
    <g>
      <g>
        <path class="cls-6" d="M56.3,101.1H45.7v-.2c1.6-.4,1.8-.6,1.8-1.8V89.8c0-1.2-.2-1.5-1.8-1.8v-.3H56.1C56,88.9,56,90,56,91.2h-.3c-.7-1.9-1.7-2.5-4.8-2.5h-.4v4.9h.6c1.6,0,2.3-.6,3.1-2h.3a20.1,20.1,0,0,0,0,4.9h-.3a3,3,0,0,0-3.1-2h-.6v5.7h.3c3.3,0,4.4-.7,5.2-3.2h.2C56.2,98.4,56.2,99.8,56.3,101.1Z"/>
        <path class="cls-6" d="M72,94.2c0,4.1-3.1,7.1-7.8,6.9H58v-.2c1.5-.4,1.8-.6,1.8-1.8V89.8c0-1.2-.3-1.5-1.8-1.8v-.3h5.3C68.7,87.5,72,89.9,72,94.2Zm-3.5.5c0-4.2-1.8-6-5.1-6h-.6v11.4h1.6C66.9,100.2,68.5,98,68.5,94.7Z"/>
        <path class="cls-6" d="M74.3,96.3V89.8c0-1.2-.2-1.5-1.7-1.8v-.3h6.6V88c-1.6.3-1.8.6-1.8,1.8v5.8c0,3.3,1,4.8,3.4,4.8s3.5-1.6,3.5-4.2V89.8c0-1.2-.2-1.5-2-1.8v-.3h5V88c-1.6.3-1.9.6-1.9,1.8V96c0,3.4-2,5.4-5.4,5.4S74.3,99.6,74.3,96.3Z"/>
        <path class="cls-6" d="M87.9,94.5c0-4,3.3-7.1,7.6-7.1a24.7,24.7,0,0,1,3.8.5,24.4,24.4,0,0,0-.1,3.8h-.3c-.3-.8-1.3-3.4-3.7-3.4s-3.9,2.4-3.9,5.7,1.6,6.5,4,6.5,2.6-.7,3.6-3.4h.2c0,1.2.1,2.5.2,3.7a13.7,13.7,0,0,1-4.2.6C90.8,101.4,87.9,98.7,87.9,94.5Z"/>
        <path class="cls-6" d="M100.4,100.9c1-.3,1.5-.7,2.6-3.1l4.4-10.2h.3l5.2,11.3c.6,1.3.7,1.6,2,2v.2h-6.5v-.2c.8-.2,1.3-.4,1.3-1a1.6,1.6,0,0,0-.3-.8l-.6-1.7h-4.5l-.3.8a3.5,3.5,0,0,0-.3,1.2c0,.8.5,1.2,1.8,1.5v.2h-5.1Zm8-4.4-1.8-4.2h-.1l-1.8,4.2Z"/>
        <path class="cls-6" d="M114.7,94.5c0-4,3.3-7.1,7.6-7.1a24.7,24.7,0,0,1,3.8.5c-.1,1.3-.1,2.6-.1,3.8h-.2c-.4-.8-1.3-3.4-3.7-3.4s-3.9,2.4-3.9,5.7,1.5,6.5,3.9,6.5,2.6-.7,3.6-3.4h.3c0,1.2,0,2.5.1,3.7a13.7,13.7,0,0,1-4.2.6C117.6,101.4,114.7,98.7,114.7,94.5Z"/>
        <path class="cls-6" d="M134.1,100.9v.2h-6.5v-.2c1.5-.4,1.8-.6,1.8-1.8V89.8c0-1.2-.3-1.5-1.8-1.8v-.3h6.5V88c-1.5.3-1.7.6-1.7,1.8v9.3C132.4,100.3,132.6,100.5,134.1,100.9Z"/>
        <path class="cls-6" d="M149.4,94.3a6.8,6.8,0,0,1-7.2,7.1,6.5,6.5,0,0,1-6.8-6.9,6.9,6.9,0,0,1,7.1-7.1A6.6,6.6,0,0,1,149.4,94.3Zm-3.4.9c0-4.3-1.4-6.9-3.8-6.9s-3.4,2-3.4,5.3,1.4,6.9,3.8,6.9S146,98.6,146,95.2Zm-5.6-8.7a4,4,0,0,1,4.2-3.5v.2a1.3,1.3,0,0,1,.1.6c0,1.9-2.6,1.9-4.2,2.9Z"/>
        <path class="cls-6" d="M153.9,91.3h-.2v7.8c0,1.2.2,1.4,2.3,1.8v.2h-5.4v-.2c1.7-.4,1.9-.6,1.9-1.8V89.8c0-1.2-.2-1.5-1.9-1.8v-.3H155l7.5,8.6h.1V89.8c0-1.2-.2-1.5-2.3-1.8v-.3h5.2V88c-1.5.3-1.8.6-1.8,1.8v11.4h-1.1Z"/>
      </g>
      <g>
        <path class="cls-7" d="M61,109.4v-1.1h.1c.3.8.6,1.1,1.1,1.1a.7.7,0,0,0,.8-.8c0-.5-.5-.8-1-1.1s-1.1-.6-1.1-1.2a1.2,1.2,0,0,1,1.3-1.2l1.1.2c0,.3-.1.7-.1,1h0c-.2-.5-.4-1-1.1-1a.7.7,0,0,0-.7.7c0,.4.4.7.9,1s1.2.7,1.2,1.4a1.3,1.3,0,0,1-1.4,1.3A2.3,2.3,0,0,1,61,109.4Z"/>
        <path class="cls-7" d="M67.1,109.6H63.9c.5-.1.6-.2.6-.4v-3.4c0-.3-.1-.4-.6-.5h3.2a3.7,3.7,0,0,0-.1,1.1h0c-.3-.7-.5-.9-1.5-.9h-.4v1.7h.5a.8.8,0,0,0,.9-.6h0V108h0a.8.8,0,0,0-.9-.6h-.5v1.9h.4c.9,0,1.2-.2,1.5-1h0A6.2,6.2,0,0,0,67.1,109.6Z"/>
        <path class="cls-7" d="M67.6,107.4a2.2,2.2,0,0,1,2.4-2.3l1.4.2v1.1h-.1c-.3-.5-.5-1.1-1.4-1.1s-1.6.8-1.6,2,.7,2.1,1.7,2.1,1-.4,1.3-1.3h.1v1.2a3.3,3.3,0,0,1-1.5.4A2.2,2.2,0,0,1,67.6,107.4Z"/>
        <path class="cls-7" d="M76,109.5h-.6c-.2,0-.3-.1-.5-.4l-1-1.7a.1.1,0,0,1-.1.1h-.5v1.5c0,.2.1.3.6.4H72.1c.5-.1.6-.2.6-.4v-3.4c0-.3-.1-.4-.6-.5h1.5c1.1-.1,1.7.4,1.7,1.1a1.2,1.2,0,0,1-.9,1.2l.7,1.2C75.4,109.2,75.7,109.5,76,109.5Zm-1.3-3.1c0-.6-.4-1-1.2-1h-.2v1.9h.5A.9.9,0,0,0,74.7,106.4Z"/>
        <path class="cls-7" d="M79.4,109.6H76.3c.5-.1.5-.2.5-.4v-3.4c0-.3,0-.4-.5-.5h3.1v1.1h-.1c-.2-.7-.5-.9-1.5-.9h-.4v1.7h.5c.6,0,.7-.1.9-.6h.1a3.8,3.8,0,0,0,0,1.5h-.1c-.2-.5-.3-.6-.9-.6h-.5v1.9h.4c1,0,1.2-.2,1.5-1h.1Z"/>
        <path class="cls-7" d="M80.8,109.5c.6-.1.7-.2.7-.4v-3.7h-.4c-.6,0-1,.3-1.1,1.1h-.1v-1.3h3.9a5.7,5.7,0,0,0-.1,1.3h0c-.2-.8-.5-1.1-1.2-1.1h-.4v3.7c0,.2.1.3.7.4h-2Z"/>
        <path class="cls-7" d="M83.3,109.5a.9.9,0,0,0,.7-.6l1.6-3.8h0l1.8,3.9c.1.4.3.5.6.5H86.2c.3-.1.6-.1.6-.3a.1.1,0,0,0-.1-.1l-.3-.9H84.6l-.3.7v.2c0,.2.2.4.6.4H83.3Zm3-1.5-.8-1.9h-.1l-.8,1.9Z"/>
        <path class="cls-7" d="M92.1,109.5h-.5a.5.5,0,0,1-.5-.4l-1-1.7h-.6v1.5c0,.2.1.3.6.4H88.3c.5-.1.6-.2.6-.4v-3.4c0-.3-.1-.4-.6-.5h1.5c1.1-.1,1.7.4,1.7,1.1a1.3,1.3,0,0,1-.9,1.2l.7,1.2C91.6,109.2,91.9,109.5,92.1,109.5Zm-1.2-3.1c0-.6-.4-1-1.2-1h-.2v1.9h.4A.9.9,0,0,0,90.9,106.4Z"/>
        <path class="cls-7" d="M94.2,109.5H92.4c.5-.1.6-.2.6-.4v-3.4c0-.3-.1-.4-.6-.5h1.8c-.5.1-.6.2-.6.5v3.4C93.6,109.3,93.7,109.4,94.2,109.5Zm-1.5-4.7c0-.4.9-1,1.4-.9h0c0,.3-.8.4-1.4.7Z"/>
        <path class="cls-7" d="M94.5,109.5c.4-.1.5-.3.7-.6l1.5-3.8h.1l1.8,3.9c.1.4.3.5.6.5H97.4c.3-.1.5-.1.5-.3h0l-.4-.9H95.7l-.2.7v.2c0,.2.2.4.6.4H94.5Zm2.9-1.5-.8-1.9h0l-.8,1.9Z"/>
        <path class="cls-7" d="M105.5,107.2a2.2,2.2,0,0,1-2.5,2.4h-1.9c.5-.1.6-.2.6-.4v-3.4c0-.3-.1-.4-.6-.5h1.7C104.5,105.1,105.5,105.9,105.5,107.2Zm-.7.2a1.8,1.8,0,0,0-2.1-2h-.4v3.9h.8C104.2,109.3,104.8,108.6,104.8,107.4Z"/>
        <path class="cls-7" d="M109.1,109.6H106c.5-.1.5-.2.5-.4v-3.4c0-.3,0-.4-.5-.5h3.1c0,.3-.1.7-.1,1.1h0c-.2-.7-.5-.9-1.5-.9h-.4v1.7h.5c.6,0,.7-.1.9-.6h.1a3.8,3.8,0,0,0,0,1.5h-.1c-.2-.5-.3-.6-.9-.6h-.5v1.9h.4c.9,0,1.2-.2,1.5-1h0C109,108.7,109.1,109.1,109.1,109.6Z"/>
        <path class="cls-7" d="M114.5,109.6h-3.1c.4-.1.5-.2.5-.4v-3.4c0-.3-.1-.4-.5-.5h3.1c0,.3-.1.7-.1,1.1h0c-.2-.7-.5-.9-1.5-.9h-.4v1.7h.5c.6,0,.7-.1.9-.6h.1a3.8,3.8,0,0,0,0,1.5h-.1c-.2-.5-.3-.6-.9-.6h-.5v1.9h.4c.9,0,1.2-.2,1.5-1h0C114.4,108.7,114.5,109.1,114.5,109.6Z"/>
        <path class="cls-7" d="M119.5,107.2a2.2,2.2,0,0,1-2.5,2.4h-1.9c.5-.1.6-.2.6-.4v-3.4c0-.3-.1-.4-.6-.5h1.7C118.5,105.1,119.5,105.9,119.5,107.2Zm-.7.2a1.9,1.9,0,0,0-2.1-2h-.4v3.9h.8C118.2,109.3,118.8,108.6,118.8,107.4Z"/>
        <path class="cls-7" d="M120.3,108v-2.3c0-.3-.1-.4-.6-.5h1.8c-.5.1-.6.2-.6.5v2c0,1.2.4,1.7,1.3,1.7a1.3,1.3,0,0,0,1.4-1.4v-2.3c0-.3-.1-.4-.7-.5h1.6c-.6.1-.6.2-.6.5v2.2a1.7,1.7,0,0,1-1.8,1.8C120.9,109.7,120.3,109.1,120.3,108Z"/>
        <path class="cls-7" d="M124.8,107.4a2.2,2.2,0,0,1,2.4-2.3l1.4.2a4.5,4.5,0,0,0-.1,1.1h0c-.3-.5-.5-1.1-1.4-1.1a1.8,1.8,0,0,0-1.7,2c0,1.2.7,2.1,1.7,2.1s1.1-.4,1.4-1.3h.1v1.2a3.3,3.3,0,0,1-1.5.4A2.2,2.2,0,0,1,124.8,107.4Z"/>
        <path class="cls-7" d="M129,109.5c.4-.1.5-.3.7-.6l1.5-3.8h.1l1.8,3.9c.1.4.2.5.6.5h-1.8c.3-.1.5-.1.5-.3h0l-.4-.9h-1.8l-.2.7v.2a.5.5,0,0,0,.5.4H129Zm2.9-1.5-.8-1.9h0l-.8,1.9Z"/>
        <path class="cls-7" d="M133.7,107.4a2.2,2.2,0,0,1,2.4-2.3l1.4.2c0,.4-.1.8-.1,1.1h0c-.3-.5-.5-1.1-1.4-1.1s-1.6.8-1.6,2,.6,2.1,1.6,2.1,1.1-.4,1.4-1.3h.1v1.2a3.3,3.3,0,0,1-1.5.4A2.2,2.2,0,0,1,133.7,107.4Z"/>
        <path class="cls-7" d="M140,109.5h-1.8c.5-.1.6-.2.6-.4v-3.4c0-.3-.1-.4-.6-.5H140c-.5.1-.6.2-.6.5v3.4C139.4,109.3,139.5,109.4,140,109.5Z"/>
        <path class="cls-7" d="M144.9,107.3a2.3,2.3,0,0,1-2.2,2.4,2.2,2.2,0,0,1-2.3-2.3,2.3,2.3,0,0,1,2.3-2.3A2.1,2.1,0,0,1,144.9,107.3Zm-.6.2c0-1.3-.7-2.2-1.7-2.2s-1.5.8-1.5,1.9.7,2.2,1.7,2.2S144.3,108.6,144.3,107.5Zm-2.2-2.7c0-.4.9-1,1.4-.9h0c0,.3-.8.4-1.4.7Z"/>
        <path class="cls-7" d="M146.4,105.9h0v2.9c0,.4.2.6.7.7h-1.7c.5-.1.7-.3.7-.7v-2.9c0-.4-.2-.6-.7-.7h1.2l2.7,3.3h0v-2.6c0-.4-.2-.6-.7-.7h1.6a.7.7,0,0,0-.6.7v3.8h-.1Z"/>
      </g>
    </g>
    <g>
      <g>
        <path class="cls-6" d="M96.6,148.9c.4,0,.4-.1.4-.4v-2.2h0c-.4,0-.6.2-.8.7h-.1v-.9h2.5v.9h-.1c-.2-.5-.4-.7-.8-.7h0v2.2c0,.3,0,.4.4.4H96.6Z"/>
        <path class="cls-6" d="M98.3,148.9c.2,0,.4-.1.6-.6l.9-2.2h.1l1.1,2.4c.1.3.1.4.4.4H100c.2,0,.3-.1.3-.2v-.5h-.9v.4c0,.2.1.3.4.3H98.3Zm1.7-.9-.4-.9h0l-.4.9Z"/>
        <path class="cls-6" d="M104.1,148.2c0,.5-.5.8-1.2.8h-1.3c.3,0,.3-.1.3-.4v-1.9c0-.3,0-.4-.3-.4h1.1c.8,0,1.2.2,1.2.7a.8.8,0,0,1-.5.7h0A.7.7,0,0,1,104.1,148.2Zm-1.5-.8h.1c.4,0,.5-.2.5-.5s-.2-.6-.5-.6h-.1Zm.8.8c0-.4-.2-.6-.5-.6h-.3v1.2h.3A.6.6,0,0,0,103.4,148.2Z"/>
        <path class="cls-6" d="M104.2,148.9c.2,0,.3-.1.6-.6l.9-2.2h0l1.2,2.4c.1.3.1.4.4.4h-1.4c.2,0,.3-.1.3-.2v-.5h-1v.4c0,.2.1.3.4.3h-1.1Zm1.7-.9-.4-.9h0l-.4.9Z"/>
        <path class="cls-6" d="M107.5,148.9v-.8h.1c.2.5.4.8.7.8s.4-.2.4-.5-.3-.5-.6-.7a.9.9,0,0,1-.7-.8.9.9,0,0,1,1-.9l.7.2v.8H109c-.1-.3-.2-.8-.7-.8a.4.4,0,0,0-.4.4c0,.3.2.4.5.6s.8.4.8,1-.4.8-1,.8Z"/>
        <path class="cls-6" d="M109.5,147.6a1.6,1.6,0,0,1,1.6-1.6l.8.2a1.9,1.9,0,0,0-.1.8h0c-.1-.2-.3-.8-.8-.8s-.8.6-.8,1.3.3,1.3.8,1.3.6-.1.8-.7h0a2.2,2.2,0,0,0,.1.8H111A1.3,1.3,0,0,1,109.5,147.6Z"/>
        <path class="cls-6" d="M115.1,147.5a1.4,1.4,0,0,1-1.5,1.5,1.4,1.4,0,0,1-1.4-1.4,1.5,1.5,0,0,1,1.5-1.6A1.3,1.3,0,0,1,115.1,147.5Zm-.7.2c0-.9-.3-1.5-.8-1.5s-.7.5-.7,1.2.3,1.4.8,1.4S114.4,148.4,114.4,147.7Z"/>
      </g>
      <g>
        <polygon class="cls-7" points="114.6 137 114.6 137 114.6 137 114.6 137 114.6 137"/>
        <rect class="cls-7" x="105.3" y="121.4" width="0.3" height="7.6"/>
        <rect class="cls-7" x="109.6" y="132.3" width="4.2" height="0.34"/>
        <rect class="cls-7" x="97" y="132.3" width="4.6" height="0.35"/>
        <rect class="cls-7" x="105.3" y="135.6" width="0.4" height="8.18"/>
        <polyline class="cls-7" points="105.8 132.2 105.8 132.2 105.8 132.2 105.8 132.2"/>
        <path class="cls-7" d="M108.6,117.8a7.8,7.8,0,0,0-2.4-.5v.2a.8.8,0,0,1-.2.6h0s.2-.1.2,0,.1.2,0,.2-.2.1-.1.2h.3a.1.1,0,0,1,0,.2s.2-.1.2.2-.3.2-.3.2a.1.1,0,0,1,.1.1h-.5c0,.1,0,.3.3.3s.4-.3.4-.3h.1c.2.4.5.3.6.2l.2-.2H107a.3.3,0,0,1,.1-.2c-.1,0-.2,0-.2-.2a.2.2,0,0,1,.2-.2c-.1-.1.1-.2.2-.2s.1.1.1.2h0a.2.2,0,0,1,0-.3h.3a.2.2,0,0,1,.2-.2.2.2,0,0,1,.1.3h.3c0,.1-.2.2-.2.2s-.1,0-.1.1h.1c0-.1.2-.2.3,0s-.1.2-.1.2.2-.1.2.1-.3.2-.3.2.2,0,.1.2a.2.2,0,0,1-.3,0h-.2c0,.1,0,.2.2.3s.5-.2.5-.2h.1a.4.4,0,0,0,.2.3c.2.1.5-.2.5-.2h-.2c0,.1-.1.1-.2,0s.1-.2.1-.2-.3-.2-.2-.3.3,0,.3,0,0-.3.1-.3a.2.2,0,0,1,.2.2h.1c.1,0,.1-.1,0-.2s-.1-.2.1-.2h0c0-.7-.5-.9-1-1.1m-3,1.5h-.5a.1.1,0,0,1,.1-.1s-.3,0-.3-.2.3-.2.3-.2-.2-.1-.1-.2h.3c.1-.1,0-.2-.1-.2a.1.1,0,0,1,0-.2c0-.1.2,0,.2,0h0a.8.8,0,0,1-.2-.6v-.2a7.8,7.8,0,0,0-2.4.5c-.5.2-1,.4-1,1.1h0c.2,0,.2.1.1.2s-.1.2,0,.2h.1a.2.2,0,0,1,.2-.2c.1,0,.1.2.1.3s.2-.2.3,0,0,.3-.2.3.2,0,.1.2-.1.1-.2,0h-.2s.3.3.5.2a.4.4,0,0,0,.2-.3h.1s.3.4.5.2.2-.2.2-.3h-.2a.2.2,0,0,1-.3,0c0-.2.1-.2.1-.2s-.3,0-.3-.2.2-.1.2-.1-.2-.1-.1-.2.3-.1.3,0h.1c.1-.1,0-.1-.1-.1s-.2-.1-.2-.2h.3a.2.2,0,0,1,.1-.3.2.2,0,0,1,.2.2h.3a.2.2,0,0,1,0,.3h0c0-.1,0-.2.1-.2s.3.1.2.2a.2.2,0,0,1,.2.2c0,.2-.1.2-.2.2a.3.3,0,0,1,.1.2h-.4c-.1.1,0,.2.1.2s.4.2.6-.2h.1s.2.4.5.3.3-.2.2-.3"/>
        <path class="cls-7" d="M105.8,116.5h-.6a.5.5,0,0,0,.6.6c.3,0,.5-.2.5-.6Z"/>
        <path class="cls-7" d="M106.3,116.3a.5.5,0,0,0-.5-.5.6.6,0,0,1,.1.4h.4"/>
        <path class="cls-7" d="M105.7,115.8a.5.5,0,0,0-.5.5h.4a.6.6,0,0,1,.1-.4"/>
        <path class="cls-7" d="M105.8,116.2h.1a.6.6,0,0,0-.1-.4h-.1a.6.6,0,0,0-.1.4h.2"/>
        <path class="cls-7" d="M106.3,116.3h.1a.1.1,0,0,1-.1-.1"/>
        <polygon class="cls-7" points="106 115.4 105.8 115.4 105.8 115.2 105.7 115.2 105.7 115.4 105.5 115.4 105.5 115.5 105.7 115.5 105.7 115.8 105.8 115.8 105.8 115.5 106 115.5 106 115.4"/>
        <polygon class="cls-7" points="106 115.4 105.8 115.4 105.8 115.2 105.7 115.2 105.7 115.4 105.5 115.4 105.5 115.5 105.7 115.5 105.7 115.8 105.8 115.8 105.8 115.5 106 115.5 106 115.4"/>
        <path class="cls-7" d="M108.9,121.1h-.1a8.2,8.2,0,0,0-3-.4h0a8.8,8.8,0,0,0-3,.4h6.1"/>
        <path class="cls-7" d="M101.7,119c0-.1.1-.2,0-.4a1.7,1.7,0,0,1,.1-1.2c.1-.4.4-.5.7-.6l-.5.2c-.5.2-.7.4-.6,1a5.5,5.5,0,0,0,.1.9h.2"/>
        <path class="cls-7" d="M101.7,119c0-.1.1-.2,0-.4a1.7,1.7,0,0,1,.1-1.2c.1-.4.4-.5.7-.6l-.5.2c-.5.2-.7.4-.6,1a5.5,5.5,0,0,0,.1.9Z"/>
        <path class="cls-7" d="M105.5,117l-.6.2-2-.4c-.2,0-.9,0-1.1.6a1.7,1.7,0,0,0-.1,1.2c.1.2,0,.3,0,.4h0v-.2a.2.2,0,0,0,0-.3c0-.3-.2-.9.1-1.3a1.3,1.3,0,0,1,1.1-.3l1.9.3h.5c0-.1,0-.2.1-.2"/>
        <path class="cls-7" d="M105.5,117l-.6.2-2-.4c-.2,0-.9,0-1.1.6a1.7,1.7,0,0,0-.1,1.2c.1.2,0,.3,0,.4h0v-.2a.2.2,0,0,0,0-.3c0-.3-.2-.9.1-1.3a1.3,1.3,0,0,1,1.1-.3l1.9.3h.5C105.4,117.1,105.4,117,105.5,117Z"/>
        <path class="cls-7" d="M105.5,117a1.1,1.1,0,0,1-.8.1l-.5-.2h-.3c-.4.2-.4.7-.2,1.1l.3.2v-.2a.8.8,0,0,1-.3-.6c.1-.3.3-.5.5-.4s.7.3,1,.1l.2-.2"/>
        <path class="cls-7" d="M105.5,117a1.1,1.1,0,0,1-.8.1l-.5-.2h-.3c-.4.2-.4.7-.2,1.1l.3.2v-.2a.8.8,0,0,1-.3-.6c.1-.3.3-.5.5-.4s.7.3,1,.1Z"/>
        <path class="cls-7" d="M103.4,118.5h.1a.2.2,0,0,1,.1-.3.2.2,0,0,1,.2.2h.2l-.3-.2c-.2-.4-.2-.9.2-1.1h.3a.8.8,0,0,0-.5,0,.8.8,0,0,0-.4,1.2c0,.2.1.3.1.4"/>
        <path class="cls-7" d="M103.4,118.5h.1a.2.2,0,0,1,.1-.3.2.2,0,0,1,.2.2h.2l-.3-.2c-.2-.4-.2-.9.2-1.1h.3a.8.8,0,0,0-.5,0,.8.8,0,0,0-.4,1.2C103.3,118.3,103.4,118.4,103.4,118.5Z"/>
        <g>
          <path class="cls-7" d="M106,117.8c0-.1-.1-.3-.2-.3a.3.3,0,0,0-.3.3.3.3,0,0,0,.3.3c.1,0,.2-.1.2-.3"/>
          <path class="cls-7" d="M105.8,118.2a.4.4,0,0,1-.4-.4c0-.2.2-.3.4-.3a.3.3,0,0,1,.3.3A.4.4,0,0,1,105.8,118.2Zm0-.6c-.2,0-.3.1-.3.2a.3.3,0,0,0,.3.3c.1,0,.2-.1.2-.3A.2.2,0,0,0,105.8,117.6Z"/>
        </g>
        <g>
          <path class="cls-7" d="M105.4,117l-.2-.2v.2h.3"/>
          <path class="cls-7" d="M105.2,117.1h-.1c0-.1,0-.2.1-.2l.2.2Zm0-.2h0Z"/>
        </g>
        <g>
          <path class="cls-7" d="M105.1,117a.2.2,0,1,0-.4,0h.4"/>
          <path class="cls-7" d="M104.9,117.2a.2.2,0,1,1,.2-.2A.2.2,0,0,1,104.9,117.2Zm0-.4c-.1,0-.1.1-.1.2h.2C105,116.9,105,116.8,104.9,116.8Z"/>
        </g>
        <g>
          <path class="cls-7" d="M104.7,116.8h-.3a.2.2,0,0,0,.2.2c.1,0,.1-.1.1-.2"/>
          <path class="cls-7" d="M104.6,117.1c-.2,0-.2-.1-.2-.3s0-.2.2-.2a.2.2,0,0,1,.2.2C104.8,117,104.7,117.1,104.6,117.1Zm0-.4h-.2a.2.2,0,0,0,.2.2.3.3,0,0,0,.1-.2Z"/>
        </g>
        <g>
          <path class="cls-7" d="M104.4,116.7a.2.2,0,1,0-.2.2l.2-.2"/>
          <path class="cls-7" d="M104.2,116.9l-.3-.2a.3.3,0,0,1,.3-.3c.1,0,.2.1.2.3Zm0-.4a.2.2,0,0,0-.2.2h.4A.2.2,0,0,0,104.2,116.5Z"/>
        </g>
        <g>
          <path class="cls-7" d="M104,116.8a.3.3,0,0,0-.3-.3c-.1,0-.2.1-.2.3a.2.2,0,0,0,.2.2c.2,0,.3-.1.3-.2"/>
          <path class="cls-7" d="M103.7,117a.2.2,0,0,1-.2-.2c0-.2.1-.3.2-.3a.3.3,0,0,1,.3.3C104,116.9,103.9,117,103.7,117Zm0-.4c-.1,0-.2,0-.2.2a.2.2,0,0,0,.4,0C103.9,116.6,103.8,116.6,103.7,116.6Z"/>
        </g>
        <g>
          <path class="cls-7" d="M103.5,116.6l-.2-.2c-.2,0-.3.1-.3.2a.3.3,0,0,0,.3.3c.1,0,.2-.1.2-.3"/>
          <path class="cls-7" d="M103.3,116.9a.3.3,0,0,1-.3-.3c0-.1.1-.2.3-.2l.2.2C103.5,116.8,103.4,116.9,103.3,116.9Zm0-.5-.2.2a.2.2,0,0,0,.4,0Z"/>
        </g>
        <g>
          <path class="cls-7" d="M103,116.6a.3.3,0,0,0-.3-.3c-.1,0-.2.1-.2.3a.2.2,0,0,0,.2.2c.2,0,.3-.1.3-.2"/>
          <path class="cls-7" d="M102.7,116.9c-.1,0-.2-.2-.2-.3s.1-.3.2-.3a.3.3,0,0,1,.3.3A.3.3,0,0,1,102.7,116.9Zm0-.5-.2.2a.2.2,0,0,0,.2.2c.2,0,.2-.1.2-.2S102.9,116.4,102.7,116.4Z"/>
        </g>
        <g>
          <path class="cls-7" d="M102.5,116.7a.3.3,0,0,0-.3-.3.3.3,0,0,0-.3.3l.3.2c.2,0,.3-.1.3-.2"/>
          <path class="cls-7" d="M102.2,117a.3.3,0,0,1-.3-.3c0-.2.1-.4.3-.4s.3.2.3.4A.3.3,0,0,1,102.2,117Zm0-.6c-.1,0-.2.1-.2.3a.2.2,0,0,0,.2.2l.2-.2C102.4,116.5,102.3,116.4,102.2,116.4Z"/>
        </g>
        <g>
          <path class="cls-7" d="M102,116.9c0-.1-.2-.2-.3-.2s-.3.1-.3.2a.3.3,0,0,0,.3.3.3.3,0,0,0,.3-.3"/>
          <path class="cls-7" d="M101.7,117.3c-.2,0-.3-.2-.3-.4a.3.3,0,0,1,.6,0C102,117.1,101.9,117.3,101.7,117.3Zm0-.6a.2.2,0,0,0-.2.2c0,.2.1.3.2.3s.2-.1.2-.3A.2.2,0,0,0,101.7,116.7Z"/>
        </g>
        <path class="cls-7" d="M101.7,117.5a.3.3,0,0,0-.3-.3.3.3,0,1,0,0,.6.3.3,0,0,0,.3-.3"/>
        <path class="cls-7" d="M101.4,117.8c-.2,0-.4-.1-.4-.3a.4.4,0,0,1,.4-.4c.2,0,.3.2.3.4A.3.3,0,0,1,101.4,117.8Zm0-.6a.3.3,0,0,0-.3.3.3.3,0,0,0,.3.3c.1,0,.2-.2.2-.3S101.5,117.2,101.4,117.2Z"/>
        <g>
          <path class="cls-7" d="M101.8,118.7a.3.3,0,0,0-.3-.3.3.3,0,0,0-.3.3c0,.1.1.2.3.2l.3-.2"/>
          <path class="cls-7" d="M101.5,119a.3.3,0,0,1-.3-.3c0-.2.1-.4.3-.4s.3.2.3.4A.3.3,0,0,1,101.5,119Zm0-.6c-.1,0-.2.1-.2.3l.2.2.2-.2C101.7,118.5,101.6,118.4,101.5,118.4Z"/>
        </g>
        <g>
          <path class="cls-7" d="M103.7,117c0-.1-.1-.2-.3-.2a.2.2,0,0,0-.2.2c0,.2.1.3.2.3a.3.3,0,0,0,.3-.3"/>
          <path class="cls-7" d="M103.4,117.4a.4.4,0,1,1,.4-.4A.4.4,0,0,1,103.4,117.4Zm0-.6a.2.2,0,0,0-.2.2c0,.2.1.3.2.3a.3.3,0,0,0,.3-.3C103.7,116.9,103.6,116.8,103.4,116.8Z"/>
        </g>
        <g>
          <path class="cls-7" d="M103.6,117.4a.3.3,0,0,0-.3-.3.3.3,0,0,0,0,.6.3.3,0,0,0,.3-.3"/>
          <path class="cls-7" d="M103.3,117.7c-.2,0-.4-.1-.4-.3s.2-.3.4-.3a.3.3,0,1,1,0,.6Zm0-.6a.3.3,0,0,0,0,.6c.1,0,.2-.2.2-.3S103.4,117.1,103.3,117.1Z"/>
        </g>
        <g>
          <path class="cls-7" d="M103.6,117.8a.3.3,0,0,0-.6,0c0,.1.1.2.3.2s.3-.1.3-.2"/>
          <path class="cls-7" d="M103.3,118.1a.3.3,0,0,1-.3-.3c0-.2.1-.4.3-.4s.3.2.3.4A.3.3,0,0,1,103.3,118.1Zm0-.6c-.1,0-.2.1-.2.3a.2.2,0,0,0,.4,0C103.5,117.6,103.4,117.5,103.3,117.5Z"/>
        </g>
        <g>
          <path class="cls-7" d="M103.7,118.1a.3.3,0,0,0-.6,0,.3.3,0,0,0,.6,0"/>
          <path class="cls-7" d="M103.4,118.4a.3.3,0,0,1-.3-.3c0-.2.1-.4.3-.4s.3.2.3.4A.3.3,0,0,1,103.4,118.4Zm0-.6c-.1,0-.2.1-.2.3a.2.2,0,0,0,.4,0C103.6,117.9,103.5,117.8,103.4,117.8Z"/>
        </g>
        <g>
          <path class="cls-7" d="M101.7,118.1a.3.3,0,1,0-.3.3.3.3,0,0,0,.3-.3"/>
          <path class="cls-7" d="M101.4,118.5a.4.4,0,0,1-.4-.4c0-.2.2-.3.4-.3a.3.3,0,0,1,.3.3C101.7,118.3,101.6,118.5,101.4,118.5Zm0-.7a.3.3,0,0,0-.3.3.3.3,0,0,0,.3.3.3.3,0,0,0,.3-.3Z"/>
        </g>
        <path class="cls-7" d="M109.8,119v-.4a2.4,2.4,0,0,0,0-1.2,1.2,1.2,0,0,0-.8-.6l.5.2a.9.9,0,0,1,.7,1c-.1.5-.2.8-.2.9h-.2"/>
        <path class="cls-7" d="M109.8,119h0c0-.1-.1-.2-.1-.4h.1a2.2,2.2,0,0,0-.1-1.1.7.7,0,0,0-.7-.5h.6c.4.2.6.4.6,1.1a2.2,2.2,0,0,1-.2,1h-.2Zm-.3-2,.3.4a1.4,1.4,0,0,1,0,1.1h0c0,.1,0,.3.1.3h0a1.4,1.4,0,0,0,.2-.9c.1-.6-.1-.8-.6-1Z"/>
        <path class="cls-7" d="M106,117l.6.2,2-.4a1.3,1.3,0,0,1,1.2.6,2.4,2.4,0,0,1,0,1.2v.4h0s0-.2-.1-.2a.2.2,0,0,1,0-.3,1.5,1.5,0,0,0-.1-1.3,1.3,1.3,0,0,0-1.1-.3l-1.9.3h-.5c0-.1,0-.2-.1-.2"/>
        <path class="cls-7" d="M106,117l.6.2,2-.4a1.3,1.3,0,0,1,1.2.6,2.4,2.4,0,0,1,0,1.2v.4h0s0-.2-.1-.2a.2.2,0,0,1,0-.3,1.5,1.5,0,0,0-.1-1.3,1.3,1.3,0,0,0-1.1-.3l-1.9.3h-.5C106.1,117.1,106.1,117,106,117Z"/>
        <path class="cls-7" d="M106,117a1.1,1.1,0,0,0,.8.1l.6-.2h.2c.4.2.4.7.2,1.1l-.3.2v-.2a.7.7,0,0,0,.3-.6c0-.3-.3-.5-.5-.4s-.7.3-1,.1l-.2-.2"/>
        <path class="cls-7" d="M106,117a1.1,1.1,0,0,0,.8.1l.6-.2h.2c.4.2.4.7.2,1.1l-.3.2v-.2a.7.7,0,0,0,.3-.6c0-.3-.3-.5-.5-.4s-.7.3-1,.1Z"/>
        <path class="cls-7" d="M108.1,118.5H108a.2.2,0,0,0-.1-.3.2.2,0,0,0-.2.2h-.2l.3-.2c.2-.4.2-.9-.2-1.1h-.2c.2-.1.3,0,.4,0a.8.8,0,0,1,.4,1.2c0,.2-.1.3-.1.4"/>
        <path class="cls-7" d="M108.1,118.5H108a.2.2,0,0,0-.1-.3.2.2,0,0,0-.2.2h-.2l.3-.2c.2-.4.2-.9-.2-1.1h-.2c.2-.1.3,0,.4,0a.8.8,0,0,1,.4,1.2C108.2,118.3,108.1,118.4,108.1,118.5Z"/>
        <path class="cls-7" d="M106.1,117l.2-.2v.2h-.3"/>
        <path class="cls-7" d="M106.3,117.1h-.2l.2-.2c.1,0,.1.1.1.2Zm0-.2h0Z"/>
        <path class="cls-7" d="M106.4,117a.2.2,0,1,1,.4,0h-.4"/>
        <path class="cls-7" d="M106.6,117.2a.2.2,0,1,1,.2-.2A.2.2,0,0,1,106.6,117.2Zm0-.4c-.1,0-.1.1-.1.2h.2C106.7,116.9,106.7,116.8,106.6,116.8Z"/>
        <path class="cls-7" d="M106.8,116.8h.3a.2.2,0,0,1-.2.2.3.3,0,0,1-.1-.2"/>
        <path class="cls-7" d="M106.9,117.1c-.1,0-.2-.1-.2-.3a.2.2,0,0,1,.2-.2c.2,0,.3.1.3.2A.3.3,0,0,1,106.9,117.1Zm0-.4h-.1a.3.3,0,0,0,.1.2.2.2,0,0,0,.2-.2Z"/>
        <path class="cls-7" d="M107.1,116.7a.2.2,0,1,1,.2.2l-.2-.2"/>
        <path class="cls-7" d="M107.3,116.9l-.2-.2c0-.2.1-.3.2-.3a.3.3,0,0,1,.3.3C107.6,116.8,107.5,116.9,107.3,116.9Zm0-.4a.2.2,0,0,0-.2.2h.4A.2.2,0,0,0,107.3,116.5Z"/>
        <path class="cls-7" d="M107.5,116.8a.3.3,0,0,1,.3-.3c.1,0,.2.1.2.3a.2.2,0,0,1-.2.2c-.2,0-.3-.1-.3-.2"/>
        <path class="cls-7" d="M107.8,117c-.2,0-.3-.1-.3-.2a.3.3,0,0,1,.3-.3c.1,0,.2.1.2.3A.2.2,0,0,1,107.8,117Zm0-.4c-.1,0-.2,0-.2.2a.2.2,0,0,0,.4,0C108,116.6,107.9,116.6,107.8,116.6Z"/>
        <path class="cls-7" d="M108,116.6l.2-.2c.2,0,.3.1.3.2a.3.3,0,0,1-.3.3c-.1,0-.2-.1-.2-.3"/>
        <path class="cls-7" d="M108.2,116.9c-.1,0-.2-.1-.2-.3l.2-.2c.2,0,.3.1.3.2A.3.3,0,0,1,108.2,116.9Zm0-.5-.2.2a.2.2,0,0,0,.2.2c.2,0,.2-.1.2-.2S108.4,116.4,108.2,116.4Z"/>
        <path class="cls-7" d="M108.5,116.6a.3.3,0,0,1,.3-.3c.1,0,.2.1.2.3a.2.2,0,0,1-.2.2c-.2,0-.3-.1-.3-.2"/>
        <path class="cls-7" d="M108.8,116.9a.3.3,0,0,1-.3-.3.3.3,0,0,1,.3-.3.3.3,0,0,1,.3.3A.5.5,0,0,1,108.8,116.9Zm0-.5c-.2,0-.2.1-.2.2s0,.2.2.2a.2.2,0,0,0,.2-.2Z"/>
        <path class="cls-7" d="M109,116.7a.3.3,0,0,1,.3-.3.3.3,0,0,1,.3.3l-.3.2c-.2,0-.3-.1-.3-.2"/>
        <path class="cls-7" d="M109.3,117a.3.3,0,0,1-.3-.3c0-.2.1-.4.3-.4s.3.2.3.4A.3.3,0,0,1,109.3,117Zm0-.6c-.1,0-.2.1-.2.3l.2.2a.2.2,0,0,0,.2-.2C109.5,116.5,109.4,116.4,109.3,116.4Z"/>
        <path class="cls-7" d="M109.5,116.9c0-.1.2-.2.3-.2s.3.1.3.2a.3.3,0,0,1-.3.3.3.3,0,0,1-.3-.3"/>
        <path class="cls-7" d="M109.8,117.3c-.2,0-.3-.2-.3-.4a.3.3,0,0,1,.6,0C110.1,117.1,110,117.3,109.8,117.3Zm0-.6a.2.2,0,0,0-.2.2c0,.2.1.3.2.3a.3.3,0,0,0,.3-.3C110.1,116.8,109.9,116.7,109.8,116.7Z"/>
        <path class="cls-7" d="M109.8,117.5a.3.3,0,0,1,.3-.3.3.3,0,0,1,0,.6.3.3,0,0,1-.3-.3"/>
        <g>
          <path class="cls-7" d="M109.8,117.5a.3.3,0,0,1,.3-.3.3.3,0,0,1,0,.6A.3.3,0,0,1,109.8,117.5Z"/>
          <path class="cls-7" d="M110.1,117.8a.3.3,0,0,1-.3-.3c0-.2.1-.4.3-.4a.4.4,0,0,1,.4.4C110.5,117.7,110.3,117.8,110.1,117.8Zm0-.6c-.1,0-.2.1-.2.3s.1.3.2.3a.3.3,0,0,0,.3-.3A.3.3,0,0,0,110.1,117.2Z"/>
        </g>
        <path class="cls-7" d="M109.7,118.7a.3.3,0,0,1,.3-.3.3.3,0,0,1,.3.3c0,.1-.1.2-.3.2l-.3-.2"/>
        <path class="cls-7" d="M110,119a.3.3,0,0,1-.3-.3c0-.2.1-.4.3-.4s.3.2.3.4A.3.3,0,0,1,110,119Zm0-.6c-.1,0-.2.1-.2.3l.2.2.2-.2C110.2,118.5,110.1,118.4,110,118.4Z"/>
        <path class="cls-7" d="M107.8,117c0-.1.1-.2.3-.2a.2.2,0,0,1,.2.2c0,.2-.1.3-.2.3a.3.3,0,0,1-.3-.3"/>
        <path class="cls-7" d="M108.1,117.4c-.2,0-.3-.2-.3-.4a.3.3,0,0,1,.3-.3.4.4,0,0,1,0,.7Zm0-.6c-.2,0-.3.1-.3.2a.3.3,0,0,0,.3.3c.1,0,.2-.1.2-.3A.2.2,0,0,0,108.1,116.8Z"/>
        <path class="cls-7" d="M107.9,117.4a.3.3,0,0,1,.3-.3.3.3,0,1,1,0,.6.3.3,0,0,1-.3-.3"/>
        <path class="cls-7" d="M108.2,117.7a.3.3,0,0,1,0-.6c.2,0,.4.1.4.3S108.4,117.7,108.2,117.7Zm0-.6c-.1,0-.2.2-.2.3s.1.3.2.3a.3.3,0,1,0,0-.6Z"/>
        <path class="cls-7" d="M107.9,117.8a.3.3,0,0,1,.3-.3.3.3,0,0,1,.3.3c0,.1-.1.2-.3.2s-.3-.1-.3-.2"/>
        <path class="cls-7" d="M108.2,118.1a.3.3,0,0,1-.3-.3c0-.2.1-.4.3-.4s.3.2.3.4A.3.3,0,0,1,108.2,118.1Zm0-.6c-.1,0-.2.1-.2.3a.2.2,0,0,0,.4,0C108.4,117.6,108.3,117.5,108.2,117.5Z"/>
        <path class="cls-7" d="M107.8,118.1a.3.3,0,1,1,.6,0,.3.3,0,1,1-.6,0"/>
        <path class="cls-7" d="M108.1,118.4a.3.3,0,0,1-.3-.3c0-.2.1-.4.3-.4s.3.2.3.4A.3.3,0,0,1,108.1,118.4Zm0-.6c-.1,0-.2.1-.2.3a.2.2,0,0,0,.4,0C108.3,117.9,108.2,117.8,108.1,117.8Z"/>
        <path class="cls-7" d="M109.8,118.1a.3.3,0,1,1,.3.3.3.3,0,0,1-.3-.3"/>
        <path class="cls-7" d="M110.1,118.5c-.2,0-.3-.2-.3-.4a.3.3,0,0,1,.3-.3c.2,0,.4.1.4.3A.4.4,0,0,1,110.1,118.5Zm0-.7c-.1,0-.2.2-.2.3s.1.3.2.3a.3.3,0,0,0,.3-.3A.3.3,0,0,0,110.1,117.8Z"/>
        <path class="cls-7" d="M106,116.6l-.2-.2-.2.2a.2.2,0,0,0,.4,0"/>
        <g>
          <path class="cls-7" d="M106,116.8a.2.2,0,0,0-.2-.2c-.2,0-.2.1-.2.2s0,.2.2.2a.2.2,0,0,0,.2-.2"/>
          <path class="cls-7" d="M105.8,117.1a.3.3,0,0,1-.3-.3c0-.1.1-.2.3-.2a.2.2,0,0,1,.2.2C106,116.9,105.9,117.1,105.8,117.1Zm0-.5-.2.2a.2.2,0,0,0,.2.2c.1,0,.1-.1.1-.2S105.9,116.6,105.8,116.6Z"/>
        </g>
        <g>
          <path class="cls-7" d="M106.1,117.1a.3.3,0,0,0-.3-.3.3.3,0,0,0-.3.3.3.3,0,0,0,.3.3.5.5,0,0,0,.3-.3"/>
          <path class="cls-7" d="M105.8,117.4c-.2,0-.4-.1-.4-.3a.4.4,0,0,1,.4-.4c.2,0,.3.2.3.4A.3.3,0,0,1,105.8,117.4Zm0-.6a.3.3,0,0,0-.3.3c0,.1.1.2.3.2a.2.2,0,0,0,.2-.2C106,116.9,105.9,116.8,105.8,116.8Z"/>
        </g>
        <path class="cls-7" d="M109,120.2h-.1a16.5,16.5,0,0,0-3.1-.4h-.1a16.5,16.5,0,0,0-3.1.4h.1c.4-.1.3-.4.3-.4a.5.5,0,0,0,.5.2.7.7,0,0,0,.4-.4.8.8,0,0,0,.6.3.7.7,0,0,0,.4-.4s.2.3.4.3l.5-.3a.7.7,0,0,0,.4.3c.2,0,.4-.3.4-.3s.1.3.4.4a.8.8,0,0,0,.6-.3.7.7,0,0,0,.4.4.5.5,0,0,0,.5-.2.4.4,0,0,0,.3.4h.2"/>
        <path class="cls-7" d="M109,120.2h-.1a16.5,16.5,0,0,0-3.1-.4h-.1a16.5,16.5,0,0,0-3.1.4h.1c.4-.1.3-.4.3-.4a.5.5,0,0,0,.5.2.7.7,0,0,0,.4-.4.8.8,0,0,0,.6.3.7.7,0,0,0,.4-.4s.2.3.4.3l.5-.3a.7.7,0,0,0,.4.3c.2,0,.4-.3.4-.3s.1.3.4.4a.8.8,0,0,0,.6-.3.7.7,0,0,0,.4.4.5.5,0,0,0,.5-.2.4.4,0,0,0,.3.4Z"/>
        <path class="cls-7" d="M103.1,119.6l-.2-.2c-.1,0-.1.1-.1.2s0,.2.1.2a.2.2,0,0,0,.2-.2"/>
        <path class="cls-7" d="M105,119.3c0-.1,0-.2-.1-.2a.2.2,0,0,0-.2.2h.2a.1.1,0,0,0,.1-.1"/>
        <path class="cls-7" d="M108.4,119.6l.2-.2c.1,0,.1.1.1.2s0,.2-.1.2a.2.2,0,0,1-.2-.2"/>
        <path class="cls-7" d="M106.5,119.3a.2.2,0,0,1,.2-.2c.1,0,.1.1.1.2a.1.1,0,0,1-.1.1h-.2"/>
        <path class="cls-7" d="M108.9,120.4a10.3,10.3,0,0,0-3.1-.5h-.1a10.3,10.3,0,0,0-3.1.5h0l.2.2v.2h0v.2h0a10.5,10.5,0,0,1,3-.5h.1a10.5,10.5,0,0,1,3,.5h0V121h0l-.2-.3h.3Zm-5.8.3a.1.1,0,0,1-.1-.1h.2C103.2,120.7,103.2,120.7,103.1,120.7Zm.1-.2h-.1a.1.1,0,0,1,.1-.1c.1,0,.1,0,.1.1Zm.2.1h0Zm.9,0h-.4l-.2-.2.2-.3h.4s.2.1.2.2Zm.5-.1h-.1c0-.1,0-.1.1-.1a.1.1,0,0,1,.1.1Zm0-.4h.2c0,.1,0,.1-.1.1A.1.1,0,0,1,104.8,120.1Zm.2.6a.1.1,0,0,1-.1-.1h.1Zm.2-.3c-.1,0-.1,0-.1-.1h.2A.1.1,0,0,1,105.2,120.4Zm.9-.1-.3.2h-.1l-.3-.2h0l.3-.2h.1l.3.2Zm.2.1a.1.1,0,0,1-.1-.1h.2C106.4,120.4,106.4,120.4,106.3,120.4Zm.2.3h.1A.1.1,0,0,1,106.5,120.7Zm.1-.5c-.1,0-.1,0-.1-.1h.2A.1.1,0,0,1,106.6,120.2Zm.1.3h-.1a.1.1,0,0,1,.1-.1c.1,0,.1,0,.1.1Zm1.1,0-.2.2h-.4l-.2-.2c0-.1.2-.2.3-.2h.3Zm.3.1h0Zm.1-.2c0-.1,0-.1.1-.1a.1.1,0,0,1,.1.1h-.2Zm.2.3c-.1,0-.1,0-.1-.1h.2A.1.1,0,0,1,108.4,120.7Z"/>
        <g>
          <path class="cls-7" d="M106,118.8a.3.3,0,0,0-.3-.3c-.1,0-.2.1-.2.3s.1.4.2.4.3-.2.3-.4"/>
          <path class="cls-7" d="M104,119.1c0-.2-.1-.4-.3-.3s-.2.2-.1.4.1.3.3.2a.2.2,0,0,0,.1-.3"/>
          <path class="cls-7" d="M102,119.6c-.1-.2-.2-.3-.3-.2s0,.2.1.4h.3c.1,0,.1-.2-.1-.3"/>
          <path class="cls-7" d="M107.5,119.1c0-.2.1-.4.3-.3s.2.2.1.4-.1.3-.3.2a.2.2,0,0,1-.1-.3"/>
          <path class="cls-7" d="M109.5,119.6c.1-.2.2-.3.3-.2s0,.2-.1.4h-.3c-.1,0-.1-.2.1-.3"/>
        </g>
        <path class="cls-7" d="M109,120.2a17.5,17.5,0,0,0-3.2-.4h-.1a17.5,17.5,0,0,0-3.2.4c-.2.1-.1.3.1.2a15.1,15.1,0,0,1,3.2-.4,17.9,17.9,0,0,1,3.2.4c.1.1.2-.1,0-.2"/>
        <g>
          <path class="cls-7" d="M106.1,117.4a.3.3,0,0,0-.3-.3c-.2,0-.4.1-.4.3a.4.4,0,0,0,.4.4c.2,0,.3-.2.3-.4"/>
          <path class="cls-7" d="M105.8,117.8a.4.4,0,1,1,0-.8.4.4,0,1,1,0,.8Zm0-.7a.3.3,0,0,0-.3.3.3.3,0,0,0,.3.3.3.3,0,0,0,.3-.3A.5.5,0,0,0,105.8,117.1Z"/>
        </g>
        <polygon class="cls-7" points="110.1 126.9 110.1 126.9 110.1 126.9 110.1 126.9"/>
        <path class="cls-7" d="M110.1,126.8Z"/>
        <path class="cls-7" d="M110,126.6Z"/>
        <path class="cls-7" d="M109.9,126.5h-.3l.6,1h.3a.1.1,0,0,0,0-.2h-.3c0-.1-.1-.1,0-.2h-.3v-.2h0c.1,0,.1-.1,0-.1a.3.3,0,0,1-.1.2"/>
        <path class="cls-7" d="M109.6,126.2h.4V126l-.3.2"/>
        <path class="cls-7" d="M109.5,128.1h0"/>
        <path class="cls-7" d="M109.2,126.5h-.1v-.3h.1a1.1,1.1,0,0,0,.7-.5h.3v.3h-.1l-.5.3h-.2a.1.1,0,0,1-.1.1Z"/>
        <path class="cls-7" d="M109.6,126.5Z"/>
        <path class="cls-7" d="M109.4,128.7h-.2a.4.4,0,0,1-.3-.2h-.1c-.1-.1-.1-.1-.1-.2l-.3-.3h.3v.2h.5a.1.1,0,0,0,.1.1h.1a.3.3,0,0,1,0,.4h-.1Z"/>
        <path class="cls-7" d="M109.4,128.3H109l-.2-.2c-.1,0-.1-.2-.1-.2h.1l.2.2h.4Z"/>
        <path class="cls-7" d="M110.1,126.9h0a.1.1,0,0,0-.1.1h.3a.1.1,0,0,0,.1-.1v-.2h0c0,.1,0,.1-.1.2h-.2Zm.1.2h.1c.1-.1.2-.1.2-.2h-.4v.2h.1Zm.3-.2h0c0,.1-.1.1-.1.2h-.2c0,.1,0,.2.1.2h.2C110.6,127,110.5,127,110.5,126.9Zm-1.2,1.7h-.1a.2.2,0,0,1-.2-.2h-.2v-.2h-.3v.2h-.1l-.9,1.1v.2h0a8.7,8.7,0,0,0,.7,1.7s.6-.4.1-.6a1.6,1.6,0,0,1-.1-1.5,2.9,2.9,0,0,1,1.4-.4h0Z"/>
        <path class="cls-7" d="M107.8,128.2l-.2-.2-.2-.2h-.1v.2H107s.1.2.2.2h.1l.7.8.5-.4Zm-.2.2h0Z"/>
        <path class="cls-7" d="M109.5,125.9v-.2c0-.1-.1-.2-.2-.4l-.4-.6h0l-.3-.4-.2-.4c-.1-.3-.3-.5-.4-.8l-.2-.2v-.2l-.2-.3v-.2h.1l.3.4h0c0,.1,0,.1.1.2a.3.3,0,0,0,.1.2.8.8,0,0,1,.2.4l.3.4a5.9,5.9,0,0,1,.4.8l.3.4v.2l.3.5v.2h-.1Z"/>
        <path class="cls-7" d="M108.7,137h0"/>
        <g>
          <path class="cls-7" d="M109.8,135.2h0v.4h-.2v.2c-.1.1.1.2.2.2h0c.1,0,.2-.2.2-.3h.1l.2-.2h0v.2a1.7,1.7,0,0,0-.2.5l.2.2v.2h.1c.1.1,0,.2,0,.3v.2c0,.1-.1.1,0,.2h0l-.2.2v.2c.1,0,.1,0,0,.2s-.1.2-.1.2h0c0,.1,0,.2-.1.2v.3l.3.4.9.4a.7.7,0,0,1,.3.7l.3.4a1.1,1.1,0,0,1,.1.5c.1.1,0,.4,0,.6s-.1.3-.2.3h-.1a.4.4,0,0,0-.1-.3c-.1-.3-.4-.4-.7-.5s-.5-.2-.5-.4a1,1,0,0,0-.7-.2l-.9-.4-.3-.2h-.1c.1-.1,0-.1-.2-.2H107c-.1,0-.1-.2-.1-.2h0c0-.1.1-.1.2-.1h1.7l-.6.2h-1.6v-.2h1.2v-.2c0-.1.1-.2,0-.3a.4.4,0,0,1,.1-.3c.1,0,.1-.2.2-.3h.6c.1-.1.1-.1,0-.1h-.4v-.3h.4V136h.2v-.4h.2c.1,0,.1.1,0,.1s0,.1,0,.1v.2h.1a.2.2,0,0,0,.2-.2v-.2h.2a.1.1,0,0,1,.1-.1m0,0h-.3v.2h0c0,.1,0,.2-.1.2s-.1,0-.1-.1h-.1v-.2h-.2c0-.1-.1-.1-.2-.1h0l.2.4h-.3l-.2.2h-.2a.4.4,0,0,0-.1.3H108a.3.3,0,0,1-.1.2h-.1v.3h0c0,.1-.1.1,0,.2v.2h-1.2v.2h.3a.1.1,0,0,0,0,.2h0s-.1.1,0,.1h1.5c.2,0,.2,0,.2.1h.1l.3.3a1.6,1.6,0,0,0,.9.3q.6,0,.6.3l.5.3c.4.2.6.2.8.5h0v.2h-.3v.2h.5c.2-.1.2-.1.2-.4a1.5,1.5,0,0,0,.1-.6.6.6,0,0,0-.2-.5h0l-.2-.3a.7.7,0,0,0-.4-.7l-.4-.2-.4-.2-.2-.2v-.2h0c-.1-.1-.1-.1,0-.1v-.3h0c.1,0,.1-.1.2-.2v-.3h0c.1,0,.1-.1.1-.2h0v-.2h-.1a.4.4,0,0,0-.1-.3.1.1,0,0,1-.1-.1,1.1,1.1,0,0,1,.2-.5h-.3c-.1,0-.1.1,0,.1s-.1.1-.1.2H110a.1.1,0,0,0,0-.2c-.1-.1-.1-.2-.2-.2h0"/>
          <path class="cls-7" d="M111.7,142.4h-.2c-.1,0-.1-.1,0-.2s-.1-.1,0-.1l.2-.2h.1v-.2h-.1c-.1-.2-.3-.3-.7-.4s-.5-.3-.5-.4l-.6-.3a1.3,1.3,0,0,1-.9-.3l-.3-.2h-.2c.1,0,.1,0-.1-.1h-1.5v-.2c0-.1,0-.2.1-.2h-.2c0-.1,0-.1-.1-.1h0c-.1,0-.1-.1,0-.2h1.2v-.2c0-.1,0-.2.1-.2h0a.2.2,0,0,1,0-.3h.1v-.2h.6a.1.1,0,0,1-.1-.1h-.2v-.2h0c0-.1.1-.3.2-.3h.1a.2.2,0,0,1,.2-.2h.3a1,1,0,0,0-.1-.4h.4v.2h.2v-.2h.4a.2.2,0,0,1,.2.2c.1,0,.1.1.1.2h-.2a.1.1,0,0,1-.1.1h.8v.2h-.1a1.1,1.1,0,0,0-.2.5h.1c.1.1.2.1.1.3h.1v.2h0v.2c0,.1,0,.1-.1.1h.1c0,.2-.1.2-.2.3h0a.2.2,0,0,1,0,.3c0,.2-.1.2-.1.3h0v.3h0v.2h.2c.1.2.3.2.4.3l.4.2c.3.1.4.3.4.7l.2.3h0a.6.6,0,0,1,.2.5v.7l-.3.3h-.3Zm-.1-.1h.4c.1,0,.1-.1.2-.3v-.6a.6.6,0,0,0-.2-.5h0l-.2-.4a.6.6,0,0,0-.3-.6l-.4-.2c-.2-.1-.4-.1-.5-.3h-.2v-.4c0-.1-.1-.1,0-.2v-.2h0v-.2c.1-.2.1-.2,0-.2h0c0-.1-.1-.2,0-.2h.1v-.2c.1,0,0-.1,0-.1h0a.1.1,0,0,0,.1-.1h-.3v-.4h0a1.7,1.7,0,0,1,.2-.5h-.2c.1.1,0,.1,0,.2h-.3c-.1,0-.2,0-.2-.2a.3.3,0,0,1,.1-.2h-.2c0,.1,0,.3-.2.3h-.2a.3.3,0,0,0-.1-.2H109v.4h-.5v.2h-.2a.1.1,0,0,1,0,.2h.3a.1.1,0,0,1,.1.1h-.6l-.2.3h0c-.1,0,0,.1,0,.1v.2h-.1v.2h0s0,.1-.2.1h-.3c-.1,0-.1,0-.1.1h-.6a.1.1,0,0,0,0,.2h1.4c.4,0,.6-.1.6-.2h-1.6a.1.1,0,0,0-.1.1h-.1c.1,0,.1,0,0,.1h1.6a.2.2,0,0,1,.2.2h.1l.2.3a1.6,1.6,0,0,0,.9.3l.7.3c0,.1.1.2.5.4s.6.2.7.5h.1v.3h-.3Zm-3-2.5Zm-.6-.3Zm-1-.4h0Zm.4,0h0Zm.4,0h0Zm1-.2h0Zm.4-3.3Z"/>
        </g>
        <path class="cls-7" d="M110.1,136h0"/>
        <g>
          <path class="cls-7" d="M110.8,140.9l.3.2h.3a.1.1,0,0,1,0,.2l-.3.3v.2h-.4l.2-.2c.1-.2,0-.3,0-.4v-.3m-.2-.1h.1v.3h0v.2h0l-.2.2h-.3a.1.1,0,0,0-.1.1h.8c.1,0,.1-.1.1-.2l.3-.3a.3.3,0,0,0,.1-.2h-.9Z"/>
          <path class="cls-7" d="M110.3,142.2h-.2v-.2h.4v-.2c.1-.1,0-.1,0-.2h0v-.5h.2l.4.2h.3c.1,0,0,.1-.1.2l-.2.3-.2.2h-.7Zm-.1-.2h.8l.3-.4c.1,0,.1,0,.1-.1h-.6v.2h.1a.4.4,0,0,1-.1.3c0,.1,0,.2-.2.2h-.4Zm0,0Z"/>
        </g>
        <path class="cls-7" d="M108.3,137.4h0"/>
        <path class="cls-7" d="M108.9,137.9h0"/>
        <path class="cls-7" d="M108.6,138.5h-.3c.1,0,.1,0,.1.1h.2"/>
        <path class="cls-7" d="M108.1,138.2h0"/>
        <path class="cls-7" d="M108,138.1h0"/>
        <path class="cls-7" d="M110.3,138.7Z"/>
        <path class="cls-7" d="M108.4,138.9h0"/>
        <path class="cls-7" d="M108.4,138.6h0"/>
        <path class="cls-7" d="M108.1,138.5h0"/>
        <path class="cls-7" d="M110,137.6h0"/>
        <path class="cls-7" d="M110.1,138.7h0"/>
        <path class="cls-7" d="M109.7,138.5h0"/>
        <path class="cls-7" d="M109.4,138.2h0c.1,0,.1,0,.1.1h.3a.1.1,0,0,1,.1.1h-.4a.1.1,0,0,0-.1-.1h0"/>
        <path class="cls-7" d="M109.3,138.3h0"/>
        <path class="cls-7" d="M110.6,140h0v.2h0"/>
        <path class="cls-7" d="M109.7,136.1h0"/>
        <path class="cls-7" d="M110.1,136.6h0"/>
        <path class="cls-7" d="M110,136.5h-.1a.1.1,0,0,0-.1-.1h.2"/>
        <path class="cls-7" d="M109.7,136.9h0"/>
        <path class="cls-7" d="M109.5,136.5h0"/>
        <path class="cls-7" d="M109.4,136.6h0"/>
        <path class="cls-7" d="M110.4,136.8h0"/>
        <path class="cls-7" d="M110.2,137.5h0"/>
        <path class="cls-7" d="M110,137.4h0"/>
        <path class="cls-7" d="M110.4,137.2h0"/>
        <path class="cls-7" d="M109.3,137.1h0"/>
        <path class="cls-7" d="M109.6,137.5h0"/>
        <path class="cls-7" d="M109.6,137.1h0"/>
        <path class="cls-7" d="M110.3,138h0"/>
        <path class="cls-7" d="M109.7,138.3h.1a.1.1,0,0,0-.1.1"/>
        <path class="cls-7" d="M109.5,138.2h0"/>
        <path class="cls-7" d="M110.3,138.1h0"/>
        <path class="cls-7" d="M108.5,136.7h0"/>
        <path class="cls-7" d="M109,136.4h0"/>
        <path class="cls-7" d="M108.9,136.6h0Zm-.1-.2Z"/>
        <path class="cls-7" d="M108.6,137h-.1"/>
        <path class="cls-7" d="M108.7,137.1h-.1"/>
        <path class="cls-7" d="M110.2,136.2h-.5l.6.2Z"/>
        <g>
          <path class="cls-7" d="M111.8,136.9l.4.3h.2v.5l-.4-.4v-.2a.4.4,0,0,0-.3-.2h-.1c-.3.2-.6.6-.2,1.3s.9,1.4.4,1.9l-.2-.3v-.2s.2,0,.1-.5-.6-1.3-.4-1.8.3-.5.5-.5m0,0h0a.6.6,0,0,0-.6.5,3.2,3.2,0,0,0,.2,1.3c.1.2.2.3.2.5a.7.7,0,0,1,0,.5h.1a.5.5,0,0,1,.1.3h.1c.3-.1.3-.4.2-.8a3.6,3.6,0,0,0-.4-.9l-.2-.3a2,2,0,0,1-.1-.7l.3-.4h.3c0,.1-.1.1,0,.3l.4.3h0a.8.8,0,0,0,0-.5.2.2,0,0,0-.2-.2l-.4-.2"/>
          <path class="cls-7" d="M111.8,140.4V140l-.2-.2h.1v-.4c-.1-.1-.1-.3-.2-.5a1.5,1.5,0,0,1-.2-1.3q.1-.6.6-.6h0l.4.3.3.2v.5h-.2l-.4-.4a.4.4,0,0,1,.1-.3h-.3l-.3.4a1.1,1.1,0,0,0,.2.7.3.3,0,0,0,.1.2l.5,1a.8.8,0,0,1-.3.9Zm-.2-.7.2.2v.2c.4-.3,0-1-.3-1.6v-.2a1.5,1.5,0,0,1-.2-.9l.4-.4h.1a.4.4,0,0,1,.3.2h0a.1.1,0,0,0,0,.2l.3.3v-.4h-.3l-.3-.3c-.2,0-.4.2-.5.5a2.7,2.7,0,0,0,.2,1.2,1.4,1.4,0,0,1,.2.6C111.8,139.6,111.7,139.7,111.6,139.7Zm0,.1Zm-.1-.1Z"/>
        </g>
        <path class="cls-7" d="M108.1,131.1h0"/>
        <path class="cls-7" d="M108.4,131h0"/>
        <path class="cls-7" d="M108.3,131.2h0"/>
        <polyline class="cls-7" points="108.8 131.2 108.8 131.2 108.8 131.2 108.8 131.2 108.8 131.2"/>
        <polygon class="cls-7" points="109.3 131.1 109.3 131.1 109.3 131.1 109.3 131.1 109.3 131.1"/>
        <path class="cls-7" d="M101.1,127.3H97.6v-.8h.2l.4-2.5h0l-.2-.5h.7v.2H99v-.2h.9v.2h.2a.3.3,0,0,0,.1-.2h.6l-.2.7.3,2.5h.2v.8Zm-.9-.2h.7v-.6h-.2l-.3-2.6.2-.5h-.3c-.1.2-.1.2-.2.2h-.4v-.2h-.6v.2h-.4v-.2h-.3c.1.1.1.4.1.4h.1l-.5,2.6h-.2v.7h2.4Z"/>
        <g>
          <path class="cls-7" d="M99.8,127.2h0"/>
          <path class="cls-7" d="M98.8,126.7h0"/>
          <polyline class="cls-7" points="98.8 126.6 98.8 126.6 98.8 126.6 98.8 126.6"/>
          <polygon class="cls-7" points="98.8 126.6 98.8 126.6 98.8 126.6 98.8 126.6"/>
          <path class="cls-7" d="M99.6,127h0"/>
          <polyline class="cls-7" points="99.6 126.7 99.6 126.7 99.6 126.7 99.6 126.7"/>
          <path class="cls-7" d="M99.6,126.6h0"/>
          <path class="cls-7" d="M99.6,126.9v-.2h0Z"/>
          <path class="cls-7" d="M99.8,126.5h-.1a.1.1,0,0,1,.1.1h0"/>
          <polygon class="cls-7" points="99.3 126.3 99.3 126.3 99.3 126.3 99.3 126.3 99.3 126.3"/>
          <polyline class="cls-7" points="99.5 126.3 99.4 126.3 99.4 126.3 99.5 126.3"/>
          <polygon class="cls-7" points="99.4 126.3 99.4 126.3 99.4 126.3 99.4 126.3"/>
          <path class="cls-7" d="M99.6,126.4h0Z"/>
          <path class="cls-7" d="M99.5,126.2h-.2v-.2h.3Z"/>
          <path class="cls-7" d="M99.2,126.3Z"/>
          <path class="cls-7" d="M99.1,126.4h0v.2"/>
          <path class="cls-7" d="M98.9,126.5h0"/>
          <path class="cls-7" d="M98.8,126.9h0"/>
          <path class="cls-7" d="M98.8,127.1h0"/>
        </g>
        <path class="cls-7" d="M99,127.1s-.1-.8.3-.8.3.8.3.8Z"/>
        <path class="cls-7" d="M105.1,127.3h-3.4v-.8h.2l.4-2.5h0v-.5h.6v.2h.1v-.2h.9v.2h.3c0-.1,0-.2.1-.2h.6l-.3.7.3,2.5h.2v.8Zm-.8-.2h.6v-.3c-.1,0-.1-.2-.1-.3h-.2l-.3-2.6.2-.5h-.3c-.1.2-.1.2-.2.2h-.4v-.2h-.5v.2h-.5v-.2h-.3a2.3,2.3,0,0,0,.1.4h0l-.5,2.6h-.2v.7h2.5Z"/>
        <g>
          <path class="cls-7" d="M103.9,127.2h0"/>
          <path class="cls-7" d="M102.8,126.7h0"/>
          <polyline class="cls-7" points="102.8 126.6 102.8 126.6 102.8 126.6 102.8 126.6"/>
          <polygon class="cls-7" points="102.8 126.6 102.8 126.6 102.8 126.6 102.8 126.6"/>
          <path class="cls-7" d="M103.7,127h0"/>
          <polyline class="cls-7" points="103.6 126.7 103.6 126.7 103.6 126.7 103.6 126.7"/>
          <path class="cls-7" d="M103.7,126.6h0"/>
          <path class="cls-7" d="M103.7,126.9v-.2h0Z"/>
          <path class="cls-7" d="M103.8,126.5h-.2a.1.1,0,0,0,.1-.1h.1"/>
          <polygon class="cls-7" points="103.3 126.3 103.3 126.3 103.3 126.3 103.3 126.3 103.3 126.3"/>
          <polyline class="cls-7" points="103.5 126.3 103.5 126.3 103.5 126.3 103.5 126.3"/>
          <polygon class="cls-7" points="103.5 126.3 103.5 126.3 103.5 126.3 103.5 126.3"/>
          <path class="cls-7" d="M103.6,126.4h0Z"/>
          <path class="cls-7" d="M103.5,126.2h-.2v-.2h.2Z"/>
          <path class="cls-7" d="M103.3,126.3h0Z"/>
          <path class="cls-7" d="M103.2,126.4H103a.1.1,0,0,1-.1-.1h.2c0,.1.1.1.1.2"/>
          <path class="cls-7" d="M102.9,126.5h0"/>
          <path class="cls-7" d="M102.9,126.9h0"/>
          <path class="cls-7" d="M102.9,127.1h0"/>
        </g>
        <path class="cls-7" d="M103.1,127.1s-.1-.8.2-.8.3.8.3.8Z"/>
        <path class="cls-7" d="M101.1,131.6H97.6v-.8h.2l.4-2.4h0l-.2-.5h.7v.2H99v-.2h.9v.2h.9l-.2.7.3,2.5h.2v.9Zm-.9-.1h.7v-.6h-.2l-.3-2.5.2-.5h-.3c-.1.2-.1.2-.2.2h-.4v-.2h-.6v.2h-.4v-.2h-.3a.6.6,0,0,1,.1.4h.1l-.5,2.6h-.2v.6h2.4Z"/>
        <g>
          <path class="cls-7" d="M99.8,131.6h0"/>
          <path class="cls-7" d="M98.8,131.1h0"/>
          <polyline class="cls-7" points="98.8 131 98.8 131 98.8 131 98.8 131"/>
          <polygon class="cls-7" points="98.8 131 98.8 131 98.8 131 98.8 131"/>
          <path class="cls-7" d="M99.6,131.4h0"/>
          <polyline class="cls-7" points="99.6 131.1 99.6 131.1 99.6 131.1 99.6 131.1"/>
          <path class="cls-7" d="M99.6,130.9h0v-.2"/>
          <path class="cls-7" d="M99.6,131.3v-.2h0Z"/>
          <path class="cls-7" d="M99.8,130.9h0v.2"/>
          <polygon class="cls-7" points="99.3 130.7 99.3 130.7 99.3 130.7 99.3 130.7 99.3 130.7"/>
          <polyline class="cls-7" points="99.5 130.7 99.4 130.7 99.4 130.7 99.5 130.7"/>
          <polygon class="cls-7" points="99.4 130.7 99.4 130.7 99.4 130.7 99.4 130.7"/>
          <path class="cls-7" d="M99.6,130.8a.1.1,0,0,0-.1-.1h.1Z"/>
          <path class="cls-7" d="M99.5,130.6h-.2v-.2h.2Z"/>
          <path class="cls-7" d="M99.2,130.7h0Z"/>
          <path class="cls-7" d="M99.1,130.7h0"/>
          <path class="cls-7" d="M98.9,130.8h0"/>
          <path class="cls-7" d="M98.8,131.3h0"/>
          <path class="cls-7" d="M98.8,131.4h0"/>
        </g>
        <path class="cls-7" d="M99,131.5s-.1-.8.3-.8.3.8.3.8Z"/>
        <path class="cls-7" d="M102.3,128.8h.1v-.2h-.2v.2Z"/>
        <path class="cls-7" d="M101.8,131v-.2h0a.1.1,0,0,1-.1-.1h0v.2h.1Z"/>
        <path class="cls-7" d="M101.8,131h0Z"/>
        <polygon class="cls-7" points="101.6 132.5 101.6 132.4 97.1 132.4 97.1 132.5 101.6 132.5"/>
        <path class="cls-7" d="M102.9,132.4h0Z"/>
        <polygon class="cls-7" points="101.6 132.4 101.6 132.5 101.7 132.5 101.7 132.4 101.6 132.4"/>
        <path class="cls-7" d="M103,132.5h0Z"/>
        <path class="cls-7" d="M102.2,134.7h-.7v-.2h1.6c0,.1-.1.2-.8.2h-.1"/>
        <g>
          <polygon class="cls-7" points="103.3 134.7 103.3 134.5 103.2 134.5 101.5 134.5 101.3 134.7 101.3 134.9 101.3 134.9 102.9 134.9 103 134.9 103.3 134.7"/>
          <polygon class="cls-7" points="103 134.9 103 134.7 103.3 134.5 103.3 134.5 103 134.7 103 134.9 103 134.9"/>
          <path class="cls-7" d="M101.7,130.7a1.4,1.4,0,0,1-.5-.8,1.1,1.1,0,0,1,.3-.8.9.9,0,0,1,.7-.3v-.2l-.8.4a1.4,1.4,0,0,0-.3.9,1.1,1.1,0,0,0,.6,1v-.2Z"/>
          <path class="cls-7" d="M103.4,129.8a1.1,1.1,0,0,1-.5.9c-.1.1-.2.1-.5,0h-.6v.2h.5a.9.9,0,0,0,.7.1,1.3,1.3,0,0,0,.5-1.1,1.2,1.2,0,0,0-1.1-1.2v.2A.9.9,0,0,1,103.4,129.8Z"/>
          <path class="cls-7" d="M101.8,131.2h1.1v.3h.2v-.4h-1.3Z"/>
          <path class="cls-7" d="M101.7,131.6h0v-.4h-.1v1.3h.1Z"/>
          <path class="cls-7" d="M102.9,131.6v.8h.2v-.9Z"/>
          <path class="cls-7" d="M102.9,132.5v1.8h-1.2v-1.8h-.1v1.9h1.5v-1.8h-.2Z"/>
          <path class="cls-7" d="M101.7,131.6h0v-.4h.1V131h-.1v.4Z"/>
          <path class="cls-7" d="M102.9,131.5h0Z"/>
          <path class="cls-7" d="M101.7,131.1h-.1v-.2h0l.8-.2h.9v.2h-1.4Z"/>
          <path class="cls-7" d="M102,132.1v.3h0v-.2Zm1,.4-.6-.3c-.6-.2-.7-.4-.7-.4h-.1v.8h0l.7.4c.2.1.5.2.6.4h.1v-.9Zm-1-.1h0v.2h-.1v-.5h.1c.1,0,.1.1.1.2Zm.3.4h-.1v-.5h.1c-.1,0-.1,0-.1.1v.5h0v-.2h.1v.2Zm.3-.4h0v.5h-.2v-.5h.1v.5h.1v-.4Zm.2.7h-.1v-.2h0v.2h0v-.5h.1v.2h0v-.2h-.1a.4.4,0,0,1,.1.3v.2Z"/>
          <polygon class="cls-7" points="102.4 128.5 102.4 128.4 102.3 128.4 102.3 128.3 102.2 128.3 102.2 128.4 102.2 128.4 102.2 128.5 102.2 128.5 102.3 128.7 102.3 128.7 102.3 128.5 102.4 128.5"/>
          <rect class="cls-7" x="102.1" y="133.9" height="1.73" transform="translate(-32.8 236.7) rotate(-89.9)"/>
        </g>
        <path class="cls-7" d="M104,142.7h0"/>
        <g>
          <path class="cls-7" d="M101.8,134.5h0v.2h.2a.3.3,0,0,1,.1.2.8.8,0,0,1-.2.5c-.1.1,0,.2-.1.3v.2h.3a.3.3,0,0,0,.1.2v.2c-.1.1,0,.1.1.1v.2h.2v.2h.1c.1.1.2.1.2.3l.2.6h.1v.3h0c.1.4.1.4.3.6a.8.8,0,0,1,.2.6,1.8,1.8,0,0,1,.1.5h0s.2.1.2.2h.6c-.1.1,0,.1,0,.1s.1.1,0,.1h.2v.2h-.5c0,.1.1.1,0,.1h-.5v.2h-1.1v-.2a.4.4,0,0,1-.1.3v.2h0a.1.1,0,0,0-.1.1h0a.1.1,0,0,1-.1.1h-.3a.1.1,0,0,1-.1-.1h0a.1.1,0,0,0-.1-.1h0V142h-.1v-.4h0v-.4h0v.2h0v.3h0v.2h-.1v-.5h-.1v.4h-.1c-.1,0-.1-.1-.1-.2h0v.2h-.1l-.2.2c0-.1,0-.2.1-.2h-.1v-.2c.1,0,.1-.1.1-.2v-.5h0v-.2c-.1,0-.1-.1,0-.2v-.3a.3.3,0,0,1,.1-.2h-.1l-.3.3a3,3,0,0,1-.8.4l-.4.3H97.9v.2h0v-.2h-.2v-.2h-.2s-.1-.1,0-.1h.3v-.2h1.2c.1.2,0,.3,0,.3h.1c0,.2-.1.2-.2.3h0c.1,0,.1,0,.1.1h-.2v.2H99l.5-.5.6-.4.2-.3c0-.1,0-.2.1-.2h0c.1-.2.1-.3.2-.3v-.2h0a.4.4,0,0,1,.1-.3v-.8s0-.2.1-.2H101v-.2h0v-.2h0v-.2h-.4c-.1,0,.1,0,0-.1h0a.4.4,0,0,0,.2.3l.2.2h.1l-.2-.2h-.1l-.2-.3h0c0-.1-.1-.1-.2-.2s-.1-.3,0-.3h.3a.3.3,0,0,0-.1-.2h.4a.6.6,0,0,1,.1.4h0v-.4h.2v.4h0a.6.6,0,0,0,.1-.4h.2m.2,1.4h0m1.3,5.1h.3l-.3-.6-.2-.2c.1,0,.1.1,0,.2h0a1.7,1.7,0,0,1,.2.5v.2m-1.5-6.5h-.2v.2h-.1c0-.1,0-.1-.1-.2h-.7v.2h-.2a.1.1,0,0,0-.1-.1h-.1c-.1.1,0,.2,0,.3s.2.1.2.2h-.2c-.1,0-.1,0,0,.1h.2a.1.1,0,0,0,.1.1h.3c0,.1,0,.2.1.2a.3.3,0,0,0-.1.2h0v.2h0c-.1.1-.1.1-.1.2v.2h-.1v.5h-.1a.1.1,0,0,1-.1.1h0v.3h-.1c0,.1,0,.2-.1.2v.2H100l-.5.4c-.2.3-.4.5-.6.5h-.2l.2-.2h-.1v-.3H97.5v.2h-.3c0,.1,0,.1.1.1h-.1v.2h.2a.1.1,0,0,1,.1-.1h.4a.1.1,0,0,0,.1.1h1.1l.4-.2h.1l.7-.4.2-.2h.1a.1.1,0,0,0,0,.2v.2s.1.1,0,.1,0,.2,0,.3h0v.2h0v.2h.3c.1,0,.1-.2.1-.2h.1v.2h.3v-.3h1s.1,0,.1-.2h1.8a.1.1,0,0,0,.1-.1h.1c.1,0,.2,0,.2-.2h0c.1,0,.1-.1.1-.2h-.2c.1,0,.1-.1.1-.2h-.7c0-.2-.1-.2-.2-.3v-.4a1.3,1.3,0,0,0-.3-.7h0c-.1-.1-.1-.2-.2-.5h0a.4.4,0,0,0-.1-.3h0c-.1-.1-.1-.3-.2-.5s-.2-.3-.3-.3h0v-.2h-.1c0-.1,0-.2-.1-.2h-.1v-.2h0a.4.4,0,0,0-.1-.3H102v-.4h0a.4.4,0,0,0,.1-.5c0-.1,0-.3-.1-.3h-.3Zm1.4,5.8h0l.3.6h-.1a1.7,1.7,0,0,1-.2-.5h0m-.4,1.7Z"/>
          <path class="cls-7" d="M103.7,142.8v-.2h-1a.1.1,0,0,1-.1.1l-.2.2h-.4l-.2-.2a.1.1,0,0,1-.1-.1h-.1v.3h0v-.2h-.7l-.3.2v-.2h.1v-.2h0a.3.3,0,0,1,.1-.2h0q-.1-.3,0-.3h0v-.2a.3.3,0,0,1,.1-.2h-.3l-.7.5h-.1l-.4.3h-.6a.1.1,0,0,1-.1-.1h-.7a.1.1,0,0,1-.1-.1h0c-.1,0-.1,0-.1.1h-.3v-.2h0s-.1-.1,0-.1h.3v-.2h1.4v.2H99v.4h.1c.2,0,.4-.3.6-.5l.5-.4h.1v-.4h.1v-.2h0a.1.1,0,0,1,.1-.1h0a.4.4,0,0,1,.1-.3v-.2h.1v-.2h0s0-.2.1-.2h-.1v-.2h.1v-.4h-.7v-.2h.1a.4.4,0,0,1-.1-.3h.2c.1,0,.1,0,.1.1h.2v-.2h.7c.1.1.1.1.1.2h0v-.2h.5c.1,0,.2.2.2.3a.6.6,0,0,1-.2.5v.4a.1.1,0,0,0,.1.1h.2a.4.4,0,0,1,.1.3h0v.2h0c.1,0,.1.1.1.2h.1v.2h0v.2h0a.3.3,0,0,1,.3.3,1.1,1.1,0,0,1,.2.5h.1v.3h0c.1.3.1.4.2.5h0a1.3,1.3,0,0,1,.3.7c0,.2.1.3.1.4v.2h0a.1.1,0,0,1,.1.1h.7v.2h.1v.2h.1c0,.1-.1.1-.1.2h-.5c.1,0,0,.1,0,.1h-.6Zm.4-.2Zm-.2-.3h.1a.3.3,0,0,0-.1-.2h0v0h0v-.4a.9.9,0,0,0-.3-.6h0l-.2-.6h0c0-.1,0-.2-.1-.2h0l-.2-.6c0-.1-.1-.2-.3-.2h0a.1.1,0,0,1-.1-.1h-.3v-.2h0c0-.1,0-.2-.1-.2H102a.4.4,0,0,1-.1-.3h0v-.2c.1-.2.2-.3.2-.5v-.2h-.5v.3h-.1V135h-.3a.4.4,0,0,1,.1.3h-.1v-.4h-.3v.4h-.4c-.1,0-.1.1,0,.1l.2.2h.1l.2.2-.3-.2h0l.2.2.2.2h0c0,.1,0,.1.1.2h-.1v.2h0v.4h0c0,.1-.1.2,0,.2H101v.2h-.2c0,.1-.1.2-.1.3h0c0,.1,0,.1-.1.2h0v.2h-.1c0,.1-.1.1-.1.2v.2h-.1a1.1,1.1,0,0,0-.5.4c-.2.2-.4.5-.6.5h-.5v-.2h.2v-.2H97.6v.2h-.1v.2h.6l.2.2h.4l-.3.2H99l.5-.3h.1l.7-.5h.3v-.2h0c0,.1-.1.1,0,.2h0c0,.1.1.2,0,.3h-.1v.2h.4v-.2h.1v.2h.3v-.2h.1v-.2h.2v.2h0v.2h.2v0h.1v0h.2v0h0a.4.4,0,0,1,.1-.3V141h0a1.1,1.1,0,0,1,.1.5c0,.2-.1.3-.1.4h.2v0h1Zm-.4.1Zm.3,0Zm-1.4-.1Zm-1-.1Zm-.7-.4Zm.8,0h0Zm-1.1-.1h0Zm4.2-.5Zm.1-.1Zm-.1,0h0Zm-5.8-.3Zm.1-.1Zm0-.2h0Zm-.6-.2Zm-.4-.1Zm2.7-.1Zm-3.3-.3Zm0-.1Zm0-.1Zm0,0Zm0-.2Zm.8-.4Zm4-3.1Zm-1.4-.2h.3l-.2-.2v-.2h0Zm0-.2Zm0-.3h0Zm.1-.2Zm2.8,6.1h-.3a.8.8,0,0,0-.2-.4h.1v.2l.3.6h-.1Zm-.2-.3h.1l-.3-.6h0c0,.1.2.4.2.5Z"/>
        </g>
        <path class="cls-7" d="M103.7,141h-.2l-.3-.6V140l-.2-.4c0-.2,0-.3-.1-.3s-.1-.1-.1-.2h0a.2.2,0,0,1,0,.3c-.1.1-.2.3-.4.3l-.6.2-.6-.2H101c.1-.1,0-.2,0-.3a.5.5,0,0,0-.1-.3h-.1l-.2.3h-.1l-.2.2-.7.4h-.1l-.4.3h-.8v-.2h.6c.2,0,.4-.3.6-.5s.4-.4.5-.4h.1v-.2c0-.1.1-.2.2-.3v-.2h0l.2-.2a.5.5,0,0,1,.2-.4l.3-.2h.2c0-.1-.1-.1,0-.2h-.2l-.2.2-.2.3c-.1.2-.1.3-.2.3h0v.2l-.2.3c-.1,0-.1.1-.1.2H100l-.4.4c-.3.2-.5.5-.7.5H99l.4-.3h.1l.7-.4.2-.2h.1c0-.1.1-.2.2-.3h.2l.2.2h0v.3a.4.4,0,0,1,.1.3h1.1l.3-.3h0c0-.1-.1-.1-.1-.2h0c0-.1.1-.2,0-.4h.2a4.3,4.3,0,0,1,.1.5h.1l.2.4a.6.6,0,0,0,.1.4h.1l.3.6h.1a.4.4,0,0,0,.1-.3,1.3,1.3,0,0,0-.1-.5,1.4,1.4,0,0,0-.2-.6l-.3-.6a1.2,1.2,0,0,0-.1-.5.8.8,0,0,0-.2-.6.3.3,0,0,0-.3-.3h-.1q-.3-.1-.3-.3h-.1V137h.1v.2h.2l.2.2h.1a.5.5,0,0,1,.5.3c.1.3.1.6.2.6a2.8,2.8,0,0,0,.1.6c0,.3.1.3.2.5l.3.7v.5a1,1,0,0,1-.1.4Z"/>
        <path class="cls-7" d="M101.4,136.1h.4c-.1,0-.1,0-.1.1h-.1a.1.1,0,0,1-.1-.1h-.2a.1.1,0,0,1,.1-.1h0"/>
        <path class="cls-7" d="M101.6,136.1h.3a.1.1,0,0,0,.1.1h-.4"/>
        <path class="cls-7" d="M102,136.3h0"/>
        <path class="cls-7" d="M102.5,138.2h.1a.1.1,0,0,0-.1-.1h0"/>
        <path class="cls-7" d="M101.8,138.5h0c.1,0,.1,0,.1.1h0a.1.1,0,0,1-.1-.1h0"/>
        <path class="cls-7" d="M101.6,138.7a.1.1,0,0,1-.1.1h.1"/>
        <path class="cls-7" d="M100.9,138.6l-.3-.2h.1l.2.2Z"/>
        <path class="cls-7" d="M100.8,139.1l-.4-.3h.1c.1.2.4.2.4.2Z"/>
        <path class="cls-7" d="M103.2,138.4a.9.9,0,0,1-.6.2v.3h.6v-.3h-.1"/>
        <path class="cls-7" d="M102.9,139h-.2s0-.3-.1-.3h0l.7-.3v.4h0l-.3.2Zm-.1-.1h.5v-.3l-.5.2Zm.5-.5Z"/>
        <path class="cls-7" d="M101.7,139.8h0"/>
        <path class="cls-7" d="M101.7,139.8h0"/>
        <g>
          <path class="cls-7" d="M102.2,137.3a.1.1,0,0,1,.1-.1c0,.1.1.1,0,.1h-.1"/>
          <path class="cls-7" d="M102.2,137.4h0"/>
          <path class="cls-7" d="M102.1,137.4h0"/>
          <path class="cls-7" d="M102.1,137.5h0"/>
          <path class="cls-7" d="M102,137.6h0"/>
          <path class="cls-7" d="M101.7,137.6h0s.1.1,0,.1h0c-.1,0-.1-.1,0-.1"/>
          <path class="cls-7" d="M101.9,137.7h0c-.1,0-.1,0-.1-.1h.1"/>
          <path class="cls-7" d="M101.7,137.7h.1c-.1,0-.1,0-.1-.1"/>
          <path class="cls-7" d="M102,137.7h.1a.1.1,0,0,1-.1.1h0"/>
          <path class="cls-7" d="M101.5,137.7h.1c.1,0,0-.1,0-.1h-.1"/>
          <path class="cls-7" d="M101.5,137.6h0"/>
          <path class="cls-7" d="M101.4,137.6h0"/>
          <path class="cls-7" d="M101.4,137.5h0"/>
        </g>
        <path class="cls-7" d="M102.1,136.3h0"/>
        <path class="cls-7" d="M101.1,136.6h0"/>
        <path class="cls-7" d="M101.2,137h0"/>
        <path class="cls-7" d="M101.1,137h0"/>
        <path class="cls-7" d="M101.1,137.1h0"/>
        <path class="cls-7" d="M101,137.2h0"/>
        <path class="cls-7" d="M101,136.8h0"/>
        <path class="cls-7" d="M102.3,136.7h0"/>
        <path class="cls-7" d="M102.2,136.8h0"/>
        <path class="cls-7" d="M102.4,137h0"/>
        <path class="cls-7" d="M102.5,137.3h0"/>
        <path class="cls-7" d="M102.6,137.2h.1a.1.1,0,0,1-.1.1h0"/>
        <path class="cls-7" d="M101,139h0"/>
        <path class="cls-7" d="M100.8,139.6h-.1c.1,0,0,0,0-.1h.1s-.1,0,0-.1h0"/>
        <path class="cls-7" d="M100.8,139.3h0"/>
        <path class="cls-7" d="M101.5,136.9h0"/>
        <path class="cls-7" d="M101.6,136.8h0"/>
        <path class="cls-7" d="M101.5,137h0"/>
        <path class="cls-7" d="M101.5,137h0"/>
        <path class="cls-7" d="M101.6,136.5h0"/>
        <path class="cls-7" d="M101.4,136.5h0"/>
        <path class="cls-7" d="M101.4,136.5h0"/>
        <path class="cls-7" d="M101.3,136.6h0"/>
        <path class="cls-7" d="M101.3,136.6h0"/>
        <path class="cls-7" d="M103.3,141.2h0v-.2h0"/>
        <path class="cls-7" d="M103.1,141.5h0v-.2h0v.2Z"/>
        <path class="cls-7" d="M103.3,141.5h-.5v.2h.4c0-.2,0-.3.1-.3"/>
        <path class="cls-7" d="M103.5,141.4c0,.1.1.2-.1.2h-.2a.4.4,0,0,1,.1-.3h.2"/>
        <path class="cls-7" d="M101.7,136.6h0"/>
        <path class="cls-7" d="M101.7,136.6h0"/>
        <path class="cls-7" d="M101.6,136.6h0"/>
        <g>
          <path class="cls-7" d="M102.6,139.6h.2l-.2.3-.4.2h-1l-.2-.2c0-.1,0-.1.1-.1h.8l.6-.2h.1"/>
          <path class="cls-7" d="M101.7,140.1h-.5l-.2-.2h.9c.2,0,.5-.1.5-.2h.4l-.2.3-.4.2Zm-.7-.4h0l.2.2h1l.4-.2.2-.3h-.2a.3.3,0,0,0-.1.2h-1.3a.1.1,0,0,1-.1-.1Z"/>
        </g>
        <path class="cls-7" d="M101,138.6h.1a.1.1,0,0,0,.1-.1h0c0,.1,0,.1-.1.1H101"/>
        <path class="cls-7" d="M102.2,138.5h0"/>
        <g>
          <path class="cls-7" d="M102.7,139.4h0"/>
          <path class="cls-7" d="M102.7,139.5h0"/>
          <path class="cls-7" d="M102.7,139.5h0"/>
          <path class="cls-7" d="M102.6,139.6h0"/>
          <path class="cls-7" d="M102.5,139.7h0"/>
          <path class="cls-7" d="M102.4,139.8h0c0-.1.1-.1,0-.1h0"/>
          <path class="cls-7" d="M102.4,139.8h0"/>
          <path class="cls-7" d="M102.3,139.8h0"/>
          <path class="cls-7" d="M102.2,139.9h0"/>
          <path class="cls-7" d="M102.1,139.9h0"/>
          <path class="cls-7" d="M101.9,139.9h0"/>
          <path class="cls-7" d="M101.8,139.9h0"/>
          <path class="cls-7" d="M101.7,140h0"/>
          <path class="cls-7" d="M101.6,139.9h0"/>
          <path class="cls-7" d="M101.4,139.9h0"/>
          <path class="cls-7" d="M101.3,139.9h0"/>
          <path class="cls-7" d="M101.2,139.8h0"/>
          <path class="cls-7" d="M101.1,139.7h0"/>
        </g>
        <path class="cls-7" d="M107.5,122l-.3-.2h-.1v.3l2.2,3.9h.3a.1.1,0,0,1,.1-.1h0Zm2,3.9h-.2l-2.1-3.9v-.3h0l.3.2,2.1,3.7Z"/>
        <path class="cls-7" d="M109.3,132v.2h.1V132Zm-.3-.1h0v.3h0c.1,0,.1-.1.1-.2Zm.5-.4h0a1.1,1.1,0,0,1-.7.4c-.4.1-.6.3-.6.4h0v.8h0a1.3,1.3,0,0,1,.6-.5c.6-.1.7-.2.7-.4h0Zm-1,.7h0v.6h-.1v-.5h.1v.4h0v-.5h.1Zm.2.4h-.2v-.4h.1v.5h0v-.2h0Zm.2-.5h0V132h-.1v.5h0V132h-.1V132h.2Zm.3.3h-.1v-.2H109v.2h0V132h.1v.2h0v.2h.1Zm.2-.1h-.2v-.6h0v.5Z"/>
        <polygon class="cls-7" points="109.8 134.7 109.8 134.6 109.8 134.6 108.1 134.6 107.8 134.8 107.8 135 107.8 135 109.5 135 109.6 135 109.8 134.7"/>
        <polygon class="cls-7" points="109.6 135 109.6 134.8 109.8 134.6 109.8 134.5 109.5 134.8 109.5 135 109.6 135"/>
        <path class="cls-7" d="M112.5,124.5c-.1-.2-.8-.2-1.6-.1a4.9,4.9,0,0,0-1.7.6v.2a4.6,4.6,0,0,1,1.4-.5c.7-.2,1.5-.2,1.6,0a5.6,5.6,0,0,1-1.8,4.9l-.4.3v.4C112,128.9,113.2,126.1,112.5,124.5Z"/>
        <path class="cls-7" d="M108.2,130.8h.1a1,1,0,0,1-.5-.8,1.1,1.1,0,0,1,.3-.8.9.9,0,0,1,.7-.3h.1a.9.9,0,0,1,1,1h.2a1.2,1.2,0,0,0-1.1-1.2h-.2a1.2,1.2,0,0,0-.8.4,1.3,1.3,0,0,0-.4.9,1.2,1.2,0,0,0,.5.9h.1Z"/>
        <path class="cls-7" d="M109.5,130.8h-.4l-.5.2h.3a.9.9,0,0,0,.7.1l.5-.7h-.3Z"/>
        <path class="cls-7" d="M109.9,130c0,.2,0,.3-.1.4h.3v-.4Z"/>
        <path class="cls-7" d="M108.2,130.9h0Z"/>
        <path class="cls-7" d="M108.9,130.8h-.3l.5-.2Z"/>
        <path class="cls-7" d="M108.2,131.3h1.2v.2h.2v-.4h-1.4Z"/>
        <path class="cls-7" d="M109.4,131.2v3a1,1,0,0,1-1.1,0v-3h-.2v3.2h.1a1.1,1.1,0,0,0,.7.2,1.4,1.4,0,0,0,.7-.2h0v-3.2Z"/>
        <path class="cls-7" d="M108.2,131h0l.4-.2-.5.2h.1Z"/>
        <path class="cls-7" d="M108.9,130.8h.8v-.2h-.9Z"/>
        <path class="cls-7" d="M108.9,130.7h-.3l-.4.2h.7Z"/>
        <polygon class="cls-7" points="109 128.6 109 128.5 108.9 128.5 108.9 128.4 108.8 128.4 108.8 128.5 108.7 128.5 108.7 128.6 108.8 128.6 108.8 128.8 108.9 128.8 108.9 128.6 109 128.6"/>
        <rect class="cls-7" x="108.7" y="134" height="1.73" transform="translate(-26.3 243.3) rotate(-89.9)"/>
        <path class="cls-7" d="M108.2,134.5h-.1v.2h.8c.7,0,.8-.2.8-.2h-1.5"/>
        <path class="cls-7" d="M115.3,124.3h-.2l-3.2-3h-.2a5.2,5.2,0,0,1-2,.5,2,2,0,0,1-1.4-.5h-5.5v.2a2.4,2.4,0,0,1-1.1.3h-.3a6.4,6.4,0,0,1-1.6-.6h-.2l-3.6,3h0a1.9,1.9,0,0,1,.6.8,7.6,7.6,0,0,1,.2,2.6c-.1.8-.1,10.6-.1,11.1v.2a14.9,14.9,0,0,0,.1,1.9,4.2,4.2,0,0,0,.7,1.9l1,.8a5.3,5.3,0,0,0,1.8.4h1.7l1.8-.3.9.2a2,2,0,0,1,.8.8v0s.6-.9,1.3-1h.2l1.1.2a6,6,0,0,0,2,.3h.2a5.6,5.6,0,0,0,2.5-.5,1.8,1.8,0,0,0,.9-1,3.8,3.8,0,0,0,.5-1.7c0-2.3-.1-9.7-.1-12.4v-1.2a3.4,3.4,0,0,1,.9-2.7Zm-1.4,1.1a15.5,15.5,0,0,0-.2,2.6v4.7s.1,6.4.1,7.8-.2,2.1-1.4,2.6a6.8,6.8,0,0,1-3.4.2,7.2,7.2,0,0,0-2.2-.4,3.2,3.2,0,0,0-1.3.9v-7.9h0v7.8a3.4,3.4,0,0,0-1.4-.8,19.7,19.7,0,0,0-3.4.4,3.5,3.5,0,0,1-2.3-.5c-1.1-.6-1.4-1.9-1.4-3.3v-6.9h.1v-5.9A5.3,5.3,0,0,0,97,125a1.8,1.8,0,0,0-.6-.9l3.2-2.5s2,1,3.5,0h2.4v7.5h0v-7.5H108a4.5,4.5,0,0,0,3.7.1l2.9,2.6A7,7,0,0,0,113.9,125.4Z"/>
        <polygon class="cls-7" points="105.5 129 105.5 129 105.5 129 105.5 128.9 105.5 129"/>
        <path class="cls-7" d="M104.7,129.1v-.9l.2-.7h-.9v-.2H103v.2h-.2v-.2h-.6v.5h0v.4h.2v-.4h0c-.1-.1-.1-.3-.2-.4h.4v.2h.4v-.2h.6v.2h.4c.1,0,.1,0,.2-.2h.3l-.2.5v1h.2Z"/>
        <polygon class="cls-7" points="105.5 129 105.5 129 105.5 129 105.5 128.9 105.5 129"/>
        <path class="cls-7" d="M107,127.4a7,7,0,0,1,1.9-2s0-.2-.1-.2a6.3,6.3,0,0,0-2.3,2.5,5,5,0,0,0-.5,1.3h.3A3.6,3.6,0,0,1,107,127.4Z"/>
        <path class="cls-7" d="M108,131h-.1v.2h.1Z"/>
        <path class="cls-7" d="M105.6,128.9h-.1l-.8.2v.2a2,2,0,0,1,.8-.2h.1Zm-.1.1Z"/>
        <path class="cls-7" d="M107.9,132.2a3.7,3.7,0,0,1-.8,2.5,2.3,2.3,0,0,1-1.6.8,2.1,2.1,0,0,1-1.5-.8,3.4,3.4,0,0,1-.8-3.1h0a4.6,4.6,0,0,1,.3-.9,3.6,3.6,0,0,1,1-1.3h0a2.6,2.6,0,0,0-1.2,1.3,4.8,4.8,0,0,0-.3,2.4,4,4,0,0,0,.8,2,2.8,2.8,0,0,0,1.7.7,2.5,2.5,0,0,0,1.7-.8,3.8,3.8,0,0,0,.8-1.7,4.4,4.4,0,0,0,.1-.9,4.5,4.5,0,0,0-.1-.8c0-.1-.1-.1-.1-.2h-.1A6.7,6.7,0,0,1,107.9,132.2Z"/>
        <path class="cls-7" d="M107.2,129.9a2.7,2.7,0,0,1,.5,1.1h.2a3.4,3.4,0,0,0-.6-1.2,2,2,0,0,0-1-.7h-.1A3,3,0,0,1,107.2,129.9Z"/>
        <path class="cls-7" d="M107.7,131v.2h.1V131Z"/>
        <path class="cls-7" d="M106.3,129.1h0Z"/>
        <path class="cls-7" d="M103.1,131.5h0Z"/>
        <path class="cls-7" d="M104.7,129.3v-.2h0Z"/>
        <g>
          <path class="cls-7" d="M103.9,133.2h-.1a.4.4,0,0,1,.1-.3h0"/>
          <path class="cls-7" d="M104.3,133.3h0Zm-.4.2Zm.6-.2Zm0,0Zm.1,0Zm.4-1.4Zm.1,0h0Zm-.2.8v-.2c.1,0,0-.1,0-.2a.1.1,0,0,0-.1-.1V132h0v.2h.1c-.1,0-.1.1-.1.2v.3h0Zm-.2.5h0Zm1.5-1.8H105c-.2.1-.2.2-.2.3s0,.2-.1.2h.1v-.2h-.1c-.1,0-.1.1-.1.2h0c0-.1.1-.1.1-.2h.1c-.1-.1-.1-.1-.1-.2h.1c.1,0,0-.1,0-.1h0c0-.1,0-.1-.1-.1h.2a.3.3,0,0,0,.1-.2h.1c-.1,0-.1.1,0,.1h0v-.2h.4v-.2h.5A.1.1,0,0,0,106.2,131.4Zm-1.1-.1H105a.1.1,0,0,1-.1.1h.2Zm.6,0Zm.4.2Zm-.8-.1h0Zm-.7,1.8h0Zm1.5-1.9Zm-.6.1Zm-1.3,1.9h0Zm1.3-1.9Zm-1,1.8h.2v.5c0,.1-.1.1-.1.2h-.4l-.2.2v.2h.3l.2-.2h.2Zm-.5,0Zm.4-.2Zm.3-1h0Z"/>
          <path class="cls-7" d="M106.8,133.2h-.4c.1,0,.1,0,.1.1h0c.1,0,.1,0,.1-.1h.2C106.9,133.3,106.8,133.3,106.8,133.2Zm-.2-.1h0Zm-.3,0h0a.1.1,0,0,0-.1-.1h0s.1,0,0-.1h-.3a.1.1,0,0,1-.1-.1h.5Zm0,0Zm-.3-.5Zm-.1,0h0Zm.1-.1Zm.4.3Zm-.2-.2Zm-.2,0h0Zm.4.6Zm.2.1Zm-.2-.1h0Zm-.5-.5Zm.1-.2h0Z"/>
          <g>
            <path class="cls-7" d="M105.5,129.8Z"/>
            <path class="cls-7" d="M105.9,130.3h0"/>
            <path class="cls-7" d="M106.2,130.6H106a.1.1,0,0,1-.1-.1h.4v.2h0c0,.1,0,.2-.1.2h0c0-.1,0-.2-.1-.2"/>
            <path class="cls-7" d="M106.1,131h0"/>
            <polyline class="cls-7" points="106 130.9 106 130.9 106 130.9 106 130.9"/>
            <path class="cls-7" d="M106.1,130.9h0"/>
            <path class="cls-7" d="M106.1,130.9h0"/>
            <path class="cls-7" d="M106.1,131h0"/>
            <path class="cls-7" d="M106.1,130.9h0"/>
            <path class="cls-7" d="M106.2,130.9h0"/>
            <path class="cls-7" d="M106.2,130.9h0"/>
            <path class="cls-7" d="M106.3,130.8h0"/>
            <path class="cls-7" d="M106,130.8h-.1v-.2h.1v.2"/>
            <polyline class="cls-7" points="106 130.8 106 130.8 106 130.8 106 130.8"/>
            <polygon class="cls-7" points="106 130.8 106 130.8 106 130.8 106 130.8"/>
            <path class="cls-7" d="M105.7,130.9h0"/>
            <path class="cls-7" d="M105.8,130.9h0"/>
            <path class="cls-7" d="M105.7,130.8h0"/>
            <path class="cls-7" d="M105.7,130.9h0"/>
            <path class="cls-7" d="M105.8,130.8h0"/>
            <path class="cls-7" d="M105.8,130.8h0"/>
            <path class="cls-7" d="M105.8,130.7h0"/>
            <path class="cls-7" d="M105.3,130.9h0"/>
            <path class="cls-7" d="M105.3,130.8h0"/>
            <path class="cls-7" d="M105.3,130.9h0"/>
            <path class="cls-7" d="M105.3,130.9h0"/>
            <path class="cls-7" d="M105.4,130.9h0"/>
            <path class="cls-7" d="M105.4,130.9h0"/>
            <path class="cls-7" d="M105.4,130.8h0"/>
            <path class="cls-7" d="M105.4,130.7h0"/>
            <path class="cls-7" d="M105.4,130.4h0"/>
            <path class="cls-7" d="M105.4,130.4h0"/>
            <path class="cls-7" d="M105.4,130.5h0"/>
            <path class="cls-7" d="M105.3,130.5h0"/>
            <path class="cls-7" d="M105.3,130.6h0"/>
            <path class="cls-7" d="M105.8,130.5h0"/>
            <path class="cls-7" d="M105.7,130.5h0"/>
            <path class="cls-7" d="M105.8,130.6h0"/>
            <path class="cls-7" d="M105.9,130.6h0"/>
            <path class="cls-7" d="M105.8,130.6h0"/>
            <path class="cls-7" d="M105.7,130.5h-.1a.1.1,0,0,1,.1.1h0"/>
            <path class="cls-7" d="M105.5,130.7h0"/>
            <path class="cls-7" d="M105.2,130.6h-.1c0-.1,0-.1-.1-.1h.2"/>
            <path class="cls-7" d="M105.5,130.5h.2v.2h-.1"/>
            <path class="cls-7" d="M106.3,130.7h0"/>
            <path class="cls-7" d="M106.3,130.7h-.1a.1.1,0,0,1-.1-.1h.2"/>
            <path class="cls-7" d="M106.3,130.7h0"/>
            <path class="cls-7" d="M106.2,130.6h0"/>
            <path class="cls-7" d="M106.1,130.5h0"/>
            <path class="cls-7" d="M106,130.5h0"/>
            <path class="cls-7" d="M105.4,130.2h.1a.1.1,0,0,1-.1.1h0"/>
            <path class="cls-7" d="M105.2,130.3h-.4c.1-.2.1-.3.3-.4h.1"/>
            <path class="cls-7" d="M104.9,130.9h0"/>
            <path class="cls-7" d="M105,130.9h0"/>
            <polyline class="cls-7" points="105 130.9 105 130.9 105 130.9 105 130.9"/>
            <path class="cls-7" d="M104.9,131h0"/>
            <path class="cls-7" d="M104.9,131h0"/>
            <path class="cls-7" d="M105,130.8h0"/>
            <path class="cls-7" d="M105,130.8h0"/>
            <path class="cls-7" d="M104.9,130.6Z"/>
            <path class="cls-7" d="M105,130.6h0"/>
            <path class="cls-7" d="M104.9,130.7h0"/>
            <polyline class="cls-7" points="105 130.6 105 130.6 105 130.6 105 130.6"/>
            <path class="cls-7" d="M104.9,130.7h0c-.1,0-.1,0-.1.1h.1"/>
            <path class="cls-7" d="M104.8,131h.3v-.2h1.3l-.2.2H105l-.2-.2h0"/>
            <path class="cls-7" d="M106.1,131.3h0Z"/>
            <path class="cls-7" d="M105.9,131h0m0-.1h0"/>
            <path class="cls-7" d="M105.5,131h0m0,0h0"/>
            <path class="cls-7" d="M105.1,131.1h0m.1-.1h0"/>
          </g>
          <path class="cls-7" d="M105.5,135.5h0Zm-2-1.5Zm3.9.1h-.1c-.2-.1-.2-.2-.3-.3h0v-.2h-.5a.1.1,0,0,0,.1.1H106a.1.1,0,0,0,.1.1h.4a.1.1,0,0,0-.1-.1H106a.1.1,0,0,1-.1.1h.3c0,.1,0,.1.1.1H106v.3h0a.4.4,0,0,0-.1-.3h-.5l.2-.2h.2v-.2h0a.1.1,0,0,1-.1-.1h0v.2c0,.2,0,.3-.1.4h-.2l-.2-.2-.3-.3c0-.1,0-.2-.1-.2h0l.2.2h.2v.2H105v.2h-.1V134h0a.1.1,0,0,0,.1-.1h-.3a.1.1,0,0,1-.1.1h0a.1.1,0,0,1,.1-.1h-.7l-.2.2h-.2a.8.8,0,0,0-.2.4c0,.2.1.3.2.5h.1l.2.3a2.1,2.1,0,0,0,1,.6.3.3,0,0,0,.1-.2.8.8,0,0,1,.1-.4v-.4a.4.4,0,0,1,.1-.3v-.5h.1l.2.3c0,.2.1.3.1.6v.9a2.4,2.4,0,0,0,1.1-.6h-.2v.2h.1c.1,0,.1,0,.1-.1l.5-.6Z"/>
          <g>
            <path class="cls-7" d="M105.8,132.5h0"/>
            <path class="cls-7" d="M105.7,132.5h0"/>
            <path class="cls-7" d="M105.1,132.2h0"/>
            <path class="cls-7" d="M105,132h0"/>
            <path class="cls-7" d="M106.1,131.9h0"/>
            <path class="cls-7" d="M105.8,131.8v.2c.1,0,.1.2.1.2h-.1a.1.1,0,0,1-.1-.1h.2v-.4Z"/>
            <path class="cls-7" d="M106,132h0"/>
            <path class="cls-7" d="M105.9,131.9s-.1.1,0,.1h0"/>
            <path class="cls-7" d="M105.2,131.8h0"/>
            <path class="cls-7" d="M105.4,131.9h0c.1,0,.1.1,0,.1h0"/>
            <path class="cls-7" d="M105.5,132h.1c0,.1-.1.1,0,.1h-.1"/>
            <path class="cls-7" d="M105.3,131.9h0Z"/>
            <path class="cls-7" d="M106,132Z"/>
            <path class="cls-7" d="M105.7,132.3h0"/>
            <path class="cls-7" d="M105.3,131.9h0"/>
          </g>
        </g>
      </g>
    </g>
  </g>
</svg>
